<svg width="140" height="70" viewBox="0 0 140 70" fill="none" xmlns="http://www.w3.org/2000/svg">
<rect y="5.10352" width="5.95745" height="29.1667" rx="2.97872" fill="#00CDA8"/>
<rect x="104.255" y="5.10352" width="5.95745" height="29.1667" rx="2.97872" fill="#00CDA8"/>
<rect x="74.4681" y="12.3965" width="5.95745" height="16.7708" rx="2.97872" fill="#00CDA8"/>
<rect x="89.3617" y="13.8535" width="5.95745" height="24.0625" rx="2.97872" fill="#00CDA8"/>
<rect x="14.8936" width="5.95745" height="17.5" rx="2.97872" fill="#00CDA8"/>
<rect x="119.149" width="5.95745" height="17.5" rx="2.97872" fill="#00CDA8"/>
<rect x="44.6808" width="5.95745" height="17.5" rx="2.97872" fill="#8558D3"/>
<rect x="59.5745" y="8.02148" width="5.95745" height="21.1458" rx="2.97872" fill="#00CDA8"/>
<rect x="29.7872" y="3.64648" width="5.95745" height="23.3333" rx="2.97872" fill="#00CDA8"/>
<rect x="134.043" y="3.64648" width="5.95745" height="23.3333" rx="2.97872" fill="#00CDA8"/>
<rect y="40.1035" width="5.95745" height="20.4167" rx="2.97872" fill="#8558D3"/>
<rect x="104.255" y="40.1035" width="5.95745" height="20.4167" rx="2.97872" fill="#8558D3"/>
<rect x="74.4681" y="35" width="5.95745" height="20.4167" rx="2.97872" fill="#8558D3"/>
<rect x="89.3617" y="43.75" width="5.95745" height="11.6667" rx="2.97872" fill="#8558D3"/>
<rect x="14.8936" y="23.334" width="5.95745" height="46.6667" rx="2.97872" fill="#8558D3"/>
<rect x="119.149" y="23.334" width="5.95745" height="46.6667" rx="2.97872" fill="#8558D3"/>
<rect x="44.6808" y="23.334" width="5.95745" height="46.6667" rx="2.97872" fill="#8558D3"/>
<rect x="59.5745" y="35" width="5.95745" height="25.5208" rx="2.97872" fill="#00CDA8"/>
<rect x="29.7872" y="32.8125" width="5.95745" height="29.1667" rx="2.97872" fill="#8558D3"/>
<rect x="134.043" y="32.8125" width="5.95745" height="29.1667" rx="2.97872" fill="#8558D3"/>
</svg>
