<svg width="32" height="32" viewBox="0 0 32 32" fill="none" xmlns="http://www.w3.org/2000/svg">
<circle cx="16" cy="16" r="16" fill="#2A8373"/>
<path fill-rule="evenodd" clip-rule="evenodd" d="M7.87602 16.4198L9.5766 18.1363C9.74829 18.3096 9.95285 18.4295 10.1701 18.4961L10.1393 18.5273C9.33344 19.3406 8.91783 20.3947 8.89641 21.4436C8.52877 21.2963 8.18569 21.0736 7.88999 20.7751C6.7221 19.5963 6.72511 17.6714 7.87602 16.4198ZM7.20622 15.7344C5.74851 14.0925 5.76195 11.6086 7.27569 10.0807C7.79527 9.5563 8.42643 9.21027 9.09715 9.04146C9.26439 8.36447 9.60721 7.72741 10.1268 7.20296C11.6953 5.61981 14.2806 5.6625 15.9013 7.29832L15.9052 7.30234C17.5299 5.74432 20.0567 5.72841 21.5996 7.28575C22.1192 7.81019 22.462 8.44726 22.6293 9.12425C23.3 9.29305 23.9312 9.63908 24.4507 10.1635C25.9924 11.7196 25.9779 14.267 24.4382 15.9071C25.8959 17.549 25.8825 20.0329 24.3687 21.5608C23.8492 22.0852 23.218 22.4312 22.5473 22.6C22.38 23.277 22.0372 23.9141 21.5176 24.4385C19.9491 26.0217 17.3638 25.979 15.7432 24.3432L15.7392 24.3392C14.1145 25.8972 11.5877 25.9131 10.0448 24.3557C9.5252 23.8313 9.18238 23.1942 9.01514 22.5172C8.34442 22.3484 7.71326 22.0024 7.19368 21.478C5.65207 19.9219 5.66651 17.3744 7.20622 15.7344ZM7.88052 15.0516C6.8076 13.7992 6.83094 11.9353 7.972 10.7836C8.2677 10.4851 8.61078 10.2624 8.97842 10.1151C8.99982 11.1631 9.41469 12.2162 10.2191 13.0292C9.95349 13.0836 9.70041 13.2147 9.49459 13.4224L7.88052 15.0516ZM8.55195 15.738L10.1703 14.1045C10.3565 13.9165 10.6587 13.9169 10.8453 14.1052L12.5449 15.8207L10.9273 17.4535C10.7407 17.6418 10.4385 17.6422 10.2523 17.4542L8.55195 15.738ZM13.2191 16.5013L11.8463 17.8869C12.2852 17.9309 12.7084 18.1197 13.0402 18.4546C13.4572 18.8755 13.6456 19.442 13.6079 20.0026L15.148 18.4482L13.2191 16.5013ZM13.8933 15.8207L15.8222 13.8738L17.7511 15.8208L15.8222 17.7677L13.8933 15.8207ZM15.148 13.1933L13.2191 15.1402L11.7739 13.6814C12.267 13.6701 12.7515 13.4782 13.1221 13.1042C13.497 12.7258 13.6871 12.2297 13.6943 11.726L15.148 13.1933ZM16.4964 13.1933L18.4253 15.1402L19.7981 13.7546C19.3592 13.7106 18.936 13.5218 18.6042 13.1868C18.1872 12.766 17.9988 12.1995 18.0365 11.6388L16.4964 13.1933ZM18.5212 10.4273C18.5501 10.3925 18.5802 10.3583 18.6116 10.3249L18.6112 10.3245L18.6293 10.3063C18.6365 10.2988 18.6439 10.2913 18.6512 10.2838L18.6595 10.2755L18.6647 10.2704L18.6763 10.2589C19.4821 9.44552 20.5264 9.02603 21.5656 9.00441C21.4197 8.63333 21.199 8.28704 20.9033 7.98858C19.7326 6.80693 17.8192 6.81282 16.5795 7.98286L18.1077 9.5254C18.3569 9.77688 18.4947 10.0983 18.5212 10.4273ZM15.9042 8.66542L17.432 10.2074C17.6181 10.3954 17.6178 10.7004 17.4312 10.8887L15.8222 12.5128L14.2952 10.9715C14.1086 10.7832 14.1083 10.4782 14.2945 10.2902L15.9042 8.66542ZM15.2303 7.98152L15.2274 7.97852C13.9913 6.73086 12.0194 6.6983 10.8231 7.90579C10.5274 8.20425 10.3068 8.55054 10.1608 8.92162C11.2 8.94324 12.2443 9.36274 13.0502 10.1761L13.1152 10.2417L13.1147 10.2423C13.1529 10.283 13.1893 10.3248 13.2238 10.3676C13.2741 10.0893 13.4057 9.8232 13.6187 9.60818L15.2303 7.98152ZM10.9075 12.3619L10.9066 12.3628L10.8952 12.3512C10.2231 11.6729 9.90691 10.775 9.95053 9.90283C10.8147 9.8588 11.7042 10.178 12.3763 10.8563L12.3877 10.8679L12.3867 10.8689C12.3912 10.8733 12.3957 10.8778 12.4002 10.8823C12.8223 11.3084 12.8334 11.9881 12.4248 12.4004C12.0163 12.8128 11.3429 12.8017 10.9208 12.3756C10.9163 12.3711 10.9119 12.3665 10.9075 12.3619ZM16.4964 18.4482L18.4253 16.5013L19.8706 17.9601C19.3774 17.9714 18.8929 18.1632 18.5223 18.5373C18.1475 18.9157 17.9573 19.4117 17.9501 19.9155L16.4964 18.4482ZM22.666 21.5264C22.6446 20.4784 22.2297 19.4253 21.4254 18.6123C21.6909 18.5579 21.944 18.4268 22.1498 18.2191L23.7639 16.5899C24.8368 17.8423 24.8135 19.7062 23.6724 20.8579C23.3767 21.1564 23.0336 21.3791 22.666 21.5264ZM21.4741 17.537L23.0925 15.9035L21.3921 14.1873C21.2059 13.9993 20.9037 13.9997 20.7171 14.188L19.0995 15.8208L20.7991 17.5363C20.9857 17.7246 21.2879 17.7249 21.4741 17.537ZM23.7544 10.8664C24.9223 12.0452 24.9193 13.9701 23.7684 15.2217L22.0678 13.5052C21.8961 13.3319 21.6916 13.212 21.4743 13.1454L21.5052 13.1142C22.311 12.3009 22.7266 11.2468 22.748 10.1979C23.1157 10.3452 23.4587 10.5679 23.7544 10.8664ZM18.0257 22.0333C18.2387 21.8183 18.3703 21.5522 18.4206 21.2739C18.4551 21.3167 18.4915 21.3585 18.5298 21.3992L18.5292 21.3998L18.5943 21.4654C19.4001 22.2788 20.4444 22.6983 21.4836 22.7199C21.3377 23.091 21.117 23.4372 20.8213 23.7357C19.625 24.9432 17.6532 24.9106 16.4171 23.663L16.4141 23.66L18.0257 22.0333ZM17.35 21.3512L15.7402 22.9761L14.2125 21.434C14.0263 21.2461 14.0266 20.9411 14.2132 20.7528L15.8222 19.1287L17.3492 20.67C17.5358 20.8583 17.5361 21.1633 17.35 21.3512ZM13.0328 21.3166C13.0642 21.2832 13.0944 21.249 13.1232 21.2142C13.1498 21.5432 13.2876 21.8646 13.5367 22.1161L15.065 23.6586C13.8252 24.8287 11.9118 24.8345 10.7411 23.6529C10.4454 23.3544 10.2248 23.0082 10.0788 22.6371C11.118 22.6155 12.1623 22.196 12.9681 21.3826L12.9797 21.3711C12.9842 21.3667 12.9887 21.3622 12.9932 21.3576C13.0006 21.3502 13.0079 21.3427 13.0151 21.3352L13.0332 21.317L13.0328 21.3166ZM19.3396 10.9515L19.3387 10.9507L19.3502 10.9391C20.0222 10.2607 20.9118 9.94158 21.7759 9.98561C21.8195 10.8578 21.5033 11.7557 20.8313 12.434L20.8198 12.4456L20.8188 12.4446L20.8135 12.45C20.8108 12.4528 20.8082 12.4555 20.8055 12.4582C20.3834 12.8843 19.71 12.8954 19.3015 12.4831C18.8929 12.0707 18.9039 11.391 19.3261 10.965C19.3285 10.9626 19.3309 10.9601 19.3333 10.9578L19.3396 10.9515ZM12.3048 20.6899L12.3057 20.6908L12.2942 20.7024C11.6222 21.3807 10.7327 21.6999 9.86852 21.6559C9.8249 20.7836 10.1411 19.8858 10.8131 19.2075L10.8246 19.1959L10.8257 19.1969C10.83 19.1923 10.8345 19.1878 10.839 19.1833C11.2611 18.7572 11.9344 18.7461 12.343 19.1584C12.7515 19.5708 12.7405 20.2505 12.3184 20.6765L12.3162 20.6787C12.3144 20.6805 12.3127 20.6822 12.311 20.6839L12.3048 20.6899ZM20.7378 19.2787L20.7369 19.2796C20.7325 19.275 20.7281 19.2704 20.7236 19.2659C20.3015 18.8398 19.6281 18.8287 19.2196 19.2411C18.8111 19.6534 18.8221 20.3331 19.2442 20.7592C19.2464 20.7614 19.2487 20.7637 19.2509 20.7659C19.2532 20.7681 19.2555 20.7704 19.2577 20.7726L19.2567 20.7736L19.2682 20.7852C19.9402 21.4635 20.8298 21.7827 21.6939 21.7387C21.7375 20.8664 21.4213 19.9686 20.7493 19.2903L20.7378 19.2787Z" fill="white"/>
</svg>
