<svg width="600" height="400" viewBox="0 0 600 400" fill="none" xmlns="http://www.w3.org/2000/svg">
<path fill-rule="evenodd" clip-rule="evenodd" d="M192.005 208.263L215.221 231.465C217.565 233.807 220.358 235.428 223.324 236.328L222.903 236.749C211.902 247.743 206.228 261.991 205.935 276.17C200.916 274.178 196.233 271.168 192.196 267.134C176.252 251.2 176.293 225.181 192.005 208.263ZM182.861 198.999C162.96 176.805 163.144 143.231 183.809 122.578C190.903 115.489 199.519 110.812 208.676 108.53C210.959 99.3796 215.639 90.7684 222.733 83.6796C244.146 62.2801 279.441 62.8572 301.566 84.9685L301.621 85.0229C323.801 63.9633 358.297 63.7482 379.361 84.7987C386.454 91.8875 391.135 100.499 393.418 109.65C402.575 111.931 411.191 116.608 418.285 123.697C439.331 144.73 439.134 179.164 418.113 201.332C438.014 223.527 437.831 257.101 417.165 277.753C410.071 284.842 401.455 289.519 392.298 291.801C390.015 300.952 385.335 309.563 378.241 316.652C356.828 338.051 321.533 337.474 299.408 315.363L299.353 315.308C277.173 336.368 242.677 336.583 221.613 315.533C214.52 308.444 209.839 299.833 207.556 290.682C198.4 288.4 189.783 283.723 182.69 276.634C161.643 255.601 161.841 221.167 182.861 198.999ZM192.066 189.769C177.419 172.841 177.737 147.646 193.315 132.078C197.352 128.044 202.036 125.034 207.055 123.043C207.347 137.208 213.011 151.443 223.992 162.433C220.367 163.168 216.912 164.939 214.102 167.747L192.066 189.769ZM201.233 199.047L223.327 176.967C225.869 174.427 229.994 174.431 232.542 176.977L255.745 200.166L233.661 222.235C231.114 224.781 226.988 224.786 224.447 222.245L201.233 199.047ZM264.95 209.364L246.208 228.094C252.2 228.688 257.977 231.241 262.507 235.768C268.2 241.457 270.772 249.114 270.258 256.692L291.283 235.681L264.95 209.364ZM274.154 200.166L300.487 173.849L326.82 200.166L300.487 226.482L274.154 200.166ZM291.283 164.651L264.95 190.967L245.219 171.249C251.951 171.095 258.566 168.502 263.625 163.446C268.743 158.332 271.338 151.626 271.436 144.817L291.283 164.651ZM309.691 164.651L336.025 190.967L354.766 172.237C348.774 171.643 342.997 169.09 338.467 164.563C332.774 158.874 330.202 151.217 330.717 143.639L309.691 164.651ZM337.334 127.263C337.728 126.792 338.139 126.33 338.568 125.879L338.563 125.874L338.809 125.628C338.908 125.526 339.008 125.424 339.109 125.324C339.17 125.263 339.232 125.202 339.293 125.141L339.451 124.986C350.452 113.992 364.709 108.322 378.896 108.03C376.904 103.014 373.892 98.333 369.855 94.2987C353.872 78.3265 327.751 78.4061 310.825 94.2214L331.689 115.072C335.09 118.471 336.972 122.815 337.334 127.263ZM301.607 103.448L322.464 124.291C325.005 126.831 325.001 130.954 322.453 133.5L300.487 155.452L279.641 134.619C277.093 132.073 277.089 127.95 279.63 125.41L301.607 103.448ZM292.407 94.2033L292.366 94.1627C275.491 77.2982 248.571 76.858 232.239 93.1797C228.202 97.214 225.19 101.895 223.197 106.911C237.385 107.203 251.642 112.873 262.643 123.867L263.531 124.755L263.523 124.762C264.046 125.312 264.543 125.877 265.013 126.456C265.7 122.694 267.497 119.097 270.405 116.191L292.407 94.2033ZM233.391 153.413L233.379 153.425L233.223 153.268C224.048 144.099 219.731 131.963 220.326 120.173C232.124 119.578 244.268 123.892 253.443 133.061L253.599 133.218L253.585 133.232C253.647 133.292 253.709 133.352 253.77 133.413C259.533 139.173 259.683 148.36 254.106 153.933C248.528 159.507 239.335 159.357 233.573 153.598C233.512 153.536 233.451 153.475 233.391 153.413ZM309.692 235.681L336.025 209.364L355.756 229.083C349.023 229.236 342.408 231.829 337.349 236.885C332.232 241.999 329.636 248.705 329.538 255.514L309.692 235.681ZM393.919 277.289C393.627 263.123 387.963 248.889 376.982 237.899C380.607 237.163 384.062 235.392 386.872 232.584L408.908 210.563C423.555 227.491 423.237 252.685 407.659 268.253C403.622 272.287 398.938 275.298 393.919 277.289ZM377.647 223.365L399.741 201.285L376.527 178.086C373.986 175.546 369.86 175.55 367.313 178.096L345.229 200.166L368.432 223.354C370.98 225.9 375.105 225.905 377.647 223.365ZM408.778 133.197C424.723 149.131 424.682 175.15 408.969 192.068L385.753 168.867C383.409 166.524 380.616 164.903 377.65 164.003L378.071 163.582C389.072 152.588 394.746 138.34 395.039 124.162C400.058 126.153 404.742 129.163 408.778 133.197ZM330.569 284.14C333.477 281.234 335.274 277.637 335.961 273.875C336.432 274.454 336.928 275.02 337.451 275.57L337.443 275.577L338.331 276.464C349.332 287.458 363.589 293.129 377.777 293.421C375.784 298.437 372.772 303.117 368.735 307.152C352.403 323.473 325.483 323.033 308.608 306.169L308.567 306.128L330.569 284.14ZM321.344 274.921L299.367 296.884L278.511 276.04C275.969 273.5 275.973 269.377 278.521 266.831L300.487 244.879L321.334 265.712C323.881 268.258 323.886 272.381 321.344 274.921ZM262.406 274.453C262.835 274.001 263.246 273.539 263.64 273.068C264.003 277.516 265.884 281.86 269.285 285.26L290.149 306.11C273.223 321.925 247.102 322.005 231.119 306.033C227.082 301.998 224.07 297.317 222.078 292.302C236.265 292.009 250.522 286.339 261.523 275.345L261.681 275.19C261.743 275.129 261.804 275.069 261.865 275.008C261.966 274.907 262.066 274.806 262.165 274.704L262.411 274.458L262.406 274.453ZM348.507 134.349L348.495 134.337L348.651 134.18C357.826 125.011 369.97 120.697 381.767 121.293C382.363 133.082 378.046 145.219 368.871 154.388L368.715 154.544L368.7 154.53L368.595 154.638L368.519 154.715C362.756 160.474 353.563 160.624 347.986 155.05C342.409 149.477 342.559 140.289 348.322 134.53C348.383 134.469 348.445 134.409 348.507 134.349ZM252.468 265.982L252.48 265.994L252.323 266.151C243.148 275.32 231.004 279.634 219.207 279.039C218.611 267.249 222.928 255.113 232.103 245.944L232.26 245.787L232.274 245.801L232.376 245.697L232.455 245.617C238.218 239.858 247.411 239.707 252.988 245.281C258.565 250.855 258.415 260.042 252.652 265.801C252.591 265.862 252.53 265.922 252.468 265.982ZM367.595 246.906L367.583 246.918C367.523 246.856 367.463 246.795 367.401 246.734C361.639 240.975 352.446 240.824 346.868 246.398C341.291 251.972 341.442 261.159 347.204 266.918C347.266 266.979 347.327 267.039 347.389 267.099L347.375 267.113L347.532 267.27C356.706 276.439 368.85 280.753 380.648 280.158C381.243 268.368 376.926 256.232 367.752 247.063L367.595 246.906Z" fill="#0D3931"/>
<g filter="url(#filter0_b)">
<rect width="600" height="400" rx="8" fill="url(#paint0_radial)" fill-opacity="0.2"/>
<rect x="0.5" y="0.5" width="599" height="399" rx="7.5" stroke="url(#paint1_radial)"/>
<rect x="0.5" y="0.5" width="599" height="399" rx="7.5" stroke="url(#paint2_radial)"/>
</g>
<defs>
<filter id="filter0_b" x="-20" y="-20" width="640" height="440" filterUnits="userSpaceOnUse" color-interpolation-filters="sRGB">
<feFlood flood-opacity="0" result="BackgroundImageFix"/>
<feGaussianBlur in="BackgroundImage" stdDeviation="10"/>
<feComposite in2="SourceAlpha" operator="in" result="effect1_backgroundBlur"/>
<feBlend mode="normal" in="SourceGraphic" in2="effect1_backgroundBlur" result="shape"/>
</filter>
<radialGradient id="paint0_radial" cx="0" cy="0" r="1" gradientUnits="userSpaceOnUse" gradientTransform="translate(91.9166 84.1649) rotate(33.491) scale(648.629 646.823)">
<stop stop-color="#6FB8C8"/>
<stop offset="0.770833" stop-color="#6EBFF4" stop-opacity="0.223958"/>
<stop offset="1" stop-color="#4690D5" stop-opacity="0"/>
</radialGradient>
<radialGradient id="paint1_radial" cx="0" cy="0" r="1" gradientUnits="userSpaceOnUse" gradientTransform="translate(-82.5293 -49.4578) rotate(31.1537) scale(563.541 987.877)">
<stop stop-color="#98F9FF"/>
<stop offset="1" stop-color="white" stop-opacity="0"/>
</radialGradient>
<radialGradient id="paint2_radial" cx="0" cy="0" r="1" gradientUnits="userSpaceOnUse" gradientTransform="translate(649.674 450.325) rotate(-144.502) scale(555.859 961.055)">
<stop stop-color="#EABFFF"/>
<stop offset="1" stop-color="#8726B7" stop-opacity="0"/>
</radialGradient>
</defs>
</svg>
