<svg width="400" height="180" viewBox="0 0 400 180" fill="none" xmlns="http://www.w3.org/2000/svg">
<path fill-rule="evenodd" clip-rule="evenodd" d="M134.986 95.2199L148.9 109.978C150.304 111.468 151.978 112.499 153.756 113.072L153.503 113.34C146.91 120.333 143.51 129.396 143.334 138.415C140.326 137.148 137.519 135.233 135.1 132.667C125.545 122.532 125.569 105.981 134.986 95.2199ZM129.506 89.3271C117.579 75.2095 117.689 53.8535 130.074 40.7167C134.325 36.2075 139.489 33.2324 144.977 31.781C146.345 25.9603 149.15 20.4828 153.401 15.9736C166.234 2.36165 187.387 2.72871 200.647 16.7935L200.679 16.8281C213.972 3.43229 234.646 3.29549 247.27 16.6855C251.521 21.1946 254.326 26.6721 255.694 32.4928C261.182 33.9442 266.346 36.9194 270.597 41.4285C283.21 54.8072 283.092 76.7106 270.494 90.8114C282.421 104.929 282.311 126.285 269.926 139.422C265.675 143.931 260.511 146.906 255.023 148.358C253.655 154.178 250.85 159.656 246.599 164.165C233.766 177.777 212.613 177.41 199.353 163.345L199.321 163.31C186.028 176.706 165.354 176.843 152.73 163.453C148.479 158.944 145.674 153.466 144.306 147.646C138.818 146.194 133.654 143.219 129.403 138.71C116.79 125.331 116.908 103.428 129.506 89.3271ZM135.023 83.4559C126.244 72.6881 126.435 56.6622 135.771 46.7596C138.19 44.1934 140.997 42.2786 144.005 41.012C144.18 50.0225 147.575 59.0771 154.156 66.0677C151.983 66.5354 149.913 67.6622 148.229 69.4484L135.023 83.4559ZM140.516 89.3574L153.757 75.3126C155.281 73.6969 157.753 73.6998 159.28 75.3192L173.186 90.0692L159.951 104.107C158.424 105.727 155.952 105.73 154.428 104.114L140.516 89.3574ZM178.702 95.9203L167.47 107.834C171.061 108.212 174.524 109.836 177.238 112.716C180.65 116.334 182.191 121.205 181.883 126.025L194.484 112.66L178.702 95.9203ZM184.218 90.0692L200 73.3297L215.782 90.0693L200 106.809L184.218 90.0692ZM194.484 67.4786L178.702 84.218L166.877 71.6755C170.912 71.5777 174.876 69.9284 177.908 66.7125C180.975 63.4592 182.531 59.1938 182.59 54.8627L194.484 67.4786ZM205.516 67.4786L221.298 84.2182L232.53 72.3043C228.939 71.9261 225.476 70.3026 222.762 67.4229C219.35 63.8044 217.809 58.9337 218.117 54.1132L205.516 67.4786ZM222.083 43.6966C222.319 43.3969 222.565 43.1032 222.822 42.816L222.819 42.8128L222.967 42.6563C223.026 42.5915 223.086 42.5271 223.147 42.463C223.183 42.4241 223.22 42.3855 223.257 42.3471L223.352 42.2484C229.945 35.2552 238.489 31.6483 246.991 31.4625C245.797 28.2719 243.992 25.2945 241.573 22.7284C231.994 12.5686 216.339 12.6192 206.196 22.6792L218.699 35.9419C220.738 38.1042 221.865 40.8675 222.083 43.6966ZM200.671 28.5478L213.171 41.8061C214.694 43.4219 214.691 46.0445 213.165 47.6638L200 61.6274L187.507 48.3757C185.98 46.7563 185.977 44.1337 187.5 42.518L200.671 28.5478ZM195.157 22.6677L195.133 22.6418C185.019 11.9145 168.886 11.6345 159.098 22.0165C156.679 24.5827 154.874 27.5601 153.68 30.7506C162.182 30.9365 170.726 34.5433 177.32 41.5365L177.852 42.101L177.847 42.1055C178.16 42.4554 178.458 42.815 178.74 43.1833C179.152 40.7904 180.229 38.5024 181.972 36.6537L195.157 22.6677ZM159.789 60.3304L159.782 60.338L159.688 60.2384C154.189 54.4061 151.602 46.6863 151.959 39.187C159.029 38.8084 166.307 41.5526 171.806 47.3849L171.9 47.4845L171.891 47.4935C171.928 47.5315 171.965 47.57 172.002 47.6089C175.456 51.2722 175.546 57.1159 172.203 60.6613C168.861 64.2067 163.351 64.1111 159.898 60.4478C159.861 60.4089 159.825 60.3698 159.789 60.3304ZM205.516 112.66L221.298 95.9204L233.123 108.463C229.088 108.561 225.124 110.21 222.092 113.426C219.025 116.679 217.469 120.945 217.41 125.276L205.516 112.66ZM255.995 139.127C255.82 130.116 252.425 121.061 245.844 114.071C248.017 113.603 250.087 112.476 251.771 110.69L264.977 96.6826C273.756 107.45 273.565 123.476 264.229 133.379C261.81 135.945 259.003 137.86 255.995 139.127ZM246.243 104.826L259.484 90.7811L245.572 76.0246C244.048 74.4088 241.576 74.4118 240.049 76.0311L226.814 90.0693L240.72 104.819C242.247 106.439 244.719 106.442 246.243 104.826ZM264.9 47.4714C274.456 57.6069 274.431 74.1571 265.014 84.9186L251.1 70.1603C249.696 68.6703 248.022 67.6392 246.244 67.0667L246.497 66.7986C253.09 59.8054 256.49 50.7426 256.666 41.7238C259.674 42.9904 262.481 44.9052 264.9 47.4714ZM218.028 143.485C219.771 141.636 220.848 139.348 221.26 136.955C221.542 137.324 221.839 137.683 222.153 138.033L222.148 138.038L222.68 138.602C229.273 145.595 237.818 149.202 246.32 149.388C245.126 152.578 243.321 155.556 240.902 158.122C231.114 168.504 214.98 168.224 204.867 157.497L204.843 157.471L218.028 143.485ZM212.5 137.62L199.329 151.591L186.829 138.332C185.306 136.717 185.309 134.094 186.835 132.475L200 118.511L212.493 131.763C214.02 133.382 214.023 136.005 212.5 137.62ZM177.178 137.322C177.435 137.035 177.681 136.742 177.917 136.442C178.134 139.271 179.262 142.034 181.301 144.197L193.804 157.459C183.661 167.519 168.006 167.57 158.427 157.41C156.008 154.844 154.203 151.867 153.009 148.676C161.511 148.49 170.055 144.883 176.648 137.89L176.743 137.791C176.78 137.753 176.817 137.714 176.853 137.675C176.914 137.611 176.974 137.547 177.033 137.482L177.181 137.326L177.178 137.322ZM228.778 48.2039L228.771 48.1963L228.865 48.0967C234.364 42.2644 241.642 39.5203 248.712 39.8988C249.069 47.3982 246.482 55.1179 240.983 60.9503L240.889 61.0499L240.881 61.0409L240.818 61.1096L240.772 61.1582C237.318 64.8215 231.809 64.9172 228.467 61.3718C225.124 57.8264 225.214 51.9826 228.668 48.3193C228.704 48.2804 228.741 48.242 228.778 48.2039ZM171.222 131.935L171.229 131.942L171.135 132.042C165.636 137.874 158.358 140.618 151.288 140.24C150.931 132.74 153.518 125.021 159.017 119.188L159.111 119.089L159.119 119.098L159.18 119.031L159.228 118.98C162.682 115.317 168.191 115.221 171.533 118.767C174.876 122.312 174.786 128.156 171.332 131.819C171.296 131.858 171.259 131.896 171.222 131.935ZM240.218 119.801L240.211 119.808C240.175 119.769 240.139 119.73 240.102 119.691C236.649 116.027 231.139 115.932 227.797 119.477C224.454 123.023 224.544 128.866 227.998 132.53C228.035 132.569 228.072 132.607 228.109 132.645L228.1 132.654L228.194 132.754C233.693 138.586 240.971 141.33 248.041 140.952C248.398 133.452 245.811 125.732 240.312 119.9L240.218 119.801Z" fill="#0D3931"/>
<g filter="url(#filter0_b)">
<rect width="400" height="180" rx="8" fill="url(#paint0_radial)" fill-opacity="0.2"/>
<rect x="0.5" y="0.5" width="399" height="179" rx="7.5" stroke="url(#paint1_radial)"/>
<rect x="0.5" y="0.5" width="399" height="179" rx="7.5" stroke="url(#paint2_radial)"/>
</g>
<defs>
<filter id="filter0_b" x="-20" y="-20" width="440" height="220" filterUnits="userSpaceOnUse" color-interpolation-filters="sRGB">
<feFlood flood-opacity="0" result="BackgroundImageFix"/>
<feGaussianBlur in="BackgroundImage" stdDeviation="10"/>
<feComposite in2="SourceAlpha" operator="in" result="effect1_backgroundBlur"/>
<feBlend mode="normal" in="SourceGraphic" in2="effect1_backgroundBlur" result="shape"/>
</filter>
<radialGradient id="paint0_radial" cx="0" cy="0" r="1" gradientUnits="userSpaceOnUse" gradientTransform="translate(61.2777 37.8742) rotate(24.0665) scale(394.959 318.677)">
<stop stop-color="#6FB8C8"/>
<stop offset="0.770833" stop-color="#6EBFF4" stop-opacity="0.223958"/>
<stop offset="1" stop-color="#4690D5" stop-opacity="0"/>
</radialGradient>
<radialGradient id="paint1_radial" cx="0" cy="0" r="1" gradientUnits="userSpaceOnUse" gradientTransform="translate(-55.0195 -22.256) rotate(22.1979) scale(347.249 480.96)">
<stop stop-color="#98F9FF"/>
<stop offset="1" stop-color="white" stop-opacity="0"/>
</radialGradient>
<radialGradient id="paint2_radial" cx="0" cy="0" r="1" gradientUnits="userSpaceOnUse" gradientTransform="translate(433.116 202.646) rotate(-154.292) scale(334.839 478.628)">
<stop stop-color="#EABFFF"/>
<stop offset="1" stop-color="#8726B7" stop-opacity="0"/>
</radialGradient>
</defs>
</svg>
