<svg width="400" height="220" viewBox="0 0 400 220" fill="none" xmlns="http://www.w3.org/2000/svg">
<path fill-rule="evenodd" clip-rule="evenodd" d="M134.986 115.22L148.9 129.978C150.304 131.468 151.978 132.499 153.756 133.072L153.503 133.34C146.91 140.333 143.51 149.396 143.334 158.415C140.326 157.148 137.519 155.233 135.1 152.667C125.545 142.532 125.569 125.981 134.986 115.22ZM129.506 109.327C117.579 95.2095 117.689 73.8535 130.074 60.7167C134.325 56.2075 139.489 53.2324 144.977 51.781C146.345 45.9603 149.15 40.4828 153.401 35.9736C166.234 22.3616 187.387 22.7287 200.647 36.7935L200.679 36.8281C213.972 23.4323 234.646 23.2955 247.27 36.6855C251.521 41.1946 254.326 46.6721 255.694 52.4928C261.182 53.9442 266.346 56.9194 270.597 61.4285C283.21 74.8072 283.092 96.7106 270.494 110.811C282.421 124.929 282.311 146.285 269.926 159.422C265.675 163.931 260.511 166.906 255.023 168.358C253.655 174.178 250.85 179.656 246.599 184.165C233.766 197.777 212.613 197.41 199.353 183.345L199.321 183.31C186.028 196.706 165.354 196.843 152.73 183.453C148.479 178.944 145.674 173.466 144.306 167.646C138.818 166.194 133.654 163.219 129.403 158.71C116.79 145.331 116.908 123.428 129.506 109.327ZM135.023 103.456C126.244 92.6881 126.435 76.6622 135.771 66.7596C138.19 64.1934 140.997 62.2786 144.005 61.012C144.18 70.0225 147.575 79.0771 154.156 86.0677C151.983 86.5354 149.913 87.6622 148.229 89.4484L135.023 103.456ZM140.516 109.357L153.757 95.3126C155.281 93.6969 157.753 93.6998 159.28 95.3192L173.186 110.069L159.951 124.107C158.424 125.727 155.952 125.73 154.428 124.114L140.516 109.357ZM178.702 115.92L167.47 127.834C171.061 128.212 174.524 129.836 177.238 132.716C180.65 136.334 182.191 141.205 181.883 146.025L194.484 132.66L178.702 115.92ZM184.218 110.069L200 93.3297L215.782 110.069L200 126.809L184.218 110.069ZM194.484 87.4786L178.702 104.218L166.877 91.6755C170.912 91.5777 174.876 89.9284 177.908 86.7125C180.975 83.4592 182.531 79.1938 182.59 74.8627L194.484 87.4786ZM205.516 87.4786L221.298 104.218L232.53 92.3043C228.939 91.9261 225.476 90.3026 222.762 87.4229C219.35 83.8044 217.809 78.9337 218.117 74.1132L205.516 87.4786ZM222.083 63.6966C222.319 63.3969 222.565 63.1032 222.822 62.816L222.819 62.8128L222.967 62.6563C223.026 62.5915 223.086 62.5271 223.147 62.463C223.183 62.4241 223.22 62.3855 223.257 62.3471L223.352 62.2484C229.945 55.2552 238.489 51.6483 246.991 51.4625C245.797 48.2719 243.992 45.2945 241.573 42.7284C231.994 32.5686 216.339 32.6192 206.196 42.6792L218.699 55.9419C220.738 58.1042 221.865 60.8675 222.083 63.6966ZM200.671 48.5478L213.171 61.8061C214.694 63.4219 214.691 66.0445 213.165 67.6638L200 81.6274L187.507 68.3757C185.98 66.7563 185.977 64.1337 187.5 62.518L200.671 48.5478ZM195.157 42.6677L195.133 42.6418C185.019 31.9145 168.886 31.6345 159.098 42.0165C156.679 44.5827 154.874 47.5601 153.68 50.7506C162.182 50.9365 170.726 54.5433 177.32 61.5365L177.852 62.101L177.847 62.1055C178.16 62.4554 178.458 62.815 178.74 63.1833C179.152 60.7904 180.229 58.5024 181.972 56.6537L195.157 42.6677ZM159.789 80.3304L159.782 80.338L159.688 80.2384C154.189 74.4061 151.602 66.6863 151.959 59.187C159.029 58.8084 166.307 61.5526 171.806 67.3849L171.9 67.4845L171.891 67.4935C171.928 67.5315 171.965 67.57 172.002 67.6089C175.456 71.2722 175.546 77.1159 172.203 80.6613C168.861 84.2067 163.351 84.1111 159.898 80.4478C159.861 80.4089 159.825 80.3698 159.789 80.3304ZM205.516 132.66L221.298 115.92L233.123 128.463C229.088 128.561 225.124 130.21 222.092 133.426C219.025 136.679 217.469 140.945 217.41 145.276L205.516 132.66ZM255.995 159.127C255.82 150.116 252.425 141.061 245.844 134.071C248.017 133.603 250.087 132.476 251.771 130.69L264.977 116.683C273.756 127.45 273.565 143.476 264.229 153.379C261.81 155.945 259.003 157.86 255.995 159.127ZM246.243 124.826L259.484 110.781L245.572 96.0246C244.048 94.4088 241.576 94.4118 240.049 96.0311L226.814 110.069L240.72 124.819C242.247 126.439 244.719 126.442 246.243 124.826ZM264.9 67.4714C274.456 77.6069 274.431 94.1571 265.014 104.919L251.1 90.1603C249.696 88.6703 248.022 87.6392 246.244 87.0667L246.497 86.7986C253.09 79.8054 256.49 70.7426 256.666 61.7238C259.674 62.9904 262.481 64.9052 264.9 67.4714ZM218.028 163.485C219.771 161.636 220.848 159.348 221.26 156.955C221.542 157.324 221.839 157.683 222.153 158.033L222.148 158.038L222.68 158.602C229.273 165.595 237.818 169.202 246.32 169.388C245.126 172.578 243.321 175.556 240.902 178.122C231.114 188.504 214.98 188.224 204.867 177.497L204.843 177.471L218.028 163.485ZM212.5 157.62L199.329 171.591L186.829 158.332C185.306 156.717 185.309 154.094 186.835 152.475L200 138.511L212.493 151.763C214.02 153.382 214.023 156.005 212.5 157.62ZM177.178 157.322C177.435 157.035 177.681 156.742 177.917 156.442C178.134 159.271 179.262 162.034 181.301 164.197L193.804 177.459C183.661 187.519 168.006 187.57 158.427 177.41C156.008 174.844 154.203 171.867 153.009 168.676C161.511 168.49 170.055 164.883 176.648 157.89L176.743 157.791C176.78 157.753 176.817 157.714 176.853 157.675C176.914 157.611 176.974 157.547 177.033 157.482L177.181 157.326L177.178 157.322ZM228.778 68.2039L228.771 68.1963L228.865 68.0967C234.364 62.2644 241.642 59.5203 248.712 59.8988C249.069 67.3982 246.482 75.1179 240.983 80.9503L240.889 81.0499L240.881 81.0409L240.818 81.1096L240.772 81.1582C237.318 84.8215 231.809 84.9172 228.467 81.3718C225.124 77.8264 225.214 71.9826 228.668 68.3193C228.704 68.2804 228.741 68.242 228.778 68.2039ZM171.222 151.935L171.229 151.942L171.135 152.042C165.636 157.874 158.358 160.618 151.288 160.24C150.931 152.74 153.518 145.021 159.017 139.188L159.111 139.089L159.119 139.098L159.18 139.031L159.228 138.98C162.682 135.317 168.191 135.221 171.533 138.767C174.876 142.312 174.786 148.156 171.332 151.819C171.296 151.858 171.259 151.896 171.222 151.935ZM240.218 139.801L240.211 139.808C240.175 139.769 240.139 139.73 240.102 139.691C236.649 136.027 231.139 135.932 227.797 139.477C224.454 143.023 224.544 148.866 227.998 152.53C228.035 152.569 228.072 152.607 228.109 152.645L228.1 152.654L228.194 152.754C233.693 158.586 240.971 161.33 248.041 160.952C248.398 153.452 245.811 145.732 240.312 139.9L240.218 139.801Z" fill="#0D3931"/>
<g filter="url(#filter0_b)">
<rect width="400" height="220" rx="8" fill="url(#paint0_radial)" fill-opacity="0.2"/>
<rect x="0.5" y="0.5" width="399" height="219" rx="7.5" stroke="url(#paint1_radial)"/>
<rect x="0.5" y="0.5" width="399" height="219" rx="7.5" stroke="url(#paint2_radial)"/>
</g>
<defs>
<filter id="filter0_b" x="-20" y="-20" width="440" height="260" filterUnits="userSpaceOnUse" color-interpolation-filters="sRGB">
<feFlood flood-opacity="0" result="BackgroundImageFix"/>
<feGaussianBlur in="BackgroundImage" stdDeviation="10"/>
<feComposite in2="SourceAlpha" operator="in" result="effect1_backgroundBlur"/>
<feBlend mode="normal" in="SourceGraphic" in2="effect1_backgroundBlur" result="shape"/>
</filter>
<radialGradient id="paint0_radial" cx="0" cy="0" r="1" gradientUnits="userSpaceOnUse" gradientTransform="translate(61.2777 46.2907) rotate(28.6288) scale(410.856 374.424)">
<stop stop-color="#6FB8C8"/>
<stop offset="0.770833" stop-color="#6EBFF4" stop-opacity="0.223958"/>
<stop offset="1" stop-color="#4690D5" stop-opacity="0"/>
</radialGradient>
<radialGradient id="paint1_radial" cx="0" cy="0" r="1" gradientUnits="userSpaceOnUse" gradientTransform="translate(-55.0195 -27.2018) rotate(26.5067) scale(359.279 568.156)">
<stop stop-color="#98F9FF"/>
<stop offset="1" stop-color="white" stop-opacity="0"/>
</radialGradient>
<radialGradient id="paint2_radial" cx="0" cy="0" r="1" gradientUnits="userSpaceOnUse" gradientTransform="translate(433.116 247.679) rotate(-149.526) scale(350.051 559.568)">
<stop stop-color="#EABFFF"/>
<stop offset="1" stop-color="#8726B7" stop-opacity="0"/>
</radialGradient>
</defs>
</svg>
