<svg width="250" height="80" viewBox="0 0 250 80" fill="none" xmlns="http://www.w3.org/2000/svg">
<rect width="250" height="80" rx="40" fill="#2D2D2D"/>
<path d="M88 26.6665V53.3332" stroke="#FCF20E" stroke-width="1.5" stroke-linecap="round" stroke-linejoin="round"/>
<path d="M81.332 35V45" stroke="#FCF20E" stroke-width="1.5" stroke-linecap="round" stroke-linejoin="round"/>
<path d="M101.332 36.6665V43.3332" stroke="#FCF20E" stroke-width="1.5" stroke-linecap="round" stroke-linejoin="round"/>
<path d="M74.666 36.6665V43.3332" stroke="#FCF20E" stroke-width="1.5" stroke-linecap="round" stroke-linejoin="round"/>
<path d="M94.666 31.6665V48.3332" stroke="#FCF20E" stroke-width="1.5" stroke-linecap="round" stroke-linejoin="round"/>
<path d="M128 26.6665V53.3332" stroke="#FCF20E" stroke-width="1.5" stroke-linecap="round" stroke-linejoin="round"/>
<path d="M121.332 35V45" stroke="#FCF20E" stroke-width="1.5" stroke-linecap="round" stroke-linejoin="round"/>
<path d="M141.332 36.6665V43.3332" stroke="#FCF20E" stroke-width="1.5" stroke-linecap="round" stroke-linejoin="round"/>
<path d="M114.666 36.6665V43.3332" stroke="#FCF20E" stroke-width="1.5" stroke-linecap="round" stroke-linejoin="round"/>
<path d="M134.666 31.6665V48.3332" stroke="#FCF20E" stroke-width="1.5" stroke-linecap="round" stroke-linejoin="round"/>
<path d="M168 26.6665V53.3332" stroke="#FCF20E" stroke-width="1.5" stroke-linecap="round" stroke-linejoin="round"/>
<path d="M161.332 35V45" stroke="#FCF20E" stroke-width="1.5" stroke-linecap="round" stroke-linejoin="round"/>
<path d="M181.332 36.6665V43.3332" stroke="#FCF20E" stroke-width="1.5" stroke-linecap="round" stroke-linejoin="round"/>
<path d="M154.666 36.6665V43.3332" stroke="#FCF20E" stroke-width="1.5" stroke-linecap="round" stroke-linejoin="round"/>
<path d="M174.666 31.6665V48.3332" stroke="#FCF20E" stroke-width="1.5" stroke-linecap="round" stroke-linejoin="round"/>
<path d="M208 26.6665V53.3332" stroke="#FCF20E" stroke-width="1.5" stroke-linecap="round" stroke-linejoin="round"/>
<path d="M201.332 35V45" stroke="#FCF20E" stroke-width="1.5" stroke-linecap="round" stroke-linejoin="round"/>
<path d="M221.332 36.6665V43.3332" stroke="#FCF20E" stroke-width="1.5" stroke-linecap="round" stroke-linejoin="round"/>
<path d="M194.666 36.6665V43.3332" stroke="#FCF20E" stroke-width="1.5" stroke-linecap="round" stroke-linejoin="round"/>
<path d="M214.666 31.6665V48.3332" stroke="#FCF20E" stroke-width="1.5" stroke-linecap="round" stroke-linejoin="round"/>
<path d="M40 22.5C30.3359 22.5 22.5 30.3359 22.5 40C22.5 49.6641 30.3359 57.5 40 57.5C49.6641 57.5 57.5 49.6641 57.5 40C57.5 30.3359 49.6641 22.5 40 22.5ZM40 54.5312C31.9766 54.5312 25.4688 48.0234 25.4688 40C25.4688 31.9766 31.9766 25.4688 40 25.4688C48.0234 25.4688 54.5312 31.9766 54.5312 40C54.5312 48.0234 48.0234 54.5312 40 54.5312Z" fill="#FCF20E"/>
<path d="M48.1016 39.4962L36.5352 31.0977C36.4424 31.0297 36.3326 30.9888 36.2179 30.9796C36.1033 30.9703 35.9883 30.9931 35.8858 31.0453C35.7834 31.0976 35.6974 31.1772 35.6376 31.2755C35.5777 31.3737 35.5463 31.4866 35.5469 31.6016V48.3985C35.5469 48.9102 36.125 49.1993 36.5352 48.9024L48.1016 40.504C48.1814 40.4464 48.2465 40.3707 48.2913 40.2831C48.3362 40.1955 48.3596 40.0985 48.3596 40.0001C48.3596 39.9016 48.3362 39.8046 48.2913 39.717C48.2465 39.6294 48.1814 39.5537 48.1016 39.4962ZM38.0391 44.7305V35.2696L44.5508 40.0001L38.0391 44.7305Z" fill="#FCF20E"/>
</svg>
