<svg width="40" height="26" viewBox="0 0 40 26" fill="none" xmlns="http://www.w3.org/2000/svg">
<path fill-rule="evenodd" clip-rule="evenodd" d="M0 5.5C0 4.17392 0.526784 2.90215 1.46447 1.96447C2.40215 1.02678 3.67392 0.5 5 0.5H23.75C24.9627 0.499857 26.1342 0.940482 27.0462 1.73982C27.9582 2.53916 28.5486 3.64272 28.7075 4.845L36.4825 1.39C36.8631 1.22043 37.28 1.14866 37.6953 1.18121C38.1107 1.21377 38.5113 1.34962 38.8608 1.57641C39.2103 1.8032 39.4976 2.11374 39.6966 2.47981C39.8955 2.84588 39.9998 3.25586 40 3.6725V22.3275C39.9996 22.7438 39.8953 23.1534 39.6965 23.5192C39.4977 23.885 39.2107 24.1953 38.8615 24.422C38.5124 24.6488 38.1121 24.7847 37.6971 24.8175C37.2821 24.8504 36.8655 24.779 36.485 24.61L28.7075 21.155C28.5486 22.3573 27.9582 23.4608 27.0462 24.2602C26.1342 25.0595 24.9627 25.5001 23.75 25.5H5C3.67392 25.5 2.40215 24.9732 1.46447 24.0355C0.526784 23.0979 0 21.8261 0 20.5V5.5Z" fill="#7F60FA"/>
</svg>
