<svg width="24" height="18" viewBox="0 0 24 18" fill="none" xmlns="http://www.w3.org/2000/svg">
<path d="M23.5006 3.50695C23.3647 3.02219 23.1 2.5833 22.7346 2.23695C22.3589 1.87996 21.8984 1.62459 21.3966 1.49495C19.5186 0.999954 11.9946 0.999954 11.9946 0.999954C8.85795 0.964267 5.72205 1.12123 2.60462 1.46995C2.10281 1.60917 1.64318 1.87024 1.26662 2.22995C0.896617 2.58595 0.628617 3.02495 0.488617 3.50595C0.15231 5.3177 -0.0110908 7.1573 0.000617183 8.99995C-0.0113828 10.841 0.151617 12.68 0.488617 14.494C0.625617 14.973 0.892617 15.41 1.26362 15.763C1.63462 16.116 2.09662 16.371 2.60462 16.506C4.50762 17 11.9946 17 11.9946 17C15.1353 17.0357 18.2752 16.8787 21.3966 16.53C21.8984 16.4003 22.3589 16.145 22.7346 15.788C23.1046 15.435 23.3676 14.996 23.4996 14.518C23.8447 12.7069 24.0125 10.8665 24.0006 9.02295C24.0266 7.17156 23.859 5.32252 23.5006 3.50595V3.50695ZM9.60262 12.424V5.57695L15.8626 9.00095L9.60262 12.424Z" fill="black"/>
</svg>
