<svg width="14" height="15" viewBox="0 0 14 15" fill="none" xmlns="http://www.w3.org/2000/svg">
<path d="M13.3535 9.6465L12 8.293V6.5C11.9984 5.26092 11.5375 4.06642 10.7063 3.14749C9.87512 2.22856 8.73271 1.65047 7.5 1.525V0.5H6.5V1.525C5.26729 1.65047 4.12488 2.22856 3.29368 3.14749C2.46249 4.06642 2.00155 5.26092 2 6.5V8.293L0.6465 9.6465C0.552725 9.74025 0.500028 9.8674 0.5 10V11.5C0.5 11.6326 0.552678 11.7598 0.646447 11.8536C0.740215 11.9473 0.867392 12 1 12H4.5V12.5C4.5 13.163 4.76339 13.7989 5.23223 14.2678C5.70107 14.7366 6.33696 15 7 15C7.66304 15 8.29893 14.7366 8.76777 14.2678C9.23661 13.7989 9.5 13.163 9.5 12.5V12H13C13.1326 12 13.2598 11.9473 13.3536 11.8536C13.4473 11.7598 13.5 11.6326 13.5 11.5V10C13.5 9.8674 13.4473 9.74025 13.3535 9.6465ZM8.5 12.5C8.5 12.8978 8.34196 13.2794 8.06066 13.5607C7.77936 13.842 7.39782 14 7 14C6.60218 14 6.22064 13.842 5.93934 13.5607C5.65804 13.2794 5.5 12.8978 5.5 12.5V12H8.5V12.5Z" fill="white"/>
</svg>
