<svg xmlns="http://www.w3.org/2000/svg" xmlns:xlink="http://www.w3.org/1999/xlink" width="11" height="11" viewBox="0 0 11 11"><defs><linearGradient id="a" x1="1.231" y1="-0.553" x2="0.122" y2="1.08" gradientUnits="objectBoundingBox"><stop offset="0" stop-color="#ff03ec"/><stop offset="1" stop-color="#00a7ff"/></linearGradient><linearGradient id="b" x1="0.156" y1="1.078" x2="1.801" y2="-0.689" xlink:href="#a"/><linearGradient id="c" x1="0.5" x2="-0.454" y2="1.415" gradientUnits="objectBoundingBox"><stop offset="0" stop-color="#ff03ec"/><stop offset="0" stop-color="#fa06ec"/><stop offset="1" stop-color="#00a7ff"/></linearGradient><linearGradient id="d" x1="1.212" y1="0" x2="-0.206" y2="1.436" xlink:href="#a"/><linearGradient id="e" x1="2.745" y1="-1.49" x2="-0.093" y2="1.224" xlink:href="#a"/><linearGradient id="f" x1="0.854" y1="0.545" x2="-0.588" y2="1.942" xlink:href="#a"/><linearGradient id="g" x1="1.479" y1="-0.63" x2="-2.228" y2="3.768" xlink:href="#a"/><linearGradient id="h" x1="-0.04" y1="1.7" x2="0.898" y2="0.298" xlink:href="#a"/><linearGradient id="i" x1="0.102" y1="1.536" x2="1.674" y2="-0.622" xlink:href="#a"/></defs><g transform="translate(-391 -41)"><rect width="3" height="3" transform="translate(391 41)" fill="url(#a)"/><rect width="3" height="3" transform="translate(395 41)" fill="url(#b)"/><rect width="3" height="3" transform="translate(399 41)" fill="url(#c)"/><rect width="3" height="3" transform="translate(391 45)" fill="url(#d)"/><rect width="3" height="3" transform="translate(395 45)" fill="url(#e)"/><rect width="3" height="3" transform="translate(399 45)" fill="url(#f)"/><rect width="3" height="3" transform="translate(391 49)" fill="url(#g)"/><rect width="3" height="3" transform="translate(395 49)" fill="url(#h)"/><rect width="3" height="3" transform="translate(399 49)" fill="url(#i)"/></g></svg>