<svg xmlns="http://www.w3.org/2000/svg" width="16" height="14.063" viewBox="0 0 16 14.063"><path d="M5.187,9.375h8.469a.467.467,0,0,0,.45-.34l1.875-6.563a.468.468,0,0,0-.451-.6H4.105L3.77.367A.469.469,0,0,0,3.312,0H.469a.469.469,0,1,0,0,.937H2.936L4.629,8.555a1.405,1.405,0,0,0,.558,2.7h8.469a.469.469,0,0,0,0-.937H5.187a.469.469,0,1,1,0-.937Zm0,0" transform="translate(0)" fill="#fff"/><path d="M3.81,10.491A1.406,1.406,0,1,0,5.217,9.084,1.408,1.408,0,0,0,3.81,10.491Zm0,0" transform="translate(0.908 2.166)" fill="#fff"/><path d="M9.135,10.491a1.406,1.406,0,1,0,1.406-1.406A1.408,1.408,0,0,0,9.135,10.491Zm0,0" transform="translate(2.178 2.166)" fill="#fff"/></svg>