<svg width="28" height="28" viewBox="0 0 28 28" fill="none" xmlns="http://www.w3.org/2000/svg">
<path d="M0.749512 6.08177C0.749512 3.11635 3.16717 0.712402 6.14951 0.712402H22.3495C25.3318 0.712402 27.7495 3.11635 27.7495 6.08177V22.1899C27.7495 25.1553 25.3318 27.5592 22.3495 27.5592H6.14951C3.16717 27.5592 0.749512 25.1553 0.749512 22.1899V6.08177Z" fill="#FFD466"/>
<path d="M20.3248 7.4234L16.9498 10.7793L14.2498 7.4234L11.5498 10.7793L8.1748 7.4234V16.1486H20.3248V7.4234ZM9.5248 20.1757H18.9748C19.3328 20.1757 19.6762 20.0342 19.9294 19.7825C20.1826 19.5308 20.3248 19.1893 20.3248 18.8333V17.491H8.1748V18.8333C8.1748 19.1893 8.31704 19.5308 8.57021 19.7825C8.82338 20.0342 9.16676 20.1757 9.5248 20.1757Z" fill="black"/>
</svg>
