<svg xmlns="http://www.w3.org/2000/svg" xmlns:xlink="http://www.w3.org/1999/xlink" width="14" height="14" viewBox="0 0 14 14"><defs><clipPath id="a"><rect width="14" height="14" transform="translate(24 792)" fill="#040413"/></clipPath></defs><g transform="translate(-24 -792)" clip-path="url(#a)"><g transform="translate(24 793.754)"><g transform="translate(0 0)"><path d="M3.778,7.378a3.505,3.505,0,0,1,1.468-.354h6.2V5.832A1.679,1.679,0,0,0,9.775,4.163H5.722V3.925A1.606,1.606,0,0,0,5.23,2.748a1.606,1.606,0,0,0-1.177-.492H1.669a1.606,1.606,0,0,0-1.177.492A1.606,1.606,0,0,0,0,3.925v7.153q0,.03,0,.093c0,.042,0,.073,0,.093l.037-.044L2.556,8.269A3.476,3.476,0,0,1,3.778,7.378Z" transform="translate(0 -2.256)" fill="#040413"/><path d="M13.958,9.71a1.009,1.009,0,0,0-.451-.1H5.4a2.586,2.586,0,0,0-1.069.265,2.526,2.526,0,0,0-.9.645l-2.5,2.95a.767.767,0,0,0-.231.492.331.331,0,0,0,.2.32,1.009,1.009,0,0,0,.451.1H9.454a2.587,2.587,0,0,0,1.069-.265,2.525,2.525,0,0,0,.9-.645l2.5-2.95a.767.767,0,0,0,.231-.492A.331.331,0,0,0,13.958,9.71Z" transform="translate(-0.155 -3.891)" fill="#040413"/></g></g></g></svg>