<svg xmlns="http://www.w3.org/2000/svg" xmlns:xlink="http://www.w3.org/1999/xlink" width="212" height="215" viewBox="0 0 212 215"><defs><clipPath id="a"><rect width="212" height="215" transform="translate(430 1702)" fill="#f2f3ff"/></clipPath></defs><g transform="translate(-430 -1702)" clip-path="url(#a)"><g transform="translate(430.336 1701.956)"><g transform="translate(-3.583)"><path d="M18.193,168.417A14.333,14.333,0,0,1,3.583,154.083V17.917A14.333,14.333,0,0,1,17.917,3.583H161.25a14.333,14.333,0,0,1,14.333,14.333V44.648Z" fill="#b71f47"/><path d="M17.917,28.667a3.583,3.583,0,0,1-3.583-3.583V17.917a3.583,3.583,0,1,1,7.167,0v7.167A3.583,3.583,0,0,1,17.917,28.667Z" fill="#ff2761"/><path d="M17.917,96.75a3.583,3.583,0,0,1-3.583-3.583V39.417a3.583,3.583,0,0,1,7.167,0v53.75A3.583,3.583,0,0,1,17.917,96.75Z" fill="#ff2761"/><path d="M14.339,0H157.734a14.339,14.339,0,0,1,14.339,14.339V150.564A14.339,14.339,0,0,1,157.734,164.9H14.339A14.339,14.339,0,0,1,0,150.564V14.339A14.339,14.339,0,0,1,14.339,0Z" transform="translate(44.375 21.313) rotate(10.074)" fill="#ff2761"/><path d="M114.28,201.154l9.9-55.671,11.037-62.06,7.926-44.559-28.222-5.017-7.933,44.591L95.958,140.463l-9.9,55.671Z" fill="#f3d55b"/><path d="M200.527,125.5l-17.537-3.117L48.683,98.5l-17.5-3.11-5.02,28.222L64.02,130.34,157.649,147l37.858,6.733Z" fill="#f3d55b"/><path d="M199.617,22.55a3.583,3.583,0,0,0-5.067,0L193.5,23.6l-1.05-1.05a3.583,3.583,0,0,0-5.067,5.067l1.05,1.05-1.05,1.05a3.583,3.583,0,1,0,5.067,5.067l1.05-1.05,1.05,1.05a3.583,3.583,0,0,0,5.067-5.067l-1.05-1.05,1.05-1.05a3.583,3.583,0,0,0,0-5.067Z" fill="#f0c419"/><path d="M41.95,201.717a3.583,3.583,0,0,0-5.067,0l-1.05,1.05-1.05-1.05a3.583,3.583,0,0,0-5.067,5.067l1.05,1.05-1.05,1.05a3.583,3.583,0,1,0,5.067,5.067l1.05-1.05,1.05,1.05a3.583,3.583,0,0,0,5.067-5.067l-1.05-1.05,1.05-1.05a3.583,3.583,0,0,0,0-5.067Z" fill="#e71ded"/><path d="M16.867,190.967a3.583,3.583,0,0,0-5.067,0l-1.05,1.05-1.05-1.05a3.583,3.583,0,0,0-5.067,5.067l1.05,1.05-1.05,1.05A3.583,3.583,0,1,0,9.7,203.2l1.05-1.05,1.05,1.05a3.583,3.583,0,1,0,5.067-5.067l-1.05-1.05,1.05-1.05a3.583,3.583,0,0,0,0-5.067Z" fill="#f0c419"/><path d="M212.9,7.167l1.05-1.05a3.583,3.583,0,0,0-5.067-5.067l-1.05,1.05-1.05-1.05a3.583,3.583,0,0,0-5.067,5.067l1.05,1.05-1.05,1.05a3.583,3.583,0,1,0,5.067,5.067l1.05-1.05,1.05,1.05a3.583,3.583,0,0,0,5.067-5.067Z" fill="#e71ded"/><path d="M107.306,138.041c-21.794-.237-33.87,26.732-33.87,26.732l-3.92-18.895-18.895,3.906a40.929,40.929,0,0,1,28.14-26.875c6.31-1.888,21.837.1,29.932,1.63Z" fill="#f29c1f"/><path d="M114.362,139.295c20.54,7.292,22.575,36.772,22.575,36.772l10.195-16.387,16.387,10.195a40.37,40.37,0,0,0-16.2-34.242,87.7,87.7,0,0,0-32.967-8.625Z" fill="#f29c1f"/><path d="M115.853,110.445s.358-41.38-32.608-49.4a10.3,10.3,0,0,0-5.683.3c-6.328,2.1-21.2,8.371-29.046,22.822a14.38,14.38,0,0,0-.638,12.5c5.131,12.09,20.013,35.267,47.189,28.427Z" fill="#f0c419"/><path d="M97.545,116.6C83.979,104.658,82.227,85.147,82.058,78.02a1.792,1.792,0,0,1,2.627-1.62c15.577,7.525,19.142,28.516,19.819,34.232Z" fill="#f29c1f"/><path d="M130.337,131.351a36.865,36.865,0,0,0,14.283,6.034,30.149,30.149,0,0,0,5.443.495c15.154.147,28.018-10.191,34.357-16.964a14.147,14.147,0,0,0,3.074-5.017,14.867,14.867,0,0,0,.656-6.944,51.715,51.715,0,0,0-19.414-31.44,9.9,9.9,0,0,0-5.207-2.24c-24.725-2.831-38.836,17.408-44.58,28.43a56.947,56.947,0,0,0-3.1,6.744Z" fill="#f0c419"/><path d="M126.445,114.538c2.609-5.135,13.19-23.6,30.408-25.3a1.792,1.792,0,0,1,1.906,2.429c-2.616,6.629-10.986,24.338-27.839,30.874Z" fill="#f29c1f"/><path d="M130.989,127.681l-1.272,7.052a7.185,7.185,0,0,1-8.31,5.8l-21.167-3.766a7.185,7.185,0,0,1-5.8-8.31l1.254-7.056a14.333,14.333,0,0,1,16.623-11.6l7.056,1.258a14.333,14.333,0,0,1,11.617,16.623Z" fill="#f3d55b"/></g></g></g></svg>