<svg xmlns="http://www.w3.org/2000/svg" xmlns:xlink="http://www.w3.org/1999/xlink" width="18" height="18" viewBox="0 0 18 18">
  <defs>
    <clipPath id="clip-path">
      <rect id="Rectangle_2" data-name="Rectangle 2" width="18" height="18" transform="translate(24 253)" fill="#040413"/>
    </clipPath>
  </defs>
  <g id="Mask_Group_11" data-name="Mask Group 11" transform="translate(-24 -253)" clip-path="url(#clip-path)">
    <g id="sitemap" transform="translate(24 253)">
      <path id="Path_47" data-name="Path 47" d="M17.719,11.853a.93.93,0,0,0-.683-.281h-.964V9.643a1.3,1.3,0,0,0-1.286-1.286H9.643V6.428h.964a.96.96,0,0,0,.964-.964V2.25a.96.96,0,0,0-.964-.964H7.393a.96.96,0,0,0-.964.964V5.464a.96.96,0,0,0,.964.964h.964V8.357H3.214a1.236,1.236,0,0,0-.9.382,1.235,1.235,0,0,0-.382.9v1.929H.964a.93.93,0,0,0-.683.281A.93.93,0,0,0,0,12.536V15.75a.93.93,0,0,0,.281.683.93.93,0,0,0,.683.281H4.179a.96.96,0,0,0,.964-.964V12.536a.96.96,0,0,0-.964-.964H3.214V9.643H8.357v1.929H7.393a.96.96,0,0,0-.964.964V15.75a.96.96,0,0,0,.964.964h3.214a.96.96,0,0,0,.964-.964V12.536a.96.96,0,0,0-.964-.964H9.643V9.643h5.143v1.929h-.964a.96.96,0,0,0-.964.964V15.75a.96.96,0,0,0,.964.964h3.214A.96.96,0,0,0,18,15.75V12.536A.93.93,0,0,0,17.719,11.853Z" fill="#040413"/>
    </g>
  </g>
</svg>
