<svg width="32" height="26" viewBox="0 0 32 26" fill="none" xmlns="http://www.w3.org/2000/svg">
<path d="M31.32 8.74001C31.1588 8.50587 30.9419 8.31559 30.6887 8.18639C30.4355 8.05719 30.1542 7.99313 29.87 8.00001H7.17C6.69103 8.02031 6.22709 8.17315 5.82984 8.44152C5.43259 8.70988 5.11762 9.08323 4.92 9.52001C4.91673 9.56662 4.91673 9.6134 4.92 9.66001L2 20V2.00001H8.49L11.1 5.59001C11.1931 5.7174 11.315 5.82096 11.4558 5.89222C11.5966 5.96348 11.7522 6.00042 11.91 6.00001H28C28 5.46957 27.7893 4.96087 27.4142 4.58579C27.0391 4.21072 26.5304 4.00001 26 4.00001H12.42L10.11 0.820007C9.92381 0.565212 9.67997 0.358091 9.39842 0.215573C9.11686 0.0730562 8.80557 -0.000811958 8.49 6.73162e-06H2C1.46957 6.73162e-06 0.960859 0.21072 0.585786 0.585793C0.210714 0.960866 0 1.46957 0 2.00001V24.69C0.0156121 25.0499 0.172328 25.3891 0.436222 25.6343C0.700115 25.8795 1.04995 26.0109 1.41 26H26.34C26.5631 26.0089 26.7828 25.9428 26.9641 25.8123C27.1453 25.6818 27.2776 25.4944 27.34 25.28L31.53 10.18C31.6082 9.94001 31.6299 9.68521 31.5935 9.43544C31.557 9.18567 31.4635 8.94768 31.32 8.74001Z" fill="#F5F5F5"/>
</svg>
