<svg width="44" height="44" viewBox="0 0 44 44" fill="none" xmlns="http://www.w3.org/2000/svg">
<path fill-rule="evenodd" clip-rule="evenodd" d="M22 41.1613C32.5825 41.1613 41.1613 32.5825 41.1613 22C41.1613 11.4175 32.5825 2.83871 22 2.83871C11.4175 2.83871 2.83871 11.4175 2.83871 22C2.83871 32.5825 11.4175 41.1613 22 41.1613ZM22 44C34.1503 44 44 34.1503 44 22C44 9.84974 34.1503 0 22 0C9.84974 0 0 9.84974 0 22C0 34.1503 9.84974 44 22 44Z" fill="url(#paint0_linear)"/>
<path fill-rule="evenodd" clip-rule="evenodd" d="M21.5477 5.99848C19.5032 6.04421 17.8829 7.73866 17.9286 9.78313L17.9634 11.3372C17.9802 12.0905 17.3833 12.7147 16.6301 12.7316C15.8768 12.7484 15.2526 12.1515 15.2357 11.3982L15.2009 9.84414C15.1215 6.29321 17.9357 3.35022 21.4867 3.27079C25.0376 3.19137 27.9806 6.00558 28.06 9.55651L28.1831 15.0606C28.2449 17.8224 30.5339 20.0113 33.2957 19.9495L34.5297 19.9219C35.2829 19.905 35.9072 20.502 35.924 21.2552C35.9409 22.0084 35.3439 22.6327 34.5907 22.6496L33.3568 22.6772C29.0885 22.7726 25.5509 19.3899 25.4555 15.1216L25.3323 9.61752C25.2866 7.57305 23.5922 5.95274 21.5477 5.99848Z" fill="url(#paint1_linear)"/>
<path fill-rule="evenodd" clip-rule="evenodd" d="M22.3849 37.9897C24.4294 37.944 26.0497 36.2495 26.004 34.205L25.9692 32.6509C25.9524 31.8977 26.5493 31.2734 27.3026 31.2566C28.0558 31.2397 28.6801 31.8367 28.6969 32.5899L28.7317 34.144C28.8111 37.6949 25.9969 40.6379 22.446 40.7174C18.895 40.7968 15.952 37.9826 15.8726 34.4316L15.7495 28.9276C15.6877 26.1657 13.3987 23.9769 10.6369 24.0387L9.40293 24.0663C8.6497 24.0831 8.02543 23.4862 8.00858 22.7329C7.99173 21.9797 8.58869 21.3555 9.34191 21.3386L10.5759 21.311C14.8442 21.2155 18.3817 24.5983 18.4772 28.8666L18.6003 34.3706C18.646 36.4151 20.3405 38.0354 22.3849 37.9897Z" fill="url(#paint2_linear)"/>
<path fill-rule="evenodd" clip-rule="evenodd" d="M37.9704 21.5461C37.93 19.5015 36.2397 17.8768 34.1951 17.9173L32.6409 17.948C31.8877 17.9629 31.2649 17.3644 31.25 16.6111C31.2351 15.8578 31.8337 15.2351 32.587 15.2202L34.1412 15.1895C37.6923 15.1192 40.628 17.941 40.6983 21.4921C40.7685 25.0433 37.9467 27.979 34.3956 28.0492L28.8912 28.1581C26.1292 28.2128 23.9345 30.4961 23.9891 33.2581L24.0136 34.4921C24.0285 35.2454 23.4299 35.8681 22.6766 35.883C21.9233 35.8979 21.3006 35.2994 21.2857 34.5461L21.2613 33.3121C21.1769 29.0435 24.5687 25.5148 28.8372 25.4303L34.3416 25.3214C36.3862 25.281 38.0109 23.5907 37.9704 21.5461Z" fill="url(#paint3_linear)"/>
<path fill-rule="evenodd" clip-rule="evenodd" d="M5.96243 22.4424C6.00289 24.487 7.69314 26.1117 9.73773 26.0712L11.2919 26.0405C12.0452 26.0256 12.6679 26.6241 12.6828 27.3774C12.6977 28.1307 12.0992 28.7534 11.3459 28.7683L9.7917 28.7991C6.24057 28.8693 3.30486 26.0475 3.2346 22.4964C3.16435 18.9453 5.98615 16.0095 9.53728 15.9393L15.0417 15.8304C17.8036 15.7757 19.9984 13.4924 19.9437 10.7304L19.9193 9.49641C19.9044 8.74314 20.503 8.12041 21.2562 8.10551C22.0095 8.09061 22.6322 8.68917 22.6471 9.44244L22.6716 10.6765C22.756 14.945 19.3641 18.4738 15.0956 18.5582L9.59125 18.6671C7.54666 18.7076 5.92198 20.3978 5.96243 22.4424Z" fill="url(#paint4_linear)"/>
<defs>
<linearGradient id="paint0_linear" x1="0" y1="22" x2="44" y2="22" gradientUnits="userSpaceOnUse">
<stop stop-color="#F8BE36"/>
<stop offset="1" stop-color="#F5A154"/>
</linearGradient>
<linearGradient id="paint1_linear" x1="15.277" y1="13.2456" x2="35.7346" y2="12.788" gradientUnits="userSpaceOnUse">
<stop stop-color="#FFB27D"/>
<stop offset="1" stop-color="#F9D423"/>
</linearGradient>
<linearGradient id="paint2_linear" x1="28.6556" y1="30.7425" x2="8.19798" y2="31.2001" gradientUnits="userSpaceOnUse">
<stop stop-color="#FFB27D"/>
<stop offset="1" stop-color="#F9D423"/>
</linearGradient>
<linearGradient id="paint3_linear" x1="30.7395" y1="15.2568" x2="31.1443" y2="35.7155" gradientUnits="userSpaceOnUse">
<stop stop-color="#FFB27D"/>
<stop offset="1" stop-color="#F9D423"/>
</linearGradient>
<linearGradient id="paint4_linear" x1="13.1934" y1="28.7318" x2="12.7886" y2="8.27304" gradientUnits="userSpaceOnUse">
<stop stop-color="#FFB27D"/>
<stop offset="1" stop-color="#F9D423"/>
</linearGradient>
</defs>
</svg>
