<svg xmlns="http://www.w3.org/2000/svg" width="444.589" height="247.787" viewBox="0 0 444.589 247.787">
  <g id="Group_2" data-name="Group 2" transform="translate(-1183.34 -231.685)">
    <path id="Path_6" data-name="Path 6" d="M513.053,390.185l-37.667-36.5H411.84l-36.5,36.5V566.028l35.443,35.443h64.679l35.443-35.443V473.009H443.693v45.9h18.019v35.835H425.118v-154.7h36.594v46.746h51.341Z" transform="translate(808 -122)" fill="#fff"/>
    <path id="Path_5" data-name="Path 5" d="M513.053,390.185l-37.667-36.5H411.84l-36.5,36.5V566.028l35.443,35.443h64.679l35.443-35.443V473.009H461.712v81.737H425.118v-154.7h36.594v46.746h51.341Z" transform="translate(979 -122)" fill="#fff"/>
    <path id="Path_4" data-name="Path 4" d="M483.929,353.685H375.34V601.471h49.779V490.3h50.66V448h-50.66V400.048h58.81Z" transform="translate(1144 -122)" fill="#fff"/>
  </g>
</svg>
