<svg width="134" height="55" viewBox="0 0 134 55" fill="none" xmlns="http://www.w3.org/2000/svg">
<path fill-rule="evenodd" clip-rule="evenodd" d="M5.15134 29.1849L9.93422 34.0125C10.4171 34.4998 10.9924 34.8371 11.6035 35.0244L11.5167 35.1121C9.25032 37.3996 8.08142 40.3642 8.02118 43.3143C6.9872 42.9 6.02228 42.2736 5.19063 41.4342C1.90593 38.1188 1.9144 32.705 5.15134 29.1849ZM3.26751 27.2572C-0.832285 22.6392 -0.794473 15.6534 3.46291 11.3562C4.92423 9.88123 6.69938 8.90803 8.58576 8.43326C9.05613 6.52923 10.0203 4.73748 11.4816 3.26249C15.893 -1.19015 23.1642 -1.07008 27.7223 3.53067L27.7335 3.54197C32.3029 -0.839938 39.4096 -0.884689 43.749 3.49532C45.2103 4.97031 46.1745 6.76207 46.6449 8.6661C48.5313 9.14086 50.3064 10.1141 51.7678 11.5891C56.1035 15.9654 56.0629 23.1302 51.7325 27.7427C55.8323 32.3608 55.7945 39.3466 51.5371 43.6438C50.0758 45.1188 48.3006 46.092 46.4142 46.5667C45.9439 48.4708 44.9797 50.2625 43.5184 51.7375C39.107 56.1901 31.8358 56.0701 27.2777 51.4693L27.2665 51.458C22.6971 55.8399 15.5904 55.8846 11.251 51.5046C9.78966 50.0297 8.82547 48.2379 8.35511 46.3339C6.46872 45.8591 4.69357 44.8859 3.23225 43.4109C-1.10352 39.0346 -1.06291 31.8698 3.26751 27.2572ZM5.164 25.3367C2.14641 21.8144 2.21206 16.5722 5.42129 13.3329C6.25294 12.4935 7.21785 11.8671 8.25184 11.4528C8.31203 14.4003 9.47884 17.3621 11.7411 19.6488C10.9942 19.8018 10.2824 20.1704 9.70356 20.7547L5.164 25.3367ZM7.0524 27.2672L11.6041 22.6729C12.1277 22.1444 12.9776 22.1454 13.5024 22.6751L18.2826 27.5L13.7331 32.0921C13.2083 32.6218 12.3583 32.6227 11.8347 32.0942L7.0524 27.2672ZM20.1788 29.4139L16.3178 33.3111C17.5523 33.4348 18.7425 33.9659 19.6757 34.9078C20.8484 36.0915 21.3783 37.6848 21.2724 39.2616L25.6038 34.8896L20.1788 29.4139ZM22.0751 27.5L27.5 22.0243L32.9249 27.5L27.5 32.9757L22.0751 27.5ZM25.6038 20.1103L20.1788 25.586L16.114 21.4832C17.501 21.4512 18.8637 20.9117 19.9059 19.8597C20.9602 18.7955 21.495 17.4003 21.5152 15.9835L25.6038 20.1103ZM29.3962 20.1103L34.8212 25.586L38.6822 21.6889C37.4477 21.5652 36.2575 21.0341 35.3243 20.0921C34.1516 18.9085 33.6217 17.3152 33.7276 15.7384L29.3962 20.1103ZM35.0909 12.331C35.1721 12.2329 35.2568 12.1369 35.3452 12.0429L35.3442 12.0419L35.3949 11.9907C35.4153 11.9695 35.4359 11.9484 35.4566 11.9274L35.48 11.904L35.4945 11.8895L35.5271 11.8572C37.7934 9.56968 40.7305 8.38985 43.6533 8.32905C43.2428 7.28539 42.6223 6.31145 41.7906 5.47202C38.4981 2.14864 33.1166 2.16521 29.6297 5.45593L33.9279 9.79433C34.6287 10.5016 35.0163 11.4055 35.0909 12.331ZM27.7307 7.37564L32.0274 11.7126C32.5511 12.2411 32.5501 13.099 32.0253 13.6287L27.5 18.1964L23.2054 13.8616C22.6805 13.3318 22.6796 12.474 23.2032 11.9454L27.7307 7.37564ZM25.8353 5.45217L25.827 5.44373C22.3505 1.93469 16.8046 1.84311 13.44 5.23919C12.6084 6.07862 11.9878 7.05255 11.5773 8.09622C14.5001 8.15702 17.4372 9.33685 19.7036 11.6244L19.8865 11.809L19.885 11.8105C19.9927 11.925 20.095 12.0426 20.192 12.1631C20.3334 11.3803 20.7036 10.6319 21.3027 10.0272L25.8353 5.45217ZM13.6774 17.7721L13.675 17.7746L13.6427 17.742C11.7525 15.8342 10.8632 13.309 10.9859 10.8558C13.4163 10.732 15.9181 11.6297 17.8082 13.5375L17.8405 13.5701L17.8376 13.573C17.8504 13.5854 17.8631 13.598 17.8756 13.6107C19.0629 14.809 19.0938 16.7206 17.9449 17.8803C16.7959 19.0401 14.902 19.0088 13.7148 17.8105C13.7022 17.7978 13.6897 17.785 13.6774 17.7721ZM29.3963 34.8896L34.8212 29.414L38.886 33.5168C37.499 33.5488 36.1363 34.0883 35.0941 35.1403C34.0398 36.2044 33.505 37.5997 33.4848 39.0164L29.3963 34.8896ZM46.7482 43.5472C46.688 40.5997 45.5211 37.6379 43.2589 35.3512C44.0058 35.1982 44.7176 34.8296 45.2964 34.2453L49.836 29.6633C52.8536 33.1856 52.7879 38.4278 49.5787 41.6671C48.7471 42.5065 47.7821 43.1329 46.7482 43.5472ZM43.396 32.327L47.9476 27.7328L43.1653 22.9058C42.6417 22.3773 41.7917 22.3782 41.2669 22.9079L36.7174 27.5L41.4976 32.3249C42.0224 32.8546 42.8723 32.8556 43.396 32.327ZM49.8094 13.5658C53.0941 16.8812 53.0856 22.2949 49.8486 25.8151L45.0658 20.9875C44.5829 20.5001 44.0076 20.1629 43.3965 19.9756L43.4833 19.8879C45.7497 17.6004 46.9186 14.6358 46.9788 11.6857C48.0128 12.1 48.9777 12.7263 49.8094 13.5658ZM33.6973 44.9728C34.2964 44.3681 34.6666 43.6196 34.808 42.8369C34.905 42.9574 35.0073 43.075 35.115 43.1895L35.1135 43.191L35.2964 43.3756C37.5628 45.6632 40.4999 46.843 43.4227 46.9038C43.0122 47.9474 42.3916 48.9214 41.56 49.7608C38.1954 53.1569 32.6495 53.0653 29.173 49.5563L29.1646 49.5478L33.6973 44.9728ZM31.7968 43.0545L27.2693 47.6243L22.9726 43.2874C22.4489 42.7589 22.4499 41.901 22.9747 41.3713L27.5 36.8036L31.7946 41.1384C32.3195 41.6681 32.3204 42.526 31.7968 43.0545ZM19.6548 42.9571C19.7432 42.8631 19.8279 42.767 19.9091 42.669C19.9837 43.5944 20.3713 44.4984 21.0721 45.2057L25.3703 49.544C21.8834 52.8348 16.5019 52.8513 13.2094 49.5279C12.3777 48.6885 11.7572 47.7146 11.3467 46.6709C14.2695 46.6101 17.2066 45.4303 19.4729 43.1427L19.5055 43.1104C19.5182 43.0979 19.5308 43.0852 19.5434 43.0725C19.5641 43.0516 19.5847 43.0305 19.6051 43.0093L19.6559 42.9581L19.6548 42.9571ZM37.3926 13.8054L37.3901 13.8029L37.4224 13.7703C39.3126 11.8625 41.8144 10.9649 44.2448 11.0887C44.3674 13.5418 43.4781 16.067 41.588 17.9748L41.5557 18.0074L41.5528 18.0045L41.538 18.0199C41.5305 18.0276 41.523 18.0352 41.5154 18.0429C40.3282 19.2412 38.4343 19.2725 37.2854 18.1127C36.1364 16.953 36.1674 15.0414 37.3546 13.8431C37.3613 13.8363 37.368 13.8296 37.3748 13.8229L37.3926 13.8054ZM17.6074 41.1946L17.6099 41.1971L17.5776 41.2297C15.6874 43.1375 13.1856 44.0351 10.7552 43.9113C10.6326 41.4582 11.5219 38.9329 13.412 37.0251L13.4443 36.9925L13.4472 36.9955C13.4595 36.9826 13.472 36.9698 13.4846 36.9571C14.6718 35.7588 16.5657 35.7275 17.7146 36.8872C18.8636 38.047 18.8326 39.9585 17.6454 41.1568L17.6393 41.1631C17.6344 41.168 17.6295 41.1728 17.6246 41.1777L17.6074 41.1946ZM41.3251 37.2254L41.3226 37.2279C41.3103 37.215 41.2978 37.2022 41.2852 37.1895C40.098 35.9912 38.2041 35.9599 37.0551 37.1197C35.9062 38.2794 35.9371 40.191 37.1244 41.3893C37.1307 41.3956 37.137 41.402 37.1433 41.4083C37.1497 41.4145 37.156 41.4208 37.1624 41.427L37.1595 41.43L37.1918 41.4625C39.0819 43.3703 41.5837 44.268 44.0141 44.1441C44.1368 41.691 43.2475 39.1658 41.3573 37.258L41.3251 37.2254Z" fill="white"/>
<path d="M78.7843 23.6628H71V23.4176H71.3202C71.9115 23.4176 72.3631 23.1643 72.6751 22.6575C72.8065 22.4287 72.8804 22.1754 72.8968 21.8975V8.26532C72.8804 7.84033 72.7162 7.48073 72.4041 7.18651C72.1085 6.89229 71.7472 6.74518 71.3202 6.74518H71V6.5H78.1438C80.0488 6.5 81.5597 6.84326 82.6764 7.52977C83.8096 8.21628 84.3844 9.27057 84.4008 10.6926C84.3844 11.4118 84.2284 12.0411 83.9327 12.5805C83.3908 13.594 82.5368 14.1742 81.3708 14.3213C82.6354 14.4358 83.6782 14.9098 84.4993 15.7434C85.3205 16.5607 85.731 17.6068 85.731 18.8817C85.731 20.4182 85.107 21.6033 83.8588 22.4369C82.6272 23.2542 80.9356 23.6628 78.7843 23.6628ZM80.4594 11.0114C80.443 8.70665 79.3919 7.55429 77.3063 7.55429H76.5919V22.535H77.725C77.7415 22.535 77.7579 22.535 77.7743 22.535C78.9075 22.535 79.8107 22.208 80.484 21.5542C81.1573 20.9004 81.494 19.9033 81.494 18.563C81.494 17.2227 81.1163 16.2256 80.3608 15.5718C79.6054 14.9179 78.6283 14.591 77.4294 14.591V14.3704C78.2834 14.3704 78.9978 14.1007 79.5726 13.5613C80.1474 13.0055 80.443 12.1556 80.4594 11.0114Z" fill="white"/>
<path d="M94.3017 7.57881H93.2424C93.2096 7.57881 93.1849 7.57881 93.1685 7.57881V21.873C93.1849 22.2979 93.3409 22.6657 93.6365 22.9763C93.9486 23.2705 94.3181 23.4176 94.7451 23.4176H95.0653V23.6628H87.5766V23.4176H87.8969C88.4881 23.4176 88.9397 23.1643 89.2517 22.6575C89.3831 22.4287 89.457 22.1754 89.4734 21.8975V8.28983C89.457 7.86485 89.2928 7.50525 88.9808 7.21103C88.6851 6.90047 88.3239 6.74518 87.8969 6.74518H87.5766V6.5H96.026C97.619 6.5 98.9657 6.84326 100.066 7.52977C100.624 7.87302 101.068 8.35522 101.396 8.97635C101.725 9.58113 101.889 10.3821 101.889 11.3791C101.889 12.3599 101.544 13.3079 100.854 14.2233C100.165 15.1386 99.1627 15.6617 97.8489 15.7924C98.8014 16.103 99.639 16.8222 100.362 17.95C102.135 20.7778 103.449 22.4614 104.303 23.0008C104.73 23.2623 105.264 23.4013 105.904 23.4176V23.6628H103.49C102.061 23.6628 100.871 23.4748 99.9182 23.0989C98.9821 22.7229 98.2431 22.0609 97.7011 21.1129C97.3891 20.5735 96.7076 19.176 95.6565 16.9203C95.1967 15.9232 94.6383 15.3756 93.9814 15.2775V15.0324H94.7451C95.4841 15.0324 96.1328 14.8117 96.6911 14.3704C97.2659 13.929 97.6519 13.2098 97.8489 12.2128C97.9146 11.8695 97.9475 11.5998 97.9475 11.4037C97.9475 10.0633 97.6765 9.09894 97.1345 8.5105C96.5926 7.90572 95.8946 7.59515 95.0407 7.57881C94.8764 7.57881 94.6301 7.57881 94.3017 7.57881Z" fill="white"/>
<path d="M105.937 23.4176C106.364 23.4176 106.726 23.2705 107.021 22.9763C107.333 22.6657 107.498 22.2979 107.514 21.873V8.26532C107.498 7.84033 107.333 7.48073 107.021 7.18651C106.726 6.89229 106.364 6.74518 105.937 6.74518H105.617V6.5H113.106L113.081 6.74518H112.786C112.359 6.74518 111.989 6.89229 111.677 7.18651C111.365 7.48073 111.209 7.84033 111.209 8.26532V21.873C111.209 22.2979 111.365 22.6657 111.677 22.9763C111.989 23.2705 112.359 23.4176 112.786 23.4176H113.081L113.106 23.6628H105.617V23.4176H105.937Z" fill="white"/>
<path d="M81.2477 48.4998C78.0781 48.4998 75.5901 47.7071 73.7836 46.1215C71.9771 44.536 71.0739 42.3621 71.0739 39.5997C71.0739 36.8373 71.9689 34.6633 73.759 33.0778C75.549 31.476 78.0042 30.675 81.1245 30.675C83.5058 30.675 85.5504 31.1164 87.2583 31.999L87.3076 36.2162H87.1105C86.273 33.2086 84.3597 31.7048 81.3708 31.7048C79.433 31.7048 77.8975 32.4076 76.7643 33.8134C75.6476 35.2027 75.0892 37.107 75.0892 39.5261C75.0892 41.9453 75.6229 43.8659 76.6904 45.2879C77.7743 46.71 79.2359 47.4455 81.0752 47.4946C82.9802 47.4946 84.4336 47.0205 85.4354 46.0725C86.4536 45.0918 87.1598 43.4082 87.5539 41.0217H87.751L87.9973 45.2389C86.6671 47.4292 84.4172 48.5162 81.2477 48.4998Z" fill="white"/>
<path d="M90.024 48.1811V47.9359H90.3196C90.6974 47.9359 91.0094 47.8133 91.2557 47.5681C91.5185 47.3229 91.6499 47.0205 91.6499 46.6609V35.0148C91.6499 34.6552 91.5185 34.3528 91.2557 34.1076C90.993 33.8461 90.6809 33.7153 90.3196 33.7153H90.024V33.4701H96.8722V33.7153H96.5766C96.1989 33.7153 95.8787 33.8379 95.6159 34.0831C95.3531 34.3282 95.2218 34.6388 95.2218 35.0148V47.2003H98.1778C99.196 47.184 100.058 46.8734 100.764 46.2687C101.471 45.6475 101.988 44.7812 102.316 43.6697H102.587L101.627 48.1811H90.024Z" fill="white"/>
<path d="M119.316 33.7153H118.971C118.659 33.7153 118.396 33.8134 118.183 34.0095C117.969 34.1893 117.854 34.4263 117.838 34.7205V42.8361C117.838 44.6014 117.296 45.9908 116.212 47.0042C115.128 48.0013 113.51 48.4998 111.359 48.4998C109.224 48.4998 107.557 48.0094 106.358 47.0287C105.176 46.048 104.585 44.6668 104.585 42.8851V34.7451C104.585 34.4508 104.47 34.2057 104.24 34.0095C104.026 33.8134 103.764 33.7153 103.452 33.7153H103.107V33.4701H109.585V33.7153H109.241C108.928 33.7153 108.666 33.8134 108.452 34.0095C108.239 34.2057 108.132 34.4508 108.132 34.7451V42.7135C108.132 44.2173 108.477 45.3942 109.167 46.2441C109.873 47.0941 110.858 47.5191 112.123 47.5191C113.387 47.5191 114.381 47.1186 115.103 46.3177C115.842 45.5168 116.212 44.4053 116.212 42.9832V34.7451C116.195 34.4345 116.081 34.1893 115.867 34.0095C115.654 33.8134 115.391 33.7153 115.079 33.7153H114.758V33.4701H119.316V33.7153Z" fill="white"/>
<path d="M132.842 37.1233C132.842 37.7281 132.711 38.2593 132.448 38.717C131.939 39.5997 131.167 40.0819 130.132 40.1636C131.233 40.2453 132.152 40.6376 132.891 41.3405C133.63 42.027 134 42.9096 134 43.9885C134 46.097 132.727 47.421 130.182 47.9604C129.459 48.1075 128.671 48.1811 127.817 48.1811H120.673V47.9359H120.944C121.322 47.9359 121.634 47.8133 121.88 47.5681C122.143 47.3229 122.283 47.0124 122.299 46.6364V35.0148C122.283 34.4263 122.003 34.0259 121.461 33.8134C121.297 33.748 121.125 33.7153 120.944 33.7153H120.673V33.4701H127.275C130.986 33.4701 132.842 34.6879 132.842 37.1233ZM130.009 43.7678C130.009 43.0159 129.853 42.3866 129.541 41.8799C128.966 40.8992 127.973 40.4088 126.561 40.4088C126.544 40.4088 126.528 40.4088 126.511 40.4088V40.1881C127.3 40.1881 127.94 39.9593 128.433 39.5016C128.925 39.0439 129.172 38.3329 129.172 37.3685C129.172 35.4071 128.277 34.4263 126.487 34.4263H125.797V47.2003H126.782C127.735 47.2003 128.507 46.9225 129.098 46.3667C129.706 45.811 130.009 44.9447 130.009 43.7678Z" fill="white"/>
</svg>
