<svg width="50" height="50" viewBox="0 0 50 50" fill="none" xmlns="http://www.w3.org/2000/svg">
<circle cx="25" cy="25" r="24.5" fill="#EDF4F9" stroke="#1989F8"/>
<path d="M24.8577 24.6341C26.1813 24.6341 27.3272 24.1594 28.2638 23.2228C29.2001 22.2864 29.6749 21.1406 29.6749 19.8169C29.6749 18.4937 29.2002 17.3477 28.2636 16.411C27.3271 15.4747 26.1811 15 24.8577 15C23.534 15 22.3882 15.4747 21.4518 16.4111C20.5154 17.3476 20.0405 18.4935 20.0405 19.8169C20.0405 21.1406 20.5154 22.2865 21.4518 23.223C22.3885 24.1592 23.5345 24.6341 24.8577 24.6341ZM22.2807 17.2398C22.9992 16.5213 23.8421 16.172 24.8577 16.172C25.8732 16.172 26.7162 16.5213 27.4349 17.2398C28.1535 17.9585 28.5029 18.8016 28.5029 19.8169C28.5029 20.8325 28.1535 21.6754 27.4349 22.3941C26.7162 23.1128 25.8732 23.4621 24.8577 23.4621C23.8424 23.4621 22.9995 23.1126 22.2807 22.3941C21.562 21.6756 21.2126 20.8325 21.2126 19.8169C21.2126 18.8016 21.562 17.9585 22.2807 17.2398Z" fill="#7E7E7E"/>
<path d="M33.2863 30.3789C33.2593 29.9892 33.2047 29.5641 33.1242 29.1151C33.0431 28.6629 32.9385 28.2353 32.8134 27.8445C32.684 27.4406 32.5084 27.0418 32.291 26.6595C32.0656 26.2628 31.8007 25.9174 31.5034 25.6331C31.1926 25.3357 30.8121 25.0966 30.372 24.9222C29.9335 24.7487 29.4475 24.6608 28.9276 24.6608C28.7234 24.6608 28.526 24.7446 28.1447 24.9928C27.91 25.1459 27.6355 25.3229 27.3291 25.5186C27.0671 25.6856 26.7122 25.842 26.2738 25.9836C25.8461 26.122 25.4118 26.1922 24.9831 26.1922C24.5546 26.1922 24.1203 26.122 23.6923 25.9836C23.2544 25.8421 22.8993 25.6857 22.6378 25.5188C22.3343 25.3249 22.0596 25.1479 21.8214 24.9927C21.4404 24.7444 21.243 24.6606 21.0388 24.6606C20.5188 24.6606 20.033 24.7487 19.5946 24.9223C19.1548 25.0964 18.7741 25.3355 18.463 25.6332C18.1657 25.9177 17.9008 26.263 17.6756 26.6595C17.4585 27.0418 17.2827 27.4405 17.1533 27.8447C17.0284 28.2355 16.9238 28.6629 16.8427 29.1151C16.7621 29.5634 16.7076 29.9887 16.6806 30.3793C16.6541 30.7613 16.6406 31.1588 16.6406 31.5604C16.6406 32.6044 16.9725 33.4496 17.627 34.0729C18.2733 34.688 19.1284 34.9998 20.1686 34.9998H29.7987C30.8386 34.9998 31.6937 34.688 32.3402 34.0729C32.9948 33.45 33.3267 32.6045 33.3267 31.5602C33.3266 31.1572 33.313 30.7597 33.2863 30.3789ZM31.5321 33.2237C31.105 33.6302 30.538 33.8278 29.7986 33.8278H20.1686C19.429 33.8278 18.862 33.6302 18.4351 33.2239C18.0162 32.8252 17.8127 32.2809 17.8127 31.5604C17.8127 31.1856 17.825 30.8156 17.8497 30.4604C17.8738 30.1118 17.9231 29.729 17.9962 29.3222C18.0684 28.9204 18.1602 28.5434 18.2695 28.2021C18.3743 27.8748 18.5173 27.5507 18.6946 27.2385C18.8638 26.9409 19.0585 26.6856 19.2734 26.48C19.4743 26.2875 19.7276 26.1301 20.0261 26.012C20.3021 25.9027 20.6123 25.8429 20.9491 25.8339C20.9901 25.8557 21.0632 25.8974 21.1816 25.9746C21.4226 26.1316 21.7003 26.3107 22.0073 26.5068C22.3534 26.7274 22.7992 26.9267 23.3319 27.0987C23.8765 27.2748 24.4319 27.3642 24.9832 27.3642C25.5345 27.3642 26.0901 27.2748 26.6344 27.0988C27.1675 26.9266 27.6132 26.7274 27.9597 26.5065C28.2739 26.3057 28.5439 26.1317 28.7848 25.9746C28.9032 25.8975 28.9763 25.8557 29.0173 25.8339C29.3542 25.8429 29.6645 25.9027 29.9406 26.012C30.239 26.1301 30.4922 26.2877 30.6932 26.48C30.9081 26.6855 31.1028 26.9408 31.272 27.2386C31.4494 27.5507 31.5926 27.8749 31.6972 28.2019C31.8066 28.5437 31.8987 28.9206 31.9707 29.3221C32.0436 29.7296 32.093 30.1126 32.1172 30.4605V30.4608C32.142 30.8147 32.1545 31.1845 32.1547 31.5604C32.1545 32.281 31.951 32.8252 31.5321 33.2237Z" fill="#7E7E7E"/>
</svg>
