<svg xmlns="http://www.w3.org/2000/svg" width="24.971" height="21.069" viewBox="0 0 24.971 21.069"><g transform="translate(0 -177)"><path d="M24.057,177H.914a.929.929,0,0,0-.914.943V197.1a.982.982,0,0,0,.426.828.89.89,0,0,0,.994-.013l3.424-2.357H24.057a.929.929,0,0,0,.914-.943v-16.4A1.072,1.072,0,0,0,24.057,177Zm-19.49,4.717H9.745a.944.944,0,0,1,0,1.887H4.568a.944.944,0,0,1,0-1.887ZM20.4,192.094H4.568a.944.944,0,0,1,0-1.887H20.4a.944.944,0,0,1,0,1.887Zm0-4.245H4.568a.944.944,0,0,1,0-1.887H20.4a.944.944,0,0,1,0,1.887Z" transform="translate(0 0)" fill="#040413"/></g></svg>