<svg width="188" height="35" viewBox="0 0 188 35" fill="none" xmlns="http://www.w3.org/2000/svg">
<path d="M14.5566 20.2852C14.5566 19.2891 14.2051 18.5273 13.502 18C12.7988 17.4609 11.5332 16.8984 9.70508 16.3125C7.87695 15.7148 6.42969 15.1289 5.36328 14.5547C2.45703 12.9844 1.00391 10.8691 1.00391 8.20898C1.00391 6.82617 1.39062 5.5957 2.16406 4.51758C2.94922 3.42773 4.06836 2.57813 5.52148 1.96875C6.98633 1.35937 8.62695 1.05469 10.4434 1.05469C12.2715 1.05469 13.9004 1.38867 15.3301 2.05664C16.7598 2.71289 17.8672 3.64453 18.6523 4.85156C19.4492 6.05859 19.8477 7.42969 19.8477 8.96484H14.5742C14.5742 7.79297 14.2051 6.88477 13.4668 6.24023C12.7285 5.58398 11.6914 5.25586 10.3555 5.25586C9.06641 5.25586 8.06445 5.53125 7.34961 6.08203C6.63477 6.62109 6.27734 7.33594 6.27734 8.22656C6.27734 9.05859 6.69336 9.75586 7.52539 10.3184C8.36914 10.8809 9.60547 11.4082 11.2344 11.9004C14.2344 12.8027 16.4199 13.9219 17.791 15.2578C19.1621 16.5938 19.8477 18.2578 19.8477 20.25C19.8477 22.4648 19.0098 24.2051 17.334 25.4707C15.6582 26.7246 13.4023 27.3516 10.5664 27.3516C8.59766 27.3516 6.80469 26.9941 5.1875 26.2793C3.57031 25.5527 2.33398 24.5625 1.47852 23.3086C0.634766 22.0547 0.212891 20.6016 0.212891 18.9492H5.50391C5.50391 21.7734 7.19141 23.1855 10.5664 23.1855C11.8203 23.1855 12.7988 22.9336 13.502 22.4297C14.2051 21.9141 14.5566 21.1992 14.5566 20.2852ZM29.1366 10.0547C30.4843 8.4375 32.1777 7.62891 34.2167 7.62891C38.3417 7.62891 40.4335 10.0254 40.4921 14.8184V27H35.412V14.959C35.412 13.8691 35.1777 13.0664 34.7089 12.5508C34.2402 12.0234 33.4609 11.7598 32.371 11.7598C30.8827 11.7598 29.8046 12.334 29.1366 13.4824V27H24.0566V0H29.1366V10.0547ZM56.4256 27C56.1912 26.543 56.0213 25.9746 55.9159 25.2949C54.6854 26.666 53.0858 27.3516 51.117 27.3516C49.2537 27.3516 47.7069 26.8125 46.4764 25.7344C45.2577 24.6562 44.6483 23.2969 44.6483 21.6562C44.6483 19.6406 45.3924 18.0938 46.8807 17.0156C48.3807 15.9375 50.5428 15.3926 53.367 15.3809H55.7049V14.291C55.7049 13.4121 55.4764 12.709 55.0194 12.1816C54.5741 11.6543 53.8651 11.3906 52.8924 11.3906C52.037 11.3906 51.3631 11.5957 50.8709 12.0059C50.3905 12.416 50.1502 12.9785 50.1502 13.6934H45.0702C45.0702 12.5918 45.41 11.5723 46.0897 10.6348C46.7694 9.69727 47.7303 8.96484 48.9725 8.4375C50.2147 7.89844 51.6092 7.62891 53.1561 7.62891C55.4998 7.62891 57.3573 8.2207 58.7284 9.4043C60.1112 10.5762 60.8026 12.2285 60.8026 14.3613V22.6055C60.8143 24.4102 61.0662 25.7754 61.5584 26.7012V27H56.4256ZM52.2245 23.4668C52.9745 23.4668 53.6659 23.3027 54.2987 22.9746C54.9315 22.6348 55.4002 22.1836 55.7049 21.6211V18.3516H53.8065C51.2635 18.3516 49.91 19.2305 49.7459 20.9883L49.7284 21.2871C49.7284 21.9199 49.951 22.4414 50.3963 22.8516C50.8416 23.2617 51.451 23.4668 52.2245 23.4668ZM70.4607 7.98047L70.6189 10.1777C71.9783 8.47852 73.8005 7.62891 76.0857 7.62891C78.1013 7.62891 79.6013 8.2207 80.5857 9.4043C81.5701 10.5879 82.074 12.3574 82.0974 14.7129V27H77.0173V14.8359C77.0173 13.7578 76.783 12.9785 76.3142 12.498C75.8455 12.0059 75.0662 11.7598 73.9763 11.7598C72.5466 11.7598 71.4744 12.3691 70.7595 13.5879V27H65.6795V7.98047H70.4607ZM94.1462 19.8105L97.6618 7.98047H103.111L95.4645 29.9531L95.0427 30.9551C93.9059 33.4395 92.0309 34.6816 89.4177 34.6816C88.6794 34.6816 87.9294 34.5703 87.1677 34.3477V30.498L87.9411 30.5156C88.902 30.5156 89.6169 30.3691 90.0856 30.0762C90.5661 29.7832 90.9411 29.2969 91.2106 28.6172L91.8083 27.0527L85.1462 7.98047H90.613L94.1462 19.8105ZM116.882 12.7441C116.191 12.6504 115.582 12.6035 115.054 12.6035C113.132 12.6035 111.873 13.2539 111.275 14.5547V27H106.195V7.98047H110.994L111.134 10.248C112.154 8.50195 113.566 7.62891 115.371 7.62891C115.933 7.62891 116.461 7.70508 116.953 7.85742L116.882 12.7441ZM130.918 27C130.683 26.543 130.513 25.9746 130.408 25.2949C129.177 26.666 127.578 27.3516 125.609 27.3516C123.746 27.3516 122.199 26.8125 120.968 25.7344C119.75 24.6562 119.14 23.2969 119.14 21.6562C119.14 19.6406 119.884 18.0938 121.373 17.0156C122.873 15.9375 125.035 15.3926 127.859 15.3809H130.197V14.291C130.197 13.4121 129.968 12.709 129.511 12.1816C129.066 11.6543 128.357 11.3906 127.384 11.3906C126.529 11.3906 125.855 11.5957 125.363 12.0059C124.882 12.416 124.642 12.9785 124.642 13.6934H119.562C119.562 12.5918 119.902 11.5723 120.582 10.6348C121.261 9.69727 122.222 8.96484 123.464 8.4375C124.707 7.89844 126.101 7.62891 127.648 7.62891C129.992 7.62891 131.849 8.2207 133.22 9.4043C134.603 10.5762 135.294 12.2285 135.294 14.3613V22.6055C135.306 24.4102 135.558 25.7754 136.05 26.7012V27H130.918ZM126.716 23.4668C127.466 23.4668 128.158 23.3027 128.791 22.9746C129.423 22.6348 129.892 22.1836 130.197 21.6211V18.3516H128.298C125.755 18.3516 124.402 19.2305 124.238 20.9883L124.22 21.2871C124.22 21.9199 124.443 22.4414 124.888 22.8516C125.334 23.2617 125.943 23.4668 126.716 23.4668ZM147.185 19.3711L145.357 21.1992V27H140.277V0H145.357V14.959L146.341 13.6934L151.21 7.98047H157.31L150.437 15.9082L157.908 27H152.072L147.185 19.3711ZM180.88 12.6738H187.226V17.2617H180.88V24.4336H176.046V17.2617H169.683V12.6738H176.046V5.80078H180.88V12.6738Z" fill="url(#paint0_linear)"/>
<defs>
<linearGradient id="paint0_linear" x1="-1" y1="14.5" x2="189" y2="14.5" gradientUnits="userSpaceOnUse">
<stop stop-color="#FFB27D"/>
<stop offset="1" stop-color="#F9D423"/>
</linearGradient>
</defs>
</svg>
