<svg width="20" height="20" viewBox="0 0 20 20" fill="none" xmlns="http://www.w3.org/2000/svg">
<path d="M9.375 1.25H10.625V4.375H9.375V1.25Z" fill="white"/>
<path d="M13.5542 5.56251L15.7455 3.37064L16.6292 4.25501L14.4379 6.44626L13.5542 5.56251Z" fill="white"/>
<path d="M15.625 9.375H18.75V10.625H15.625V9.375Z" fill="white"/>
<path d="M13.5542 14.4375L14.4379 13.5537L16.6292 15.745L15.7455 16.6294L13.5542 14.4375Z" fill="white"/>
<path d="M9.375 15.625H10.625V18.75H9.375V15.625Z" fill="white"/>
<path d="M3.37109 15.745L5.56234 13.5537L6.44609 14.4381L4.25484 16.6294L3.37109 15.745Z" fill="white"/>
<path d="M1.25 9.375H4.375V10.625H1.25V9.375Z" fill="white"/>
<path d="M3.37109 4.25501L4.25484 3.37064L6.44609 5.56251L5.56234 6.44626L3.37109 4.25501Z" fill="white"/>
<path d="M10 7.5C10.4945 7.5 10.9778 7.64662 11.3889 7.92133C11.8 8.19603 12.1205 8.58648 12.3097 9.04329C12.4989 9.50011 12.5484 10.0028 12.452 10.4877C12.3555 10.9727 12.1174 11.4181 11.7678 11.7678C11.4181 12.1174 10.9727 12.3555 10.4877 12.452C10.0028 12.5484 9.50011 12.4989 9.04329 12.3097C8.58648 12.1205 8.19603 11.8 7.92133 11.3889C7.64662 10.9778 7.5 10.4945 7.5 10C7.50083 9.33721 7.76449 8.70181 8.23315 8.23315C8.70181 7.76448 9.33721 7.50083 10 7.5ZM10 6.25C9.25832 6.25 8.5333 6.46993 7.91661 6.88199C7.29993 7.29404 6.81928 7.87971 6.53545 8.56494C6.25162 9.25016 6.17736 10.0042 6.32206 10.7316C6.46675 11.459 6.8239 12.1272 7.34835 12.6517C7.8728 13.1761 8.54098 13.5333 9.26841 13.6779C9.99584 13.8226 10.7498 13.7484 11.4351 13.4645C12.1203 13.1807 12.706 12.7001 13.118 12.0834C13.5301 11.4667 13.75 10.7417 13.75 10C13.75 9.00544 13.3549 8.05161 12.6517 7.34835C11.9484 6.64509 10.9946 6.25 10 6.25Z" fill="white"/>
</svg>
