<svg xmlns="http://www.w3.org/2000/svg" xmlns:xlink="http://www.w3.org/1999/xlink" width="14" height="14" viewBox="0 0 14 14">
  <defs>
    <clipPath id="clip-path">
      <rect id="Rectangle_613" data-name="Rectangle 613" width="14" height="14" transform="translate(23.801 175.801)" fill="#7e7e7e"/>
    </clipPath>
  </defs>
  <g id="user-icon-gray" transform="translate(-23.801 -175.801)" clip-path="url(#clip-path)">
    <g id="Group_1079" data-name="Group 1079" transform="translate(24.566 176)">
      <g id="Group_1078" data-name="Group 1078">
        <path id="Path_462" data-name="Path 462" d="M7.9,6.8a3.276,3.276,0,0,0,2.4-1,3.276,3.276,0,0,0,1-2.4,3.277,3.277,0,0,0-1-2.4A3.277,3.277,0,0,0,7.9,0,3.276,3.276,0,0,0,5.5,1a3.276,3.276,0,0,0-1,2.4,3.276,3.276,0,0,0,1,2.4,3.277,3.277,0,0,0,2.4,1Z" transform="translate(-1.666)" fill="#7e7e7e"/>
        <path id="Path_463" data-name="Path 463" d="M13.187,12.408a9.067,9.067,0,0,0-.124-.965,7.508,7.508,0,0,0-.235-.961,4.557,4.557,0,0,0-.381-.863A3.11,3.11,0,0,0,11.9,8.9a2.312,2.312,0,0,0-.757-.474,2.662,2.662,0,0,0-.988-.177,1.083,1.083,0,0,0-.372.19q-.292.19-.66.425a4.189,4.189,0,0,1-.956.425,3.765,3.765,0,0,1-2.364,0,4.188,4.188,0,0,1-.956-.425l-.66-.425a1.082,1.082,0,0,0-.372-.19,2.66,2.66,0,0,0-.987.177,2.311,2.311,0,0,0-.757.474,3.114,3.114,0,0,0-.549.717,4.564,4.564,0,0,0-.381.863,7.509,7.509,0,0,0-.235.961,9.013,9.013,0,0,0-.124.965q-.031.447-.031.917A2.207,2.207,0,0,0,1.4,15a2.389,2.389,0,0,0,1.718.615h7.74A2.389,2.389,0,0,0,12.572,15a2.206,2.206,0,0,0,.647-1.678Q13.218,12.855,13.187,12.408Z" transform="translate(-0.75 -2.016)" fill="#7e7e7e"/>
      </g>
    </g>
  </g>
</svg>
