<svg xmlns="http://www.w3.org/2000/svg" xmlns:xlink="http://www.w3.org/1999/xlink" width="18" height="18" viewBox="0 0 18 18">
  <defs>
    <clipPath id="clip-path">
      <rect id="Rectangle_598" data-name="Rectangle 598" width="18" height="18" transform="translate(24 176)" fill="#040413"/>
    </clipPath>
  </defs>
  <g id="Mask_Group_101" data-name="Mask Group 101" transform="translate(-24 -176)" clip-path="url(#clip-path)">
    <g id="user-shape" transform="translate(24 176)">
      <g id="Group_1070" data-name="Group 1070">
        <path id="Path_456" data-name="Path 456" d="M9,9a4.336,4.336,0,0,0,3.182-1.318A4.335,4.335,0,0,0,13.5,4.5a4.336,4.336,0,0,0-1.318-3.182A4.337,4.337,0,0,0,9,0,4.336,4.336,0,0,0,5.818,1.318,4.336,4.336,0,0,0,4.5,4.5,4.335,4.335,0,0,0,5.818,7.682,4.336,4.336,0,0,0,9,9Z" fill="#040413"/>
        <path id="Path_457" data-name="Path 457" d="M17.209,13.752a12,12,0,0,0-.164-1.277,9.936,9.936,0,0,0-.311-1.272,6.03,6.03,0,0,0-.5-1.143,4.116,4.116,0,0,0-.727-.949,3.06,3.06,0,0,0-1-.627,3.523,3.523,0,0,0-1.307-.234A1.433,1.433,0,0,0,12.7,8.5q-.386.252-.873.563a5.543,5.543,0,0,1-1.266.562,4.982,4.982,0,0,1-3.129,0A5.542,5.542,0,0,1,6.17,9.065Q5.683,8.754,5.3,8.5A1.432,1.432,0,0,0,4.8,8.25,3.52,3.52,0,0,0,3.5,8.484a3.059,3.059,0,0,0-1,.627,4.121,4.121,0,0,0-.726.949,6.04,6.04,0,0,0-.5,1.143,9.937,9.937,0,0,0-.311,1.272,11.927,11.927,0,0,0-.164,1.277Q.75,14.344.75,14.965a2.921,2.921,0,0,0,.855,2.221A3.161,3.161,0,0,0,3.879,18H14.121a3.161,3.161,0,0,0,2.273-.814,2.92,2.92,0,0,0,.856-2.221Q17.25,14.344,17.209,13.752Z" fill="#040413"/>
      </g>
    </g>
  </g>
</svg>
