<svg width="20" height="20" viewBox="0 0 20 20" fill="none" xmlns="http://www.w3.org/2000/svg">
<g clip-path="url(#clip0)">
<path d="M3.81282 16.1873C7.22958 19.6041 12.7704 19.6041 16.1872 16.1873C19.6039 12.7706 19.6039 7.22972 16.1872 3.81296C12.7704 0.396197 7.22958 0.396197 3.81282 3.81296C0.396054 7.22972 0.396054 12.7706 3.81282 16.1873ZM7.67981 7.01704C7.74057 6.95627 7.84001 6.95627 7.90078 7.01704L10 9.11626L12.0992 7.01704C12.16 6.95627 12.2594 6.95627 12.3202 7.01704L12.9831 7.67995C13.0439 7.74072 13.0439 7.84015 12.9831 7.90092L10.8839 10.0001L12.9831 12.0994C13.0439 12.1601 13.0439 12.2596 12.9831 12.3203L12.3202 12.9832C12.2594 13.044 12.16 13.044 12.0992 12.9832L10 10.884L7.90078 12.9832C7.84001 13.044 7.74057 13.044 7.67981 12.9832L7.01689 12.3203C6.95613 12.2596 6.95613 12.1601 7.01689 12.0994L9.11612 10.0001L7.01689 7.90092C6.95613 7.84015 6.95613 7.74072 7.01689 7.67995L7.67981 7.01704Z" fill="black"/>
</g>
<defs>
<clipPath id="clip0">
<rect width="20" height="20" fill="white"/>
</clipPath>
</defs>
</svg>
