<svg width="40" height="40" viewBox="0 0 40 40" fill="none" xmlns="http://www.w3.org/2000/svg">
<path d="M40 20C40 31.0457 31.0457 40 20 40C8.95431 40 0 31.0457 0 20C0 8.95431 8.95431 0 20 0C31.0457 0 40 8.95431 40 20Z" fill="#6590FF"/>
<path fill-rule="evenodd" clip-rule="evenodd" d="M20 38.5714C30.2567 38.5714 38.5714 30.2567 38.5714 20C38.5714 9.74328 30.2567 1.42857 20 1.42857C9.74328 1.42857 1.42857 9.74328 1.42857 20C1.42857 30.2567 9.74328 38.5714 20 38.5714ZM20 40C31.0457 40 40 31.0457 40 20C40 8.95431 31.0457 0 20 0C8.95431 0 0 8.95431 0 20C0 31.0457 8.95431 40 20 40Z" fill="url(#paint0_linear)"/>
<path d="M13 24H13.9792V17.7444L18.0645 24H19.0436V16H18.0645V22.25L13.9792 16H13V24Z" fill="white"/>
<path d="M21.1087 24H22.077V20.0889L25.7488 24H27L23.1649 19.8833L26.7226 16H25.5041L22.077 19.7556V16H21.1087V24Z" fill="white"/>
<defs>
<linearGradient id="paint0_linear" x1="0" y1="20" x2="40" y2="20" gradientUnits="userSpaceOnUse">
<stop stop-color="#FA709A"/>
<stop offset="1" stop-color="#FEE140"/>
</linearGradient>
</defs>
</svg>
