<svg width="60" height="60" viewBox="0 0 60 60" fill="none" xmlns="http://www.w3.org/2000/svg">
<rect width="60" height="60" rx="4" fill="#FEE140"/>
<path d="M20.1539 14C18.8099 14 17.6924 15.1175 17.6924 16.4615V39.8462C17.6924 41.1902 18.8099 42.3077 20.1539 42.3077H22.6155V46L26.3078 43.5385L30.0001 46V37.1926C29.8302 37.2906 29.6492 37.3678 29.461 37.4228C29.3293 37.7067 29.1426 37.9616 28.9117 38.1729C28.6807 38.3842 28.4102 38.5475 28.1158 38.6535C27.8554 38.7386 27.5822 38.7777 27.3084 38.7692C26.9638 38.7692 26.6192 38.7249 26.3078 38.5772C25.9926 38.7148 25.6508 38.7804 25.3072 38.7692C25.0315 38.7692 24.7619 38.7483 24.4998 38.6535C23.9058 38.4375 23.4217 37.995 23.1533 37.4228C22.9656 37.3675 22.785 37.2903 22.6155 37.1926V39.8462H20.1539V16.4615H39.8462V39.8462H33.6924C33.366 39.8462 33.0529 39.9758 32.8221 40.2066C32.5913 40.4375 32.4616 40.7505 32.4616 41.0769C32.4616 41.4033 32.5913 41.7164 32.8221 41.9472C33.0529 42.178 33.366 42.3077 33.6924 42.3077H39.8462C41.1902 42.3077 42.3078 41.1902 42.3078 39.8462V16.4615C42.3078 15.1175 41.1902 14 39.8462 14H20.1539ZM23.6161 20.1538C23.2897 20.1844 22.9887 20.3433 22.7795 20.5957C22.5703 20.8481 22.4699 21.1733 22.5004 21.4997C22.5309 21.8261 22.6898 22.127 22.9422 22.3363C23.1946 22.5455 23.5198 22.6459 23.8462 22.6154H36.1539C36.4803 22.6154 36.7934 22.4857 37.0242 22.2549C37.255 22.0241 37.3847 21.711 37.3847 21.3846C37.3847 21.0582 37.255 20.7451 37.0242 20.5143C36.7934 20.2835 36.4803 20.1538 36.1539 20.1538H23.8462C23.8077 20.152 23.7691 20.152 23.7305 20.1538C23.6924 20.1521 23.6542 20.1521 23.6161 20.1538ZM23.6161 25.0769C23.2897 25.1074 22.9887 25.2664 22.7795 25.5188C22.5703 25.7712 22.4699 26.0963 22.5004 26.4228C22.5309 26.7492 22.6898 27.0501 22.9422 27.2593C23.1946 27.4686 23.5198 27.569 23.8462 27.5385H32.4616C32.788 27.5385 33.1011 27.4088 33.3319 27.178C33.5627 26.9472 33.6924 26.6341 33.6924 26.3077C33.6924 25.9813 33.5627 25.6682 33.3319 25.4374C33.1011 25.2066 32.788 25.0769 32.4616 25.0769H23.8462C23.8077 25.0751 23.7691 25.0751 23.7305 25.0769C23.6924 25.0752 23.6542 25.0752 23.6161 25.0769ZM26.3078 29.5766C26.0606 29.5769 25.8198 29.655 25.6197 29.8C25.4195 29.9449 25.2701 30.1493 25.1927 30.384C25.1422 30.4012 25.0868 30.4037 25.0388 30.4234C24.8308 30.2984 24.5887 30.2423 24.3469 30.2631C24.1051 30.2838 23.876 30.3804 23.6924 30.5391C23.5065 30.6943 23.3733 30.9034 23.3114 31.1376C23.2494 31.3717 23.2617 31.6193 23.3465 31.8462C23.3133 31.8966 23.2998 31.9471 23.269 32C23.0286 32.04 22.8067 32.1542 22.6343 32.3266C22.462 32.4989 22.3478 32.7208 22.3078 32.9612C22.2682 33.1953 22.3026 33.436 22.406 33.6497C22.5095 33.8634 22.6769 34.0396 22.885 34.1538C22.8936 34.2314 22.869 34.3102 22.885 34.3852C22.7364 34.5661 22.6459 34.7877 22.6252 35.0209C22.6046 35.2541 22.6548 35.4881 22.7693 35.6923C23.0081 36.1071 23.4832 36.3385 23.9619 36.2695C24.0235 36.3274 24.0862 36.3705 24.1539 36.4234C24.1662 36.8997 24.4702 37.3342 24.9232 37.5003C25.3712 37.664 25.8782 37.5065 26.1921 37.1532C26.2376 37.1557 26.261 37.1926 26.3078 37.1926C26.3582 37.1926 26.4112 37.1557 26.4616 37.1532C26.5679 37.2732 26.6982 37.3695 26.844 37.4359C26.9899 37.5022 27.1481 37.5372 27.3084 37.5385C27.4413 37.5385 27.5619 37.5471 27.6924 37.5003C27.9137 37.4185 28.1054 37.2721 28.2425 37.0801C28.3797 36.8881 28.456 36.6593 28.4616 36.4234C28.5268 36.3717 28.5908 36.3274 28.6536 36.2695C28.8873 36.3027 29.1255 36.2655 29.3379 36.1627C29.5503 36.0599 29.7273 35.8961 29.8462 35.6923C29.961 35.488 30.0114 35.2537 29.9907 35.0203C29.9701 34.7868 29.8794 34.565 29.7305 34.384C29.7478 34.3102 29.7195 34.2289 29.7305 34.1538C29.9394 34.0404 30.1075 33.8644 30.211 33.6504C30.3146 33.4365 30.3484 33.1954 30.3078 32.9612C30.2679 32.7207 30.1538 32.4987 29.9814 32.3264C29.809 32.154 29.587 32.0399 29.3465 32C29.317 31.9458 29.3022 31.8978 29.269 31.8462C29.3545 31.6192 29.3671 31.3712 29.3051 31.1367C29.2431 30.9023 29.1096 30.6929 28.9232 30.5378C28.7395 30.3792 28.5103 30.2827 28.2685 30.2622C28.0267 30.2416 27.7845 30.298 27.5767 30.4234C27.5275 30.4037 27.4733 30.4012 27.4228 30.3852C27.3457 30.1503 27.1964 29.9457 26.9962 29.8005C26.796 29.6553 26.5551 29.577 26.3078 29.5766ZM26.3078 31.7305C27.3982 31.7305 28.2696 32.6018 28.2696 33.6923C28.2696 34.7852 27.3995 35.6542 26.3078 35.6542C26.0497 35.6556 25.794 35.6059 25.5553 35.5078C25.3166 35.4097 25.0997 35.2653 24.9173 35.0828C24.7348 34.9004 24.5903 34.6835 24.4923 34.4448C24.3942 34.2061 24.3445 33.9504 24.3459 33.6923C24.3459 32.6006 25.2173 31.7305 26.3078 31.7305Z" fill="black"/>
</svg>
