<svg width="216" height="175" viewBox="0 0 216 175" fill="none" xmlns="http://www.w3.org/2000/svg">
<g clip-path="url(#clip0)">
<path d="M57.0312 79.6206L117.5 109.855L177.969 79.6206V144.121L117.5 174.354L57.0312 144.12V79.6206Z" fill="#DB5449"/>
<path d="M57.0312 85.6675V104.513L117.298 134.042L177.968 104.413V85.6675L117.5 115.297L57.0312 85.6675Z" fill="#C54B42"/>
<path d="M117.5 174.354V109.855L61.0625 81.6362H57.0312V144.121L117.5 174.354Z" fill="#D05045"/>
<path d="M57.0312 85.6675V104.513L117.298 134.042L117.5 133.942V115.196V115.297L57.0312 85.6675Z" fill="#BB483E"/>
<path d="M53 77.5051L117.5 45.356L182 77.5051V81.7381L117.5 113.887L53 81.8386V77.5051Z" fill="#EB6258"/>
<path d="M154.487 55.534C152.37 51.7043 147.835 49.3862 142.494 49.3862C130.299 49.3862 121.733 60.7746 117.5 68.0308C113.267 60.7746 104.6 49.4871 92.5063 49.4871C84.7462 49.4871 79.2031 54.2238 79.2031 60.6738C79.2031 72.1627 91.8008 79.6206 117.097 79.6206C142.393 79.6206 155.797 70.0465 155.797 60.7746C155.797 58.9606 155.394 57.1466 154.487 55.534ZM95.1269 67.9303C92.3049 66.0155 91.2972 63.899 91.2972 62.488C91.2972 60.7748 92.9098 59.4647 95.2277 59.4647C100.67 59.4647 105.003 66.6201 107.422 71.5585C101.073 71.0544 97.3439 69.341 95.1269 67.9303ZM139.873 67.9303C137.656 69.3413 133.927 71.0544 127.578 71.5583C129.896 66.6201 134.23 59.4644 139.773 59.4644C142.091 59.4644 143.703 60.7746 143.703 62.4878C143.703 63.899 142.695 66.0152 139.873 67.9303Z" fill="#EFEFEF"/>
<path d="M53 77.605L117.5 109.149L182 77.605V98.4666L117.298 130.011L53 98.4666V77.605Z" fill="#E2574C"/>
<path d="M141.687 100.079V97.7614L117.5 84.6598L93.3124 97.7614V100.079L77.1875 93.0246V89.7996L116.694 68.938L117.5 69.341L118.306 68.938L157.812 89.6988V92.9238L141.687 100.079Z" fill="#EFEFEF"/>
<path d="M141.688 97.7613V162.16L157.812 154.098V89.6987L141.688 97.7613Z" fill="#DCDCDC"/>
<path d="M77.1875 154.198L93.3124 162.261V97.8621L77.1875 89.6987C77.1875 89.6985 77.1875 154.198 77.1875 154.198Z" fill="#D1D1D1"/>
</g>
<ellipse cx="184.5" cy="7.62946" rx="7.5" ry="7.34674" fill="#FFD466"/>
<path d="M194.5 121.259C194.5 123.408 192.719 125.167 190.5 125.167C188.281 125.167 186.5 123.408 186.5 121.259C186.5 119.11 188.281 117.351 190.5 117.351C192.719 117.351 194.5 119.11 194.5 121.259Z" stroke="#FFD466"/>
<path d="M0 33.355H18.5L9 46.355H23L18.5 58.355" stroke="#00C623" stroke-width="2"/>
<path d="M78.8438 39.5977L60.9741 44.3858L66.7858 29.37L53.2628 32.9935L54.5036 20.2377" stroke="#434343" stroke-width="2"/>
<path d="M214.101 52.8257L209.312 70.6953L199.214 58.1544L195.591 71.6773L185.164 64.2248" stroke="#434343" stroke-width="2"/>
<path d="M214.5 98.355C210.667 99.6883 203 106.055 203 120.855" stroke="#7F60FA" stroke-width="2"/>
<path d="M89.8818 12.0002C89.1199 15.9866 90.8002 25.8095 103.617 33.2095" stroke="#FFD466" stroke-width="2"/>
<path d="M138.013 42.4727C142 43.2346 151.823 41.5543 159.223 28.7371" stroke="#7F60FA" stroke-width="2"/>
<path d="M35.5 135.855C34.1667 132.022 27.8 124.355 13 124.355" stroke="#D05045" stroke-width="2"/>
<circle cx="23.5" cy="82.855" r="7.5" fill="#7F60FA"/>
<circle cx="30" cy="102.355" r="2" fill="#7F60FA"/>
<defs>
<clipPath id="clip0">
<rect width="129" height="129" fill="white" transform="translate(53 45.355)"/>
</clipPath>
</defs>
</svg>
