<svg width="512" height="512" viewBox="0 0 512 512" fill="none" xmlns="http://www.w3.org/2000/svg">
<rect width="512" height="512" rx="70" fill="white"/>
<path d="M276.691 407.509L322.824 348.993C323.654 347.936 324.107 346.048 324.107 343.934V188.018C324.107 185.375 322.975 183.488 321.842 184.394L275.86 220.938C274.878 221.768 274.199 223.958 274.199 226.449V404.186C274.199 407.056 275.558 408.943 276.691 407.509Z" fill="#99803A"/>
<path d="M237.051 407.509L190.918 348.993C190.087 347.936 189.634 346.048 189.634 343.934V188.018C189.634 185.375 190.767 183.488 191.899 184.394L237.881 220.938C238.863 221.768 239.542 223.958 239.542 226.449V404.186C239.542 407.056 238.183 408.943 237.051 407.509Z" fill="#493A99"/>
<path d="M235.692 407.509L165.246 348.993C164.038 347.936 163.283 346.048 163.283 343.934V188.018C163.283 185.375 165.02 183.488 166.681 184.394L236.975 220.938C238.561 221.768 239.542 223.958 239.542 226.449V404.186C239.542 407.056 237.428 408.943 235.692 407.509Z" fill="#624ECC"/>
<path d="M277.974 407.509L348.495 348.993C349.703 347.936 350.458 346.048 350.458 343.934V188.018C350.458 185.375 348.722 183.488 347.061 184.394L276.766 220.938C275.181 221.768 274.199 223.958 274.199 226.449V404.186C274.199 407.056 276.238 408.943 277.974 407.509Z" fill="#CCAA4E"/>
<path d="M261.439 103.68L387.304 139.846C389.343 140.45 389.418 143.848 387.455 144.603L262.722 191.793C258.57 193.379 254.115 193.379 250.038 191.793L125.456 144.603C123.417 143.848 123.568 140.45 125.607 139.846L251.623 103.68C254.87 102.773 258.192 102.773 261.439 103.68Z" fill="#360DBB"/>
<path d="M233.804 406.603L127.796 348.087C125.984 347.03 124.776 345.142 124.776 343.028V187.036C124.776 184.394 127.419 182.506 129.91 183.412L235.616 219.956C237.957 220.787 239.542 222.976 239.542 225.468V403.205C239.542 406.15 236.371 407.962 233.804 406.603Z" fill="#7B61FF"/>
<path d="M279.862 406.603L385.87 348.087C387.682 347.03 388.89 345.142 388.89 343.028V187.036C388.89 184.394 386.247 182.506 383.756 183.412L278.05 219.956C275.709 220.787 274.123 222.976 274.123 225.468V403.205C274.199 406.15 277.295 407.962 279.862 406.603Z" fill="#FFD561"/>
</svg>
