<svg width="13" height="13" viewBox="0 0 13 13" fill="none" xmlns="http://www.w3.org/2000/svg">
<path d="M7.93966 5.99993L12.7997 1.13993C12.9089 1.0124 12.9659 0.848345 12.9595 0.680561C12.953 0.512777 12.8834 0.353618 12.7647 0.234888C12.646 0.116158 12.4868 0.0466031 12.319 0.0401224C12.1512 0.0336416 11.9872 0.0907126 11.8597 0.19993L6.99966 5.05993L2.13966 0.193263C2.01212 0.0840458 1.84807 0.0269754 1.68029 0.0334562C1.5125 0.0399369 1.35334 0.109492 1.23461 0.228221C1.11589 0.346951 1.04633 0.50611 1.03985 0.673894C1.03337 0.841678 1.09044 1.00573 1.19966 1.13326L6.05966 5.99993L1.19299 10.8599C1.1232 10.9197 1.06652 10.9932 1.02651 11.076C0.986491 11.1587 0.964004 11.2487 0.960458 11.3406C0.956911 11.4324 0.972382 11.5239 1.0059 11.6095C1.03941 11.695 1.09025 11.7727 1.15522 11.8377C1.22019 11.9027 1.29789 11.9535 1.38344 11.987C1.46899 12.0205 1.56055 12.036 1.65236 12.0325C1.74417 12.0289 1.83426 12.0064 1.91697 11.9664C1.99968 11.9264 2.07323 11.8697 2.13299 11.7999L6.99966 6.93993L11.8597 11.7999C11.9872 11.9091 12.1512 11.9662 12.319 11.9597C12.4868 11.9533 12.646 11.8837 12.7647 11.765C12.8834 11.6462 12.953 11.4871 12.9595 11.3193C12.9659 11.1515 12.9089 10.9875 12.7997 10.8599L7.93966 5.99993Z" fill="black"/>
</svg>
