<svg width="60" height="60" viewBox="0 0 60 60" fill="none" xmlns="http://www.w3.org/2000/svg">
<rect width="60" height="60" rx="4" fill="#7F60FA"/>
<path fill-rule="evenodd" clip-rule="evenodd" d="M30.0004 45.4838C38.5519 45.4838 45.4843 38.5515 45.4843 29.9999C45.4843 21.4484 38.5519 14.5161 30.0004 14.5161C21.4489 14.5161 14.5166 21.4484 14.5166 29.9999C14.5166 38.5515 21.4489 45.4838 30.0004 45.4838ZM30.0004 47.7777C39.8188 47.7777 47.7782 39.8183 47.7782 29.9999C47.7782 20.1816 39.8188 12.2222 30.0004 12.2222C20.182 12.2222 12.2227 20.1816 12.2227 29.9999C12.2227 39.8183 20.182 47.7777 30.0004 47.7777Z" fill="#F4F4F4"/>
<path fill-rule="evenodd" clip-rule="evenodd" d="M29.6345 17.0694C27.9824 17.1064 26.6731 18.4756 26.7101 20.1277L26.7381 21.3836C26.7518 21.9922 26.2694 22.4967 25.6607 22.5103C25.052 22.5239 24.5476 22.0415 24.534 21.4329L24.5059 20.177C24.4417 17.3076 26.7158 14.9294 29.5852 14.8652C32.4547 14.801 34.8328 17.0752 34.897 19.9446L34.9965 24.3923C35.0464 26.6241 36.8961 28.3929 39.1279 28.3429L40.1251 28.3206C40.7337 28.307 41.2382 28.7894 41.2518 29.3981C41.2654 30.0068 40.783 30.5112 40.1744 30.5248L39.1772 30.5471C35.7281 30.6243 32.8695 27.8908 32.7923 24.4416L32.6928 19.9939C32.6559 18.3418 31.2866 17.0325 29.6345 17.0694Z" fill="#F4F4F4"/>
<path fill-rule="evenodd" clip-rule="evenodd" d="M30.3113 42.9213C31.9634 42.8844 33.2727 41.5151 33.2357 39.863L33.2077 38.6072C33.194 37.9985 33.6764 37.494 34.2851 37.4804C34.8938 37.4668 35.3982 37.9492 35.4118 38.5579L35.4399 39.8137C35.5041 42.6831 33.23 45.0613 30.3606 45.1255C27.4911 45.1897 25.113 42.9156 25.0488 40.0461L24.9493 35.5984C24.8994 33.3666 23.0497 31.5979 20.8179 31.6478L19.8207 31.6701C19.2121 31.6837 18.7076 31.2013 18.694 30.5926C18.6804 29.984 19.1628 29.4795 19.7714 29.4659L20.7686 29.4436C24.2177 29.3664 27.0763 32.1 27.1535 35.5491L27.253 39.9968C27.2899 41.6489 28.6592 42.9583 30.3113 42.9213Z" fill="#F4F4F4"/>
<path fill-rule="evenodd" clip-rule="evenodd" d="M42.9053 29.633C42.8726 27.9808 41.5068 26.668 39.8546 26.7007L38.5987 26.7255C37.99 26.7375 37.4868 26.2539 37.4747 25.6452C37.4627 25.0365 37.9464 24.5332 38.5551 24.5212L39.811 24.4964C42.6806 24.4396 45.0529 26.7198 45.1096 29.5894C45.1664 32.459 42.8862 34.8313 40.0166 34.8881L35.5686 34.9761C33.3367 35.0202 31.5632 36.8654 31.6073 39.0973L31.627 40.0945C31.6391 40.7032 31.1554 41.2064 30.5467 41.2184C29.938 41.2305 29.4348 40.7468 29.4227 40.1381L29.403 39.1409C29.3348 35.6916 32.0757 32.84 35.525 32.7718L39.973 32.6838C41.6251 32.6511 42.938 31.2852 42.9053 29.633Z" fill="#F4F4F4"/>
<path fill-rule="evenodd" clip-rule="evenodd" d="M17.04 30.3577C17.0727 32.0099 18.4385 33.3228 20.0907 33.2901L21.3466 33.2652C21.9553 33.2532 22.4586 33.7369 22.4706 34.3456C22.4826 34.9543 21.999 35.4575 21.3902 35.4695L20.1343 35.4944C17.2647 35.5511 14.8925 33.2709 14.8357 30.4013C14.7789 27.5317 17.0591 25.1594 19.9287 25.1026L24.3767 25.0146C26.6086 24.9705 28.3822 23.1254 28.338 20.8935L28.3183 19.8963C28.3062 19.2876 28.7899 18.7844 29.3986 18.7723C30.0073 18.7603 30.5105 19.244 30.5226 19.8527L30.5423 20.8498C30.6106 24.2992 27.8697 27.1507 24.4203 27.2189L19.9724 27.3069C18.3202 27.3396 17.0073 28.7055 17.04 30.3577Z" fill="#F4F4F4"/>
</svg>
