<svg width="20" height="20" viewBox="0 0 20 20" fill="none" xmlns="http://www.w3.org/2000/svg">
<path d="M1.66699 9.99984C1.66699 14.6023 5.39783 18.3332 10.0003 18.3332C14.6028 18.3332 18.3337 14.6023 18.3337 9.99984C18.3337 5.39734 14.6028 1.6665 10.0003 1.6665C5.39783 1.6665 1.66699 5.39734 1.66699 9.99984Z" stroke="#447CF6" stroke-width="1.5" stroke-linecap="round" stroke-linejoin="round"/>
<path d="M10.834 1.70801C10.834 1.70801 13.334 4.99967 13.334 9.99967C13.334 14.9997 10.834 18.2913 10.834 18.2913" stroke="#447CF6" stroke-width="1.5" stroke-linecap="round" stroke-linejoin="round"/>
<path d="M9.16699 18.2913C9.16699 18.2913 6.66699 14.9997 6.66699 9.99967C6.66699 4.99967 9.16699 1.70801 9.16699 1.70801" stroke="#447CF6" stroke-width="1.5" stroke-linecap="round" stroke-linejoin="round"/>
<path d="M2.19238 12.9165H17.809" stroke="#447CF6" stroke-width="1.5" stroke-linecap="round" stroke-linejoin="round"/>
<path d="M2.19238 7.08301H17.809" stroke="#447CF6" stroke-width="1.5" stroke-linecap="round" stroke-linejoin="round"/>
</svg>
