<svg width="121" height="60" viewBox="0 0 121 60" fill="none" xmlns="http://www.w3.org/2000/svg">
<path d="M66.457 14.6455H72.3795V30.9099H82.3838V35.6184H66.457V14.6455Z" fill="#360DBB"/>
<path d="M83.1855 33.7319L85.13 29.365C86.9854 30.5978 89.6275 31.4296 92.0469 31.4296C94.496 31.4296 95.4609 30.7464 95.4609 29.7215C95.4609 26.3943 83.5418 28.8154 83.5418 21.0323C83.5418 17.2893 86.5995 14.2295 92.8188 14.2295C95.5499 14.2295 98.3553 14.8533 100.418 16.0564L98.6076 20.453C96.6038 19.3687 94.6296 18.834 92.8039 18.834C90.3251 18.834 89.4197 19.6658 89.4197 20.7204C89.4197 23.9287 101.309 21.5225 101.309 29.261C101.309 32.9149 98.2514 36.0341 92.0321 36.0341C88.5736 36.0341 85.1597 35.0984 83.1855 33.7319Z" fill="#360DBB"/>
<path d="M120.858 31.0287V35.6184H104.025V14.6455H120.457V19.2352H109.888V22.7703H119.195V27.2114H109.888V31.0435H120.858V31.0287Z" fill="#360DBB"/>
<path d="M72.5877 41.4706C72.5877 42.941 71.5041 43.8471 69.7526 43.8471H68.2535V45.778H67.0215V39.1089H69.7675C71.5041 39.1089 72.5877 40.0001 72.5877 41.4706ZM71.3409 41.4706C71.3409 40.6388 70.7768 40.1486 69.6933 40.1486H68.2535V42.7925H69.6933C70.7768 42.7925 71.3409 42.3172 71.3409 41.4706Z" fill="#360DBB"/>
<path d="M73.8203 39.1089H75.0523V44.7234H78.5405V45.778H73.8203V39.1089Z" fill="#360DBB"/>
<path d="M83.899 44.2333H80.5741L79.921 45.778H78.6445L81.6429 39.1089H82.86L85.8732 45.778H84.5818L83.899 44.2333ZM83.4834 43.253L82.2217 40.3417L80.9749 43.253H83.4834Z" fill="#360DBB"/>
<path d="M87.7273 40.1488H85.5156V39.0942H91.1709V40.1488H88.9592V45.7634H87.7273V40.1488Z" fill="#360DBB"/>
<path d="M93.3394 40.1489V42.1838H96.5604V43.2384H93.3394V45.7932H92.1074V39.124H96.976V40.1638H93.3394V40.1489Z" fill="#360DBB"/>
<path d="M97.6133 42.436C97.6133 40.4605 99.1421 39.0049 101.205 39.0049C103.269 39.0049 104.797 40.4456 104.797 42.436C104.797 44.4263 103.269 45.8671 101.205 45.8671C99.1421 45.8671 97.6133 44.4115 97.6133 42.436ZM103.551 42.436C103.551 41.0695 102.556 40.0892 101.205 40.0892C99.8546 40.0892 98.8601 41.0695 98.8601 42.436C98.8601 43.8025 99.8546 44.7828 101.205 44.7828C102.556 44.7828 103.551 43.8025 103.551 42.436Z" fill="#360DBB"/>
<path d="M110.468 45.7783L109.103 43.8325C109.014 43.8474 108.925 43.8474 108.85 43.8474H107.351V45.7931H106.119V39.124H108.865C110.617 39.124 111.7 40.0152 111.7 41.5006C111.7 42.5106 111.181 43.2532 110.275 43.6097L111.804 45.808H110.468V45.7783ZM108.791 40.1489H107.351V42.8076H108.791C109.874 42.8076 110.439 42.3175 110.439 41.4708C110.439 40.6242 109.874 40.1489 108.791 40.1489Z" fill="#360DBB"/>
<path d="M119.196 45.778L119.181 41.3517L116.984 45.0056H116.435L114.238 41.4111V45.778H113.051V39.1089H114.075L116.717 43.5352L119.315 39.1089H120.339L120.354 45.778H119.196Z" fill="#360DBB"/>
<path d="M30.0172 59.9035L39.0863 48.3922C39.2496 48.1843 39.3387 47.813 39.3387 47.3971V16.725C39.3387 16.2051 39.116 15.8338 38.8934 16.012L29.8539 23.201C29.6609 23.3644 29.5273 23.7952 29.5273 24.2853V59.25C29.5273 59.8144 29.7945 60.1857 30.0172 59.9035Z" fill="#99803A"/>
<path d="M22.2238 59.9035L13.1547 48.3922C12.9914 48.1843 12.9023 47.813 12.9023 47.3971V16.725C12.9023 16.2051 13.125 15.8338 13.3476 16.012L22.3871 23.201C22.5801 23.3644 22.7137 23.7952 22.7137 24.2853V59.25C22.7137 59.8144 22.4465 60.1857 22.2238 59.9035Z" fill="#493A99"/>
<path d="M21.9572 59.9035L8.10858 48.3922C7.87109 48.1843 7.72266 47.813 7.72266 47.3971V16.725C7.72266 16.2051 8.06405 15.8338 8.3906 16.012L22.2096 23.201C22.5213 23.3644 22.7142 23.7952 22.7142 24.2853V59.25C22.7142 59.8144 22.2986 60.1857 21.9572 59.9035Z" fill="#624ECC"/>
<path d="M30.2695 59.9035L44.133 48.3922C44.3705 48.1843 44.5189 47.813 44.5189 47.3971V16.725C44.5189 16.2051 44.1775 15.8338 43.851 16.012L30.032 23.201C29.7203 23.3644 29.5273 23.7952 29.5273 24.2853V59.25C29.5273 59.8144 29.9281 60.1857 30.2695 59.9035Z" fill="#CCAA4E"/>
<path d="M27.0187 0.13368L51.7622 7.24841C52.163 7.36724 52.1778 8.03563 51.7919 8.18417L27.271 17.4675C26.4546 17.7794 25.5789 17.7794 24.7774 17.4675L0.286143 8.18417C-0.114622 8.03563 -0.0849365 7.36724 0.315829 7.24841L25.0891 0.13368C25.7273 -0.0445599 26.3804 -0.0445599 27.0187 0.13368Z" fill="#360DBB"/>
<path d="M21.5859 59.725L0.74607 48.2137C0.389834 48.0058 0.152344 47.6344 0.152344 47.2185V16.5316C0.152344 16.0118 0.671855 15.6404 1.16168 15.8187L21.9421 23.0077C22.4022 23.1711 22.7139 23.6018 22.7139 24.092V59.0566C22.7139 59.6359 22.0905 59.9924 21.5859 59.725Z" fill="#7B61FF"/>
<path d="M30.6398 59.725L51.4796 48.2137C51.8358 48.0058 52.0733 47.6344 52.0733 47.2185V16.5316C52.0733 16.0118 51.5538 15.6404 51.064 15.8187L30.2836 23.0077C29.8234 23.1711 29.5117 23.6018 29.5117 24.092V59.0566C29.5266 59.6359 30.1351 59.9924 30.6398 59.725Z" fill="#FFD561"/>
</svg>
