<svg width="178" height="88" viewBox="0 0 178 88" fill="none" xmlns="http://www.w3.org/2000/svg">
<path d="M97.4824 21.4675H106.17V45.3084H120.844V52.2103H97.4824V21.4675Z" fill="#360DBB"/>
<path d="M122.02 49.4452L124.872 43.0441C127.593 44.8512 131.469 46.0705 135.018 46.0705C138.61 46.0705 140.025 45.0689 140.025 43.5666C140.025 38.6896 122.542 42.2385 122.542 30.8297C122.542 25.343 127.027 20.8579 136.15 20.8579C140.156 20.8579 144.271 21.7724 147.297 23.5359L144.641 29.9806C141.702 28.3912 138.806 27.6074 136.128 27.6074C132.492 27.6074 131.164 28.8266 131.164 30.3725C131.164 35.0754 148.604 31.5482 148.604 42.8917C148.604 48.2477 144.119 52.82 134.996 52.82C129.923 52.82 124.915 51.4483 122.02 49.4452Z" fill="#360DBB"/>
<path d="M177.278 45.4826V52.2103H152.588V21.4675H176.69V28.1952H161.188V33.3771H174.839V39.8871H161.188V45.5044H177.278V45.4826Z" fill="#360DBB"/>
<path d="M106.473 60.789C106.473 62.9445 104.884 64.2726 102.315 64.2726H100.116V67.103H98.3086V57.3271H102.337C104.884 57.3271 106.473 58.6335 106.473 60.789ZM104.644 60.789C104.644 59.5697 103.817 58.8512 102.228 58.8512H100.116V62.7267H102.228C103.817 62.7267 104.644 62.03 104.644 60.789Z" fill="#360DBB"/>
<path d="M108.281 57.3267H110.088V65.5567H115.205V67.1025H108.281V57.3267Z" fill="#360DBB"/>
<path d="M123.063 64.8382H118.186L117.228 67.1025H115.355L119.754 57.3267H121.539L125.959 67.1025H124.064L123.063 64.8382ZM122.453 63.4012L120.603 59.1338L118.774 63.4012H122.453Z" fill="#360DBB"/>
<path d="M128.682 58.851H125.438V57.3052H133.733V58.851H130.489V67.081H128.682V58.851Z" fill="#360DBB"/>
<path d="M136.911 58.8512V61.834H141.635V63.3799H136.911V67.1247H135.104V57.3489H142.245V58.873H136.911V58.8512Z" fill="#360DBB"/>
<path d="M143.182 62.204C143.182 59.3083 145.424 57.1746 148.451 57.1746C151.477 57.1746 153.72 59.2865 153.72 62.204C153.72 65.1215 151.477 67.2334 148.451 67.2334C145.424 67.2334 143.182 65.0997 143.182 62.204ZM151.891 62.204C151.891 60.2009 150.432 58.764 148.451 58.764C146.469 58.764 145.011 60.2009 145.011 62.204C145.011 64.2071 146.469 65.6441 148.451 65.6441C150.432 65.6441 151.891 64.2071 151.891 62.204Z" fill="#360DBB"/>
<path d="M162.038 67.103L160.034 64.2508C159.904 64.2725 159.773 64.2725 159.664 64.2725H157.465V67.1247H155.658V57.3489H159.686C162.255 57.3489 163.845 58.6552 163.845 60.8325C163.845 62.313 163.083 63.4016 161.755 63.9242L163.997 67.1465H162.038V67.103ZM159.577 58.8512H157.465V62.7485H159.577C161.167 62.7485 161.994 62.03 161.994 60.7889C161.994 59.5479 161.167 58.8512 159.577 58.8512Z" fill="#360DBB"/>
<path d="M174.838 67.1025L174.816 60.6143L171.594 65.9703H170.788L167.566 60.7014V67.1025H165.824V57.3267H167.327L171.202 63.8149L175.012 57.3267H176.515L176.536 67.1025H174.838Z" fill="#360DBB"/>
<path d="M44.029 87.8086L57.332 70.9349C57.5715 70.6301 57.7022 70.0858 57.7022 69.4762V24.5159C57.7022 23.7539 57.3756 23.2096 57.049 23.4709L43.7895 34.0087C43.5065 34.2482 43.3105 34.8796 43.3105 35.5981V86.8506C43.3105 87.678 43.7025 88.2223 44.029 87.8086Z" fill="#99803A"/>
<path d="M32.5989 87.8086L19.2959 70.9349C19.0564 70.6301 18.9258 70.0858 18.9258 69.4762V24.5159C18.9258 23.7539 19.2524 23.2096 19.579 23.4709L32.8384 34.0087C33.1215 34.2482 33.3174 34.8796 33.3174 35.5981V86.8506C33.3174 87.678 32.9255 88.2223 32.5989 87.8086Z" fill="#493A99"/>
<path d="M32.208 87.8086L11.8942 70.9349C11.5459 70.6301 11.3281 70.0858 11.3281 69.4762V24.5159C11.3281 23.7539 11.8289 23.2096 12.3079 23.4709L32.5781 34.0087C33.0353 34.2482 33.3184 34.8796 33.3184 35.5981V86.8506C33.3184 87.678 32.7087 88.2223 32.208 87.8086Z" fill="#624ECC"/>
<path d="M44.3992 87.8086L64.7347 70.9349C65.0831 70.6301 65.3008 70.0858 65.3008 69.4762V24.5159C65.3008 23.7539 64.8 23.2096 64.321 23.4709L44.0508 34.0087C43.5936 34.2482 43.3105 34.8796 43.3105 35.5981V86.8506C43.3105 87.678 43.8984 88.2223 44.3992 87.8086Z" fill="#CCAA4E"/>
<path d="M39.632 0.195953L75.9268 10.625C76.5146 10.7992 76.5364 11.7789 75.9703 11.9966L40.0021 25.6045C38.8047 26.0617 37.5201 26.0617 36.3444 25.6045L0.419725 11.9966C-0.168132 11.7789 -0.124588 10.7992 0.46327 10.625L36.8016 0.195953C37.7378 -0.0653175 38.6958 -0.0653175 39.632 0.195953Z" fill="#360DBB"/>
<path d="M31.6641 87.5472L1.09551 70.6735C0.572969 70.3687 0.224609 69.8244 0.224609 69.2147V24.2327C0.224609 23.4707 0.986648 22.9264 1.70514 23.1876L32.1867 33.7255C32.8616 33.965 33.3188 34.5964 33.3188 35.3149V86.5674C33.3188 87.4166 32.4044 87.9391 31.6641 87.5472Z" fill="#7B61FF"/>
<path d="M44.9438 87.5472L75.5124 70.6735C76.0349 70.3687 76.3833 69.8244 76.3833 69.2147V24.2327C76.3833 23.4707 75.6212 22.9264 74.9027 23.1876L44.4212 33.7255C43.7463 33.965 43.2891 34.5964 43.2891 35.3149V86.5674C43.3108 87.4166 44.2035 87.9391 44.9438 87.5472Z" fill="#FFD561"/>
</svg>
