<svg width="18" height="18" viewBox="0 0 18 18" fill="none" xmlns="http://www.w3.org/2000/svg">
<path d="M10.5167 17.3332H7.48332C7.29326 17.3332 7.1089 17.2683 6.96082 17.1491C6.81274 17.03 6.70982 16.8638 6.66915 16.6782L6.32999 15.1082C5.87753 14.9099 5.44851 14.662 5.05082 14.369L3.51999 14.8565C3.33879 14.9143 3.14328 14.9084 2.96592 14.8397C2.78856 14.771 2.64003 14.6437 2.54499 14.479L1.02499 11.8532C0.930939 11.6883 0.895637 11.4964 0.924854 11.3088C0.95407 11.1212 1.04608 10.9491 1.18582 10.8207L2.37332 9.73734C2.31932 9.2466 2.31932 8.75141 2.37332 8.26067L1.18582 7.17984C1.04588 7.05131 0.953747 6.87907 0.924526 6.69132C0.895304 6.50358 0.930726 6.31148 1.02499 6.1465L2.54165 3.519C2.63669 3.35427 2.78523 3.227 2.96259 3.15833C3.13994 3.08966 3.33545 3.08372 3.51665 3.1415L5.04749 3.629C5.25082 3.479 5.46249 3.339 5.68082 3.21234C5.89165 3.094 6.10832 2.9865 6.32999 2.89067L6.66999 1.32234C6.71046 1.13667 6.81318 0.97041 6.96111 0.851128C7.10904 0.731845 7.29329 0.666704 7.48332 0.666504H10.5167C10.7067 0.666704 10.8909 0.731845 11.0389 0.851128C11.1868 0.97041 11.2895 1.13667 11.33 1.32234L11.6733 2.8915C11.9067 2.99484 12.135 3.11067 12.3558 3.23984C12.5617 3.359 12.7608 3.48984 12.9525 3.63067L14.4842 3.14317C14.6652 3.0856 14.8606 3.09165 15.0377 3.1603C15.2149 3.22896 15.3633 3.35611 15.4583 3.52067L16.975 6.14817C17.1683 6.48734 17.1017 6.9165 16.8142 7.18067L15.6267 8.264C15.6807 8.75475 15.6807 9.24993 15.6267 9.74067L16.8142 10.824C17.1017 11.089 17.1683 11.5173 16.975 11.8565L15.4583 14.484C15.3633 14.6487 15.2147 14.776 15.0374 14.8447C14.86 14.9134 14.6645 14.9193 14.4833 14.8615L12.9525 14.374C12.5551 14.6668 12.1263 14.9144 11.6742 15.1123L11.33 16.6782C11.2893 16.8637 11.1866 17.0298 11.0386 17.1489C10.8907 17.268 10.7066 17.333 10.5167 17.3332ZM8.99665 5.6665C8.1126 5.6665 7.26475 6.01769 6.63963 6.64281C6.01451 7.26794 5.66332 8.11578 5.66332 8.99984C5.66332 9.88389 6.01451 10.7317 6.63963 11.3569C7.26475 11.982 8.1126 12.3332 8.99665 12.3332C9.88071 12.3332 10.7286 11.982 11.3537 11.3569C11.9788 10.7317 12.33 9.88389 12.33 8.99984C12.33 8.11578 11.9788 7.26794 11.3537 6.64281C10.7286 6.01769 9.88071 5.6665 8.99665 5.6665Z" fill="#5A5A5A"/>
</svg>
