<svg width="64" height="64" viewBox="0 0 64 64" fill="none" xmlns="http://www.w3.org/2000/svg">
<path fill-rule="evenodd" clip-rule="evenodd" d="M32 59.871C47.3927 59.871 59.871 47.3927 59.871 32C59.871 16.6073 47.3927 4.12903 32 4.12903C16.6073 4.12903 4.12903 16.6073 4.12903 32C4.12903 47.3927 16.6073 59.871 32 59.871ZM32 64C49.6731 64 64 49.6731 64 32C64 14.3269 49.6731 0 32 0C14.3269 0 0 14.3269 0 32C0 49.6731 14.3269 64 32 64Z" fill="white"/>
<path fill-rule="evenodd" clip-rule="evenodd" d="M31.3422 8.72514C28.3684 8.79166 26.0116 11.2563 26.0781 14.2301L26.1287 16.4906C26.1532 17.5862 25.2849 18.4942 24.1893 18.5188C23.0937 18.5433 22.1856 17.675 22.1611 16.5794L22.1106 14.3188C21.995 9.15385 26.0884 4.87314 31.2534 4.75761C36.4184 4.64207 40.6991 8.73547 40.8147 13.9005L40.9937 21.9064C41.0836 25.9236 44.413 29.1074 48.4303 29.0175L50.2251 28.9774C51.3207 28.9528 52.2287 29.8211 52.2532 30.9168C52.2777 32.0124 51.4094 32.9204 50.3138 32.9449L48.519 32.985C42.3106 33.1239 37.1651 28.2036 37.0262 21.9951L36.8471 13.9892C36.7806 11.0154 34.3159 8.65862 31.3422 8.72514Z" fill="white"/>
<path fill-rule="evenodd" clip-rule="evenodd" d="M32.5602 55.2583C35.534 55.1917 37.8908 52.7271 37.8243 49.7533L37.7737 47.4928C37.7492 46.3972 38.6175 45.4892 39.7131 45.4646C40.8087 45.4401 41.7167 46.3084 41.7412 47.404L41.7918 49.6646C41.9073 54.8296 37.8139 59.1103 32.6489 59.2258C27.4839 59.3413 23.2032 55.2479 23.0877 50.0829L22.9086 42.077C22.8187 38.0598 19.4893 34.876 15.4721 34.9659L13.6773 35.006C12.5816 35.0305 11.6736 34.1622 11.6491 33.0666C11.6246 31.971 12.4929 31.063 13.5885 31.0385L15.3833 30.9984C21.5918 30.8595 26.7373 35.7798 26.8761 41.9883L27.0552 49.9942C27.1217 52.968 29.5864 55.3248 32.5602 55.2583Z" fill="white"/>
<path fill-rule="evenodd" clip-rule="evenodd" d="M55.23 31.3393C55.1711 28.3653 52.7126 26.0022 49.7386 26.061L47.478 26.1057C46.3823 26.1274 45.4766 25.2568 45.4549 24.1611C45.4332 23.0654 46.3038 22.1596 47.3995 22.138L49.6601 22.0932C54.8254 21.991 59.0955 26.0955 59.1977 31.2608C59.2999 36.426 55.1955 40.6962 50.0302 40.7984L42.0239 40.9568C38.0064 41.0362 34.8141 44.3575 34.8936 48.3749L34.9291 50.1698C34.9507 51.2655 34.0801 52.1713 32.9844 52.193C31.8888 52.2146 30.983 51.344 30.9613 50.2483L30.9258 48.4534C30.803 42.2446 35.7366 37.1118 41.9454 36.989L49.9517 36.8306C52.9257 36.7718 55.2888 34.3132 55.23 31.3393Z" fill="white"/>
<path fill-rule="evenodd" clip-rule="evenodd" d="M8.67237 32.6436C8.7312 35.6176 11.1898 37.9808 14.1637 37.9219L16.4243 37.8772C17.52 37.8555 18.4258 38.7262 18.4475 39.8218C18.4691 40.9175 17.5985 41.8233 16.5028 41.8449L14.2422 41.8897C9.07693 41.9919 4.80681 37.8874 4.70461 32.7221C4.60242 27.5569 8.70686 23.2867 13.8721 23.1846L21.8785 23.0262C25.8959 22.9467 29.0883 19.6255 29.0088 15.608L28.9733 13.8131C28.9516 12.7174 29.8222 11.8116 30.9179 11.79C32.0136 11.7683 32.9194 12.6389 32.941 13.7346L32.9765 15.5295C33.0994 21.7383 28.1658 26.8711 21.957 26.9939L13.9506 27.1523C10.9767 27.2111 8.61353 29.6697 8.67237 32.6436Z" fill="white"/>
</svg>
