<svg width="64" height="64" viewBox="0 0 64 64" fill="none" xmlns="http://www.w3.org/2000/svg">
<rect width="64" height="64" rx="4" fill="#2E303F"/>
<path fill-rule="evenodd" clip-rule="evenodd" d="M32 52.9032C43.5445 52.9032 52.9032 43.5445 52.9032 32C52.9032 20.4555 43.5445 11.0968 32 11.0968C20.4555 11.0968 11.0968 20.4555 11.0968 32C11.0968 43.5445 20.4555 52.9032 32 52.9032ZM32 56C45.2548 56 56 45.2548 56 32C56 18.7452 45.2548 8 32 8C18.7452 8 8 18.7452 8 32C8 45.2548 18.7452 56 32 56Z" fill="url(#paint0_linear)"/>
<path fill-rule="evenodd" clip-rule="evenodd" d="M31.5064 14.5439C29.276 14.5937 27.5084 16.4422 27.5583 18.6726L27.5962 20.368C27.6146 21.1897 26.9634 21.8707 26.1417 21.8891C25.32 21.9074 24.639 21.2562 24.6206 20.4345L24.5827 18.7391C24.496 14.8654 27.5661 11.6549 31.4398 11.5682C35.3136 11.4816 38.5241 14.5516 38.6107 18.4254L38.7451 24.4298C38.8125 27.4427 41.3095 29.8305 44.3224 29.7631L45.6686 29.733C46.4903 29.7146 47.1713 30.3659 47.1897 31.1876C47.2081 32.0093 46.5568 32.6903 45.7351 32.7087L44.389 32.7388C39.7327 32.8429 35.8736 29.1527 35.7694 24.4964L35.6351 18.4919C35.5852 16.2616 33.7367 14.494 31.5064 14.5439Z" fill="url(#paint1_linear)"/>
<path fill-rule="evenodd" clip-rule="evenodd" d="M32.4194 49.4432C34.6497 49.3933 36.4173 47.5448 36.3675 45.3145L36.3295 43.6191C36.3112 42.7974 36.9624 42.1164 37.7841 42.098C38.6058 42.0796 39.2868 42.7308 39.3052 43.5525L39.3431 45.2479C39.4298 49.1217 36.3597 52.3322 32.486 52.4189C28.6122 52.5055 25.4017 49.4355 25.315 45.5617L25.1807 39.5573C25.1133 36.5444 22.6162 34.1565 19.6033 34.2239L18.2572 34.254C17.4355 34.2724 16.7545 33.6212 16.7361 32.7995C16.7177 31.9778 17.3689 31.2968 18.1906 31.2784L19.5368 31.2483C24.1931 31.1441 28.0522 34.8344 28.1564 39.4907L28.2907 45.4951C28.3406 47.7255 30.1891 49.4931 32.4194 49.4432Z" fill="url(#paint2_linear)"/>
<path fill-rule="evenodd" clip-rule="evenodd" d="M49.4227 31.5049C49.3786 29.2745 47.5347 27.5021 45.3042 27.5462L43.6087 27.5798C42.787 27.596 42.1077 26.9431 42.0914 26.1213C42.0751 25.2996 42.7281 24.6202 43.5499 24.604L45.2453 24.5704C49.1193 24.4938 52.3219 27.5721 52.3985 31.4461C52.4752 35.32 49.3969 38.5226 45.5229 38.5993L39.5181 38.7181C36.5051 38.7777 34.1108 41.2686 34.1704 44.2817L34.197 45.6279C34.2133 46.4496 33.5603 47.1289 32.7386 47.1452C31.9168 47.1615 31.2375 46.5085 31.2212 45.6867L31.1946 44.3405C31.1025 39.684 34.8027 35.8344 39.4593 35.7422L45.464 35.6234C47.6945 35.5793 49.4669 33.7354 49.4227 31.5049Z" fill="url(#paint3_linear)"/>
<path fill-rule="evenodd" clip-rule="evenodd" d="M14.505 32.4826C14.5491 34.7131 16.3931 36.4854 18.6235 36.4413L20.319 36.4078C21.1407 36.3915 21.8201 37.0445 21.8363 37.8662C21.8526 38.688 21.1996 39.3673 20.3779 39.3836L18.6824 39.4171C14.8084 39.4938 11.6058 36.4154 11.5292 32.5415C11.4525 28.6675 14.5309 25.4649 18.4048 25.3883L24.4096 25.2695C27.4227 25.2099 29.8169 22.719 29.7573 19.7059L29.7307 18.3597C29.7144 17.5379 30.3674 16.8586 31.1892 16.8424C32.0109 16.8261 32.6903 17.4791 32.7065 18.3008L32.7331 19.647C32.8253 24.3036 29.1251 28.1532 24.4685 28.2453L18.4637 28.3641C16.2333 28.4082 14.4609 30.2522 14.505 32.4826Z" fill="url(#paint4_linear)"/>
<defs>
<linearGradient id="paint0_linear" x1="8" y1="32" x2="56" y2="32" gradientUnits="userSpaceOnUse">
<stop stop-color="#F8BE36"/>
<stop offset="1" stop-color="#F5A154"/>
</linearGradient>
<linearGradient id="paint1_linear" x1="24.6657" y1="22.4498" x2="46.9831" y2="21.9506" gradientUnits="userSpaceOnUse">
<stop stop-color="#FFB27D"/>
<stop offset="1" stop-color="#F9D423"/>
</linearGradient>
<linearGradient id="paint2_linear" x1="39.2601" y1="41.5372" x2="16.9427" y2="42.0364" gradientUnits="userSpaceOnUse">
<stop stop-color="#FFB27D"/>
<stop offset="1" stop-color="#F9D423"/>
</linearGradient>
<linearGradient id="paint3_linear" x1="41.5344" y1="24.6438" x2="41.976" y2="46.9624" gradientUnits="userSpaceOnUse">
<stop stop-color="#FFB27D"/>
<stop offset="1" stop-color="#F9D423"/>
</linearGradient>
<linearGradient id="paint4_linear" x1="22.3933" y1="39.3437" x2="21.9517" y2="17.0251" gradientUnits="userSpaceOnUse">
<stop stop-color="#FFB27D"/>
<stop offset="1" stop-color="#F9D423"/>
</linearGradient>
</defs>
</svg>
