<svg width="20" height="20" viewBox="0 0 20 20" fill="none" xmlns="http://www.w3.org/2000/svg">
<path d="M17.4996 13.225C17.5316 13.1605 17.5482 13.0894 17.5479 13.0174C17.5477 12.9454 17.5307 12.8744 17.4983 12.8101L16.8996 11.9376C16.8883 11.9213 16.8821 11.9026 16.8821 11.8813C16.8821 11.8601 16.8883 11.8413 16.8996 11.825L17.4996 10.9501C17.5316 10.8855 17.5482 10.8144 17.5479 10.7424C17.5477 10.6704 17.5307 10.5994 17.4983 10.5351C17.4734 10.4673 17.4342 10.4058 17.3833 10.3546C17.3323 10.3035 17.271 10.264 17.2033 10.2388L16.1746 9.86255C16.1556 9.85607 16.1386 9.84468 16.1254 9.82953C16.1123 9.81438 16.1033 9.79602 16.0996 9.7763V8.72505C16.0956 8.65067 16.0744 8.57823 16.0378 8.51339C16.0011 8.44854 15.95 8.39307 15.8883 8.3513C15.8033 8.29317 15.7026 8.26222 15.5996 8.26255H15.3871L14.3246 8.53755C14.2961 8.54902 14.2643 8.54902 14.2358 8.53755L13.5496 7.72505C13.4995 7.67058 13.4386 7.62709 13.3708 7.59735C13.303 7.5676 13.2298 7.55225 13.1558 7.55225C13.0818 7.55225 13.0086 7.5676 12.9408 7.59735C12.873 7.62709 12.8122 7.67058 12.7621 7.72505L12.0746 8.53755C12.0461 8.54902 12.0143 8.54902 11.9858 8.53755H11.9871L10.8621 8.25005H10.7271C10.6229 8.24974 10.521 8.28065 10.4346 8.3388C10.3734 8.38071 10.3227 8.43608 10.2863 8.50066C10.2499 8.56523 10.2288 8.63729 10.2246 8.7113V9.76255C10.221 9.7823 10.2123 9.80077 10.1993 9.81612C10.1864 9.83148 10.1697 9.84317 10.1508 9.85005L9.12456 10.2251C9.00718 10.2442 8.90038 10.3043 8.82305 10.3947C8.74572 10.4851 8.70287 10.5999 8.70206 10.7188C8.70206 10.7938 8.71956 10.865 8.75081 10.9275L9.34956 11.8C9.36081 11.8163 9.36706 11.835 9.36706 11.8563C9.36706 11.8775 9.36081 11.8963 9.34956 11.9125L8.74956 12.7875C8.71752 12.8521 8.70096 12.9232 8.70117 12.9952C8.70139 13.0672 8.71839 13.1382 8.75081 13.2025C8.77569 13.2703 8.81494 13.3318 8.86586 13.383C8.91678 13.4341 8.97817 13.4736 9.04581 13.4988L10.0746 13.8751C10.0936 13.8815 10.1105 13.8929 10.1237 13.9081C10.1369 13.9232 10.1458 13.9416 10.1496 13.9613V15.0125C10.1535 15.0869 10.1747 15.1594 10.2113 15.2242C10.248 15.2891 10.2991 15.3445 10.3608 15.3863C10.4473 15.4444 10.5491 15.4754 10.6533 15.475H10.8633L11.2508 15.3875V20L13.1633 17.5L15.0008 20V15.3875L15.3883 15.4875H15.5358C15.64 15.4879 15.7419 15.4569 15.8283 15.3988C15.8895 15.3569 15.9402 15.3015 15.9766 15.2369C16.013 15.1724 16.0341 15.1003 16.0383 15.0263V13.975C16.0419 13.9553 16.0506 13.9368 16.0635 13.9215C16.0765 13.9061 16.0932 13.8944 16.1121 13.8875L17.1383 13.5126C17.2166 13.4971 17.2902 13.4633 17.353 13.414C17.4158 13.3647 17.466 13.3012 17.4996 13.2288V13.225Z" fill="#447CF6"/>
<path d="M0 1.25V16.25H10L9.8625 16.1875C9.68447 16.0656 9.53671 15.9045 9.43055 15.7167C9.32438 15.5288 9.26262 15.3192 9.25 15.1038V15H1.25V2.5H18.75V15H16.9625V15.1C16.9504 15.3151 16.8893 15.5247 16.7841 15.7127C16.6788 15.9007 16.5321 16.0622 16.355 16.185L16.25 16.25H20V1.25H0Z" fill="#447CF6"/>
<path d="M9.2875 8.63765C9.29159 8.41386 9.34881 8.19425 9.45443 7.99692C9.56005 7.79958 9.71106 7.63017 9.895 7.50265C9.92974 7.49354 9.96612 7.49268 10.0013 7.50015H3.75V8.75015H9.2875V8.63765Z" fill="#447CF6"/>
<path d="M8.025 10H3.75V11.25H7.95C7.86393 11.0906 7.81405 10.9143 7.80389 10.7334C7.79374 10.5526 7.82357 10.3717 7.89125 10.2038C7.91117 10.1225 7.95839 10.0506 8.025 10Z" fill="#447CF6"/>
<path d="M3.75 5H16.25V6.25H3.75V5Z" fill="#447CF6"/>
</svg>
