<svg width="100" height="100" viewBox="0 0 100 100" fill="none" xmlns="http://www.w3.org/2000/svg">
<rect width="100" height="100" rx="4" fill="#7F60FA"/>
<path fill-rule="evenodd" clip-rule="evenodd" d="M50 77.871C65.3927 77.871 77.871 65.3927 77.871 50C77.871 34.6073 65.3927 22.129 50 22.129C34.6073 22.129 22.129 34.6073 22.129 50C22.129 65.3927 34.6073 77.871 50 77.871ZM50 82C67.6731 82 82 67.6731 82 50C82 32.3269 67.6731 18 50 18C32.3269 18 18 32.3269 18 50C18 67.6731 32.3269 82 50 82Z" fill="#F4F4F4"/>
<path fill-rule="evenodd" clip-rule="evenodd" d="M49.3422 26.7247C46.3684 26.7912 44.0116 29.2558 44.0781 32.2296L44.1287 34.4901C44.1532 35.5857 43.2849 36.4938 42.1893 36.5183C41.0937 36.5428 40.1856 35.6745 40.1611 34.5789L40.1106 32.3184C39.995 27.1534 44.0884 22.8727 49.2534 22.7571C54.4184 22.6416 58.6991 26.735 58.8147 31.9L58.9937 39.9059C59.0836 43.9231 62.413 47.1069 66.4303 47.017L68.2251 46.9769C69.3207 46.9524 70.2287 47.8207 70.2532 48.9163C70.2777 50.0119 69.4094 50.9199 68.3138 50.9444L66.519 50.9845C60.3106 51.1234 55.1651 46.2031 55.0262 39.9946L54.8471 31.9887C54.7806 29.0149 52.3159 26.6581 49.3422 26.7247Z" fill="#F4F4F4"/>
<path fill-rule="evenodd" clip-rule="evenodd" d="M50.5602 73.2578C53.534 73.1912 55.8908 70.7266 55.8243 67.7528L55.7737 65.4923C55.7492 64.3967 56.6175 63.4887 57.7131 63.4642C58.8087 63.4397 59.7167 64.308 59.7412 65.4036L59.7918 67.6641C59.9073 72.8291 55.8139 77.1098 50.6489 77.2253C45.4839 77.3408 41.2032 73.2474 41.0877 68.0824L40.9086 60.0765C40.8188 56.0593 37.4893 52.8755 33.4721 52.9654L31.6773 53.0056C30.5817 53.0301 29.6736 52.1618 29.6491 51.0662C29.6246 49.9706 30.4929 49.0625 31.5885 49.038L33.3833 48.9979C39.5918 48.859 44.7373 53.7793 44.8761 59.9878L45.0552 67.9937C45.1217 70.9675 47.5864 73.3243 50.5602 73.2578Z" fill="#F4F4F4"/>
<path fill-rule="evenodd" clip-rule="evenodd" d="M73.23 49.3397C73.1711 46.3658 70.7126 44.0026 67.7386 44.0615L65.478 44.1062C64.3823 44.1279 63.4766 43.2572 63.4549 42.1616C63.4332 41.0659 64.3038 40.1601 65.3995 40.1385L67.6601 40.0937C72.8254 39.9915 77.0955 44.096 77.1977 49.2612C77.2999 54.4265 73.1955 58.6967 68.0302 58.7988L60.0239 58.9572C56.0064 59.0367 52.8141 62.3579 52.8936 66.3754L52.9291 68.1703C52.9507 69.266 52.0801 70.1718 50.9844 70.1934C49.8888 70.2151 48.983 69.3445 48.9613 68.2488L48.9258 66.4539C48.803 60.2451 53.7366 55.1123 59.9454 54.9895L67.9517 54.8311C70.9257 54.7723 73.2888 52.3137 73.23 49.3397Z" fill="#F4F4F4"/>
<path fill-rule="evenodd" clip-rule="evenodd" d="M26.6724 50.6436C26.7312 53.6176 29.1898 55.9808 32.1637 55.9219L34.4243 55.8772C35.52 55.8555 36.4258 56.7262 36.4475 57.8218C36.4691 58.9175 35.5985 59.8233 34.5028 59.8449L32.2422 59.8897C27.0769 59.9919 22.8068 55.8874 22.7046 50.7221C22.6024 45.5569 26.7069 41.2867 31.8721 41.1846L39.8785 41.0262C43.8959 40.9467 47.0883 37.6255 47.0088 33.608L46.9733 31.8131C46.9516 30.7174 47.8222 29.8116 48.9179 29.79C50.0136 29.7683 50.9194 30.6389 50.941 31.7346L50.9765 33.5295C51.0994 39.7383 46.1658 44.8711 39.957 44.9939L31.9506 45.1523C28.9767 45.2111 26.6135 47.6697 26.6724 50.6436Z" fill="#F4F4F4"/>
</svg>
