<svg width="40" height="40" viewBox="0 0 40 40" fill="none" xmlns="http://www.w3.org/2000/svg">
<path fill-rule="evenodd" clip-rule="evenodd" d="M20 37.4194C29.6204 37.4194 37.4194 29.6204 37.4194 20C37.4194 10.3796 29.6204 2.58065 20 2.58065C10.3796 2.58065 2.58065 10.3796 2.58065 20C2.58065 29.6204 10.3796 37.4194 20 37.4194ZM20 40C31.0457 40 40 31.0457 40 20C40 8.95431 31.0457 0 20 0C8.95431 0 0 8.95431 0 20C0 31.0457 8.95431 40 20 40Z" fill="#F4F4F4"/>
<path fill-rule="evenodd" clip-rule="evenodd" d="M19.589 5.45297C17.7304 5.49454 16.2574 7.03495 16.2989 8.89357L16.3305 10.3064C16.3459 10.9911 15.8032 11.5587 15.1184 11.574C14.4337 11.5893 13.8661 11.0466 13.8508 10.3619L13.8192 8.94903C13.747 5.72091 16.3054 3.04547 19.5335 2.97326C22.7616 2.90105 25.4371 5.45943 25.5093 8.68755L25.6212 13.6912C25.6774 16.202 27.7583 18.1919 30.269 18.1357L31.3908 18.1106C32.0756 18.0953 32.6431 18.638 32.6584 19.3227C32.6737 20.0075 32.131 20.575 31.4463 20.5903L30.3245 20.6154C26.4442 20.7022 23.2283 17.627 23.1415 13.7467L23.0296 8.74301C22.988 6.8844 21.4476 5.4114 19.589 5.45297Z" fill="#F4F4F4"/>
<path fill-rule="evenodd" clip-rule="evenodd" d="M20.3495 34.5363C22.2081 34.4947 23.6811 32.9543 23.6395 31.0957L23.6079 29.6829C23.5926 28.9981 24.1353 28.4306 24.8201 28.4153C25.5048 28.4 26.0723 28.9427 26.0877 29.6274L26.1193 31.0402C26.1915 34.2683 23.6331 36.9438 20.405 37.016C17.1768 37.0882 14.5014 34.5298 14.4292 31.3017L14.3173 26.298C14.2611 23.7872 12.1802 21.7974 9.66945 21.8536L8.54767 21.8787C7.86292 21.894 7.2954 21.3513 7.28008 20.6665C7.26477 19.9818 7.80745 19.4143 8.4922 19.3989L9.61398 19.3738C13.4942 19.2871 16.7102 22.3623 16.797 26.2425L16.9089 31.2462C16.9505 33.1049 18.4909 34.5779 20.3495 34.5363Z" fill="#F4F4F4"/>
<path fill-rule="evenodd" clip-rule="evenodd" d="M34.5186 19.5873C34.4818 17.7286 32.9452 16.2516 31.0865 16.2884L29.6736 16.3163C28.9888 16.3299 28.4227 15.7857 28.4092 15.1009C28.3956 14.4161 28.9398 13.85 29.6246 13.8365L31.0375 13.8085C34.2658 13.7446 36.9346 16.3099 36.9985 19.5382C37.0623 22.7665 34.4971 25.4353 31.2688 25.4992L26.2648 25.5982C23.7539 25.6479 21.7587 27.7236 21.8083 30.2345L21.8305 31.3564C21.8441 32.0412 21.2999 32.6073 20.6152 32.6208C19.9304 32.6344 19.3642 32.0902 19.3507 31.4054L19.3285 30.2836C19.2517 26.4031 22.3352 23.1951 26.2157 23.1184L31.2197 23.0194C33.0784 22.9826 34.5554 21.446 34.5186 19.5873Z" fill="#F4F4F4"/>
<path fill-rule="evenodd" clip-rule="evenodd" d="M5.42084 20.4025C5.45761 22.2612 6.99421 23.7382 8.85293 23.7014L10.2658 23.6734C10.9506 23.6599 11.5167 24.204 11.5303 24.8888C11.5438 25.5736 10.9997 26.1397 10.3149 26.1533L8.90199 26.1812C5.67369 26.2451 3.00486 23.6798 2.94099 20.4515C2.87712 17.2232 5.4424 14.5544 8.6707 14.4905L13.6747 14.3915C16.1856 14.3419 18.1808 12.2661 18.1311 9.7552L18.1089 8.63336C18.0954 7.94857 18.6395 7.38246 19.3243 7.36891C20.0091 7.35536 20.5752 7.89951 20.5888 8.5843L20.611 9.70614C20.6877 13.5866 17.6042 16.7946 13.7237 16.8714L8.71976 16.9704C6.86104 17.0071 5.38407 18.5437 5.42084 20.4025Z" fill="#F4F4F4"/>
</svg>
