<svg width="66" height="69" viewBox="0 0 66 69" fill="none" xmlns="http://www.w3.org/2000/svg">
<path d="M65.5 16.5H49.9C51.525 14.875 52.5 12.6 52.5 10C52.5 4.475 48.275 0.25 42.75 0.25C37.225 0.25 33 4.475 33 10C33 4.475 28.775 0.25 23.25 0.25C17.725 0.25 13.5 4.475 13.5 10C13.5 12.6 14.475 14.875 16.1 16.5H0.5V36H3.75V62C3.75 65.575 6.675 68.5 10.25 68.5H55.75C59.325 68.5 62.25 65.575 62.25 62V36H65.5V16.5ZM59 29.5H36.25V23H59V29.5ZM42.75 6.75C44.7 6.75 46 8.05 46 10C46 11.95 44.7 13.25 42.75 13.25C40.8 13.25 39.5 11.95 39.5 10C39.5 8.05 40.8 6.75 42.75 6.75ZM23.25 6.75C25.2 6.75 26.5 8.05 26.5 10C26.5 11.95 25.2 13.25 23.25 13.25C21.3 13.25 20 11.95 20 10C20 8.05 21.3 6.75 23.25 6.75ZM7 23H29.75V29.5H7V23ZM10.25 36H29.75V62H10.25V36ZM55.75 62H36.25V36H55.75V62Z" fill="#5460F5"/>
</svg>
