<svg width="60" height="60" viewBox="0 0 60 60" fill="none" xmlns="http://www.w3.org/2000/svg">
<rect width="60" height="60" rx="8" fill="#5460F5"/>
<path d="M39.3912 35.8431V33.3913C39.3912 32.0967 38.338 31.0435 37.0434 31.0435H30.7825V28.894C33.433 28.5122 35.4782 26.2326 35.4782 23.4783C35.4782 20.4576 33.0207 18 29.9999 18C26.979 18 24.5216 20.4576 24.5216 23.4783C24.5216 26.2326 26.5668 28.5122 29.2173 28.894V31.0435H22.9564C21.6618 31.0435 20.6086 32.0967 20.6086 33.3913V35.8431C19.2608 36.192 18.2607 37.4141 18.2607 38.8695C18.2607 40.5958 19.665 42 21.3912 42C23.1174 42 24.5216 40.5958 24.5216 38.8695C24.5216 37.4141 23.5216 36.192 22.1738 35.8431V33.3913C22.1738 32.9598 22.5249 32.6087 22.9564 32.6087H29.2173V35.8421C27.8693 36.191 26.8695 37.414 26.8695 38.8696C26.8694 40.5958 28.2737 42 29.9999 42C31.7261 42 33.1303 40.5958 33.1303 38.8695C33.1303 37.4139 32.1305 36.191 30.7825 35.8421V32.6086H37.0434C37.4749 32.6086 37.826 32.9597 37.826 33.3913V35.843C36.4782 36.192 35.4782 37.4141 35.4782 38.8695C35.4782 40.5957 36.8824 42 38.6086 42C40.3349 42 41.7391 40.5958 41.7391 38.8695C41.739 37.4141 40.739 36.192 39.3912 35.8431Z" fill="white"/>
</svg>
