<svg width="60" height="60" viewBox="0 0 60 60" fill="none" xmlns="http://www.w3.org/2000/svg">
<rect width="60" height="60" rx="8" fill="#A9AFFB"/>
<path d="M38.044 32.081C37.7694 31.8064 37.3243 31.8064 37.0497 32.081L34.2372 34.8935C33.9626 35.1681 33.9626 35.6132 34.2372 35.8878C34.5118 36.1624 34.9569 36.1624 35.2315 35.8878L36.8438 34.2756V39.375H23.1562V32.5781C23.1562 32.1898 22.8414 31.875 22.4531 31.875C22.0648 31.875 21.75 32.1898 21.75 32.5781V40.0781C21.75 40.4664 22.0648 40.7812 22.4531 40.7812H37.5469C37.9352 40.7812 38.25 40.4664 38.25 40.0781V34.2756L39.8622 35.8878C40.1368 36.1624 40.582 36.1624 40.8566 35.8878C41.1312 35.6132 41.1312 35.1681 40.8566 34.8935L38.044 32.081Z" fill="white"/>
<path d="M22.4531 23.9062C23.7475 23.9062 24.7969 22.8569 24.7969 21.5625C24.7969 20.2681 23.7475 19.2188 22.4531 19.2188C21.1587 19.2188 20.1094 20.2681 20.1094 21.5625C20.1094 22.8569 21.1587 23.9062 22.4531 23.9062Z" fill="white"/>
<path d="M26.9062 29.297V27.8908C26.9062 26.4006 26.1705 25.0793 25.0433 24.2705C24.3695 24.9153 23.4571 25.3126 22.4531 25.3126C21.4492 25.3126 20.5368 24.9153 19.863 24.2705C18.7358 25.0793 18 26.4006 18 27.8908V29.297C18 29.6853 18.3148 30.0001 18.7031 30.0001H26.2031C26.5914 30.0001 26.9062 29.6853 26.9062 29.297Z" fill="white"/>
<path d="M37.5469 23.9062C38.8413 23.9062 39.8906 22.8569 39.8906 21.5625C39.8906 20.2681 38.8413 19.2188 37.5469 19.2188C36.2525 19.2188 35.2031 20.2681 35.2031 21.5625C35.2031 22.8569 36.2525 23.9062 37.5469 23.9062Z" fill="white"/>
<path d="M40.137 24.2705C39.4632 24.9153 38.5508 25.3126 37.5469 25.3126C36.5429 25.3126 35.6305 24.9153 34.9567 24.2705C33.8295 25.0793 33.0938 26.4006 33.0938 27.8908V29.297C33.0938 29.6853 33.4086 30.0001 33.7969 30.0001H41.2969C41.6852 30.0001 42 29.6853 42 29.297V27.8908C42 26.4006 41.2642 25.0793 40.137 24.2705Z" fill="white"/>
</svg>
