<svg width="60" height="60" viewBox="0 0 60 60" fill="none" xmlns="http://www.w3.org/2000/svg">
<rect width="60" height="60" rx="8" fill="#5460F5"/>
<path d="M38.4853 21.5147C36.2188 19.2482 33.2053 18 30 18C26.7947 18 23.7812 19.2482 21.5147 21.5147C19.2482 23.7812 18 26.7947 18 30C18 33.2053 19.2482 36.2188 21.5147 38.4853C23.7811 40.7519 26.7947 42 30 42C33.2053 42 36.2188 40.7518 38.4853 38.4853C40.7518 36.2188 42 33.2053 42 30C42 26.7947 40.7518 23.7812 38.4853 21.5147ZM30 29.25C31.861 29.25 33.375 30.764 33.375 32.625C33.375 34.1661 32.3364 35.4684 30.9226 35.8708C30.821 35.8997 30.75 35.991 30.75 36.0967V36.7288C30.75 37.1327 30.4396 37.4802 30.0362 37.4992C29.6055 37.5194 29.25 37.1762 29.25 36.75V36.0965C29.25 35.9912 29.1794 35.8998 29.0781 35.871C27.6704 35.4706 26.6344 34.1782 26.625 32.646C26.6226 32.237 26.9441 31.887 27.353 31.8753C27.7772 31.8631 28.125 32.2035 28.125 32.625C28.125 33.7032 29.0399 34.5718 30.134 34.4953C31.0576 34.4308 31.8058 33.6825 31.8703 32.7589C31.9467 31.6647 31.0782 30.75 30 30.75C28.139 30.75 26.625 29.236 26.625 27.375C26.625 25.8339 27.6636 24.5316 29.0774 24.1292C29.179 24.1003 29.25 24.009 29.25 23.9033V23.2712C29.25 22.8673 29.5604 22.5198 29.9638 22.5008C30.3945 22.4806 30.75 22.8238 30.75 23.25V23.9035C30.75 24.0088 30.8206 24.1002 30.9219 24.129C32.3296 24.5294 33.3656 25.8218 33.375 27.354C33.3774 27.763 33.0559 28.113 32.647 28.1247C32.2228 28.1369 31.875 27.7965 31.875 27.375C31.875 26.2968 30.9601 25.4282 29.866 25.5047C28.9424 25.5692 28.1942 26.3175 28.1297 27.2411C28.0533 28.3353 28.9218 29.25 30 29.25Z" fill="white"/>
</svg>
