<svg width="60" height="60" viewBox="0 0 60 60" fill="none" xmlns="http://www.w3.org/2000/svg">
<rect width="60" height="60" rx="8" fill="#5460F5"/>
<path d="M39.75 18C40.9927 18 42 19.0073 42 20.25V33.75C42 34.9927 40.9927 36 39.75 36H26.25C25.0073 36 24 34.9927 24 33.75V20.25C24 19.0073 25.0073 18 26.25 18H39.75ZM26.25 37.5C24.1823 37.5 22.5 35.8177 22.5 33.75V24H20.25C19.0073 24 18 25.0073 18 26.25V39.75C18 40.9927 19.0073 42 20.25 42H33.75C34.9927 42 36 40.9927 36 39.75V37.5H26.25Z" fill="white"/>
</svg>
