<svg width="40" height="40" viewBox="0 0 40 40" fill="none" xmlns="http://www.w3.org/2000/svg">
<rect width="40" height="40" rx="8" fill="#5460F5"/>
<path d="M26.2608 23.8954V22.2609C26.2608 21.3978 25.5587 20.6957 24.6956 20.6957H20.5217V19.2627C22.2887 19.0082 23.6521 17.4884 23.6521 15.6522C23.6521 13.6384 22.0138 12 19.9999 12C17.986 12 16.3477 13.6384 16.3477 15.6522C16.3477 17.4884 17.7112 19.0082 19.4782 19.2627V20.6957H15.3043C14.4412 20.6957 13.739 21.3978 13.739 22.2609V23.8954C12.8405 24.128 12.1738 24.9427 12.1738 25.913C12.1738 27.0639 13.11 28 14.2608 28C15.4116 28 16.3478 27.0639 16.3478 25.913C16.3478 24.9427 15.6811 24.128 14.7825 23.8954V22.2609C14.7825 21.9732 15.0166 21.7391 15.3043 21.7391H19.4782V23.8947C18.5795 24.1273 17.913 24.9427 17.913 25.9131C17.913 27.0639 18.8491 28 19.9999 28C21.1507 28 22.0869 27.0639 22.0869 25.913C22.0869 24.9426 21.4204 24.1273 20.5217 23.8947V21.7391H24.6956C24.9833 21.7391 25.2173 21.9732 25.2173 22.2608V23.8953C24.3188 24.128 23.6521 24.9427 23.6521 25.913C23.6521 27.0638 24.5882 28 25.7391 28C26.8899 28 27.826 27.0638 27.826 25.913C27.826 24.9427 27.1593 24.128 26.2608 23.8954Z" fill="white"/>
</svg>
