<svg width="40" height="40" viewBox="0 0 40 40" fill="none" xmlns="http://www.w3.org/2000/svg">
<rect width="40" height="40" rx="8" fill="#A9AFFB"/>
<path d="M25.3627 21.3873C25.1796 21.2043 24.8828 21.2043 24.6998 21.3873L22.8248 23.2623C22.6417 23.4454 22.6417 23.7422 22.8248 23.9252C23.0078 24.1083 23.3046 24.1083 23.4877 23.9252L24.5625 22.8504V26.25H15.4375V21.7188C15.4375 21.4599 15.2276 21.25 14.9688 21.25C14.7099 21.25 14.5 21.4599 14.5 21.7188V26.7188C14.5 26.9776 14.7099 27.1875 14.9688 27.1875H25.0312C25.2901 27.1875 25.5 26.9776 25.5 26.7188V22.8504L26.5748 23.9252C26.7579 24.1083 27.0547 24.1083 27.2377 23.9252C27.4208 23.7422 27.4208 23.4454 27.2377 23.2623L25.3627 21.3873Z" fill="white"/>
<path d="M14.9688 15.9375C15.8317 15.9375 16.5312 15.2379 16.5312 14.375C16.5312 13.5121 15.8317 12.8125 14.9688 12.8125C14.1058 12.8125 13.4062 13.5121 13.4062 14.375C13.4062 15.2379 14.1058 15.9375 14.9688 15.9375Z" fill="white"/>
<path d="M17.9375 19.5312V18.5937C17.9375 17.6003 17.447 16.7194 16.6955 16.1802C16.2463 16.61 15.6381 16.8749 14.9688 16.8749C14.2994 16.8749 13.6912 16.61 13.242 16.1802C12.4905 16.7194 12 17.6003 12 18.5937V19.5312C12 19.7901 12.2099 19.9999 12.4688 19.9999H17.4688C17.7276 19.9999 17.9375 19.7901 17.9375 19.5312Z" fill="white"/>
<path d="M25.0312 15.9375C25.8942 15.9375 26.5938 15.2379 26.5938 14.375C26.5938 13.5121 25.8942 12.8125 25.0312 12.8125C24.1683 12.8125 23.4688 13.5121 23.4688 14.375C23.4688 15.2379 24.1683 15.9375 25.0312 15.9375Z" fill="white"/>
<path d="M26.758 16.1802C26.3088 16.61 25.7006 16.8749 25.0312 16.8749C24.3619 16.8749 23.7537 16.61 23.3045 16.1802C22.553 16.7194 22.0625 17.6003 22.0625 18.5937V19.5312C22.0625 19.7901 22.2724 19.9999 22.5312 19.9999H27.5312C27.7901 19.9999 28 19.7901 28 19.5312V18.5937C28 17.6003 27.5095 16.7194 26.758 16.1802Z" fill="white"/>
</svg>
