<svg width="32" height="32" viewBox="0 0 32 32" fill="none" xmlns="http://www.w3.org/2000/svg">
<circle cx="16" cy="16" r="16" fill="#2A8373"/>
<path fill-rule="evenodd" clip-rule="evenodd" d="M7.87602 16.4208L9.5766 18.1373C9.74829 18.3106 9.95285 18.4305 10.1701 18.4971L10.1393 18.5282C9.33344 19.3416 8.91783 20.3957 8.89641 21.4446C8.52877 21.2973 8.18569 21.0746 7.88999 20.7761C6.7221 19.5973 6.72511 17.6724 7.87602 16.4208ZM7.20622 15.7354C5.74851 14.0934 5.76195 11.6096 7.27569 10.0817C7.79527 9.55727 8.42643 9.21124 9.09715 9.04244C9.26439 8.36545 9.60721 7.72838 10.1268 7.20394C11.6953 5.62078 14.2806 5.66347 15.9013 7.29929L15.9052 7.30331C17.5299 5.7453 20.0567 5.72939 21.5996 7.28673C22.1192 7.81117 22.462 8.44824 22.6293 9.12522C23.3 9.29403 23.9312 9.64006 24.4507 10.1645C25.9924 11.7205 25.9779 14.268 24.4382 15.908C25.8959 17.55 25.8825 20.0338 24.3687 21.5617C23.8492 22.0862 23.218 22.4322 22.5473 22.601C22.38 23.278 22.0372 23.9151 21.5176 24.4395C19.9491 26.0227 17.3638 25.98 15.7432 24.3442L15.7392 24.3401C14.1145 25.8981 11.5877 25.914 10.0448 24.3567C9.5252 23.8323 9.18238 23.1952 9.01514 22.5182C8.34442 22.3494 7.71326 22.0034 7.19368 21.4789C5.65207 19.9229 5.66651 17.3754 7.20622 15.7354ZM7.88052 15.0525C6.8076 13.8002 6.83094 11.9363 7.972 10.7845C8.2677 10.4861 8.61078 10.2634 8.97842 10.1161C8.99982 11.164 9.41469 12.2171 10.2191 13.0302C9.95349 13.0846 9.70041 13.2156 9.49459 13.4234L7.88052 15.0525ZM8.55195 15.7389L10.1703 14.1054C10.3565 13.9175 10.6587 13.9179 10.8453 14.1062L12.5449 15.8217L10.9273 17.4545C10.7407 17.6428 10.4385 17.6431 10.2523 17.4552L8.55195 15.7389ZM13.2191 16.5022L11.8463 17.8879C12.2852 17.9319 12.7084 18.1207 13.0402 18.4556C13.4572 18.8765 13.6456 19.443 13.6079 20.0036L15.148 18.4492L13.2191 16.5022ZM13.8933 15.8217L15.8222 13.8748L17.7511 15.8217L15.8222 17.7686L13.8933 15.8217ZM15.148 13.1943L13.2191 15.1412L11.7739 13.6824C12.267 13.671 12.7515 13.4792 13.1221 13.1052C13.497 12.7268 13.6871 12.2307 13.6943 11.727L15.148 13.1943ZM16.4964 13.1943L18.4253 15.1412L19.7981 13.7556C19.3592 13.7116 18.936 13.5227 18.6042 13.1878C18.1872 12.767 17.9988 12.2005 18.0365 11.6398L16.4964 13.1943ZM18.5212 10.4283C18.5501 10.3934 18.5802 10.3593 18.6116 10.3259L18.6112 10.3255L18.6293 10.3073C18.6365 10.2998 18.6439 10.2923 18.6512 10.2848L18.6595 10.2765L18.6647 10.2713L18.6763 10.2599C19.4821 9.4465 20.5264 9.027 21.5656 9.00539C21.4197 8.63431 21.199 8.28802 20.9033 7.98955C19.7326 6.80791 17.8192 6.8138 16.5795 7.98383L18.1077 9.52637C18.3569 9.77786 18.4947 10.0992 18.5212 10.4283ZM15.9042 8.6664L17.432 10.2084C17.6181 10.3963 17.6178 10.7014 17.4312 10.8897L15.8222 12.5138L14.2952 10.9725C14.1086 10.7842 14.1083 10.4791 14.2945 10.2912L15.9042 8.6664ZM15.2303 7.98249L15.2274 7.97949C13.9913 6.73184 12.0194 6.69927 10.8231 7.90677C10.5274 8.20523 10.3068 8.55152 10.1608 8.9226C11.2 8.94422 12.2443 9.36371 13.0502 10.1771L13.1152 10.2427L13.1147 10.2432C13.1529 10.2839 13.1893 10.3258 13.2238 10.3686C13.2741 10.0903 13.4057 9.82417 13.6187 9.60916L15.2303 7.98249ZM10.9075 12.3629L10.9066 12.3638L10.8952 12.3522C10.2231 11.6739 9.90691 10.776 9.95053 9.9038C10.8147 9.85977 11.7042 10.1789 12.3763 10.8573L12.3877 10.8689L12.3867 10.8699C12.3912 10.8743 12.3957 10.8788 12.4002 10.8833C12.8223 11.3094 12.8334 11.9891 12.4248 12.4014C12.0163 12.8137 11.3429 12.8026 10.9208 12.3766C10.9163 12.372 10.9119 12.3675 10.9075 12.3629ZM16.4964 18.4492L18.4253 16.5023L19.8706 17.961C19.3774 17.9724 18.8929 18.1642 18.5223 18.5383C18.1475 18.9166 17.9573 19.4127 17.9501 19.9164L16.4964 18.4492ZM22.666 21.5274C22.6446 20.4794 22.2297 19.4263 21.4254 18.6133C21.6909 18.5589 21.944 18.4278 22.1498 18.2201L23.7639 16.5909C24.8368 17.8433 24.8135 19.7072 23.6724 20.8589C23.3767 21.1574 23.0336 21.3801 22.666 21.5274ZM21.4741 17.538L23.0925 15.9045L21.3921 14.1882C21.2059 14.0003 20.9037 14.0007 20.7171 14.189L19.0995 15.8217L20.7991 17.5372C20.9857 17.7256 21.2879 17.7259 21.4741 17.538ZM23.7544 10.8673C24.9223 12.0461 24.9193 13.971 23.7684 15.2227L22.0678 13.5062C21.8961 13.3329 21.6916 13.213 21.4743 13.1464L21.5052 13.1152C22.311 12.3018 22.7266 11.2478 22.748 10.1988C23.1157 10.3462 23.4587 10.5689 23.7544 10.8673ZM18.0257 22.0343C18.2387 21.8193 18.3703 21.5532 18.4206 21.2749C18.4551 21.3177 18.4915 21.3595 18.5298 21.4002L18.5292 21.4007L18.5943 21.4664C19.4001 22.2797 20.4444 22.6992 21.4836 22.7208C21.3377 23.0919 21.117 23.4382 20.8213 23.7367C19.625 24.9442 17.6532 24.9116 16.4171 23.664L16.4141 23.6609L18.0257 22.0343ZM17.35 21.3522L15.7402 22.977L14.2125 21.435C14.0263 21.2471 14.0266 20.9421 14.2132 20.7537L15.8222 19.1297L17.3492 20.6709C17.5358 20.8593 17.5361 21.1643 17.35 21.3522ZM13.0328 21.3176C13.0642 21.2842 13.0944 21.25 13.1232 21.2151C13.1498 21.5442 13.2876 21.8656 13.5367 22.1171L15.065 23.6596C13.8252 24.8296 11.9118 24.8355 10.7411 23.6539C10.4454 23.3554 10.2248 23.0091 10.0788 22.638C11.118 22.6164 12.1623 22.1969 12.9681 21.3836L12.9797 21.3721C12.9842 21.3676 12.9887 21.3631 12.9932 21.3586C13.0006 21.3512 13.0079 21.3437 13.0151 21.3361L13.0332 21.3179L13.0328 21.3176ZM19.3396 10.9525L19.3387 10.9516L19.3502 10.9401C20.0222 10.2617 20.9118 9.94256 21.7759 9.98659C21.8195 10.8588 21.5033 11.7567 20.8313 12.435L20.8198 12.4466L20.8188 12.4455L20.8135 12.451C20.8108 12.4537 20.8082 12.4565 20.8055 12.4592C20.3834 12.8853 19.71 12.8964 19.3015 12.484C18.8929 12.0717 18.9039 11.392 19.3261 10.9659C19.3285 10.9635 19.3309 10.9611 19.3333 10.9587L19.3396 10.9525ZM12.3048 20.6909L12.3057 20.6918L12.2942 20.7034C11.6222 21.3817 10.7327 21.7009 9.86852 21.6568C9.8249 20.7846 10.1411 19.8868 10.8131 19.2084L10.8246 19.1968L10.8257 19.1979C10.83 19.1933 10.8345 19.1888 10.839 19.1842C11.2611 18.7582 11.9344 18.7471 12.343 19.1594C12.7515 19.5718 12.7405 20.2514 12.3184 20.6775L12.3162 20.6797C12.3144 20.6814 12.3127 20.6832 12.311 20.6849L12.3048 20.6909ZM20.7378 19.2796L20.7369 19.2805C20.7325 19.276 20.7281 19.2714 20.7236 19.2669C20.3015 18.8408 19.6281 18.8297 19.2196 19.242C18.8111 19.6544 18.8221 20.3341 19.2442 20.7601C19.2464 20.7624 19.2487 20.7646 19.2509 20.7669C19.2532 20.7691 19.2555 20.7713 19.2577 20.7736L19.2567 20.7746L19.2682 20.7862C19.9402 21.4645 20.8298 21.7837 21.6939 21.7396C21.7375 20.8674 21.4213 19.9696 20.7493 19.2912L20.7378 19.2796Z" fill="white"/>
</svg>
