<svg width="74" height="50" viewBox="0 0 74 50" fill="none" xmlns="http://www.w3.org/2000/svg">
<path d="M38.7812 32.8438L39.7786 32.9159L39.8562 31.8438H38.7812V32.8438ZM33.3438 44.4062L32.6918 43.648L32.6894 43.6501L33.3438 44.4062ZM6.6875 42.75L5.92425 43.3961L5.92796 43.4005L6.6875 42.75ZM4 12.2188L3.09237 11.799L4 12.2188ZM10.5938 4.5625L11.121 5.41224L11.1226 5.41119L10.5938 4.5625ZM33.2812 6.09375L32.6221 6.84572L33.2812 6.09375ZM38.8438 17.9375V18.9375H39.9469L39.8389 17.8396L38.8438 17.9375ZM29.4688 17.9375L28.4718 18.0153L28.5437 18.9375H29.4688V17.9375ZM27 11.5625L26.3093 12.2856L26.3148 12.2909L26.3204 12.2961L27 11.5625ZM13.5625 12.9375L12.7411 12.3671L12.74 12.3687L13.5625 12.9375ZM11.1875 23.3438L10.1875 23.3349V23.3438H11.1875ZM13.4062 37.5625L12.5683 38.1083L12.5719 38.1137L13.4062 37.5625ZM26.9375 39L27.6171 39.7336L27.6175 39.7332L26.9375 39ZM29.4062 32.8438V31.8438H28.4786L28.4091 32.7688L29.4062 32.8438ZM37.7839 32.7716C37.446 37.4417 35.7323 41.0335 32.6918 43.648L33.9957 45.1645C37.4969 42.154 39.4081 38.0374 39.7786 32.9159L37.7839 32.7716ZM32.6894 43.6501C29.6619 46.27 25.6218 47.625 20.4688 47.625V49.625C25.9824 49.625 30.5256 48.1675 33.9981 45.1624L32.6894 43.6501ZM20.4688 47.625C14.8846 47.625 10.585 45.7638 7.44704 42.0995L5.92796 43.4005C9.49832 47.5696 14.3862 49.625 20.4688 49.625V47.625ZM7.45073 42.1039C4.31431 38.399 2.6875 33.2586 2.6875 26.5625H0.6875C0.6875 33.5748 2.39402 39.226 5.92427 43.3961L7.45073 42.1039ZM2.6875 26.5625V23.7812H0.6875V26.5625H2.6875ZM2.6875 23.7812C2.6875 19.5239 3.43734 15.8175 4.90763 12.6385L3.09237 11.799C1.47933 15.2866 0.6875 19.2886 0.6875 23.7812H2.6875ZM4.90763 12.6385C6.37522 9.46535 8.44835 7.07042 11.121 5.41224L10.0665 3.71276C7.03081 5.59624 4.70811 8.30548 3.09237 11.799L4.90763 12.6385ZM11.1226 5.41119C13.8205 3.72989 16.9661 2.875 20.5938 2.875V0.875C16.6381 0.875 13.117 1.81178 10.0649 3.71381L11.1226 5.41119ZM20.5938 2.875C25.6594 2.875 29.6356 4.2277 32.6221 6.84572L33.9404 5.34178C30.5103 2.3348 26.0281 0.875 20.5938 0.875V2.875ZM32.6221 6.84572C35.6029 9.45877 37.3682 13.152 37.8486 18.0354L39.8389 17.8396C39.3193 12.5564 37.3763 8.35373 33.9404 5.34178L32.6221 6.84572ZM38.8438 16.9375H29.4688V18.9375H38.8438V16.9375ZM30.4657 17.8597C30.227 14.7994 29.3571 12.3831 27.6796 10.8289L26.3204 12.2961C27.4762 13.3669 28.2522 15.2006 28.4718 18.0153L30.4657 17.8597ZM27.6907 10.8394C26.0353 9.25804 23.6021 8.5625 20.5938 8.5625V10.5625C23.3354 10.5625 25.1731 11.2003 26.3093 12.2856L27.6907 10.8394ZM20.5938 8.5625C17.1945 8.5625 14.519 9.8069 12.7411 12.3671L14.3839 13.5079C15.731 11.5681 17.743 10.5625 20.5938 10.5625V8.5625ZM12.74 12.3687C11.0278 14.8444 10.2298 18.5569 10.1875 23.3349L12.1875 23.3526C12.2285 18.714 13.0138 15.4889 14.385 13.5063L12.74 12.3687ZM10.1875 23.3438V26.7812H12.1875V23.3438H10.1875ZM10.1875 26.7812C10.1875 31.7555 10.9278 35.5897 12.5683 38.1083L14.2442 37.0167C12.9264 34.9936 12.1875 31.6404 12.1875 26.7812H10.1875ZM12.5719 38.1137C14.2923 40.7182 16.9941 41.9688 20.4688 41.9688V39.9688C17.5267 39.9688 15.5202 38.9485 14.2406 37.0113L12.5719 38.1137ZM20.4688 41.9688C23.4936 41.9688 25.9417 41.2858 27.6171 39.7336L26.2579 38.2664C25.1 39.3392 23.2356 39.9688 20.4688 39.9688V41.9688ZM27.6175 39.7332C29.3048 38.1681 30.1841 35.8363 30.4034 32.9187L28.4091 32.7688C28.2118 35.3929 27.4452 37.1652 26.2575 38.2668L27.6175 39.7332ZM29.4062 33.8438H38.7812V31.8438H29.4062V33.8438ZM61.75 36.7188L60.7921 37.0057L61.7471 40.194L62.7075 37.0073L61.75 36.7188ZM72.0625 2.5V1.5H71.3194L71.105 2.21145L72.0625 2.5ZM82.5 2.5L83.4444 2.82885L83.9071 1.5H82.5V2.5ZM66.6562 48V49H67.3669L67.6006 48.3288L66.6562 48ZM56.875 48L55.9302 48.3277L56.1634 49H56.875V48ZM41.0938 2.5V1.5H39.6885L40.149 2.82769L41.0938 2.5ZM51.5 2.5L52.4579 2.21305L52.2444 1.5H51.5V2.5ZM62.7075 37.0073L73.02 2.78855L71.105 2.21145L60.7925 36.4302L62.7075 37.0073ZM72.0625 3.5H82.5V1.5H72.0625V3.5ZM81.5556 2.17115L65.7119 47.6712L67.6006 48.3288L83.4444 2.82885L81.5556 2.17115ZM66.6562 47H56.875V49H66.6562V47ZM57.8198 47.6723L42.0385 2.17231L40.149 2.82769L55.9302 48.3277L57.8198 47.6723ZM41.0938 3.5H51.5V1.5H41.0938V3.5ZM50.5421 2.78695L60.7921 37.0057L62.7079 36.4318L52.4579 2.21305L50.5421 2.78695Z" fill="#071B43"/>
</svg>
