<svg width="40" height="40" viewBox="0 0 40 40" fill="none" xmlns="http://www.w3.org/2000/svg">
<g filter="url(#filter0_b)">
<circle cx="20" cy="20" r="20" fill="#91A0FE" fill-opacity="0.7"/>
</g>
<path d="M28.4853 11.5147C26.2188 9.24819 23.2053 8 20 8C16.7947 8 13.7812 9.24819 11.5147 11.5147C9.24819 13.7812 8 16.7947 8 20C8 23.2053 9.24823 26.2188 11.5147 28.4853C13.7811 30.7519 16.7947 32 20 32C23.2053 32 26.2188 30.7518 28.4853 28.4853C30.7518 26.2188 32 23.2053 32 20C32 16.7947 30.7518 13.7812 28.4853 11.5147ZM20 19.25C21.861 19.25 23.375 20.764 23.375 22.625C23.375 24.1661 22.3364 25.4684 20.9226 25.8708C20.821 25.8997 20.75 25.991 20.75 26.0967V26.7288C20.75 27.1327 20.4396 27.4802 20.0362 27.4992C19.6055 27.5194 19.25 27.1762 19.25 26.75V26.0965C19.25 25.9912 19.1794 25.8998 19.0781 25.871C17.6704 25.4706 16.6344 24.1782 16.625 22.646C16.6226 22.237 16.9441 21.887 17.353 21.8753C17.7772 21.8631 18.125 22.2035 18.125 22.625C18.125 23.7032 19.0399 24.5718 20.134 24.4953C21.0576 24.4308 21.8058 23.6825 21.8703 22.7589C21.9467 21.6647 21.0782 20.75 20 20.75C18.139 20.75 16.625 19.236 16.625 17.375C16.625 15.8339 17.6636 14.5316 19.0774 14.1292C19.179 14.1003 19.25 14.009 19.25 13.9033V13.2712C19.25 12.8673 19.5604 12.5198 19.9638 12.5008C20.3945 12.4806 20.75 12.8238 20.75 13.25V13.9035C20.75 14.0088 20.8206 14.1002 20.9219 14.129C22.3296 14.5294 23.3656 15.8218 23.375 17.354C23.3774 17.763 23.0559 18.113 22.647 18.1247C22.2228 18.1369 21.875 17.7965 21.875 17.375C21.875 16.2968 20.9601 15.4282 19.866 15.5047C18.9424 15.5692 18.1942 16.3175 18.1297 17.2411C18.0533 18.3353 18.9218 19.25 20 19.25Z" fill="white"/>
<defs>
<filter id="filter0_b" x="-4" y="-4" width="48" height="48" filterUnits="userSpaceOnUse" color-interpolation-filters="sRGB">
<feFlood flood-opacity="0" result="BackgroundImageFix"/>
<feGaussianBlur in="BackgroundImage" stdDeviation="2"/>
<feComposite in2="SourceAlpha" operator="in" result="effect1_backgroundBlur"/>
<feBlend mode="normal" in="SourceGraphic" in2="effect1_backgroundBlur" result="shape"/>
</filter>
</defs>
</svg>
