<svg width="40" height="40" viewBox="0 0 40 40" fill="none" xmlns="http://www.w3.org/2000/svg">
<rect width="40" height="40" rx="4" fill="#755399"/>
<path d="M24.9999 19.9382C25.017 17.554 23.2592 15.3685 21.0816 15.066C21.0346 15.0592 20.9877 15.0509 20.941 15.0412C20.8316 15.017 20.7206 15.0032 20.6092 15C20.1624 15 20.0432 15.3627 20.0118 15.5779C19.9811 15.7881 20.0104 15.9654 20.0982 16.1031C20.2459 16.3347 20.5064 16.3759 20.7155 16.4089C20.7762 16.4188 20.834 16.4279 20.8825 16.4402C22.8395 16.9456 23.4982 17.7395 23.8201 19.981C23.828 20.0354 23.8315 20.1031 23.8358 20.1748C23.8501 20.4427 23.8786 21 24.3975 21C24.4403 21 24.4874 20.9959 24.536 20.9876C25.0184 20.9027 25.0034 20.3932 24.9963 20.1484C24.9942 20.0791 24.992 20.014 24.9977 19.9703C24.9989 19.9594 24.9993 19.9484 24.9992 19.9373L24.9999 19.9382Z" fill="white"/>
<path d="M20.6729 14.1965C20.7304 14.2009 20.7837 14.2053 20.8285 14.2119C23.9849 14.7188 25.4366 16.2788 25.8383 19.5978C25.8453 19.6542 25.8467 19.7229 25.8474 19.7953C25.8516 20.055 25.86 20.5947 26.4152 20.6057H26.432C26.6065 20.6057 26.7446 20.5508 26.8442 20.4426C27.0166 20.2546 27.0054 19.9745 26.9949 19.7492C26.9928 19.6936 26.9907 19.6417 26.9907 19.5956C27.0313 16.202 24.2149 13.1236 20.9652 13.0095C20.9512 13.0095 20.9386 13.0095 20.926 13.0117C20.9132 13.0134 20.9003 13.0141 20.8874 13.0139C20.8545 13.0139 20.8152 13.011 20.7725 13.008C20.722 13.0044 20.6638 13 20.6042 13C20.0869 13 19.9888 13.384 19.9762 13.6129C19.9474 14.1417 20.4374 14.179 20.6729 14.1965ZM25.6862 23.8874C25.6184 23.8337 25.5514 23.7791 25.485 23.7236C25.1401 23.434 24.7735 23.1677 24.4195 22.9096L24.1987 22.7486C23.7445 22.4159 23.3366 22.2542 22.951 22.2542C22.4309 22.2542 21.9781 22.5541 21.6038 23.1443C21.4384 23.4062 21.2372 23.5334 20.9898 23.5334C20.8179 23.5272 20.6492 23.483 20.4949 23.404C19.0299 22.7106 17.9826 21.6472 17.384 20.2436C17.0945 19.5649 17.1885 19.1217 17.6974 18.7604C17.9868 18.5556 18.5245 18.1746 18.4873 17.4439C18.4439 16.6152 16.6908 14.1205 15.952 13.8374C15.6361 13.7172 15.2899 13.7162 14.9734 13.8345C14.1246 14.1322 13.5161 14.6559 13.2112 15.347C12.9168 16.0155 12.9308 16.8003 13.2491 17.6165C14.1708 19.9767 15.4662 22.0348 17.1001 23.7331C18.699 25.3955 20.6645 26.7566 22.9412 27.7799C23.1466 27.872 23.3618 27.9225 23.5195 27.959C23.5728 27.9715 23.619 27.9824 23.6527 27.992C23.6712 27.9972 23.6903 27.9999 23.7095 28H23.7277C24.7988 28 26.085 26.979 26.4797 25.8153C26.8259 24.7958 26.1937 24.2919 25.6862 23.8874ZM21.1468 16.8932C20.9638 16.8976 20.5818 16.9078 20.4479 17.313C20.3848 17.5031 20.3925 17.667 20.4703 17.8023C20.5839 17.9998 20.8019 18.0612 20.9996 18.0948C21.718 18.2148 22.0875 18.6287 22.1611 19.3989C22.1954 19.7573 22.4274 20.0081 22.7239 20.0081C22.7464 20.0081 22.7689 20.0066 22.7912 20.0038C23.1487 19.9599 23.3218 19.6856 23.3064 19.189C23.312 18.6712 23.0527 18.0831 22.6104 17.615C22.1674 17.1455 21.6332 16.8807 21.1468 16.8932Z" fill="white"/>
</svg>
