<svg width="75" height="26" viewBox="0 0 75 26" fill="none" xmlns="http://www.w3.org/2000/svg">
<g filter="url(#filter0_i)">
<path d="M12.0925 1.51074H1.51984V12.0687H12.0925V1.51074Z" fill="#28B78D"/>
<path d="M12.0925 13.8284H1.51984V24.3863H12.0925V13.8284Z" fill="#28B78D"/>
<path d="M24.4273 1.51074H13.8546V12.0687H24.4273V1.51074Z" fill="#28B78D"/>
<path d="M24.4273 13.8284H13.8546V24.3863H24.4273V13.8284Z" fill="#28B78D"/>
<g filter="url(#filter1_f)">
<path d="M19.1411 19.1073L24.4274 13.8283M6.80627 6.78975L12.0926 12.0687L6.80627 6.78975ZM6.80627 6.78975L12.0926 1.51074L6.80627 6.78975ZM6.80627 6.78975L1.51995 12.0687L6.80627 6.78975ZM13.8547 1.51078L19.1411 6.78975L13.8547 1.51078ZM19.1411 6.78975L13.8547 12.0687L19.1411 6.78975ZM19.1411 6.78975L24.4274 1.51078L19.1411 6.78975ZM24.4017 24.3863L19.1153 19.1073L13.829 24.3863H24.4017ZM1.51993 13.8283L6.80627 19.1073L1.51993 13.8283ZM6.80627 19.1073L12.0926 13.8283L6.80627 19.1073ZM6.80627 19.1073L1.51995 24.3863L6.80627 19.1073Z" stroke="white" stroke-width="0.5"/>
</g>
<path d="M26.1895 24.3863H75" stroke="#28B78D"/>
<path d="M35.307 4.66439L33.4102 6.54476L31.5135 4.66439L33.4102 2.7703L35.307 4.66439ZM35.8018 6.83299C35.8018 8.12317 35.3436 9.22577 34.4273 10.1408C33.5202 11.0467 32.4206 11.4996 31.1286 11.4996C29.8367 11.4996 28.7325 11.0467 27.8162 10.1408C26.9091 9.22577 26.4555 8.12317 26.4555 6.83299C26.4555 5.54281 26.9091 4.44479 27.8162 3.53891C28.7325 2.62389 29.8367 2.16638 31.1286 2.16638V6.83299H35.8018ZM42.3239 6.81927V4.11538H39.6437V6.81927H42.3239ZM43.767 8.4663L45.0315 11.5408H42.2552L41.0319 8.68591H39.6987V11.5408H37.0322V2.20756H42.8324C43.593 2.20756 44.1931 2.52781 44.6329 3.16833C45.0178 3.73564 45.2102 4.48139 45.2102 5.40556C45.2102 6.03692 45.1048 6.61796 44.8941 7.14867C44.6375 7.78004 44.2618 8.21925 43.767 8.4663ZM53.2587 6.83299L51.4719 8.63101L49.6851 6.83299L51.4719 5.06242L53.2587 6.83299ZM54.427 11.5408H46.4414V2.20756H54.427V4.87027H49.1078V8.86434H54.427V11.5408ZM62.4798 6.83299L60.693 8.63101L58.9063 6.83299L60.693 5.06242L62.4798 6.83299ZM63.6481 11.5408H55.6626V2.20756H63.6481V4.87027H58.329V8.86434H63.6481V11.5408ZM74.1612 4.87027H73.4878V11.5133H70.8488L68.1137 7.06632V11.5408H64.8837V8.87806H65.4747V2.20756H68.1137L70.8488 6.66829V2.20756H74.1612V4.87027ZM32.6955 15.9836H30.0153V13.3071H32.6955V15.9836ZM29.3144 19.0855C28.5263 19.0763 27.8529 18.7927 27.2939 18.2345C26.735 17.6672 26.4555 16.9855 26.4555 16.1894C26.4555 15.3934 26.735 14.7163 27.2939 14.1581C27.8529 13.5999 28.5263 13.3163 29.3144 13.3071V19.0855ZM32.9017 19.758C32.9017 20.5541 32.6176 21.2312 32.0495 21.7894C31.4906 22.3475 30.8125 22.6312 30.0153 22.6403V16.862C30.8125 16.8711 31.4906 17.1594 32.0495 17.7267C32.6176 18.2848 32.9017 18.962 32.9017 19.758ZM29.3556 22.6129H26.6754V19.9502H29.3556V22.6129ZM43.5205 22.6266L38.8199 18.5502L34.133 22.6266V13.2934H37.5142V15.9561H40.1669V13.2934H43.5205V22.6266ZM53.8899 17.9737C53.8899 19.2639 53.4317 20.3665 52.5154 21.2815C51.6083 22.1874 50.5087 22.6403 49.2167 22.6403C47.9248 22.6403 46.8206 22.1874 45.9043 21.2815C44.9972 20.3665 44.5436 19.2639 44.5436 17.9737C44.5436 16.6927 44.9972 15.5947 45.9043 14.6797C46.8206 13.7646 47.9248 13.3071 49.2167 13.3071C50.5087 13.3071 51.6083 13.7646 52.5154 14.6797C53.4317 15.5947 53.8899 16.6927 53.8899 17.9737ZM51.0997 18.0149L49.1892 16.1071L47.3063 17.9875L49.2305 19.8815L51.0997 18.0149ZM62.6726 14.2404C63.0574 14.8078 63.2499 15.5535 63.2499 16.4777C63.2499 17.3286 63.0712 18.0561 62.7138 18.66C62.274 19.392 61.6555 19.758 60.8583 19.758H57.6559V22.6266H55.0719V13.2934H60.8721C61.6418 13.2934 62.2419 13.6091 62.6726 14.2404ZM60.3635 17.8914V15.2012H57.6833V17.8914H60.3635Z" fill="#28B78D"/>
<path d="M8.93763 3.78701L7.38133 5.32988L5.82503 3.78701L7.38133 2.23289L8.93763 3.78701ZM9.34362 5.56638C9.34362 6.62499 8.96771 7.52968 8.21587 8.28048C7.47155 9.02376 6.56935 9.39539 5.50926 9.39539C4.44917 9.39539 3.54321 9.02376 2.79137 8.28048C2.04705 7.52968 1.6749 6.62499 1.6749 5.56638C1.6749 4.50777 2.04705 3.60683 2.79137 2.86355C3.54321 2.11275 4.44917 1.73737 5.50926 1.73737V5.56638H9.34362Z" fill="white"/>
<path d="M19.1297 16.2961H16.9306V14.1H19.1297V16.2961ZM16.3554 18.8413C15.7089 18.8337 15.1563 18.6011 14.6976 18.143C14.239 17.6776 14.0097 17.1182 14.0097 16.465C14.0097 15.8118 14.239 15.2563 14.6976 14.7983C15.1563 14.3402 15.7089 14.1076 16.3554 14.1V18.8413ZM19.2989 19.3931C19.2989 20.0463 19.0657 20.6018 18.5997 21.0598C18.141 21.5179 17.5847 21.7505 16.9306 21.7581V17.0168C17.5847 17.0244 18.141 17.2609 18.5997 17.7263C19.0657 18.1844 19.2989 18.7399 19.2989 19.3931ZM16.3893 21.7355H14.1901V19.5507H16.3893V21.7355Z" fill="white"/>
</g>
<defs>
<filter id="filter0_i" x="1.34326" y="1.33386" width="73.6568" height="27.5524" filterUnits="userSpaceOnUse" color-interpolation-filters="sRGB">
<feFlood flood-opacity="0" result="BackgroundImageFix"/>
<feBlend mode="normal" in="SourceGraphic" in2="BackgroundImageFix" result="shape"/>
<feColorMatrix in="SourceAlpha" type="matrix" values="0 0 0 0 0 0 0 0 0 0 0 0 0 0 0 0 0 0 127 0" result="hardAlpha"/>
<feOffset dy="4"/>
<feGaussianBlur stdDeviation="2"/>
<feComposite in2="hardAlpha" operator="arithmetic" k2="-1" k3="1"/>
<feColorMatrix type="matrix" values="0 0 0 0 0 0 0 0 0 0 0 0 0 0 0 0 0 0 0.25 0"/>
<feBlend mode="normal" in2="shape" result="effect1_innerShadow"/>
</filter>
<filter id="filter1_f" x="0.343262" y="0.333862" width="25.6625" height="25.3024" filterUnits="userSpaceOnUse" color-interpolation-filters="sRGB">
<feFlood flood-opacity="0" result="BackgroundImageFix"/>
<feBlend mode="normal" in="SourceGraphic" in2="BackgroundImageFix" result="shape"/>
<feGaussianBlur stdDeviation="0.5" result="effect1_foregroundBlur"/>
</filter>
</defs>
</svg>
