<svg width="200" height="204" viewBox="0 0 200 204" fill="none" xmlns="http://www.w3.org/2000/svg">
<path fill-rule="evenodd" clip-rule="evenodd" d="M51.2393 105.208L61.6747 115.663C62.7282 116.719 63.9835 117.449 65.3168 117.855L65.1273 118.045C60.1825 122.999 57.6322 129.42 57.5008 135.809C55.2448 134.912 53.1395 133.555 51.325 131.737C44.1584 124.557 44.1769 112.832 51.2393 105.208ZM47.1291 101.033C38.1841 91.0314 38.2666 75.9018 47.5554 66.595C50.7438 63.4005 54.6168 61.2928 58.7326 60.2645C59.7588 56.1408 61.8625 52.2603 65.0508 49.0658C74.6756 39.4224 90.5401 39.6825 100.485 49.6466L100.509 49.6711C110.479 40.1809 125.985 40.084 135.452 49.5701C138.641 52.7646 140.744 56.6451 141.771 60.7688C145.886 61.7971 149.759 63.9048 152.948 67.0993C162.408 76.5775 162.319 92.0949 152.871 102.085C161.816 112.086 161.733 127.216 152.445 136.523C149.256 139.717 145.383 141.825 141.267 142.853C140.241 146.977 138.137 150.857 134.949 154.052C125.324 163.695 109.46 163.435 99.5149 153.471L99.4905 153.446C89.5209 162.937 74.0154 163.034 64.5476 153.547C61.3592 150.353 59.2556 146.472 58.2293 142.349C54.1136 141.321 50.2405 139.213 47.0522 136.018C37.5923 126.54 37.6809 111.023 47.1291 101.033ZM51.2669 96.8736C44.6831 89.2451 44.8263 77.8916 51.8283 70.8761C53.6428 69.0581 55.748 67.7016 58.004 66.8042C58.1353 73.1877 60.6811 79.6024 65.617 84.5549C63.9874 84.8863 62.4344 85.6845 61.1714 86.95L51.2669 96.8736ZM55.3871 101.055L65.3179 91.1045C66.4604 89.9598 68.3148 89.9619 69.4598 91.1091L79.8893 101.559L69.9631 111.504C68.818 112.651 66.9637 112.653 65.8212 111.509L55.3871 101.055ZM84.0265 105.704L75.6025 114.144C78.2959 114.412 80.8927 115.562 82.9288 117.603C85.4874 120.166 86.6436 123.617 86.4124 127.032L95.8628 117.563L84.0265 105.704ZM88.1638 101.559L100 89.6997L111.836 101.559L100 113.418L88.1638 101.559ZM95.8627 85.5545L84.0265 97.4135L75.1579 88.5277C78.1839 88.4585 81.1571 87.29 83.4311 85.0117C85.7314 82.7069 86.8982 79.6851 86.9423 76.6168L95.8627 85.5545ZM104.137 85.5544L115.973 97.4136L124.398 88.9733C121.704 88.7053 119.107 87.5551 117.071 85.515C114.513 82.9515 113.356 79.5008 113.588 76.0858L104.137 85.5544ZM116.562 68.7061C116.739 68.4938 116.924 68.2857 117.117 68.0823L117.115 68.08L117.225 67.9691C117.27 67.9232 117.315 67.8776 117.36 67.8322C117.387 67.8047 117.415 67.7773 117.443 67.7501L117.514 67.6801C122.458 62.7258 128.867 60.1706 135.244 60.0389C134.348 57.7785 132.994 55.6692 131.18 53.8512C123.996 46.6535 112.254 46.6894 104.647 53.8163L114.025 63.2123C115.553 64.7442 116.399 66.7019 116.562 68.7061ZM100.503 57.974L109.878 67.3668C111.02 68.5115 111.018 70.3695 109.873 71.5167L100 81.4092L90.6299 72.021C89.4848 70.8738 89.4828 69.0158 90.6252 67.8711L100.503 57.974ZM96.368 53.8082L96.3498 53.7899C88.7646 46.1901 76.6646 45.9918 69.3237 53.3469C67.5092 55.1649 66.1553 57.2742 65.2597 59.5346C71.6367 59.6663 78.0448 62.2215 82.9896 67.1758L83.3887 67.5757L83.3855 67.5789C83.6204 67.8268 83.8436 68.0816 84.0553 68.3425C84.3638 66.6473 85.1715 65.0263 86.4787 63.7166L96.368 53.8082ZM69.8416 80.4904L69.8363 80.4957L69.7658 80.4252C65.6419 76.2933 63.7016 70.8242 63.9692 65.5113C69.2719 65.2431 74.7304 67.1872 78.8543 71.3191L78.9248 71.3897L78.9184 71.396C78.9463 71.423 78.9739 71.4502 79.0014 71.4778C81.5917 74.073 81.6593 78.2131 79.1524 80.7248C76.6455 83.2365 72.5135 83.1688 69.9232 80.5735C69.8957 80.546 69.8685 80.5183 69.8416 80.4904ZM104.137 117.563L115.973 105.704L124.842 114.59C121.816 114.659 118.843 115.828 116.569 118.106C114.269 120.411 113.102 123.432 113.058 126.501L104.137 117.563ZM141.996 136.313C141.865 129.93 139.319 123.515 134.383 118.563C136.013 118.231 137.566 117.433 138.829 116.168L148.733 106.244C155.317 113.873 155.174 125.226 148.172 132.242C146.357 134.06 144.252 135.416 141.996 136.313ZM134.682 112.013L144.613 102.063L134.179 91.6089C133.036 90.4642 131.182 90.4663 130.037 91.6135L120.111 101.559L130.54 112.008C131.685 113.156 133.54 113.158 134.682 112.013ZM148.675 71.3804C155.842 78.5609 155.823 90.2859 148.761 97.9098L138.325 87.4543C137.272 86.3988 136.016 85.6682 134.683 85.2626L134.873 85.0727C139.817 80.1184 142.368 73.6978 142.499 67.3085C144.755 68.2059 146.86 69.5624 148.675 71.3804ZM113.521 139.401C114.828 138.091 115.636 136.47 115.945 134.775C116.156 135.036 116.38 135.291 116.614 135.539L116.611 135.542L117.01 135.942C121.955 140.896 128.363 143.451 134.74 143.583C133.845 145.843 132.491 147.953 130.676 149.771C123.335 157.126 111.235 156.928 103.65 149.328L103.632 149.309L113.521 139.401ZM109.375 135.246L99.4967 145.144L90.1219 135.751C88.9795 134.606 88.9815 132.748 90.1266 131.601L100 121.708L109.37 131.097C110.515 132.244 110.517 134.102 109.375 135.246ZM82.8832 135.035C83.076 134.832 83.2609 134.624 83.438 134.411C83.6008 136.416 84.4465 138.373 85.9754 139.905L95.3533 149.301C87.7455 156.428 76.0042 156.464 68.8204 149.266C67.0059 147.448 65.652 145.339 64.7564 143.079C71.1334 142.947 77.5416 140.392 82.4864 135.437L82.5574 135.368C82.585 135.34 82.6126 135.313 82.64 135.285C82.6854 135.24 82.7303 135.194 82.7748 135.148L82.8855 135.038L82.8832 135.035ZM121.584 71.8993L121.578 71.894L121.649 71.8234C125.773 67.6915 131.231 65.7474 136.534 66.0156C136.802 71.3285 134.861 76.7976 130.737 80.9295L130.667 81L130.661 80.9937L130.613 81.0423L130.579 81.0768C127.989 83.6721 123.857 83.7398 121.35 81.2281C118.843 78.7164 118.911 74.5764 121.501 71.9811C121.528 71.9536 121.556 71.9263 121.584 71.8993ZM78.4162 131.218L78.4215 131.224L78.3511 131.294C74.2272 135.426 68.7686 137.37 63.466 137.102C63.1983 131.789 65.1386 126.32 69.2626 122.188L69.333 122.118L69.3393 122.124L69.3853 122.077L69.4209 122.041C72.0112 119.445 76.1432 119.378 78.6501 121.889C81.157 124.401 81.0894 128.541 78.4991 131.136C78.4716 131.164 78.444 131.191 78.4162 131.218ZM130.164 122.622L130.158 122.627C130.131 122.599 130.104 122.572 130.077 122.544C127.486 119.949 123.354 119.881 120.848 122.393C118.341 124.905 118.408 129.045 120.999 131.64C121.026 131.667 121.054 131.695 121.082 131.722L121.075 131.728L121.146 131.799C125.27 135.93 130.728 137.875 136.031 137.606C136.298 132.293 134.358 126.824 130.234 122.692L130.164 122.622Z" fill="#0D3931"/>
<g filter="url(#filter0_b)">
<rect width="200" height="204" rx="8" fill="url(#paint0_radial)" fill-opacity="0.2"/>
<rect x="0.5" y="0.5" width="199" height="203" rx="7.5" stroke="url(#paint1_radial)"/>
<rect x="0.5" y="0.5" width="199" height="203" rx="7.5" stroke="url(#paint2_radial)"/>
</g>
<defs>
<filter id="filter0_b" x="-10" y="-10" width="220" height="224" filterUnits="userSpaceOnUse" color-interpolation-filters="sRGB">
<feFlood flood-opacity="0" result="BackgroundImageFix"/>
<feGaussianBlur in="BackgroundImage" stdDeviation="5"/>
<feComposite in2="SourceAlpha" operator="in" result="effect1_backgroundBlur"/>
<feBlend mode="normal" in="SourceGraphic" in2="effect1_backgroundBlur" result="shape"/>
</filter>
<radialGradient id="paint0_radial" cx="0" cy="0" r="1" gradientUnits="userSpaceOnUse" gradientTransform="translate(30.6389 42.9241) rotate(45.3513) scale(256.579 277.977)">
<stop stop-color="#6FB8C8"/>
<stop offset="0.770833" stop-color="#6EBFF4" stop-opacity="0.223958"/>
<stop offset="1" stop-color="#4690D5" stop-opacity="0"/>
</radialGradient>
<radialGradient id="paint1_radial" cx="0" cy="0" r="1" gradientUnits="userSpaceOnUse" gradientTransform="translate(-27.5098 -25.2235) rotate(42.7661) scale(218.975 432.199)">
<stop stop-color="#98F9FF"/>
<stop offset="1" stop-color="white" stop-opacity="0"/>
</radialGradient>
<radialGradient id="paint2_radial" cx="0" cy="0" r="1" gradientUnits="userSpaceOnUse" gradientTransform="translate(216.558 229.666) rotate(-132.501) scale(223.279 406.738)">
<stop stop-color="#EABFFF"/>
<stop offset="1" stop-color="#8726B7" stop-opacity="0"/>
</radialGradient>
</defs>
</svg>
