<svg width="112" height="42" viewBox="0 0 112 42" fill="none" xmlns="http://www.w3.org/2000/svg">
<path d="M55.4004 15.9257C55.4004 17.2857 54.9179 18.4617 53.953 19.4537C52.9881 20.4297 51.5808 21.1337 49.7315 21.5657C50.7287 21.8378 51.4843 22.2857 51.999 22.9097C52.5138 23.5178 52.771 24.2217 52.771 25.0217C52.771 26.2857 52.3691 27.3818 51.5648 28.3097C50.777 29.2377 49.619 29.9577 48.0911 30.4697C46.5632 30.9657 44.7221 31.2137 42.5669 31.2137C41.7628 31.2137 41.1195 31.1897 40.6371 31.1417C40.621 31.5897 40.428 31.9257 40.0581 32.1497C39.6882 32.3738 39.2138 32.4857 38.6349 32.4857C38.0559 32.4857 37.6539 32.3577 37.4287 32.1017C37.2197 31.8458 37.1312 31.4697 37.1634 30.9737C37.3081 28.7337 37.5895 26.3897 38.0077 23.9417C38.4258 21.4778 38.9565 19.1018 39.5998 16.8137C39.7123 16.4138 39.9375 16.1337 40.2752 15.9737C40.613 15.8138 41.0552 15.7337 41.602 15.7337C42.583 15.7337 43.0735 16.0058 43.0735 16.5497C43.0735 16.7738 43.0253 17.0297 42.9288 17.3177C42.5106 18.5657 42.0925 20.2617 41.6744 22.4057C41.2562 24.5337 40.9587 26.5658 40.7818 28.5017C41.5538 28.5657 42.181 28.5977 42.6634 28.5977C44.915 28.5977 46.5632 28.2777 47.6086 27.6377C48.6701 26.9817 49.2008 26.1497 49.2008 25.1417C49.2008 24.4377 48.8954 23.8457 48.2841 23.3657C47.6892 22.8857 46.6838 22.6217 45.2687 22.5737C44.9469 22.5578 44.7221 22.4777 44.5933 22.3337C44.4645 22.1897 44.4003 21.9578 44.4003 21.6377C44.4003 21.1737 44.4968 20.7977 44.6898 20.5097C44.8827 20.2217 45.2364 20.0697 45.7512 20.0537C46.8931 20.0217 47.9222 19.8537 48.8389 19.5497C49.7715 19.2458 50.5034 18.8217 51.0341 18.2777C51.5648 17.7177 51.8302 17.0697 51.8302 16.3337C51.8302 15.4058 51.3718 14.6777 50.4552 14.1497C49.5385 13.6058 48.1312 13.3337 46.2336 13.3337C44.5127 13.3337 42.8483 13.5578 41.2402 14.0057C39.632 14.4377 38.265 14.9897 37.1392 15.6617C36.6246 15.9657 36.1904 16.1177 35.8366 16.1177C35.5471 16.1177 35.3219 16.0217 35.1611 15.8297C35.0164 15.6218 34.944 15.3657 34.944 15.0617C34.944 14.6618 35.0245 14.3177 35.1853 14.0297C35.3622 13.7417 35.7723 13.4138 36.4155 13.0457C37.7664 12.2777 39.3505 11.6777 41.1678 11.2457C42.9851 10.8137 44.8427 10.5977 46.7402 10.5977C49.6509 10.5977 51.822 11.0858 53.2534 12.0617C54.6849 13.0377 55.4004 14.3258 55.4004 15.9257ZM65.4839 25.9337C65.6928 25.9337 65.8534 26.0297 65.9663 26.2217C66.0947 26.4137 66.1593 26.6777 66.1593 27.0137C66.1593 27.6537 66.0064 28.1498 65.701 28.5017C65.1056 29.2217 64.2613 29.8857 63.168 30.4937C62.0902 31.1018 60.9323 31.4057 59.6943 31.4057C58.0057 31.4057 56.6949 30.9497 55.7622 30.0377C54.8292 29.1257 54.3631 27.8777 54.3631 26.2937C54.3631 25.1897 54.5962 24.1658 55.0627 23.2217C55.5288 22.2617 56.1723 21.5018 56.9925 20.9417C57.8286 20.3817 58.7694 20.1017 59.8149 20.1017C60.7475 20.1017 61.4954 20.3817 62.0584 20.9417C62.621 21.4857 62.9027 22.2297 62.9027 23.1737C62.9027 24.2777 62.5003 25.2297 61.6965 26.0297C60.9082 26.8137 59.5655 27.4377 57.668 27.9017C58.0699 28.6377 58.8336 29.0057 59.9597 29.0057C60.6834 29.0057 61.5035 28.7577 62.4202 28.2617C63.3528 27.7497 64.1571 27.0857 64.8325 26.2697C65.0255 26.0457 65.2426 25.9337 65.4839 25.9337ZM59.4048 22.4537C58.8095 22.4537 58.3029 22.7978 57.8851 23.4857C57.4827 24.1737 57.282 25.0058 57.282 25.9817V26.0297C58.2306 25.8057 58.9784 25.4697 59.5254 25.0217C60.0721 24.5738 60.3456 24.0537 60.3456 23.4617C60.3456 23.1578 60.2569 22.9178 60.0803 22.7417C59.9192 22.5497 59.6943 22.4537 59.4048 22.4537ZM68.6819 31.9337C67.8458 31.9337 67.2022 31.7417 66.752 31.3577C66.3178 30.9737 66.1007 30.5417 66.1007 30.0617C66.1007 29.6457 66.2536 29.2857 66.559 28.9817C66.8645 28.6778 67.315 28.5257 67.9099 28.5257C68.1189 28.5257 68.3601 28.5497 68.6336 28.5977C68.9231 28.6298 69.1402 28.6538 69.285 28.6697C69.269 28.2537 69.1725 27.8618 68.9955 27.4937C68.8348 27.1257 68.6255 26.7737 68.3683 26.4377C68.1111 26.0858 67.8699 25.7817 67.6446 25.5257C67.1462 26.4698 66.6474 27.2537 66.149 27.8777C65.6665 28.5017 65.1358 29.0937 64.5568 29.6537C64.2674 29.9417 63.9619 30.0857 63.6402 30.0857C63.383 30.0857 63.1736 29.9978 63.013 29.8217C62.8523 29.6297 62.7717 29.3978 62.7717 29.1257C62.7717 28.8057 62.8842 28.5098 63.1094 28.2377L63.423 27.8537C64.3074 26.7657 64.9751 25.8698 65.4253 25.1657C65.6988 24.7017 66.0202 24.0857 66.3902 23.3177C66.7602 22.5338 67.1221 21.7257 67.4757 20.8937C67.7811 20.1897 68.4165 19.8377 69.3814 19.8377C69.8316 19.8377 70.1452 19.8777 70.3222 19.9577C70.4993 20.0378 70.5876 20.1657 70.5876 20.3417C70.5876 20.4377 70.5553 20.5898 70.4911 20.7977C70.4269 21.0057 70.3382 21.2138 70.2258 21.4217C69.9363 21.9977 69.7915 22.4858 69.7915 22.8857C69.7915 23.1257 69.8721 23.3897 70.0328 23.6777C70.2098 23.9657 70.4752 24.3257 70.8288 24.7577C71.3436 25.4297 71.7296 26.0057 71.9867 26.4857C72.2603 26.9498 72.3968 27.4617 72.3968 28.0217C72.3968 28.1817 72.3809 28.4057 72.3486 28.6937C73.1365 28.3898 74.0613 27.5817 75.1227 26.2697C75.3157 26.0457 75.5328 25.9337 75.7741 25.9337C75.983 25.9337 76.1441 26.0297 76.2565 26.2217C76.3853 26.4137 76.4495 26.6777 76.4495 27.0137C76.4495 27.6218 76.2966 28.1177 75.9912 28.5017C75.1869 29.4938 74.415 30.1737 73.6754 30.5417C72.9517 30.8937 72.0509 31.0857 70.9736 31.1177C70.3304 31.6617 69.5662 31.9337 68.6819 31.9337ZM76.2022 31.4057C75.5914 31.4057 75.1572 31.0857 74.8996 30.4457C74.6584 29.8058 74.5378 28.7817 74.5378 27.3737C74.5378 25.2938 74.8354 23.3177 75.4303 21.4457C75.5751 20.9817 75.8085 20.6457 76.1299 20.4377C76.4676 20.2137 76.9341 20.1017 77.529 20.1017C77.8508 20.1017 78.0761 20.1417 78.2045 20.2217C78.3333 20.3018 78.3974 20.4537 78.3974 20.6777C78.3974 20.9337 78.2768 21.5097 78.0356 22.4057C77.8749 23.0457 77.7461 23.6057 77.6496 24.0857C77.5531 24.5657 77.473 25.1577 77.4084 25.8617C77.9391 24.4857 78.5344 23.3657 79.1935 22.5017C79.853 21.6377 80.4962 21.0218 81.1234 20.6537C81.7669 20.2857 82.3536 20.1017 82.8843 20.1017C83.9298 20.1017 84.4523 20.6217 84.4523 21.6617C84.4523 21.8697 84.38 22.3737 84.2352 23.1737C84.1069 23.8137 84.0423 24.2138 84.0423 24.3737C84.0423 24.9338 84.2434 25.2137 84.6453 25.2137C85.0959 25.2137 85.6749 24.8618 86.3822 24.1577C86.5915 23.9498 86.8087 23.8457 87.0335 23.8457C87.2429 23.8457 87.4035 23.9417 87.516 24.1337C87.6448 24.3098 87.709 24.5498 87.709 24.8537C87.709 25.4457 87.5483 25.9097 87.2265 26.2457C86.7763 26.7098 86.2456 27.1097 85.6344 27.4457C85.0395 27.7658 84.4041 27.9257 83.7286 27.9257C82.8766 27.9257 82.2253 27.7097 81.7747 27.2777C81.3405 26.8457 81.1234 26.2617 81.1234 25.5257C81.1234 25.2857 81.1475 25.0457 81.1957 24.8057C81.228 24.4857 81.244 24.2697 81.244 24.1577C81.244 23.9018 81.1557 23.7737 80.9786 23.7737C80.7374 23.7737 80.416 24.0458 80.0137 24.5897C79.6277 25.1177 79.2418 25.8218 78.8558 26.7017C78.4698 27.5817 78.1562 28.5098 77.915 29.4857C77.7384 30.2378 77.529 30.7497 77.2878 31.0217C77.0629 31.2777 76.7011 31.4057 76.2022 31.4057ZM97.7704 23.9177C97.9794 23.9177 98.14 24.0218 98.2529 24.2297C98.3653 24.4377 98.4218 24.7017 98.4218 25.0217C98.4218 25.7897 98.1883 26.2457 97.7222 26.3897C96.7573 26.7257 95.6958 26.9177 94.5379 26.9657C94.2321 28.3097 93.629 29.3897 92.7287 30.2057C91.828 31.0058 90.8066 31.4057 89.6651 31.4057C88.7002 31.4057 87.8718 31.1738 87.1804 30.7097C86.505 30.2457 85.9902 29.6297 85.6365 28.8617C85.2824 28.0937 85.1058 27.2618 85.1058 26.3657C85.1058 25.1498 85.3389 24.0698 85.8054 23.1257C86.2715 22.1657 86.9151 21.4217 87.7352 20.8937C88.5554 20.3498 89.4639 20.0777 90.4611 20.0777C91.6832 20.0777 92.6641 20.5017 93.4042 21.3497C94.1597 22.1817 94.6021 23.2137 94.7309 24.4457C95.4865 24.3977 96.3872 24.2378 97.4327 23.9657C97.5611 23.9337 97.6739 23.9177 97.7704 23.9177ZM89.8581 28.8617C90.3724 28.8617 90.8148 28.6538 91.1848 28.2377C91.5708 27.8217 91.828 27.2217 91.9568 26.4377C91.4579 26.1017 91.072 25.6617 90.7989 25.1177C90.5413 24.5738 90.4129 23.9978 90.4129 23.3897C90.4129 23.1338 90.437 22.8777 90.4853 22.6217H90.3647C89.7211 22.6217 89.1826 22.9337 88.7484 23.5577C88.3301 24.1658 88.1212 25.0298 88.1212 26.1497C88.1212 27.0297 88.2901 27.7017 88.6278 28.1657C88.9814 28.6298 89.3915 28.8617 89.8581 28.8617ZM99.5112 18.5177C98.8357 18.5177 98.3291 18.3657 97.9914 18.0617C97.6537 17.7417 97.4848 17.3018 97.4848 16.7417C97.4848 16.1817 97.7019 15.7178 98.1362 15.3497C98.5867 14.9657 99.1416 14.7737 99.8007 14.7737C100.396 14.7737 100.878 14.9177 101.248 15.2057C101.618 15.4937 101.803 15.9017 101.803 16.4297C101.803 17.0697 101.594 17.5817 101.176 17.9657C100.758 18.3338 100.203 18.5177 99.5112 18.5177ZM99.3182 31.4057C98.2731 31.4057 97.509 31.0377 97.0265 30.3017C96.5604 29.5658 96.3269 28.5897 96.3269 27.3737C96.3269 26.6537 96.4157 25.7337 96.5923 24.6137C96.7853 23.4777 97.0265 22.4217 97.316 21.4457C97.4607 20.9337 97.6537 20.5817 97.8949 20.3897C98.1362 20.1977 98.5221 20.1017 99.0528 20.1017C99.873 20.1017 100.283 20.3738 100.283 20.9177C100.283 21.3177 100.131 22.2458 99.8248 23.7017C99.4388 25.4618 99.2458 26.6537 99.2458 27.2777C99.2458 27.7577 99.3104 28.1258 99.4388 28.3817C99.5676 28.6377 99.7847 28.7657 100.09 28.7657C100.38 28.7657 100.741 28.5657 101.176 28.1657C101.61 27.7658 102.189 27.1337 102.913 26.2697C103.106 26.0457 103.323 25.9337 103.564 25.9337C103.773 25.9337 103.934 26.0297 104.046 26.2217C104.175 26.4137 104.239 26.6777 104.239 27.0137C104.239 27.6537 104.087 28.1498 103.781 28.5017C102.189 30.4377 100.701 31.4057 99.3182 31.4057ZM106.268 22.3817C106.236 23.1818 106.22 23.8058 106.22 24.2537C106.22 25.4057 106.276 26.3097 106.389 26.9657C106.517 27.6057 106.718 28.0697 106.992 28.3577C107.281 28.6298 107.675 28.7657 108.174 28.7657C108.431 28.7657 108.737 28.6857 109.091 28.5257C109.444 28.3658 109.766 28.1577 110.056 27.9017C110.232 27.7418 110.409 27.6617 110.586 27.6617C110.779 27.6617 110.932 27.7737 111.045 27.9977C111.173 28.2057 111.238 28.4618 111.238 28.7657C111.238 29.0697 111.173 29.3657 111.045 29.6537C110.932 29.9417 110.755 30.1817 110.514 30.3737C109.677 31.0617 108.729 31.4057 107.667 31.4057C106.139 31.4057 105.022 30.7737 104.314 29.5097C103.606 28.2297 103.253 26.5658 103.253 24.5177C103.253 23.8137 103.277 23.1017 103.325 22.3817H102.384C101.902 22.3817 101.572 22.2938 101.395 22.1177C101.234 21.9417 101.154 21.6617 101.154 21.2777C101.154 20.3817 101.516 19.9337 102.24 19.9337H103.615C103.888 18.1737 104.306 16.5657 104.869 15.1097C105.432 13.6538 106.107 12.4937 106.895 11.6297C107.699 10.7657 108.56 10.3337 109.477 10.3337C110.152 10.3337 110.683 10.6298 111.069 11.2217C111.455 11.8137 111.648 12.5577 111.648 13.4537C111.648 15.9338 110.602 18.0938 108.512 19.9337H111.213C111.471 19.9337 111.655 19.9898 111.768 20.1017C111.881 20.2137 111.937 20.4218 111.937 20.7257C111.937 21.8297 111.028 22.3817 109.211 22.3817H106.268ZM108.825 12.6377C108.584 12.6377 108.31 12.9417 108.005 13.5497C107.716 14.1417 107.434 14.9738 107.161 16.0457C106.903 17.1017 106.686 18.2777 106.509 19.5737C107.458 18.7577 108.166 17.8457 108.632 16.8377C109.115 15.8138 109.356 14.8857 109.356 14.0537C109.356 13.1097 109.179 12.6377 108.825 12.6377Z" fill="url(#paint0_linear)"/>
<path d="M12.3066 35.344C10.7404 35.344 9.46661 34.0764 9.46661 32.5184C9.46661 30.9602 10.7404 29.6929 12.3066 29.6929C13.8726 29.6929 15.1464 30.9602 15.1464 32.5184C15.1464 34.0764 13.8726 35.344 12.3066 35.344Z" fill="#00A8BE"/>
<path d="M12.3067 33.4601C11.7844 33.4601 11.3599 33.0381 11.3599 32.5184C11.3599 31.9988 11.7844 31.5765 12.3067 31.5765C12.829 31.5765 13.2532 31.9988 13.2532 32.5184C13.2532 33.0381 12.829 33.4601 12.3067 33.4601Z" fill="#465A61"/>
<path d="M25.6861 35.344C24.1201 35.344 22.846 34.0764 22.846 32.5184C22.846 30.9602 24.1201 29.6929 25.6861 29.6929C27.252 29.6929 28.5261 30.9602 28.5261 32.5184C28.5261 34.0764 27.252 35.344 25.6861 35.344Z" fill="#00A8BE"/>
<path d="M25.686 33.4601C25.1637 33.4601 24.7393 33.0381 24.7393 32.5184C24.7393 31.9988 25.1637 31.5765 25.686 31.5765C26.2083 31.5765 26.6325 31.9988 26.6325 32.5184C26.6325 33.0381 26.2083 33.4601 25.686 33.4601Z" fill="#3B4A51"/>
<path d="M28.6774 28.7509C28.6774 29.2784 28.2609 29.6928 27.7309 29.6928H9.61822C8.04664 29.6928 6.7782 28.4307 6.7782 26.8673C6.7782 25.4359 7.83832 24.249 9.2394 24.0795C9.35299 24.0417 9.48563 24.0417 9.61822 24.0417C9.84523 24.0417 10.0725 24.1362 10.2241 24.2868L9.65595 25.9256C9.63721 25.9256 9.63721 25.9256 9.61822 25.9256C9.08803 25.9256 8.67147 26.3398 8.67147 26.8673C8.67147 27.3948 9.08803 27.8092 9.61822 27.8092H27.7309C28.2609 27.8092 28.6774 28.2234 28.6774 28.7509Z" fill="#465A61"/>
<path d="M6.28251 10.8584C6.34265 10.9337 7.3621 11.3918 8.3885 11.8403C8.3922 11.7592 8.40254 11.6787 8.38406 11.5958L7.55117 7.82836C7.4558 7.39602 7.07125 7.08899 6.62661 7.08899H0.946762C0.423467 7.08899 0 7.51027 0 8.0309C0 8.55132 0.423467 8.9726 0.946762 8.9726H5.8657L6.28251 10.8584Z" fill="#465A61"/>
<path d="M28.6774 28.751C28.6774 29.2785 28.2609 29.6929 27.7309 29.6929H18.8258V27.8093H27.7309C28.2609 27.8093 28.6774 28.2235 28.6774 28.751Z" fill="#3B4A51"/>
<path d="M32.1234 11.2331C31.934 10.9882 31.6688 10.8562 31.3659 10.8562H6.28571L9.2394 24.0795L9.65596 25.9256H27.5794C27.9959 25.9256 28.3745 25.6429 28.4881 25.2473L32.2747 12.0618C32.3506 11.7793 32.2936 11.459 32.1234 11.2331Z" fill="#FF6DA8"/>
<path d="M32.2747 12.0618L28.4881 25.2473C28.3745 25.6429 27.9959 25.9256 27.5793 25.9256H18.8258V10.8562H31.3659C31.6688 10.8562 31.934 10.9882 32.1233 11.2331C32.2937 11.459 32.3506 11.7793 32.2747 12.0618Z" fill="#EC3B82"/>
<defs>
<linearGradient id="paint0_linear" x1="111.139" y1="1.18279e-05" x2="34.1839" y2="8.87498" gradientUnits="userSpaceOnUse">
<stop stop-color="#EC3B82"/>
<stop offset="0.28125" stop-color="#B25691"/>
<stop offset="0.578125" stop-color="#00A8BE"/>
<stop offset="0.864583" stop-color="#2B7EB4"/>
<stop offset="1" stop-color="#4367AF"/>
</linearGradient>
</defs>
</svg>
