<svg width="72" height="48" viewBox="0 0 72 48" fill="none" xmlns="http://www.w3.org/2000/svg">
<path d="M10.4375 30.9688V29.9688H9.4375V30.9688H10.4375ZM10.4375 47V48H11.4375V47H10.4375ZM1.0625 47H0.0625V48H1.0625V47ZM1.0625 1.5V0.5H0.0625V1.5H1.0625ZM27.8125 3.375L27.3769 4.27516L27.3798 4.27652L27.8125 3.375ZM33.8125 8.71875L32.9564 9.23552L32.9585 9.23894L33.8125 8.71875ZM31.3125 27.125L31.9568 27.8898L31.9573 27.8894L31.3125 27.125ZM10.4375 23.375H9.4375V24.375H10.4375V23.375ZM24.4688 21.625L23.8044 20.8776L23.7985 20.8829L24.4688 21.625ZM19.0312 9.09375L19.0493 8.09391L19.0403 8.09375H19.0312V9.09375ZM10.4375 9.09375V8.09375H9.4375V9.09375H10.4375ZM9.4375 30.9688V47H11.4375V30.9688H9.4375ZM10.4375 46H1.0625V48H10.4375V46ZM2.0625 47V1.5H0.0625V47H2.0625ZM1.0625 2.5H18.8125V0.5H1.0625V2.5ZM18.8125 2.5C22.1068 2.5 24.9529 3.10223 27.3769 4.27516L28.2481 2.47484C25.5055 1.14777 22.3516 0.5 18.8125 0.5V2.5ZM27.3798 4.27652C29.8211 5.44837 31.6683 7.10149 32.9564 9.23551L34.6686 8.20199C33.1651 5.71101 31.0122 3.80163 28.2452 2.47348L27.3798 4.27652ZM32.9585 9.23894C34.2499 11.3592 34.9062 13.7905 34.9062 16.5625H36.9062C36.9062 13.4595 36.1668 10.6616 34.6665 8.19856L32.9585 9.23894ZM34.9062 16.5625C34.9062 20.7636 33.4779 23.9902 30.6677 26.3606L31.9573 27.8894C35.2721 25.0932 36.9062 21.2781 36.9062 16.5625H34.9062ZM30.6682 26.3602C27.8622 28.7242 23.9005 29.9688 18.6562 29.9688V31.9688C24.2036 31.9688 28.6794 30.6508 31.9568 27.8898L30.6682 26.3602ZM18.6562 29.9688H10.4375V31.9688H18.6562V29.9688ZM10.4375 24.375H18.8125V22.375H10.4375V24.375ZM18.8125 24.375C21.4349 24.375 23.5986 23.7585 25.139 22.3671L23.7985 20.8829C22.7556 21.8248 21.1484 22.375 18.8125 22.375V24.375ZM25.1331 22.3724C26.7077 20.9728 27.4375 19.0051 27.4375 16.625H25.4375C25.4375 18.5782 24.8548 19.9439 23.8044 20.8776L25.1331 22.3724ZM27.4375 16.625C27.4375 14.1862 26.7125 12.1211 25.1921 10.5283L23.7454 11.9092C24.85 13.0664 25.4375 14.6055 25.4375 16.625H27.4375ZM25.1921 10.5283C23.6565 8.91959 21.567 8.13928 19.0493 8.09391L19.0132 10.0936C21.1205 10.1316 22.656 10.7679 23.7454 11.9092L25.1921 10.5283ZM19.0312 8.09375H10.4375V10.0938H19.0312V8.09375ZM9.4375 9.09375V23.375H11.4375V9.09375H9.4375ZM59.1875 35.7188L58.2296 36.0057L59.1846 39.194L60.145 36.0073L59.1875 35.7188ZM69.5 1.5V0.5H68.7569L68.5425 1.21145L69.5 1.5ZM79.9375 1.5L80.8819 1.82885L81.3446 0.5H79.9375V1.5ZM64.0938 47V48H64.8044L65.0381 47.3288L64.0938 47ZM54.3125 47L53.3677 47.3277L53.6009 48H54.3125V47ZM38.5312 1.5V0.5H37.126L37.5865 1.82769L38.5312 1.5ZM48.9375 1.5L49.8954 1.21305L49.6819 0.5H48.9375V1.5ZM60.145 36.0073L70.4575 1.78855L68.5425 1.21145L58.23 35.4302L60.145 36.0073ZM69.5 2.5H79.9375V0.5H69.5V2.5ZM78.9931 1.17115L63.1494 46.6712L65.0381 47.3288L80.8819 1.82885L78.9931 1.17115ZM64.0938 46H54.3125V48H64.0938V46ZM55.2573 46.6723L39.476 1.17231L37.5865 1.82769L53.3677 47.3277L55.2573 46.6723ZM38.5312 2.5H48.9375V0.5H38.5312V2.5ZM47.9796 1.78695L58.2296 36.0057L60.1454 35.4318L49.8954 1.21305L47.9796 1.78695Z" fill="white"/>
</svg>
