<svg width="40" height="40" viewBox="0 0 40 40" fill="none" xmlns="http://www.w3.org/2000/svg">
<rect width="40" height="40" rx="4" fill="#4EACEA"/>
<path d="M28.7117 21.5609C28.8078 21.0336 28.8594 20.4945 28.8594 19.9555C28.8594 18.7602 28.625 17.6 28.1633 16.5102C27.718 15.4555 27.0782 14.5086 26.2649 13.6953C25.4584 12.8868 24.5024 12.2428 23.45 11.7992C22.3578 11.3375 21.2 11.1031 20.0047 11.1031C19.4422 11.1031 18.8774 11.157 18.3289 11.2625C17.5701 10.8604 16.7245 10.6496 15.8656 10.6484C14.4664 10.6484 13.1492 11.1945 12.1602 12.1836C11.6721 12.6691 11.2851 13.2466 11.0216 13.8826C10.7581 14.5187 10.6233 15.2006 10.625 15.8891C10.625 16.7797 10.8547 17.6563 11.2836 18.4297C11.1969 18.9313 11.15 19.4445 11.15 19.9555C11.15 21.1508 11.3844 22.3109 11.8461 23.4008C12.2914 24.4555 12.9289 25.4023 13.7422 26.2156C14.5555 27.0289 15.5024 27.6664 16.5571 28.1117C17.6492 28.5734 18.8071 28.8078 20.0024 28.8078C20.5227 28.8078 21.043 28.7609 21.5539 28.6695C22.3391 29.1125 23.225 29.3492 24.1321 29.3492C25.5313 29.3492 26.8485 28.8055 27.8375 27.8141C28.8289 26.825 29.3727 25.5078 29.3727 24.1086C29.375 23.218 29.1453 22.3391 28.7117 21.5609ZM20.0399 25.3789C16.8946 25.3789 15.4883 23.832 15.4883 22.6742C15.4883 22.0789 15.9266 21.6641 16.5313 21.6641C17.8766 21.6641 17.5297 23.5977 20.0399 23.5977C21.3266 23.5977 22.0367 22.8992 22.0367 22.1844C22.0367 21.7555 21.8258 21.2773 20.9774 21.0688L18.1789 20.3703C15.9266 19.8055 15.5164 18.5867 15.5164 17.443C15.5164 15.0664 17.7547 14.1734 19.8571 14.1734C21.793 14.1734 24.0758 15.2445 24.0758 16.6695C24.0758 17.2813 23.5461 17.6352 22.9414 17.6352C21.793 17.6352 22.0039 16.0461 19.6906 16.0461C18.5422 16.0461 17.9071 16.5664 17.9071 17.3094C17.9071 18.0523 18.8141 18.2891 19.6016 18.4695L21.6735 18.9289C23.9422 19.4352 24.5164 20.7594 24.5164 22.0063C24.5164 23.9352 23.0328 25.3789 20.0399 25.3789Z" fill="white"/>
</svg>
