<svg width="40" height="40" viewBox="0 0 40 40" fill="none" xmlns="http://www.w3.org/2000/svg">
<rect width="40" height="40" rx="4" fill="#4DA9E7"/>
<path d="M26.816 16.064C26.288 16.304 25.76 16.448 25.136 16.544C25.712 16.16 26.192 15.632 26.432 14.96C25.856 15.296 25.232 15.536 24.608 15.68C24.08 15.104 23.312 14.768 22.496 14.768C20.912 14.768 19.568 16.064 19.568 17.696C19.568 17.936 19.616 18.128 19.664 18.368C17.264 18.272 15.104 17.072 13.664 15.344C13.424 15.68 13.28 16.16 13.28 16.688C13.28 17.696 13.808 18.608 14.576 19.088C14.096 19.088 13.664 18.944 13.28 18.704V18.752C13.28 20.144 14.288 21.344 15.632 21.584C15.392 21.632 15.152 21.68 14.864 21.68C14.672 21.68 14.48 21.68 14.336 21.632C14.72 22.784 15.776 23.648 17.072 23.648C16.064 24.416 14.816 24.896 13.472 24.896C13.232 24.896 12.992 24.896 12.8 24.848C13.952 25.76 15.488 26.24 17.12 26.24C22.448 26.24 25.376 21.824 25.376 17.984V17.6C25.952 17.168 26.432 16.688 26.816 16.064Z" fill="white"/>
</svg>
