<svg width="40" height="40" viewBox="0 0 40 40" fill="none" xmlns="http://www.w3.org/2000/svg">
<rect width="40" height="40" rx="4" fill="#547FBD"/>
<path fill-rule="evenodd" clip-rule="evenodd" d="M20.048 25.232H21.008C21.008 25.232 21.296 25.184 21.44 25.04C21.584 24.896 21.584 24.608 21.584 24.608C21.584 24.608 21.584 23.36 22.16 23.168C22.736 22.976 23.504 24.416 24.272 24.944C24.848 25.376 25.28 25.28 25.28 25.28L27.392 25.232C27.392 25.232 28.496 25.184 27.968 24.272C27.92 24.224 27.68 23.648 26.384 22.448C25.04 21.2 25.232 21.44 26.816 19.28C27.776 17.984 28.16 17.216 28.064 16.832C27.968 16.496 27.248 16.592 27.248 16.592H24.848C24.848 16.592 24.656 16.544 24.56 16.64C24.416 16.736 24.368 16.88 24.368 16.88C24.368 16.88 23.984 17.888 23.504 18.752C22.448 20.528 22.016 20.624 21.872 20.528C21.488 20.288 21.584 19.472 21.584 18.944C21.584 17.216 21.872 16.496 21.056 16.304C20.816 16.256 20.624 16.208 19.952 16.208C19.088 16.208 18.368 16.208 17.984 16.4C17.696 16.544 17.504 16.832 17.648 16.832C17.792 16.832 18.176 16.928 18.368 17.168C18.56 17.6 18.56 18.32 18.56 18.32C18.56 18.32 18.704 20.384 18.224 20.624C17.888 20.816 17.456 20.432 16.496 18.8C16.016 17.984 15.632 17.024 15.632 17.024C15.632 17.024 15.584 16.832 15.44 16.736C15.296 16.64 15.056 16.592 15.056 16.592H12.8C12.8 16.592 12.464 16.592 12.32 16.736C12.224 16.88 12.32 17.12 12.32 17.12C12.32 17.12 14.096 21.248 16.112 23.36C17.984 25.376 20.048 25.232 20.048 25.232Z" fill="white"/>
</svg>
