<svg width="40" height="40" viewBox="0 0 40 40" fill="none" xmlns="http://www.w3.org/2000/svg">
<rect width="40" height="40" rx="4" fill="#7BBA61"/>
<path fill-rule="evenodd" clip-rule="evenodd" d="M26.403 13.633C25.5714 12.7959 24.5819 12.1321 23.4919 11.6801C22.4019 11.2282 21.233 10.997 20.053 11C15.105 11 11.077 15.027 11.075 19.977C11.075 21.559 11.488 23.103 12.273 24.465L11 29.116L15.759 27.867C17.0754 28.5836 18.5502 28.9593 20.049 28.96H20.053C25 28.96 29.028 24.933 29.03 19.983C29.0334 18.8035 28.803 17.635 28.3521 16.5451C27.9012 15.4551 27.2387 14.4654 26.403 13.633ZM20.053 27.445H20.05C18.7135 27.4451 17.4016 27.0856 16.252 26.404L15.98 26.242L13.156 26.983L13.909 24.23L13.732 23.948C12.9848 22.7584 12.5892 21.3818 12.591 19.977C12.593 15.863 15.94 12.516 20.056 12.516C21.0363 12.5138 22.0072 12.7061 22.9127 13.0816C23.8181 13.4572 24.6401 14.0086 25.331 14.704C26.0256 15.396 26.5762 16.2189 26.9509 17.125C27.3256 18.0311 27.517 19.0025 27.514 19.983C27.512 24.097 24.165 27.445 20.053 27.445ZM24.146 21.856C23.921 21.743 22.819 21.201 22.613 21.126C22.408 21.051 22.259 21.014 22.109 21.238C21.959 21.462 21.529 21.967 21.398 22.117C21.267 22.267 21.136 22.285 20.912 22.173C20.688 22.061 19.965 21.824 19.108 21.06C18.441 20.465 17.991 19.731 17.86 19.506C17.729 19.281 17.846 19.16 17.959 19.048C18.06 18.948 18.183 18.786 18.295 18.655C18.407 18.524 18.444 18.431 18.519 18.281C18.594 18.131 18.557 18 18.5 17.888C18.444 17.775 17.995 16.671 17.808 16.222C17.627 15.787 17.442 15.845 17.304 15.839C17.1611 15.8332 17.018 15.8305 16.875 15.831C16.7613 15.8339 16.6493 15.8603 16.5463 15.9084C16.4432 15.9566 16.3512 16.0256 16.276 16.111C16.07 16.336 15.491 16.878 15.491 17.982C15.491 19.086 16.295 20.153 16.407 20.303C16.519 20.453 17.989 22.718 20.239 23.69C20.775 23.921 21.193 24.059 21.518 24.163C22.055 24.334 22.544 24.309 22.931 24.252C23.362 24.188 24.258 23.71 24.445 23.186C24.632 22.662 24.632 22.213 24.576 22.119C24.52 22.025 24.369 21.968 24.146 21.856Z" fill="white"/>
</svg>
