<svg width="161" height="126" viewBox="0 0 161 126" fill="none" xmlns="http://www.w3.org/2000/svg">
<path fill-rule="evenodd" clip-rule="evenodd" d="M47.6887 42.4507L54.7107 49.4727C55.4196 50.1816 56.2643 50.6722 57.1615 50.9446L57.034 51.0721C53.7067 54.3995 51.9905 58.7115 51.9021 63.0026C50.384 62.4 48.9674 61.4889 47.7464 60.268C42.924 55.4455 42.9364 47.571 47.6887 42.4507ZM44.923 39.6469C38.9038 32.9298 38.9593 22.7686 45.2098 16.5181C47.3552 14.3727 49.9614 12.9571 52.7309 12.2666C53.4215 9.49706 54.8371 6.89088 56.9825 4.74543C63.4591 -1.73112 74.1343 -1.55647 80.8263 5.13552L80.8428 5.152C87.5513 -1.22171 97.985 -1.2868 104.356 5.08413C106.501 7.22957 107.917 9.83575 108.608 12.6053C111.377 13.2958 113.983 14.7114 116.129 16.8568C122.494 23.2224 122.435 33.644 116.077 40.3531C122.096 47.0703 122.04 57.2314 115.79 63.4818C113.645 65.6273 111.038 67.0429 108.269 67.7334C107.578 70.5029 106.163 73.1091 104.017 75.2545C97.5407 81.7311 86.8655 81.5565 80.1735 74.8645L80.1571 74.848C73.4486 81.2217 63.0148 81.2868 56.6439 74.9159C54.4985 72.7704 53.0829 70.1642 52.3923 67.3947C49.6228 66.7042 47.0167 65.2886 44.8712 63.1432C38.5057 56.7776 38.5653 46.3561 44.923 39.6469ZM47.7073 36.8534C43.277 31.7301 43.3734 24.105 48.085 19.3933C49.306 18.1724 50.7226 17.2613 52.2407 16.6587C52.329 20.9458 54.0421 25.254 57.3635 28.5801C56.2669 28.8026 55.2219 29.3388 54.3721 30.1886L47.7073 36.8534ZM50.4798 39.6614L57.1623 32.9788C57.9311 32.2101 59.1789 32.2115 59.9494 32.9819L66.9674 39.9999L60.288 46.6794C59.5175 47.4498 58.2696 47.4512 57.5009 46.6825L50.4798 39.6614ZM69.7513 42.7839L64.0827 48.4525C65.8952 48.6324 67.6426 49.4049 69.0127 50.7751C70.7344 52.4967 71.5124 54.8142 71.3568 57.1077L77.716 50.7486L69.7513 42.7839ZM72.5353 39.9999L80.4999 32.0353L88.4645 40L80.4999 47.9646L72.5353 39.9999ZM77.7159 29.2514L69.7513 37.216L63.7836 31.2483C65.8199 31.2018 67.8205 30.417 69.3506 28.8869C70.8985 27.339 71.6837 25.3095 71.7133 23.2488L77.7159 29.2514ZM83.2839 29.2514L91.2485 37.216L96.917 31.5475C95.1047 31.3675 93.3573 30.595 91.9872 29.2249C90.2655 27.5032 89.4875 25.1857 89.6431 22.8922L83.2839 29.2514ZM91.6445 17.936C91.7637 17.7934 91.8881 17.6537 92.0178 17.517L92.0163 17.5155L92.0908 17.441C92.1208 17.4102 92.151 17.3795 92.1815 17.349C92.2 17.3305 92.2185 17.3122 92.2371 17.2939L92.2849 17.2469C95.6123 13.9196 99.9243 12.2034 104.215 12.115C103.613 10.597 102.702 9.18032 101.481 7.95933C96.6467 3.12531 88.746 3.14941 83.6267 7.93594L89.9371 14.2463C90.9659 15.2751 91.5349 16.5899 91.6445 17.936ZM80.8386 10.7282L87.1468 17.0365C87.9156 17.8053 87.9142 19.0531 87.1437 19.8236L80.4999 26.4674L74.1948 20.1623C73.4243 19.3918 73.4229 18.144 74.1916 17.3752L80.8386 10.7282ZM78.0559 7.93046L78.0436 7.91816C72.9396 2.8141 64.7975 2.68089 59.8577 7.62064C58.6367 8.84162 57.7257 10.2583 57.123 11.7763C61.4141 11.8648 65.7262 13.5809 69.0536 16.9082L69.3221 17.1768L69.32 17.1789C69.478 17.3455 69.6282 17.5166 69.7707 17.6918C69.9783 16.5533 70.5218 15.4646 71.4014 14.585L78.0559 7.93046ZM60.2062 25.8503L60.2026 25.8539L60.1552 25.8066C57.3802 23.0315 56.0746 19.3585 56.2547 15.7903C59.8229 15.6102 63.4959 16.9159 66.2709 19.6909L66.3183 19.7383L66.3141 19.7425C66.3328 19.7606 66.3514 19.7789 66.3699 19.7974C68.1129 21.5404 68.1584 24.3209 66.4715 26.0078C64.7846 27.6947 62.0041 27.6492 60.2611 25.9062C60.2426 25.8877 60.2243 25.8691 60.2062 25.8503ZM83.2839 50.7486L91.2485 42.784L97.2163 48.7517C95.18 48.7982 93.1793 49.5829 91.6492 51.1131C90.1013 52.661 89.3161 54.6904 89.2865 56.7511L83.2839 50.7486ZM108.759 63.3413C108.671 59.0542 106.958 54.746 103.636 51.4199C104.733 51.1974 105.778 50.6612 106.628 49.8114L113.293 43.1466C117.723 48.2699 117.626 55.895 112.915 60.6066C111.694 61.8276 110.277 62.7387 108.759 63.3413ZM103.838 47.0212L110.52 40.3387L103.499 33.3175C102.73 32.5487 101.482 32.5501 100.712 33.3206L94.0325 40L101.051 47.018C101.821 47.7885 103.069 47.7899 103.838 47.0212ZM113.253 19.732C118.076 24.5545 118.063 32.429 113.311 37.5493L106.289 30.5273C105.58 29.8184 104.736 29.3278 103.838 29.0554L103.966 28.9279C107.293 25.6005 109.009 21.2884 109.098 16.9973C110.616 17.6 112.032 18.511 113.253 19.732ZM89.5985 65.415C90.478 64.5354 91.0216 63.4468 91.2292 62.3083C91.3716 62.4835 91.5218 62.6546 91.6798 62.821L91.6777 62.8232L91.9462 63.0918C95.2736 66.4191 99.5857 68.1352 103.877 68.2237C103.274 69.7417 102.363 71.1584 101.142 72.3793C96.2023 77.3191 88.0602 77.1859 82.9561 72.0818L82.9439 72.0696L89.5985 65.415ZM86.8083 62.6248L80.1612 69.2718L73.8529 62.9635C73.0842 62.1947 73.0856 60.9469 73.8561 60.1764L80.4999 53.5325L86.8051 59.8377C87.5756 60.6082 87.577 61.856 86.8083 62.6248ZM68.982 62.483C69.1117 62.3464 69.2362 62.2066 69.3553 62.0641C69.4649 63.4101 70.0339 64.7249 71.0627 65.7537L77.3731 72.0641C72.2538 76.8506 64.3531 76.8746 59.5191 72.0407C58.2981 70.8197 57.3871 69.403 56.7844 67.885C61.0755 67.7965 65.3876 66.0804 68.715 62.7531L68.7628 62.7061C68.7814 62.6878 68.7999 62.6694 68.8184 62.651C68.8489 62.6205 68.8791 62.5898 68.9091 62.559L68.9835 62.4845L68.982 62.483ZM95.0238 20.0806L95.0202 20.0769L95.0675 20.0296C97.8426 17.2545 101.516 15.9489 105.084 16.129C105.264 19.6972 103.958 23.3702 101.183 26.1453L101.136 26.1926L101.132 26.1884C101.113 26.2071 101.095 26.2257 101.077 26.2442C99.3337 27.9872 96.5532 28.0327 94.8663 26.3458C93.1795 24.6589 93.2249 21.8785 94.9679 20.1355C94.9864 20.117 95.005 20.0987 95.0238 20.0806ZM65.9761 59.9194L65.9797 59.923L65.9323 59.9704C63.1573 62.7454 59.4843 64.0511 55.9161 63.871C55.736 60.3028 57.0416 56.6297 59.8166 53.8547L59.864 53.8074L59.8683 53.8116C59.8864 53.7929 59.9047 53.7743 59.9232 53.7558C61.6662 52.0128 64.4467 51.9673 66.1335 53.6542C67.8204 55.3411 67.7749 58.1215 66.0319 59.8645C66.0135 59.883 65.9948 59.9013 65.9761 59.9194ZM100.797 54.146L100.794 54.1497C100.781 54.1369 100.769 54.1243 100.756 54.1117C100.75 54.1057 100.745 54.0998 100.739 54.0938C98.9956 52.3508 96.2152 52.3053 94.5283 53.9922C92.8414 55.6791 92.8869 58.4596 94.6299 60.2026C94.6484 60.2211 94.667 60.2394 94.6857 60.2575L94.6815 60.2617L94.7289 60.3091C97.5039 63.0841 101.177 64.3898 104.745 64.2097C104.925 60.6415 103.62 56.9684 100.845 54.1934L100.797 54.146Z" fill="#F2F2F2"/>
<path d="M11.4949 125.142H0.5V124.79H0.952324C1.78738 124.79 2.42528 124.426 2.866 123.698C3.05157 123.37 3.15595 123.006 3.17915 122.607V103.028C3.15595 102.418 2.92399 101.901 2.48327 101.479C2.06574 101.056 1.55542 100.845 0.952324 100.845H0.5V100.493H10.5903C13.281 100.493 15.4151 100.986 16.9924 101.972C18.5929 102.958 19.4048 104.472 19.428 106.514C19.4048 107.547 19.1845 108.451 18.7669 109.226C18.0014 110.681 16.7953 111.515 15.1483 111.726C16.9344 111.89 18.4074 112.571 19.5672 113.768C20.727 114.942 21.3069 116.444 21.3069 118.275C21.3069 120.482 20.4254 122.184 18.6625 123.381C16.9228 124.555 14.5336 125.142 11.4949 125.142ZM13.8609 106.972C13.8378 103.662 12.3532 102.007 9.4073 102.007H8.39827V123.522H9.9988C10.022 123.522 10.0452 123.522 10.0684 123.522C11.6689 123.522 12.9447 123.053 13.8957 122.114C14.8468 121.175 15.3223 119.743 15.3223 117.818C15.3223 115.893 14.7888 114.461 13.7218 113.522C12.6547 112.583 11.2746 112.113 9.58127 112.113V111.796C10.7875 111.796 11.7965 111.409 12.6084 110.634C13.4202 109.836 13.8378 108.615 13.8609 106.972Z" fill="white"/>
<path d="M33.4125 102.042H31.9164C31.87 102.042 31.8352 102.042 31.812 102.042V122.571C31.8352 123.182 32.0556 123.71 32.4731 124.156C32.9138 124.579 33.4357 124.79 34.0388 124.79H34.4911V125.142H23.9137V124.79H24.3661C25.2011 124.79 25.839 124.426 26.2797 123.698C26.4653 123.37 26.5697 123.006 26.5929 122.607V103.064C26.5697 102.453 26.3377 101.937 25.897 101.514C25.4795 101.068 24.9692 100.845 24.3661 100.845H23.9137V100.493H35.8481C38.0981 100.493 40.0002 100.986 41.5544 101.972C42.343 102.465 42.9693 103.157 43.4332 104.049C43.8972 104.918 44.1291 106.068 44.1291 107.5C44.1291 108.909 43.642 110.27 42.6678 111.585C41.6935 112.9 40.2786 113.651 38.4229 113.839C39.7683 114.285 40.9513 115.318 41.9719 116.937C44.4771 120.999 46.3328 123.417 47.5389 124.191C48.142 124.567 48.8959 124.766 49.8006 124.79V125.142H46.3907C44.3727 125.142 42.691 124.872 41.3456 124.332C40.0234 123.792 38.9796 122.841 38.2141 121.48C37.7734 120.705 36.8108 118.698 35.3262 115.458C34.6767 114.026 33.8881 113.24 32.9602 113.099V112.747H34.0388C35.0826 112.747 35.9989 112.43 36.7876 111.796C37.5994 111.162 38.1445 110.13 38.4229 108.698C38.5157 108.205 38.5621 107.817 38.5621 107.536C38.5621 105.611 38.1793 104.226 37.4139 103.38C36.6484 102.512 35.6625 102.066 34.4564 102.042C34.2244 102.042 33.8765 102.042 33.4125 102.042Z" fill="white"/>
<path d="M49.8476 124.79C50.4507 124.79 50.961 124.579 51.3785 124.156C51.8193 123.71 52.0512 123.182 52.0744 122.571V103.028C52.0512 102.418 51.8193 101.901 51.3785 101.479C50.961 101.056 50.4507 100.845 49.8476 100.845H49.3953V100.493H59.9727L59.9379 100.845H59.5204C58.9173 100.845 58.3953 101.056 57.9546 101.479C57.5139 101.901 57.2935 102.418 57.2935 103.028V122.571C57.2935 123.182 57.5139 123.71 57.9546 124.156C58.3953 124.579 58.9173 124.79 59.5204 124.79H59.9379L59.9727 125.142H49.3953V124.79H49.8476Z" fill="white"/>
<path d="M85.9897 125.6C81.5129 125.6 77.9987 124.461 75.4471 122.184C72.8955 119.907 71.6197 116.785 71.6197 112.817C71.6197 108.85 72.8839 105.728 75.4123 103.451C77.9407 101.15 81.4085 100 85.8158 100C89.1792 100 92.0671 100.634 94.4795 101.901L94.5491 107.958H94.2707C93.0877 103.639 90.3854 101.479 86.1637 101.479C83.4266 101.479 81.2577 102.488 79.6572 104.507C78.0799 106.503 77.2912 109.238 77.2912 112.712C77.2912 116.186 78.0451 118.945 79.5528 120.987C81.0837 123.029 83.1482 124.086 85.7462 124.156C88.4369 124.156 90.4898 123.475 91.9047 122.114C93.3429 120.705 94.3403 118.287 94.897 114.86H95.1754L95.5233 120.916C93.6444 124.062 90.4666 125.623 85.9897 125.6Z" fill="white"/>
<path d="M98.3859 125.142V124.79H98.8035C99.337 124.79 99.7777 124.614 100.126 124.262C100.497 123.91 100.682 123.475 100.682 122.959V106.233C100.682 105.716 100.497 105.282 100.126 104.93C99.7545 104.554 99.3138 104.366 98.8035 104.366H98.3859V104.014H108.059V104.366H107.641C107.108 104.366 106.655 104.542 106.284 104.895C105.913 105.247 105.728 105.693 105.728 106.233V123.733H109.903C111.341 123.71 112.559 123.264 113.556 122.395C114.554 121.503 115.284 120.259 115.748 118.663H116.131L114.774 125.142H98.3859Z" fill="white"/>
<path d="M139.759 104.366H139.272C138.831 104.366 138.46 104.507 138.159 104.789C137.857 105.047 137.695 105.388 137.672 105.81V117.466C137.672 120.001 136.906 121.996 135.375 123.452C133.844 124.884 131.559 125.6 128.521 125.6C125.505 125.6 123.151 124.895 121.457 123.487C119.787 122.078 118.952 120.095 118.952 117.536V105.845C118.952 105.423 118.79 105.071 118.465 104.789C118.164 104.507 117.792 104.366 117.352 104.366H116.865V104.014H126.015V104.366H125.528C125.088 104.366 124.717 104.507 124.415 104.789C124.113 105.071 123.963 105.423 123.963 105.845V117.29C123.963 119.449 124.45 121.139 125.424 122.36C126.421 123.581 127.813 124.191 129.599 124.191C131.385 124.191 132.789 123.616 133.809 122.466C134.853 121.316 135.375 119.719 135.375 117.677V105.845C135.352 105.399 135.19 105.047 134.888 104.789C134.586 104.507 134.215 104.366 133.775 104.366H133.322V104.014H139.759V104.366Z" fill="white"/>
<path d="M158.865 109.261C158.865 110.13 158.679 110.893 158.308 111.55C157.589 112.817 156.499 113.51 155.037 113.627C156.591 113.745 157.89 114.308 158.934 115.318C159.978 116.304 160.5 117.571 160.5 119.121C160.5 122.149 158.702 124.05 155.107 124.825C154.086 125.036 152.973 125.142 151.767 125.142H141.676V124.79H142.059C142.593 124.79 143.033 124.614 143.381 124.262C143.752 123.91 143.95 123.463 143.973 122.924V106.233C143.95 105.388 143.555 104.812 142.79 104.507C142.558 104.413 142.314 104.366 142.059 104.366H141.676V104.014H151.001C156.244 104.014 158.865 105.763 158.865 109.261ZM154.863 118.804C154.863 117.724 154.643 116.82 154.202 116.092C153.39 114.684 151.987 113.979 149.992 113.979C149.969 113.979 149.946 113.979 149.923 113.979V113.663C151.036 113.663 151.941 113.334 152.637 112.677C153.332 112.019 153.68 110.998 153.68 109.613C153.68 106.796 152.416 105.388 149.888 105.388H148.914V123.733H150.305C151.651 123.733 152.741 123.334 153.576 122.536C154.434 121.738 154.863 120.494 154.863 118.804Z" fill="white"/>
</svg>
