<svg width="808" height="266" viewBox="0 0 808 266" fill="none" xmlns="http://www.w3.org/2000/svg">
<path fill-rule="evenodd" clip-rule="evenodd" d="M75.678 -109.493L145.943 -39.2735C153.036 -32.1843 161.489 -27.2781 170.466 -24.5541L169.19 -23.2791C135.896 9.99445 118.723 53.1153 117.838 96.0263C102.648 89.9998 88.4728 80.8892 76.2551 68.6794C27.9998 20.455 28.1243 -58.2903 75.678 -109.493ZM48.0029 -137.531C-12.227 -204.702 -11.6716 -306.314 50.8733 -368.819C72.3414 -390.273 98.4199 -404.429 126.133 -411.334C133.043 -439.029 147.207 -465.091 168.676 -486.546C233.483 -551.311 340.303 -549.565 407.266 -482.645L407.431 -482.48C474.559 -546.217 578.963 -546.868 642.713 -483.159C664.181 -461.704 678.346 -435.643 685.256 -407.948C712.969 -401.042 739.047 -386.886 760.515 -365.432C824.212 -301.776 823.615 -197.56 759.997 -130.469C820.227 -63.2976 819.671 38.3138 757.126 100.819C735.658 122.273 709.58 136.429 681.867 143.334C674.957 171.029 660.792 197.091 639.324 218.546C574.517 283.311 467.697 281.565 400.734 214.645L400.569 214.48C333.441 278.217 229.037 278.867 165.287 215.158C143.819 193.704 129.654 167.642 122.744 139.947C95.0313 133.041 68.9528 118.886 47.4847 97.4314C-16.2117 33.7757 -15.615 -70.4397 48.0029 -137.531ZM75.864 -165.466C31.5327 -216.699 32.4971 -292.95 79.6437 -340.067C91.8614 -352.277 106.037 -361.387 121.227 -367.414C122.111 -324.542 139.253 -281.46 172.488 -248.199C161.515 -245.974 151.058 -240.612 142.554 -232.114L75.864 -165.466ZM103.606 -137.387L170.474 -204.212C178.167 -211.899 190.653 -211.885 198.363 -204.18L268.588 -134L201.751 -67.2068C194.041 -59.5018 181.555 -59.4878 173.863 -67.1755L103.606 -137.387ZM296.445 -106.161L239.723 -49.4751C257.859 -47.6756 275.344 -39.9508 289.054 -26.2495C306.282 -9.03241 314.067 14.1422 312.51 37.0778L376.143 -26.5142L296.445 -106.161ZM324.303 -134L404 -213.647L483.697 -134L404 -54.3538L324.303 -134ZM376.142 -241.486L296.445 -161.84L236.73 -221.517C257.105 -221.982 277.125 -229.83 292.436 -245.131C307.925 -260.61 315.781 -280.905 316.078 -301.512L376.142 -241.486ZM431.857 -241.486L511.555 -161.839L568.277 -218.525C550.141 -220.325 532.656 -228.05 518.946 -241.751C501.718 -258.968 493.933 -282.142 495.49 -305.078L431.857 -241.486ZM515.517 -354.64C516.71 -356.066 517.955 -357.464 519.253 -358.83L519.238 -358.845L519.983 -359.59C520.283 -359.898 520.585 -360.205 520.89 -360.51C521.075 -360.695 521.261 -360.878 521.447 -361.061L521.925 -361.531C555.22 -394.804 598.368 -411.966 641.307 -412.85C635.276 -428.031 626.16 -442.197 613.942 -454.407C565.571 -502.747 486.513 -502.506 435.288 -454.641L498.432 -391.537C508.727 -381.249 514.421 -368.101 515.517 -354.64ZM407.389 -426.718L470.512 -363.635C478.205 -355.947 478.191 -343.469 470.481 -335.764L404 -269.326L340.908 -332.377C333.198 -340.082 333.184 -352.56 340.877 -360.248L407.389 -426.718ZM379.545 -454.696L379.422 -454.818C328.348 -505.859 246.875 -507.191 197.446 -457.794C185.228 -445.584 176.112 -431.417 170.082 -416.237C213.02 -415.353 256.169 -398.191 289.464 -364.918L292.151 -362.232L292.129 -362.211C293.71 -360.546 295.214 -358.835 296.639 -357.083C298.716 -368.468 304.155 -379.354 312.957 -388.15L379.545 -454.696ZM200.934 -275.497L200.897 -275.461L200.423 -275.935C172.655 -303.685 159.59 -340.415 161.393 -376.097C197.097 -377.898 233.851 -364.842 261.619 -337.091L262.093 -336.618L262.051 -336.575C262.238 -336.394 262.424 -336.211 262.609 -336.026C280.051 -318.596 280.506 -290.791 263.626 -273.922C246.747 -257.054 218.924 -257.508 201.483 -274.938C201.298 -275.123 201.115 -275.309 200.934 -275.497ZM431.858 -26.5142L511.555 -106.16L571.271 -46.4826C550.895 -46.0179 530.875 -38.1703 515.564 -22.8688C500.075 -7.38977 492.219 12.9046 491.922 33.5115L431.858 -26.5142ZM686.773 99.4136C685.888 56.5416 668.747 13.46 635.511 -19.8011C646.485 -22.0265 656.942 -27.3878 665.446 -35.8866L732.136 -102.534C776.467 -51.3007 775.503 24.9503 728.356 72.0667C716.138 84.2766 701.963 93.387 686.773 99.4136ZM637.526 -63.7886L704.393 -130.613L634.137 -200.824C626.444 -208.512 613.958 -208.498 606.248 -200.793L539.412 -134L609.637 -63.8199C617.347 -56.1149 629.833 -56.1009 637.526 -63.7886ZM731.745 -336.68C780 -288.455 779.876 -209.71 732.322 -158.507L662.057 -228.727C654.963 -235.816 646.511 -240.722 637.533 -243.446L638.81 -244.721C672.104 -277.995 689.277 -321.116 690.161 -364.027C705.352 -358 719.527 -348.89 731.745 -336.68ZM495.043 120.15C503.845 111.354 509.283 100.468 511.361 89.0827C512.786 90.8348 514.289 92.5457 515.871 94.2106L515.849 94.2322L518.536 96.9178C551.831 130.191 594.98 147.353 637.918 148.237C631.888 163.417 622.771 177.584 610.554 189.794C561.125 239.191 479.651 237.859 428.578 186.818L428.455 186.695L495.043 120.15ZM467.123 92.2477L400.611 158.718L337.488 95.635C329.795 87.9473 329.809 75.4691 337.519 67.7642L404 1.32544L467.092 64.3769C474.802 72.0818 474.816 84.5601 467.123 92.2477ZM288.747 90.8299C290.045 89.4634 291.29 88.066 292.483 86.6401C293.579 100.101 299.273 113.249 309.568 123.537L372.712 186.641C321.486 234.505 242.428 234.746 194.057 186.406C181.84 174.197 172.723 160.03 166.693 144.85C209.632 143.965 252.78 126.804 286.075 93.5306L286.553 93.0608C286.739 92.8781 286.925 92.6943 287.11 92.5095C287.415 92.2045 287.717 91.8978 288.017 91.5895L288.762 90.845L288.747 90.8299ZM549.331 -333.195L549.295 -333.231L549.769 -333.705C577.537 -361.455 614.291 -374.511 649.996 -372.71C651.798 -337.028 638.733 -300.298 610.965 -272.548L610.491 -272.074L610.448 -272.116L610.129 -271.79L609.899 -271.558C592.458 -254.128 564.635 -253.673 547.756 -270.542C530.876 -287.411 531.331 -315.216 548.773 -332.645C548.958 -332.83 549.144 -333.013 549.331 -333.195ZM258.669 65.1942L258.705 65.2303L258.231 65.7042C230.463 93.4543 193.709 106.511 158.004 104.71C156.202 69.0278 169.267 32.2974 197.035 4.5473L197.509 4.07343L197.551 4.11603L197.861 3.79926L198.101 3.55774C215.542 -13.8722 243.364 -14.3271 260.244 2.54175C277.124 19.4105 276.669 47.2151 259.227 64.6451C259.042 64.83 258.856 65.0131 258.669 65.1942ZM607.102 7.46069L607.066 7.49683C606.885 7.30951 606.702 7.12347 606.517 6.93848C589.076 -10.4915 561.253 -10.9464 544.374 5.92249C527.494 22.7913 527.949 50.5959 545.39 68.0258C545.575 68.2108 545.762 68.3938 545.949 68.575L545.906 68.6176L546.38 69.0914C574.148 96.8416 610.902 109.898 646.607 108.097C648.409 72.4151 635.344 35.6846 607.576 7.93463L607.102 7.46069Z" fill="white" fill-opacity="0.05"/>
</svg>
