<svg width="564" height="189" viewBox="0 0 564 189" fill="none" xmlns="http://www.w3.org/2000/svg">
<path fill-rule="evenodd" clip-rule="evenodd" d="M52.8248 296.094L101.871 345.072C106.822 350.016 112.722 353.439 118.989 355.338L118.098 356.228C94.8578 379.436 82.8713 409.513 82.2536 439.443C71.6505 435.24 61.7557 428.885 53.2276 420.369C19.5444 386.732 19.6313 331.807 52.8248 296.094ZM33.507 276.537C-8.5347 229.685 -8.14699 158.811 35.5106 115.214C50.4958 100.25 68.6991 90.3759 88.0431 85.5592C92.8665 66.242 102.754 48.0638 117.739 33.0994C162.976 -12.0746 237.538 -10.8564 284.28 35.8202L284.395 35.935C331.251 -8.52142 404.128 -8.97543 448.626 35.4617C463.612 50.4262 473.499 68.6043 478.322 87.9216C497.666 92.7383 515.87 102.612 530.855 117.576C575.316 161.976 574.9 234.667 530.493 281.463C572.534 328.315 572.147 399.189 528.489 442.786C513.504 457.75 495.301 467.624 475.957 472.441C471.133 491.758 461.246 509.936 446.261 524.901C401.024 570.075 326.461 568.856 279.72 522.18L279.605 522.065C232.748 566.521 159.872 566.975 115.374 522.538C100.388 507.574 90.5012 489.395 85.6778 470.078C66.3338 465.261 48.1304 455.388 33.1453 440.423C-11.3161 396.024 -10.8996 323.333 33.507 276.537ZM52.9545 257.052C22.0105 221.317 22.6836 168.132 55.5929 135.268C64.1211 126.752 74.0158 120.398 84.6189 116.194C85.236 146.097 97.2013 176.146 120.4 199.346C112.741 200.898 105.442 204.638 99.5056 210.566L52.9545 257.052ZM72.3193 276.638L118.994 230.027C124.364 224.665 133.079 224.675 138.461 230.049L187.48 279L140.826 325.588C135.445 330.962 126.729 330.972 121.36 325.61L72.3193 276.638ZM206.925 298.418L167.332 337.956C179.991 339.211 192.195 344.599 201.765 354.156C213.791 366.165 219.225 382.329 218.138 398.327L262.555 353.971L206.925 298.418ZM226.37 279L282 223.447L337.63 279L282 334.553L226.37 279ZM262.555 204.028L206.925 259.582L165.242 217.957C179.465 217.632 193.439 212.159 204.126 201.486C214.938 190.689 220.421 176.534 220.629 162.16L262.555 204.028ZM301.445 204.028L357.075 259.582L396.669 220.044C384.009 218.788 371.805 213.4 362.235 203.844C350.209 191.835 344.775 175.671 345.862 159.673L301.445 204.028ZM359.841 125.103C360.674 124.109 361.543 123.134 362.449 122.181L362.438 122.17L362.958 121.651C363.168 121.436 363.379 121.222 363.592 121.009C363.721 120.88 363.85 120.752 363.98 120.625L364.314 120.297C387.554 97.0889 417.673 85.1189 447.645 84.5021C443.436 73.9137 437.072 64.0326 428.544 55.5163C394.78 21.7991 339.596 21.9671 303.84 55.353L347.915 99.3679C355.101 106.544 359.076 115.714 359.841 125.103ZM284.365 74.8293L328.427 118.83C333.796 124.192 333.787 132.895 328.405 138.269L282 184.61L237.96 140.632C232.579 135.258 232.569 126.554 237.939 121.192L284.365 74.8293ZM264.93 55.3148L264.844 55.2291C229.194 19.6283 172.324 18.6992 137.821 53.1539C129.293 61.6703 122.93 71.5513 118.72 82.1397C148.692 82.7566 178.811 94.7265 202.051 117.935L203.927 119.808L203.912 119.823C205.016 120.984 206.065 122.178 207.06 123.4C208.51 115.459 212.306 107.865 218.45 101.73L264.93 55.3148ZM140.256 180.306L140.23 180.331L139.899 180.001C120.517 160.645 111.397 135.025 112.655 110.137C137.578 108.881 163.233 117.988 182.615 137.344L182.946 137.674L182.917 137.704C183.047 137.83 183.177 137.958 183.307 138.087C195.481 150.244 195.799 169.638 184.016 181.404C172.234 193.17 152.813 192.853 140.639 180.695C140.51 180.566 140.382 180.437 140.256 180.306ZM301.445 353.971L357.075 298.418L398.758 340.043C384.536 340.368 370.561 345.841 359.874 356.514C349.062 367.311 343.578 381.466 343.371 395.839L301.445 353.971ZM479.381 441.806C478.764 411.903 466.798 381.853 443.599 358.654C451.259 357.102 458.558 353.362 464.494 347.434L511.045 300.948C541.989 336.683 541.316 389.868 508.407 422.732C499.879 431.248 489.984 437.602 479.381 441.806ZM445.006 327.972L491.68 281.362L442.64 232.39C437.271 227.028 428.555 227.038 423.173 232.412L376.52 279L425.539 327.951C430.921 333.325 439.636 333.335 445.006 327.972ZM510.772 137.631C544.456 171.267 544.369 226.193 511.175 261.906L462.129 212.928C457.177 207.984 451.277 204.561 445.011 202.661L445.902 201.772C469.142 178.564 481.129 148.487 481.746 118.556C492.349 122.76 502.244 129.114 510.772 137.631ZM345.55 456.27C351.694 450.134 355.49 442.541 356.94 434.6C357.935 435.822 358.984 437.016 360.088 438.177L360.073 438.192L361.949 440.065C385.189 463.273 415.308 475.243 445.279 475.86C441.07 486.449 434.707 496.33 426.179 504.846C391.676 539.301 334.806 538.372 299.156 502.771L299.07 502.685L345.55 456.27ZM326.061 436.808L279.634 483.171L235.573 439.17C230.204 433.808 230.213 425.105 235.595 419.73L282 373.389L326.04 417.368C331.421 422.742 331.431 431.446 326.061 436.808ZM201.551 435.819C202.457 434.866 203.326 433.891 204.159 432.896C204.924 442.285 208.899 451.456 216.084 458.632L260.16 502.647C224.404 536.033 169.22 536.201 135.456 502.483C126.928 493.967 120.564 484.086 116.355 473.498C146.327 472.881 176.445 460.911 199.686 437.703L200.02 437.375C200.15 437.247 200.279 437.119 200.408 436.99C200.621 436.778 200.832 436.564 201.042 436.349L201.562 435.829L201.551 435.819ZM383.444 140.062L383.419 140.037L383.75 139.706C403.132 120.35 428.787 111.243 453.71 112.5C454.968 137.388 445.848 163.007 426.466 182.363L426.135 182.694L426.105 182.664L425.882 182.892L425.722 183.053C413.547 195.211 394.127 195.528 382.344 183.762C370.562 171.996 370.88 152.602 383.054 140.445C383.183 140.316 383.313 140.188 383.444 140.062ZM180.556 417.938L180.581 417.963L180.25 418.294C160.868 437.649 135.213 446.756 110.29 445.5C109.032 420.612 118.152 394.992 137.534 375.637L137.865 375.306L137.895 375.336L138.111 375.115L138.278 374.947C150.453 362.789 169.873 362.472 181.656 374.238C193.438 386.004 193.12 405.398 180.946 417.555C180.817 417.684 180.687 417.812 180.556 417.938ZM423.769 377.669L423.744 377.694C423.618 377.563 423.49 377.434 423.361 377.305C411.186 365.147 391.766 364.83 379.984 376.596C368.201 388.362 368.519 407.756 380.693 419.913C380.822 420.042 380.952 420.17 381.083 420.296L381.053 420.326L381.384 420.656C400.767 440.012 426.422 449.119 451.344 447.863C452.602 422.975 443.483 397.355 424.1 377.999L423.769 377.669Z" fill="white" fill-opacity="0.05"/>
</svg>
