<svg width="60" height="54" viewBox="0 0 60 54" fill="none" xmlns="http://www.w3.org/2000/svg">
<path d="M15.5382 2.58094H44.3092L58.6935 27.5834L44.3092 52.5859H15.5382L1.15352 27.5833L15.5382 2.58094Z" stroke="white" stroke-opacity="0.1" stroke-width="2"/>
<path opacity="0.5" fill-rule="evenodd" clip-rule="evenodd" d="M45.2015 2.12499L45.1762 2.081L44.8878 1.57968H44.3094H15.5383H14.96L14.6716 2.08099L0.286907 27.0834L-3.8147e-06 27.5821L0.276413 28.0625L2.90366 26.5457L16.1167 3.57968H42.6819L45.2015 2.12499Z" fill="white"/>
<circle cx="15.5386" cy="2.58047" r="1.7125" transform="rotate(-180 15.5386 2.58047)" fill="white"/>
<path opacity="0.7" d="M15.8122 19.3614C14.722 24.5869 17.2371 27.9864 20.287 29.8677C17.9798 29.3227 15.7475 28.5081 13.431 27.2966C15.2104 32.7038 19.0947 33.9827 22.4959 33.6292C20.6165 34.6237 18.6306 35.3948 16.6387 35.9168C21.4847 38.9274 25.0201 37.0652 26.9852 34.4293C26.8415 34.3003 26.6969 34.1725 26.5514 34.0456C26.189 33.7876 25.8446 33.4908 25.5201 33.1587C25.1037 32.8031 24.6796 32.4403 24.252 32.061C21.904 29.979 19.5084 27.4824 19.4071 24.1876C19.4069 24.1841 19.4071 24.1806 19.4069 24.1771C18.0708 22.638 16.8619 21.0158 15.8122 19.3613L15.8122 19.3614ZM43.9298 19.3614C42.8803 21.0156 41.6711 22.6371 40.335 24.1758C40.335 24.1776 40.3352 24.1793 40.3353 24.1813C40.4322 27.3889 37.9993 29.9494 35.5924 32.0935C34.6245 32.9556 33.6483 33.7559 32.8079 34.4967C34.7825 37.0968 38.2985 38.9017 43.1034 35.9168C41.1116 35.3948 39.1273 34.6237 37.248 33.6294C40.649 33.9822 44.5318 32.7027 46.3109 27.2967C43.9944 28.5083 41.7621 29.3229 39.4549 29.8678C42.5047 27.9864 45.02 24.5871 43.9297 19.3615L43.9298 19.3614ZM34.6894 19.6389C33.144 19.6508 31.5217 20.4658 30.431 22.3157L29.8879 23.2368L29.348 22.3138C27.9892 19.991 25.5524 19.2697 23.6155 19.8191H23.6148C21.9062 20.3039 20.5873 21.7002 20.6626 24.1489C20.7454 26.8431 22.798 29.093 25.0853 31.1213C26.229 32.1354 27.4132 33.0837 28.3938 34.0186C28.9769 34.5746 29.4947 35.1241 29.8824 35.7033C30.2709 35.1647 30.7841 34.6466 31.3629 34.1081C32.3665 33.1741 33.5859 32.1986 34.7571 31.1553C37.0994 29.0689 39.1564 26.7511 39.08 24.2192C39.002 21.6391 37.4944 20.1454 35.6874 19.7444C35.3597 19.6716 35.0249 19.6362 34.6893 19.6388L34.6894 19.6389Z" fill="white"/>
</svg>
