<svg width="77" height="79" viewBox="0 0 77 79" fill="none" xmlns="http://www.w3.org/2000/svg">
<path d="M66.8833 39.5488L52.4977 64.4653L23.6528 64.4212L9.19214 39.4628L23.5777 14.5463L52.4229 14.5901L66.8833 39.5488Z" stroke="white" stroke-opacity="0.1" stroke-width="2"/>
<path opacity="0.5" fill-rule="evenodd" clip-rule="evenodd" d="M52.4458 65.4648L52.4963 65.4649L53.0747 65.4658L53.3639 64.9649L67.7494 40.0484L68.0386 39.5476L67.7486 39.0471L53.2882 14.0885L52.9998 13.5907L52.4458 13.5898L52.4458 16.624L65.7282 39.5493L52.4458 62.555L52.4458 65.4648Z" fill="white"/>
<circle cx="66.8832" cy="39.549" r="1.7125" transform="rotate(-60 66.8832 39.549)" fill="white"/>
<g opacity="0.7">
<path d="M47.097 29.9169C47.5647 28.6491 48.0203 28.1444 48.255 27.9548C48.4292 27.8135 48.5813 27.76 48.7061 27.7947C48.9339 27.8591 49.1896 28.219 49.3827 28.7567C50.003 30.4848 49.9523 33.557 49.3297 36.1331L47.097 29.9169ZM30.8075 34.0702C31.2358 32.3045 31.393 30.3036 31.2501 28.6639L28.7668 28.3871L30.8075 34.0702ZM47.2941 27.6341L30.1389 25.7244C29.9965 25.7084 29.8404 25.8075 29.7339 25.8952C29.5249 26.0661 29.1404 26.483 28.7281 27.4695L46.3093 29.4254C46.6032 28.6707 46.937 28.0647 47.2952 27.6352L47.2941 27.6341ZM34.2636 44.6475V40.6196L34.8765 40.6874L37.2823 40.9824V44.9984L34.2636 44.6475ZM35.1749 42.3499C35.1768 42.4645 35.2053 42.577 35.2581 42.6787C35.3108 42.7804 35.3865 42.8685 35.4791 42.936L35.3458 44.3269L36.3141 44.426L36.0862 43.0021C36.1792 42.9522 36.2556 42.8764 36.3061 42.7838C36.3567 42.6913 36.3792 42.586 36.371 42.4809C36.3608 42.3083 36.2933 42.1441 36.1792 42.0142C36.0651 41.8843 35.9109 41.7962 35.7411 41.7638C35.7411 41.7638 35.7508 41.7695 35.7485 41.7695C35.4096 41.7308 35.118 41.9917 35.1749 42.3448V42.3499ZM38.1936 46.0207L33.3523 45.4603V40.521L33.2925 40.5159C33.2751 40.6163 33.2251 40.7081 33.1502 40.7771C33.0754 40.8462 32.9799 40.8887 32.8785 40.8981C32.98 40.9338 33.0656 41.0043 33.1201 41.0971C33.1746 41.1899 33.1945 41.2989 33.1763 41.405C33.1581 41.5122 33.1022 41.6094 33.0186 41.6789C32.9351 41.7485 32.8294 41.7859 32.7207 41.7843C33.2021 42.0124 32.9679 42.74 32.4439 42.6444C32.5383 42.7095 32.6047 42.8078 32.6299 42.9197C32.655 43.0316 32.637 43.1488 32.5795 43.2481C32.522 43.3473 32.4291 43.4212 32.3195 43.455C32.21 43.4888 32.0916 43.48 31.9882 43.4304C32.066 43.5231 32.1036 43.6429 32.093 43.7635C32.0824 43.884 32.0243 43.9954 31.9316 44.0731C31.8388 44.1508 31.719 44.1885 31.5984 44.1779C31.4779 44.1673 31.3665 44.1092 31.2888 44.0165V44.0216C31.3058 44.114 31.2938 44.2094 31.2544 44.2948C31.2151 44.3801 31.1503 44.4512 31.069 44.4983L31.589 44.803V45.6146L30.9055 46.0207L30.222 45.6152V44.803L30.6862 44.5285C30.6139 44.5006 30.5497 44.4552 30.4993 44.3964C30.4489 44.3375 30.4139 44.267 30.3974 44.1913C30.3972 44.1894 30.3972 44.1875 30.3974 44.1856C30.3556 44.295 30.2732 44.3841 30.1674 44.4344C30.0617 44.4847 29.9406 44.4923 29.8293 44.4556C29.7181 44.419 29.6252 44.3409 29.57 44.2376C29.5148 44.1343 29.5015 44.0137 29.5328 43.9008C29.1426 44.3117 28.5023 43.7832 28.8317 43.3222C28.3564 43.5795 27.9081 42.9419 28.3111 42.5817C27.7888 42.7333 27.4879 42.0074 27.9643 41.745C27.8472 41.7661 27.7265 41.7406 27.628 41.6739C27.5295 41.6071 27.461 41.5046 27.4372 41.388C27.4133 41.2715 27.4359 41.1502 27.5003 41.0502C27.5646 40.9501 27.6655 40.8792 27.7814 40.8525C27.2521 40.7929 27.2376 40.0288 27.7644 39.9492C27.7262 39.9399 27.6924 39.9223 27.6601 39.9059L26.6782 39.8L26.7124 49.318L44.3221 51.2824L44.288 41.8373L38.1936 41.094V46.0207ZM46.1709 36.6799L46.4398 36.7887L46.4916 36.8217L48.6969 37.0672L47.3721 33.3782L46.642 35.4855C46.6328 35.5117 46.4477 36.0437 46.1709 36.681V36.6799ZM34.2933 34.4165L34.578 34.7292L35.3042 34.0941L36.5259 33.9642L37.472 34.8385L38.0706 35.3357L39.1266 34.8066L39.3225 34.8351C39.3293 34.7969 39.3367 34.7588 39.3441 34.7212C39.5196 33.8042 39.7628 33.0034 39.773 32.9698L40.5357 30.4688L41.4971 32.9014L41.9767 34.1214L43.8448 31.9503L44.3614 34.9433L47.334 33.2671L46.2814 30.3395L32.1642 28.767C32.3072 30.757 32.0589 33.1708 31.4585 35.1461H31.5907L31.9894 34.4136H34.2938L34.2933 34.4165ZM27.9546 39.9634C28.3875 40.0831 28.4045 40.6905 27.9791 40.8343C28.4197 40.8837 28.5374 41.4695 28.1499 41.6852C28.5858 41.654 28.8114 42.1948 28.4826 42.4826C28.8991 42.3622 29.2326 42.8367 28.9781 43.1877C29.3362 42.9874 29.7559 43.3254 29.6365 43.718C29.8945 43.449 30.3488 43.5868 30.414 43.9538C30.5311 43.6284 30.9539 43.5471 31.1834 43.8057C31.1103 43.441 31.4813 43.147 31.8196 43.3017C31.5597 42.973 31.8438 42.4973 32.2565 42.5703C31.8909 42.3117 32.0787 41.736 32.5265 41.7428C32.1098 41.5432 32.2203 40.9217 32.6803 40.8782C32.5866 40.8459 32.506 40.7839 32.4507 40.7017C32.3954 40.6195 32.3684 40.5214 32.3738 40.4225L28.0207 39.9521C27.9973 39.9629 27.9782 39.9606 27.9546 39.9634ZM48.8883 47.8849L48.8547 38.5521L48.3609 38.9508L45.1993 41.6157L45.2323 50.8427L48.8883 47.8849ZM47.3944 38.4757L46.0211 37.606L45.7831 37.5098C45.4464 38.1659 45.0204 38.8198 44.4924 39.0977C44.1826 39.2617 43.7964 39.3449 43.3442 39.3449C42.7103 39.3449 41.9345 39.1792 41.2169 38.8892C40.6473 38.6614 39.8898 38.2627 39.4934 37.6738C39.2143 37.2586 39.1152 36.6617 39.1909 35.7988L37.9504 36.4213L36.8683 35.5214L36.2178 34.9217L35.6961 34.9786L34.5313 35.9942L33.9048 35.3278H32.5259L31.5229 37.1504L31.1982 36.7403L30.9465 37.0165L30.3337 37.9478L29.6337 38.2274L29.2837 38.7449H28.5889L28.4307 39.0869L32.8107 39.5545C32.8362 39.4918 32.875 39.4354 32.9246 39.3893C33.0036 39.3163 33.1059 39.2737 33.2134 39.2689C33.3209 39.2641 33.4266 39.2975 33.5118 39.3631C33.5088 39.3588 33.5061 39.3542 33.5038 39.3495C33.2216 38.8728 33.8717 38.4028 34.2369 38.8155C34.6021 39.2281 34.0565 39.8163 33.6178 39.4782C33.6495 39.5284 33.6712 39.5843 33.6815 39.6428L34.9699 39.7818L44.5693 40.9533L47.502 38.4826L47.3944 38.4757ZM27.7205 50.6114V50.6C27.7205 50.3853 27.2529 50.211 26.6765 50.211C26.1001 50.211 25.6325 50.3853 25.6325 50.6C25.6325 50.7829 25.9742 50.9361 26.4299 50.9777V50.989C26.4299 51.2038 26.8975 51.3781 27.4739 51.3781C28.0503 51.3781 28.5179 51.2038 28.5179 50.989C28.5173 50.8062 28.1773 50.653 27.7205 50.6114ZM47.6552 50.989C47.0782 50.989 46.6112 51.1633 46.6112 51.3781C46.6112 51.5928 47.0788 51.7671 47.6552 51.7671C48.2316 51.7671 48.6992 51.5928 48.6992 51.3781C48.6992 51.1633 48.2293 50.9908 47.6524 50.9908L47.6552 50.989ZM49.9335 50.0618C49.3565 50.0618 48.8895 50.2361 48.8895 50.4508C48.8895 50.6655 49.3571 50.8398 49.9335 50.8398C50.5099 50.8398 50.9775 50.6655 50.9775 50.4508C50.9775 50.2361 50.5093 50.0618 49.9329 50.0618H49.9335Z" fill="white"/>
<path d="M43.6796 36.3717L45.7802 35.1876C45.7802 35.1876 44.8489 37.8748 44.0629 38.2912C43.8784 38.3891 43.6261 38.4324 43.3413 38.4324C42.2643 38.4324 40.6849 37.8173 40.2469 37.1651C39.6972 36.3438 40.6456 33.2352 40.6456 33.2352L41.6782 35.8614L43.273 34.0098L43.6796 36.3717Z" fill="white"/>
</g>
</svg>
