<svg width="60" height="53" viewBox="0 0 60 53" fill="none" xmlns="http://www.w3.org/2000/svg">
<path d="M15.5382 51.005H44.3092L58.6935 26.0025L44.3092 1L15.5382 1L1.15352 26.0026L15.5382 51.005Z" stroke="white" stroke-opacity="0.1" stroke-width="2"/>
<path opacity="0.5" fill-rule="evenodd" clip-rule="evenodd" d="M45.2015 51.459L45.1762 51.503L44.8878 52.0043H44.3094H15.5383H14.96L14.6716 51.503L0.286907 26.5006L-3.8147e-06 26.0019L0.276413 25.5215L2.90366 27.0383L16.1167 50.0043H42.6819L45.2015 51.459Z" fill="white"/>
<circle r="1.7125" transform="matrix(-1 0 0 1 15.5386 51.0055)" fill="white"/>
<path opacity="0.7" d="M38.9166 12.3027C40.032 12.3027 41.0268 13.4356 41.0268 14.9573C41.0268 16.4845 40.032 17.6119 38.9166 17.6119C37.8013 17.6119 36.8065 16.4845 36.8065 14.9573C36.8065 13.4356 37.8013 12.3027 38.9166 12.3027ZM30.9041 12.3027C32.0134 12.3027 33.0142 13.4356 33.0142 14.9573C33.0142 16.4845 32.0134 17.6119 30.9041 17.6119C29.7887 17.6119 28.7879 16.4845 28.7879 14.9573C28.7879 13.4356 29.7887 12.3027 30.9041 12.3027ZM22.8855 12.3027C24.0009 12.3027 24.9957 13.4356 24.9957 14.9573C24.9957 16.4845 24.0009 17.6119 22.8855 17.6119C21.7701 17.6119 20.7699 16.4845 20.7699 14.9573C20.7699 13.4356 21.7701 12.3027 22.8855 12.3027ZM30.9041 18.878C34.7627 18.9985 38.0183 18.9985 41.9251 19.1312C43.7881 20.2043 44.6502 25.7028 44.596 27.614L43.5349 28.6811C43.0706 26.1007 42.4858 22.6582 41.5151 21.8925V27.1739L41.7623 38.2492H40.4239L39.417 27.1136H38.3318L37.325 38.2492H35.9805L36.2337 27.1739L35.7514 21.8382H33.9849L33.5508 27.1558L33.804 38.2311H32.4596L31.4467 27.0955H30.3615L29.3486 38.2311H28.0102L28.2634 27.1558L27.8233 21.8382H26.0568L25.5744 27.1739L25.8277 38.2492H24.4832L23.4764 27.1136H22.3911L21.3728 38.2492H20.0344L20.2876 27.1739V21.8925C19.3109 22.6582 18.7261 26.1007 18.2619 28.6811L17.2008 27.614C17.1465 25.7028 18.0147 20.2043 19.8716 19.1312C23.7899 18.9985 27.0455 18.9985 30.9041 18.878Z" fill="white"/>
</svg>
