<svg width="61" height="53" viewBox="0 0 61 53" fill="none" xmlns="http://www.w3.org/2000/svg">
<path d="M45.1554 51.005H16.3843L2 26.0025L16.3843 1L45.1554 1L59.54 26.0026L45.1554 51.005Z" stroke="white" stroke-opacity="0.1" stroke-width="2"/>
<path opacity="0.5" fill-rule="evenodd" clip-rule="evenodd" d="M15.4922 51.459L15.5175 51.503L15.8059 52.0043H16.3843H45.1554H45.7337L46.0222 51.503L60.4068 26.5006L60.6937 26.0019L60.4173 25.5215L57.7901 27.0383L44.577 50.0043H18.0118L15.4922 51.459Z" fill="white"/>
<circle cx="45.155" cy="51.0055" r="1.7125" fill="white"/>
<path opacity="0.7" d="M29.7425 11.959L27.9158 19.2656C26.0892 18.3523 24.2625 16.5257 22.4358 13.7857C22.4358 16.5257 22.4358 19.2656 24.2625 21.0923C22.4358 22.0627 20.6092 21.0923 18.7825 19.2656C18.7825 21.0923 18.7825 23.8323 21.5225 25.659C19.6958 26.5723 17.8692 25.659 16.9558 23.8323C16.9558 26.5723 17.8692 29.3123 19.6958 31.139C18.7825 32.0523 16.9558 31.139 16.0425 30.2256C16.0425 33.879 18.7825 36.619 22.4358 38.4456H26.8198L27.7731 34.5297L26.7913 29.6149L21.2028 29.9003C21.2028 29.9003 22.3616 25.6076 23.1951 23.9807C23.4805 23.4327 23.6061 22.9532 24.3367 22.9361C24.9818 22.9361 25.5012 23.4955 25.5012 24.1862C25.5012 24.8712 24.9818 25.4306 24.3367 25.4306C24.2054 25.4306 24.0741 25.4021 23.96 25.3564L23.6688 28.0279C25.3585 27.5199 26.9169 26.9548 28.4638 26.2641C28.4638 26.2584 28.4581 26.2526 28.4581 26.2469C28.1042 25.7446 27.8645 25.0196 27.8645 24.2091C27.8645 23.4042 28.0985 22.6792 28.4581 22.1712C28.8063 21.6631 29.263 21.3891 29.7425 21.3891C30.2277 21.3891 30.6844 21.6631 31.0326 22.1712C31.3865 22.6792 31.6148 23.4042 31.6148 24.2091C31.6148 25.0196 31.3865 25.7446 31.0326 26.2469C31.0269 26.2641 31.0041 26.2869 30.9983 26.2983C32.5567 26.989 34.2007 27.4742 35.8105 28.0279L35.5251 25.3564C35.3995 25.4021 35.2796 25.4306 35.1426 25.4306C34.5033 25.4306 33.9838 24.8712 33.9838 24.1862C33.9838 23.4955 34.5033 22.9361 35.1426 22.9361C35.8733 22.9532 36.0103 23.4327 36.2843 23.9807C37.1291 25.6076 38.2822 29.9003 38.2822 29.9003L32.6937 29.6149L31.7119 34.5297L32.6652 38.4456H37.0492C40.7025 36.619 43.4425 33.879 43.4425 30.2256C42.5292 31.139 40.7025 32.0523 39.7892 31.139C41.6158 29.3123 42.5292 26.5723 42.5292 23.8323C41.6158 25.659 39.7892 26.5723 37.9625 25.659C40.7025 23.8323 40.7025 21.0923 40.7025 19.2656C38.8758 21.0923 37.0492 22.0056 35.2225 21.0923C37.0492 19.2656 37.0492 16.5257 37.0492 13.7857C35.2225 16.5257 33.3958 18.3523 31.5692 19.2656L29.7425 11.959Z" fill="white"/>
</svg>
