<svg width="188" height="96" viewBox="0 0 188 96" fill="none" xmlns="http://www.w3.org/2000/svg">
<rect y="7" width="8" height="40" rx="4" fill="#00CDA8"/>
<rect x="140" y="7" width="8" height="40" rx="4" fill="#00CDA8"/>
<rect x="100" y="17" width="8" height="23" rx="4" fill="#00CDA8"/>
<rect x="120" y="19" width="8" height="33" rx="4" fill="#00CDA8"/>
<rect x="20" width="8" height="24" rx="4" fill="#00CDA8"/>
<rect x="160" width="8" height="24" rx="4" fill="#00CDA8"/>
<rect x="60" width="8" height="24" rx="4" fill="#8558D3"/>
<rect x="80" y="11" width="8" height="29" rx="4" fill="#00CDA8"/>
<rect x="40" y="5" width="8" height="32" rx="4" fill="#00CDA8"/>
<rect x="180" y="5" width="8" height="32" rx="4" fill="#00CDA8"/>
<rect y="55" width="8" height="28" rx="4" fill="#8558D3"/>
<rect x="140" y="55" width="8" height="28" rx="4" fill="#8558D3"/>
<rect x="100" y="48" width="8" height="28" rx="4" fill="#8558D3"/>
<rect x="120" y="60" width="8" height="16" rx="4" fill="#8558D3"/>
<rect x="20" y="32" width="8" height="64" rx="4" fill="#8558D3"/>
<rect x="160" y="32" width="8" height="64" rx="4" fill="#8558D3"/>
<rect x="60" y="32" width="8" height="64" rx="4" fill="#8558D3"/>
<rect x="80" y="48" width="8" height="35" rx="4" fill="#00CDA8"/>
<rect x="40" y="45" width="8" height="40" rx="4" fill="#8558D3"/>
<rect x="180" y="45" width="8" height="40" rx="4" fill="#8558D3"/>
</svg>
