<svg width="76" height="79" viewBox="0 0 76 79" fill="none" xmlns="http://www.w3.org/2000/svg">
<path d="M9.25255 39.5488L23.6381 64.4653L52.483 64.4212L66.9437 39.4628L52.5582 14.5463L23.7129 14.5901L9.25255 39.5488Z" stroke="white" stroke-opacity="0.1" stroke-width="2"/>
<path opacity="0.5" fill-rule="evenodd" clip-rule="evenodd" d="M23.6901 65.4648L23.6396 65.4649L23.0612 65.4658L22.772 64.9649L8.38652 40.0484L8.09734 39.5476L8.38727 39.0471L22.8477 14.0885L23.1361 13.5907L23.6901 13.5898L23.6901 16.624L10.4077 39.5493L23.6901 62.555L23.6901 65.4648Z" fill="white"/>
<circle r="1.7125" transform="matrix(-0.5 -0.866025 -0.866025 0.5 9.25278 39.549)" fill="white"/>
<path opacity="0.7" d="M31.3742 24.3535L30.136 24.5271L33.0248 47.8397C33.4804 47.8056 33.9458 47.7764 34.4206 47.7525L32.6399 34.0747C34.114 33.6307 35.5723 33.1279 36.8563 31.9865C37.7066 37.1933 36.753 42.4742 36.7195 47.6815C37.4494 47.6731 38.2478 47.681 38.9012 47.6984C38.8686 47.3 38.4582 41.8592 40.2881 40.1937C41.3668 39.212 44.6476 39.8167 44.6476 39.8167C45.4025 41.0823 45.3996 41.9424 45.1645 43.4209L46.9583 43.884C47.1004 43.0521 47.0566 40.9068 46.5522 38.3279C46.4815 38.1582 45.9507 38.0537 45.514 37.8651C45.5035 36.099 45.8748 34.4086 45.5297 32.6425C44.7018 31.9902 42.8823 31.4338 41.4564 30.6652L41.1352 30.6214C40.7187 31.0577 40.1772 31.3444 39.5702 31.3444C38.6945 31.2119 38.0333 30.7659 37.6347 30.1442L36.9017 30.0443C35.5346 31.0921 34.02 31.8449 32.4271 32.4409L31.3742 24.3535ZM39.5703 25.4259C39.2128 25.4259 38.8582 25.6338 38.56 26.068C38.2618 26.5021 38.0557 27.1461 38.0557 27.8672C38.0557 28.5881 38.2618 29.232 38.56 29.6662C38.8582 30.1004 39.2128 30.3083 39.5703 30.3083C39.9278 30.3083 40.2824 30.1004 40.5807 29.6662C40.8789 29.232 41.0849 28.5881 41.0849 27.8672C41.0849 27.1461 40.8789 26.5021 40.5807 26.068C40.2825 25.6338 39.9278 25.4259 39.5703 25.4259V25.4259ZM29.3006 26.431C29.247 26.5961 29.1964 26.763 29.1367 26.9234C28.9363 27.4623 28.7022 27.9674 28.3935 28.3828C28.085 28.798 27.674 29.1476 27.1394 29.2233C26.3494 29.3354 25.9306 29.5739 25.651 29.9031C25.3714 30.2324 25.2089 30.7104 25.1127 31.3664C24.9658 32.3686 25.0594 33.6152 25.2261 34.8853C25.3077 34.6489 25.3942 34.415 25.4985 34.194C25.7406 33.6814 26.0553 33.2135 26.4963 32.869C26.9374 32.5246 27.5094 32.3233 28.155 32.3426C28.5958 32.3557 28.9409 32.058 29.2352 31.5039C29.5262 30.9559 29.687 30.2084 29.6904 29.6636L29.3006 26.431ZM41.6117 32.5655C42.4044 33.047 43.1903 33.4566 44.194 33.5164C44.5869 34.8899 44.2881 36.3893 44.2417 37.7628C42.9691 37.512 41.76 37.2171 41.6155 36.4304C41.7866 34.4467 41.814 33.6006 41.6117 32.5655ZM44.4228 44.2995C44.1589 45.5515 43.6733 46.7444 42.9893 47.9414C45.1122 48.0915 47.3132 48.28 49.4491 48.84C49.4457 47.6905 49.0972 46.5101 48.476 45.346L44.4228 44.2995ZM37.0984 48.7141C31.487 48.7433 27.0339 49.5573 24.0121 50.3498V51.563H51.4121V50.4727C48.0347 49.6141 43.0013 48.6833 37.0984 48.7141V48.7141Z" fill="white"/>
</svg>
