<svg width="61" height="54" viewBox="0 0 61 54" fill="none" xmlns="http://www.w3.org/2000/svg">
<path d="M45.1554 2.58094H16.3843L2 27.5834L16.3843 52.5859H45.1554L59.54 27.5833L45.1554 2.58094Z" stroke="white" stroke-opacity="0.1" stroke-width="2"/>
<path opacity="0.5" fill-rule="evenodd" clip-rule="evenodd" d="M15.4922 2.12499L15.5175 2.081L15.8059 1.57968H16.3843H45.1554H45.7337L46.0222 2.08099L60.4068 27.0834L60.6937 27.5821L60.4173 28.0625L57.7901 26.5457L44.577 3.57968H18.0118L15.4922 2.12499Z" fill="white"/>
<circle r="1.7125" transform="matrix(1 0 0 -1 45.155 2.58047)" fill="white"/>
<path opacity="0.7" d="M31.455 12.1699C30.2984 12.1699 29.3608 13.2508 29.3608 14.584C29.3616 15.5735 29.8861 16.4621 30.6841 16.8263C29.5873 17.4671 28.5525 19.3096 28.5525 20.6194H34.3575C34.3575 19.3102 33.3235 17.4689 32.2274 16.8272C33.025 16.4624 33.549 15.5734 33.5492 14.584C33.5492 13.2508 32.6116 12.17 31.455 12.17V12.1699ZM30.9325 21.7189V24.0886H20.1351V28.8859H21.18V25.129H30.9325V28.8859H31.9775V25.129H41.73V28.8859H42.7749V24.0886H31.9775V21.7189H30.9325ZM20.6575 30.2731C19.5009 30.2731 18.5633 31.3539 18.5633 32.6871C18.5641 33.6766 19.0887 34.5652 19.8867 34.9294C18.7899 35.5702 17.755 37.4128 17.755 38.7225H23.5601C23.5601 37.4134 22.526 35.5719 21.4299 34.9303C22.2276 34.5654 22.7515 33.6765 22.7518 32.6872C22.7518 31.354 21.8142 30.2731 20.6575 30.2731V30.2731ZM31.455 30.2731C30.2984 30.2731 29.3608 31.3539 29.3608 32.6871C29.3616 33.6766 29.8861 34.5652 30.6841 34.9294C29.5873 35.5702 28.5525 37.4128 28.5525 38.7225H34.3575C34.3575 37.4134 33.3235 35.5719 32.2274 34.9303C33.025 34.5654 33.549 33.6765 33.5492 32.6872C33.5492 31.354 32.6116 30.2731 31.455 30.2731V30.2731ZM42.2525 30.2731C41.0959 30.2731 40.1582 31.3539 40.1582 32.6871C40.159 33.6766 40.6836 34.5652 41.4816 34.9294C40.3848 35.5702 39.3499 37.4128 39.3499 38.7225H45.155C45.155 37.4134 44.1209 35.5719 43.0248 34.9303C43.8225 34.5654 44.3464 33.6765 44.3467 32.6872C44.3467 31.354 43.4091 30.2731 42.2525 30.2731V30.2731Z" fill="white"/>
</svg>
