<svg width="226" height="335" viewBox="0 0 226 335" fill="none" xmlns="http://www.w3.org/2000/svg">
<path fill-rule="evenodd" clip-rule="evenodd" d="M207.5 388.226C307.312 388.226 388.226 307.312 388.226 207.5C388.226 107.688 307.312 26.7742 207.5 26.7742C107.688 26.7742 26.7742 107.688 26.7742 207.5C26.7742 307.312 107.688 388.226 207.5 388.226ZM207.5 415C322.099 415 415 322.099 415 207.5C415 92.9009 322.099 0 207.5 0C92.9009 0 0 92.9009 0 207.5C0 322.099 92.9009 415 207.5 415Z" fill="#313E59"/>
<path fill-rule="evenodd" clip-rule="evenodd" d="M203.233 56.5768C183.95 57.0082 168.667 72.9899 169.099 92.273L169.426 106.931C169.585 114.035 163.955 119.923 156.851 120.082C149.746 120.241 143.858 114.611 143.699 107.506L143.372 92.8485C142.622 59.3567 169.166 31.599 202.657 30.8498C236.149 30.1007 263.907 56.6438 264.656 90.1356L265.817 142.049C266.4 168.098 287.989 188.743 314.038 188.16L325.677 187.9C332.781 187.741 338.669 193.371 338.828 200.476C338.987 207.58 333.357 213.468 326.252 213.627L314.614 213.887C274.356 214.788 240.991 182.882 240.09 142.624L238.929 90.711C238.498 71.4279 222.516 56.1455 203.233 56.5768Z" fill="#313E59"/>
<path fill-rule="evenodd" clip-rule="evenodd" d="M211.13 358.312C230.414 357.88 245.696 341.899 245.265 322.615L244.937 307.957C244.778 300.853 250.408 294.965 257.513 294.806C264.617 294.647 270.505 300.278 270.664 307.382L270.992 322.04C271.741 355.532 245.198 383.289 211.706 384.039C178.214 384.788 150.456 358.245 149.707 324.753L148.546 272.839C147.963 246.79 126.374 226.146 100.325 226.728L88.6865 226.989C81.5822 227.148 75.6942 221.517 75.5353 214.413C75.3764 207.309 81.0067 201.421 88.111 201.262L99.7494 201.001C140.007 200.101 173.373 232.006 174.273 272.264L175.434 324.177C175.866 343.461 191.847 358.743 211.13 358.312Z" fill="#313E59"/>
<path fill-rule="evenodd" clip-rule="evenodd" d="M358.132 203.219C357.75 183.935 341.808 168.611 322.524 168.993L307.865 169.283C300.76 169.423 294.887 163.778 294.746 156.673C294.606 149.568 300.251 143.695 307.356 143.554L322.015 143.264C355.508 142.602 383.197 169.217 383.86 202.71C384.523 236.204 357.908 263.893 324.414 264.555L272.498 265.583C246.448 266.098 225.747 287.634 226.263 313.684L226.493 325.324C226.633 332.428 220.988 338.302 213.883 338.442C206.778 338.583 200.905 332.937 200.764 325.833L200.534 314.193C199.738 273.934 231.729 240.651 271.989 239.854L323.905 238.827C343.19 238.445 358.513 222.503 358.132 203.219Z" fill="#313E59"/>
<path fill-rule="evenodd" clip-rule="evenodd" d="M56.2368 211.673C56.6183 230.957 72.5605 246.281 91.8447 245.899L106.504 245.609C113.608 245.468 119.482 251.114 119.622 258.219C119.763 265.323 114.117 271.197 107.013 271.337L92.3537 271.627C58.8601 272.29 31.1711 245.675 30.5084 212.182C29.8458 178.688 56.4605 150.999 89.9541 150.336L141.87 149.309C167.921 148.794 188.621 127.258 188.106 101.207L187.876 89.5684C187.735 82.4637 193.381 76.5902 200.485 76.4496C207.59 76.3091 213.463 81.9546 213.604 89.0593L213.834 100.698C214.631 140.958 182.639 174.241 142.379 175.038L90.4631 176.065C71.1789 176.446 55.8553 192.389 56.2368 211.673Z" fill="#313E59"/>
</svg>
