<svg width="227" height="233" viewBox="0 0 227 233" fill="none" xmlns="http://www.w3.org/2000/svg">
<path fill-rule="evenodd" clip-rule="evenodd" d="M19.5 206.226C119.312 206.226 200.226 125.312 200.226 25.5C200.226 -74.3121 119.312 -155.226 19.5 -155.226C-80.3121 -155.226 -161.226 -74.3121 -161.226 25.5C-161.226 125.312 -80.3121 206.226 19.5 206.226ZM19.5 233C134.099 233 227 140.099 227 25.5C227 -89.0991 134.099 -182 19.5 -182C-95.0991 -182 -188 -89.0991 -188 25.5C-188 140.099 -95.0991 233 19.5 233Z" fill="#313E59"/>
<path fill-rule="evenodd" clip-rule="evenodd" d="M15.2327 -125.423C-4.05046 -124.992 -19.3329 -109.01 -18.9015 -89.7269L-18.5736 -75.0689C-18.4147 -67.9646 -24.0451 -62.0766 -31.1494 -61.9177C-38.2537 -61.7588 -44.1417 -67.3891 -44.3006 -74.4934L-44.6285 -89.1515C-45.3777 -122.643 -18.8345 -150.401 14.6572 -151.15C48.149 -151.899 75.9067 -125.356 76.6559 -91.8644L77.8171 -39.951C78.3998 -13.9018 99.9891 6.74285 126.038 6.16017L137.677 5.89984C144.781 5.74093 150.669 11.3713 150.828 18.4756C150.987 25.5799 145.356 31.4679 138.252 31.6268L126.614 31.8872C86.356 32.7877 52.9906 0.882291 52.0901 -39.3755L50.9289 -91.2889C50.4976 -110.572 34.5158 -125.854 15.2327 -125.423Z" fill="#313E59"/>
<path fill-rule="evenodd" clip-rule="evenodd" d="M23.1304 176.312C42.4135 175.88 57.6959 159.899 57.2646 140.615L56.9367 125.957C56.7778 118.853 62.4081 112.965 69.5125 112.806C76.6168 112.647 82.5048 118.278 82.6637 125.382L82.9916 140.04C83.7407 173.532 57.1976 201.289 23.7058 202.039C-9.78592 202.788 -37.5437 176.245 -38.2928 142.753L-39.454 90.8395C-40.0367 64.7904 -61.6261 44.1457 -87.6752 44.7284L-99.3136 44.9887C-106.418 45.1476 -112.306 39.5172 -112.465 32.4129C-112.624 25.3086 -106.993 19.4206 -99.8891 19.2617L-88.2507 19.0014C-47.9929 18.1009 -14.6275 50.0062 -13.7271 90.264L-12.5658 142.177C-12.1345 161.461 3.84723 176.743 23.1304 176.312Z" fill="#313E59"/>
<path fill-rule="evenodd" clip-rule="evenodd" d="M170.132 21.2191C169.75 1.93493 153.808 -13.3887 134.524 -13.0072L119.865 -12.7171C112.76 -12.5766 106.887 -18.2221 106.746 -25.3268C106.606 -32.4315 112.251 -38.305 119.356 -38.4455L134.015 -38.7356C167.508 -39.3982 195.197 -12.7835 195.86 20.7101C196.523 54.2037 169.908 81.8928 136.414 82.5554L84.4981 83.5826C58.4475 84.098 37.7472 105.634 38.2626 131.685L38.4928 143.324C38.6334 150.428 32.9879 156.302 25.8832 156.442C18.7785 156.583 12.905 150.937 12.7644 143.833L12.5342 132.194C11.7376 91.9336 43.7291 58.6507 83.9891 57.8542L135.905 56.8271C155.189 56.4455 170.513 40.5033 170.132 21.2191Z" fill="#313E59"/>
<path fill-rule="evenodd" clip-rule="evenodd" d="M-131.763 29.6728C-131.382 48.9569 -115.44 64.2806 -96.1554 63.899L-81.4966 63.609C-74.3919 63.4685 -68.5185 69.114 -68.3779 76.2187C-68.2373 83.3234 -73.8829 89.1969 -80.9876 89.3374L-95.6464 89.6274C-129.14 90.2901 -156.829 63.6753 -157.492 30.1818C-158.154 -3.3118 -131.54 -31.0009 -98.046 -31.6636L-46.1298 -32.6907C-20.0792 -33.2061 0.621118 -54.742 0.105723 -80.7926L-0.124549 -92.4316C-0.265111 -99.5363 5.38045 -105.41 12.4851 -105.55C19.5899 -105.691 25.4633 -100.045 25.6038 -92.9407L25.8341 -81.3016C26.6306 -41.0417 -5.36081 -7.75882 -45.6208 -6.9623L-97.537 -5.93517C-116.821 -5.55364 -132.145 10.3886 -131.763 29.6728Z" fill="#313E59"/>
</svg>
