<svg width="100" height="100" viewBox="0 0 100 100" fill="none" xmlns="http://www.w3.org/2000/svg">
<path fill-rule="evenodd" clip-rule="evenodd" d="M50 93.5484C74.0511 93.5484 93.5484 74.0511 93.5484 50C93.5484 25.9489 74.0511 6.45161 50 6.45161C25.9489 6.45161 6.45161 25.9489 6.45161 50C6.45161 74.0511 25.9489 93.5484 50 93.5484ZM50 100C77.6143 100 100 77.6143 100 50C100 22.3858 77.6143 0 50 0C22.3858 0 0 22.3858 0 50C0 77.6143 22.3858 100 50 100Z" fill="url(#paint0_linear)"/>
<path fill-rule="evenodd" clip-rule="evenodd" d="M48.9718 13.6329C44.3252 13.7369 40.6427 17.5879 40.7467 22.2344L40.8257 25.7665C40.864 27.4783 39.5072 28.8971 37.7954 28.9354C36.0835 28.9737 34.6647 27.617 34.6264 25.9051L34.5474 22.3731C34.3669 14.3028 40.7628 7.61416 48.8331 7.43364C56.9034 7.25312 63.592 13.6491 63.7725 21.7194L64.0524 34.2286C64.1928 40.5055 69.395 45.4801 75.6719 45.3397L78.4763 45.277C80.1882 45.2387 81.607 46.5954 81.6453 48.3073C81.6836 50.0192 80.3269 51.438 78.615 51.4763L75.8106 51.539C66.1099 51.756 58.0701 44.0679 57.8531 34.3673L57.5733 21.858C57.4693 17.2115 53.6183 13.529 48.9718 13.6329Z" fill="url(#paint1_linear)"/>
<path fill-rule="evenodd" clip-rule="evenodd" d="M50.8748 86.3402C55.5214 86.2363 59.2039 82.3853 59.0999 77.7387L59.0209 74.2067C58.9826 72.4948 60.3393 71.076 62.0512 71.0377C63.7631 70.9994 65.1819 72.3561 65.2202 74.068L65.2992 77.6001C65.4797 85.6704 59.0838 92.359 51.0135 92.5395C42.9432 92.72 36.2546 86.3241 36.074 78.2538L35.7942 65.7445C35.6538 59.4676 30.4516 54.493 24.1747 54.6334L21.3702 54.6961C19.6584 54.7344 18.2396 53.3777 18.2013 51.6658C18.163 49.9539 19.5197 48.5352 21.2316 48.4969L24.036 48.4341C33.7367 48.2171 41.7765 55.9052 41.9935 65.6059L42.2733 78.1151C42.3773 82.7617 46.2283 86.4442 50.8748 86.3402Z" fill="url(#paint2_linear)"/>
<path fill-rule="evenodd" clip-rule="evenodd" d="M86.2967 48.9685C86.2048 44.3217 82.3633 40.6292 77.7165 40.7212L74.1843 40.791C72.4723 40.8249 71.057 39.4645 71.0231 37.7526C70.9893 36.0406 72.3496 34.6253 74.0616 34.5914L77.5938 34.5215C85.6646 34.3619 92.3367 40.7751 92.4963 48.8458C92.656 56.9165 86.2428 63.5886 78.1721 63.7483L65.6621 63.9958C59.3849 64.12 54.3969 69.3094 54.5211 75.5866L54.5765 78.3912C54.6104 80.1032 53.25 81.5185 51.5381 81.5523C49.8261 81.5862 48.4108 80.2258 48.3769 78.5139L48.3214 75.7093C48.1295 66.0081 55.8383 57.9881 65.5395 57.7962L78.0494 57.5487C82.6962 57.4567 86.3887 53.6152 86.2967 48.9685Z" fill="url(#paint3_linear)"/>
<path fill-rule="evenodd" clip-rule="evenodd" d="M13.551 51.0055C13.643 55.6523 17.4845 59.3448 22.1312 59.2528L25.6635 59.183C27.3755 59.1491 28.7908 60.5095 28.8246 62.2214C28.8585 63.9334 27.4981 65.3487 25.7861 65.3826L22.2539 65.4525C14.1832 65.6121 7.51109 59.1989 7.35142 51.1282C7.19174 43.0575 13.6049 36.3854 21.6757 36.2257L34.1856 35.9782C40.4629 35.854 45.4509 30.6646 45.3267 24.3874L45.2712 21.5828C45.2373 19.8708 46.5977 18.4555 48.3097 18.4217C50.0217 18.3878 51.437 19.7482 51.4708 21.4601L51.5263 24.2647C51.7182 33.9659 44.0095 41.9859 34.3083 42.1778L21.7983 42.4253C17.1515 42.5173 13.4591 46.3588 13.551 51.0055Z" fill="url(#paint4_linear)"/>
<defs>
<linearGradient id="paint0_linear" x1="0" y1="50" x2="100" y2="50" gradientUnits="userSpaceOnUse">
<stop stop-color="#F8BE36"/>
<stop offset="1" stop-color="#F5A154"/>
</linearGradient>
<linearGradient id="paint1_linear" x1="34.7203" y1="30.1037" x2="81.2149" y2="29.0637" gradientUnits="userSpaceOnUse">
<stop stop-color="#FFB27D"/>
<stop offset="1" stop-color="#F9D423"/>
</linearGradient>
<linearGradient id="paint2_linear" x1="65.1263" y1="69.8694" x2="18.6317" y2="70.9094" gradientUnits="userSpaceOnUse">
<stop stop-color="#FFB27D"/>
<stop offset="1" stop-color="#F9D423"/>
</linearGradient>
<linearGradient id="paint3_linear" x1="69.8628" y1="34.6745" x2="70.7827" y2="81.1716" gradientUnits="userSpaceOnUse">
<stop stop-color="#FFB27D"/>
<stop offset="1" stop-color="#F9D423"/>
</linearGradient>
<linearGradient id="paint4_linear" x1="29.985" y1="65.2995" x2="29.0651" y2="18.8024" gradientUnits="userSpaceOnUse">
<stop stop-color="#FFB27D"/>
<stop offset="1" stop-color="#F9D423"/>
</linearGradient>
</defs>
</svg>
