<svg width="1440" height="800" viewBox="0 0 1440 800" fill="none" xmlns="http://www.w3.org/2000/svg">
<g clip-path="url(#clip0)">
<rect width="1440" height="800" fill="#0B071D"/>
<path fill-rule="evenodd" clip-rule="evenodd" d="M895.678 424.507L965.943 494.727C973.036 501.816 981.489 506.722 990.466 509.446L989.19 510.721C955.896 543.994 938.723 587.115 937.838 630.026C922.648 624 908.473 614.889 896.255 602.679C848 554.455 848.124 475.71 895.678 424.507ZM868.003 396.469C807.773 329.298 808.328 227.686 870.873 165.181C892.341 143.727 918.42 129.571 946.133 122.666C953.043 94.9706 967.207 68.9087 988.676 47.4543C1053.48 -17.3112 1160.3 -15.5647 1227.27 51.3551L1227.43 51.5197C1294.56 -12.2171 1398.96 -12.868 1462.71 50.8412C1484.18 72.2956 1498.35 98.3574 1505.26 126.052C1532.97 132.958 1559.05 147.114 1580.52 168.568C1644.21 232.224 1643.62 336.44 1580 403.531C1640.23 470.702 1639.67 572.314 1577.13 634.819C1555.66 656.273 1529.58 670.429 1501.87 677.334C1494.96 705.029 1480.79 731.091 1459.32 752.546C1394.52 817.311 1287.7 815.565 1220.73 748.645L1220.57 748.48C1153.44 812.217 1049.04 812.867 985.287 749.158C963.819 727.704 949.654 701.642 942.744 673.947C915.031 667.041 888.953 652.886 867.485 631.431C803.788 567.776 804.385 463.56 868.003 396.469ZM895.864 368.534C851.533 317.301 852.497 241.05 899.644 193.933C911.861 181.723 926.037 172.613 941.227 166.586C942.111 209.458 959.253 252.54 992.488 285.801C981.515 288.026 971.058 293.388 962.554 301.886L895.864 368.534ZM923.606 396.613L990.474 329.788C998.167 322.101 1010.65 322.115 1018.36 329.82L1088.59 400L1021.75 466.793C1014.04 474.498 1001.56 474.512 993.863 466.824L923.606 396.613ZM1116.45 427.839L1059.72 484.525C1077.86 486.324 1095.34 494.049 1109.05 507.75C1126.28 524.968 1134.07 548.142 1132.51 571.078L1196.14 507.486L1116.45 427.839ZM1144.3 400L1224 320.353L1303.7 400L1224 479.646L1144.3 400ZM1196.14 292.514L1116.45 372.16L1056.73 312.483C1077.11 312.018 1097.12 304.17 1112.44 288.869C1127.92 273.39 1135.78 253.095 1136.08 232.488L1196.14 292.514ZM1251.86 292.514L1331.55 372.161L1388.28 315.475C1370.14 313.675 1352.66 305.95 1338.95 292.249C1321.72 275.032 1313.93 251.858 1315.49 228.922L1251.86 292.514ZM1335.52 179.36C1336.71 177.934 1337.95 176.536 1339.25 175.17L1339.24 175.155L1339.98 174.41C1340.28 174.102 1340.59 173.795 1340.89 173.49C1341.08 173.305 1341.26 173.122 1341.45 172.939L1341.93 172.469C1375.22 139.196 1418.37 122.034 1461.31 121.15C1455.28 105.969 1446.16 91.8031 1433.94 79.5932C1385.57 31.2532 1306.51 31.4941 1255.29 79.3591L1318.43 142.463C1328.73 152.751 1334.42 165.899 1335.52 179.36ZM1227.39 107.282L1290.51 170.365C1298.2 178.053 1298.19 190.531 1290.48 198.236L1224 264.674L1160.91 201.623C1153.2 193.918 1153.18 181.44 1160.88 173.752L1227.39 107.282ZM1199.54 79.3044L1199.42 79.1815C1148.35 28.1409 1066.88 26.8089 1017.45 76.2063C1005.23 88.4162 996.112 102.583 990.082 117.763C1033.02 118.647 1076.17 135.809 1109.46 169.082L1112.15 171.768L1112.13 171.789C1113.71 173.454 1115.21 175.165 1116.64 176.917C1118.72 165.532 1124.15 154.646 1132.96 145.85L1199.54 79.3044ZM1020.93 258.503L1020.9 258.539L1020.42 258.065C992.655 230.315 979.59 193.585 981.393 157.903C1017.1 156.102 1053.85 169.158 1081.62 196.909L1082.09 197.382L1082.05 197.425C1082.24 197.606 1082.42 197.789 1082.61 197.974C1100.05 215.404 1100.51 243.209 1083.63 260.078C1066.75 276.946 1038.92 276.492 1021.48 259.062C1021.3 258.877 1021.11 258.691 1020.93 258.503ZM1251.86 507.486L1331.55 427.84L1391.27 487.517C1370.89 487.982 1350.88 495.83 1335.56 511.131C1320.07 526.61 1312.22 546.905 1311.92 567.511L1251.86 507.486ZM1506.77 633.414C1505.89 590.542 1488.75 547.46 1455.51 514.199C1466.48 511.974 1476.94 506.612 1485.45 498.113L1552.14 431.466C1596.47 482.699 1595.5 558.95 1548.36 606.067C1536.14 618.277 1521.96 627.387 1506.77 633.414ZM1457.53 470.211L1524.39 403.387L1454.14 333.176C1446.44 325.488 1433.96 325.502 1426.25 333.207L1359.41 400L1429.64 470.18C1437.35 477.885 1449.83 477.899 1457.53 470.211ZM1551.74 197.32C1600 245.545 1599.88 324.29 1552.32 375.493L1482.06 305.273C1474.96 298.184 1466.51 293.278 1457.53 290.554L1458.81 289.279C1492.1 256.005 1509.28 212.884 1510.16 169.973C1525.35 176 1539.53 185.11 1551.74 197.32ZM1315.04 654.15C1323.84 645.354 1329.28 634.468 1331.36 623.083C1332.79 624.835 1334.29 626.546 1335.87 628.211L1335.85 628.232L1338.54 630.918C1371.83 664.191 1414.98 681.353 1457.92 682.237C1451.89 697.417 1442.77 711.584 1430.55 723.794C1381.12 773.191 1299.65 771.859 1248.58 720.818L1248.45 720.695L1315.04 654.15ZM1287.12 626.248L1220.61 692.718L1157.49 629.635C1149.8 621.947 1149.81 609.469 1157.52 601.764L1224 535.325L1287.09 598.377C1294.8 606.082 1294.82 618.56 1287.12 626.248ZM1108.75 624.83C1110.04 623.463 1111.29 622.066 1112.48 620.64C1113.58 634.101 1119.27 647.249 1129.57 657.537L1192.71 720.641C1141.49 768.505 1062.43 768.746 1014.06 720.406C1001.84 708.197 992.723 694.03 986.693 678.85C1029.63 677.965 1072.78 660.804 1106.07 627.531L1106.55 627.061C1106.74 626.878 1106.92 626.694 1107.11 626.51C1107.41 626.205 1107.72 625.898 1108.02 625.59L1108.76 624.845L1108.75 624.83ZM1369.33 200.805L1369.3 200.769L1369.77 200.295C1397.54 172.545 1434.29 159.489 1470 161.29C1471.8 196.972 1458.73 233.702 1430.97 261.452L1430.49 261.926L1430.45 261.884L1430.13 262.21L1429.9 262.442C1412.46 279.872 1384.64 280.327 1367.76 263.458C1350.88 246.589 1351.33 218.784 1368.77 201.355C1368.96 201.17 1369.14 200.987 1369.33 200.805ZM1078.67 599.194L1078.7 599.23L1078.23 599.704C1050.46 627.454 1013.71 640.511 978.004 638.71C976.202 603.028 989.267 566.297 1017.03 538.547L1017.51 538.073L1017.55 538.116L1017.86 537.799L1018.1 537.558C1035.54 520.128 1063.36 519.673 1080.24 536.542C1097.12 553.411 1096.67 581.215 1079.23 598.645C1079.04 598.83 1078.86 599.013 1078.67 599.194ZM1427.1 541.461L1427.07 541.497C1426.89 541.31 1426.7 541.123 1426.52 540.938C1409.08 523.509 1381.25 523.054 1364.37 539.922C1347.49 556.791 1347.95 584.596 1365.39 602.026C1365.58 602.211 1365.76 602.394 1365.95 602.575L1365.91 602.618L1366.38 603.091C1394.15 630.842 1430.9 643.898 1466.61 642.097C1468.41 606.415 1455.34 569.685 1427.58 541.935L1427.1 541.461Z" fill="white" fill-opacity="0.05"/>
</g>
<defs>
<clipPath id="clip0">
<rect width="1440" height="800" fill="white"/>
</clipPath>
</defs>
</svg>
