<svg width="1440" height="800" viewBox="0 0 1440 800" fill="none" xmlns="http://www.w3.org/2000/svg">
<g clip-path="url(#clip0)">
<rect width="1440" height="800" fill="white"/>
<path fill-rule="evenodd" clip-rule="evenodd" d="M-20 704.839C148.358 704.839 284.839 568.358 284.839 400C284.839 231.642 148.358 95.1613 -20 95.1613C-188.358 95.1613 -324.839 231.642 -324.839 400C-324.839 568.358 -188.358 704.839 -20 704.839ZM-20 750C173.3 750 330 593.3 330 400C330 206.7 173.3 50 -20 50C-213.3 50 -370 206.7 -370 400C-370 593.3 -213.3 750 -20 750Z" fill="#F4F4F4"/>
<path fill-rule="evenodd" clip-rule="evenodd" d="M-27.1962 145.43C-59.722 146.158 -85.4996 173.115 -84.772 205.641L-84.219 230.365C-83.9509 242.348 -93.4479 252.28 -105.431 252.548C-117.414 252.816 -127.346 243.319 -127.614 231.336L-128.167 206.611C-129.431 150.119 -84.659 103.299 -28.1669 102.035C28.3252 100.772 75.1455 145.543 76.4091 202.035L78.3678 289.6C79.3507 333.539 115.766 368.361 159.705 367.378L179.336 366.939C191.319 366.671 201.251 376.168 201.519 388.151C201.787 400.134 192.29 410.066 180.306 410.334L160.675 410.773C92.7707 412.292 36.4918 358.476 34.9729 290.571L33.0142 203.006C32.2867 170.48 5.32953 144.703 -27.1962 145.43Z" fill="#F4F4F4"/>
<path fill-rule="evenodd" clip-rule="evenodd" d="M-13.8757 654.381C18.6501 653.654 44.4277 626.696 43.7001 594.171L43.1471 569.446C42.879 557.463 52.376 547.532 64.3592 547.264C76.3424 546.995 86.274 556.492 86.542 568.476L87.0951 593.2C88.3587 649.692 43.5871 696.512 -12.905 697.776C-69.3971 699.04 -116.217 654.268 -117.481 597.776L-119.44 510.211C-120.423 466.273 -156.838 431.451 -200.777 432.433L-220.408 432.872C-232.391 433.141 -242.322 423.644 -242.59 411.66C-242.859 399.677 -233.361 389.746 -221.378 389.478L-201.747 389.038C-133.843 387.52 -77.5637 441.336 -76.0448 509.241L-74.0861 596.805C-73.3586 629.331 -46.4014 655.109 -13.8757 654.381Z" fill="#F4F4F4"/>
<path fill-rule="evenodd" clip-rule="evenodd" d="M234.075 392.779C233.432 360.252 206.541 334.405 174.014 335.048L149.288 335.537C137.304 335.774 127.397 326.252 127.16 314.268C126.923 302.284 136.445 292.377 148.429 292.14L173.155 291.651C229.65 290.533 276.355 335.425 277.472 391.921C278.59 448.416 233.698 495.12 177.203 496.238L89.6331 497.971C45.6923 498.84 10.7761 535.166 11.6454 579.106L12.0338 598.738C12.2709 610.722 2.74831 620.629 -9.23549 620.866C-21.2194 621.103 -31.1264 611.581 -31.3635 599.597L-31.7519 579.965C-33.0954 512.057 20.8661 455.917 88.7745 454.573L176.344 452.841C208.872 452.197 234.719 425.307 234.075 392.779Z" fill="#F4F4F4"/>
<path fill-rule="evenodd" clip-rule="evenodd" d="M1459 704.839C1627.36 704.839 1763.84 568.358 1763.84 400C1763.84 231.642 1627.36 95.1613 1459 95.1613C1290.64 95.1613 1154.16 231.642 1154.16 400C1154.16 568.358 1290.64 704.839 1459 704.839ZM1459 750C1652.3 750 1809 593.3 1809 400C1809 206.7 1652.3 50 1459 50C1265.7 50 1109 206.7 1109 400C1109 593.3 1265.7 750 1459 750Z" fill="#F4F4F4"/>
<path fill-rule="evenodd" clip-rule="evenodd" d="M1451.8 145.43C1419.28 146.158 1393.5 173.115 1394.23 205.641L1394.78 230.365C1395.05 242.348 1385.55 252.28 1373.57 252.548C1361.59 252.816 1351.65 243.319 1351.39 231.336L1350.83 206.611C1349.57 150.119 1394.34 103.299 1450.83 102.035C1507.33 100.772 1554.15 145.543 1555.41 202.035L1557.37 289.6C1558.35 333.539 1594.77 368.361 1638.7 367.378L1658.34 366.939C1670.32 366.671 1680.25 376.168 1680.52 388.151C1680.79 400.134 1671.29 410.066 1659.31 410.334L1639.68 410.773C1571.77 412.292 1515.49 358.476 1513.97 290.571L1512.01 203.006C1511.29 170.48 1484.33 144.703 1451.8 145.43Z" fill="#F4F4F4"/>
<path fill-rule="evenodd" clip-rule="evenodd" d="M1465.12 654.381C1497.65 653.654 1523.43 626.696 1522.7 594.171L1522.15 569.446C1521.88 557.463 1531.38 547.532 1543.36 547.264C1555.34 546.995 1565.27 556.492 1565.54 568.476L1566.1 593.2C1567.36 649.692 1522.59 696.512 1466.1 697.776C1409.6 699.04 1362.78 654.268 1361.52 597.776L1359.56 510.211C1358.58 466.273 1322.16 431.451 1278.22 432.433L1258.59 432.872C1246.61 433.141 1236.68 423.644 1236.41 411.66C1236.14 399.677 1245.64 389.746 1257.62 389.478L1277.25 389.038C1345.16 387.52 1401.44 441.336 1402.96 509.241L1404.91 596.805C1405.64 629.331 1432.6 655.109 1465.12 654.381Z" fill="#F4F4F4"/>
<path fill-rule="evenodd" clip-rule="evenodd" d="M1203.86 407.038C1204.5 439.566 1231.39 465.413 1263.92 464.77L1288.64 464.28C1300.63 464.043 1310.54 473.566 1310.77 485.55C1311.01 497.534 1301.49 507.441 1289.5 507.678L1264.78 508.167C1208.28 509.285 1161.58 464.392 1160.46 407.897C1159.34 351.402 1204.23 304.697 1260.73 303.58L1348.3 301.847C1392.24 300.978 1427.16 264.652 1426.29 220.711L1425.9 201.079C1425.66 189.095 1435.18 179.188 1447.17 178.951C1459.15 178.714 1469.06 188.237 1469.3 200.221L1469.68 219.853C1471.03 287.761 1417.07 343.901 1349.16 345.244L1261.59 346.977C1229.06 347.62 1203.21 374.511 1203.86 407.038Z" fill="#F4F4F4"/>
</g>
<defs>
<clipPath id="clip0">
<rect width="1440" height="800" fill="white"/>
</clipPath>
</defs>
</svg>
