<svg width="178" height="178" viewBox="0 0 178 178" fill="none" xmlns="http://www.w3.org/2000/svg">
<path fill-rule="evenodd" clip-rule="evenodd" d="M89 166.516C131.811 166.516 166.516 131.811 166.516 89C166.516 46.189 131.811 11.4839 89 11.4839C46.189 11.4839 11.4839 46.189 11.4839 89C11.4839 131.811 46.189 166.516 89 166.516ZM89 178C138.153 178 178 138.153 178 89C178 39.8467 138.153 0 89 0C39.8467 0 0 39.8467 0 89C0 138.153 39.8467 178 89 178Z" fill="url(#paint0_linear)"/>
<path fill-rule="evenodd" clip-rule="evenodd" d="M87.17 24.2666C78.8992 24.4516 72.3443 31.3064 72.5293 39.5772L72.67 45.8643C72.7381 48.9114 70.3232 51.4369 67.276 51.505C64.2289 51.5732 61.7034 49.1582 61.6353 46.1111L61.4946 39.824C61.1733 25.4589 72.5581 13.5532 86.9232 13.2318C101.288 12.9105 113.194 24.2953 113.515 38.6604L114.013 60.9269C114.263 72.0998 123.523 80.9546 134.696 80.7047L139.688 80.593C142.735 80.5249 145.261 82.9398 145.329 85.987C145.397 89.0341 142.982 91.5596 139.935 91.6277L134.943 91.7394C117.676 92.1256 103.365 78.4409 102.979 61.1737L102.481 38.9073C102.296 30.6364 95.4409 24.0816 87.17 24.2666Z" fill="url(#paint1_linear)"/>
<path fill-rule="evenodd" clip-rule="evenodd" d="M90.5572 153.685C98.8281 153.5 105.383 146.646 105.198 138.375L105.057 132.088C104.989 129.041 107.404 126.515 110.451 126.447C113.498 126.379 116.024 128.794 116.092 131.841L116.233 138.128C116.554 152.493 105.169 164.399 90.8041 164.72C76.4389 165.042 64.5332 153.657 64.2119 139.292L63.7138 117.025C63.4639 105.852 54.2039 96.9974 43.031 97.2473L38.0391 97.359C34.9919 97.4272 32.4665 95.0122 32.3983 91.9651C32.3302 88.9179 34.7451 86.3924 37.7923 86.3243L42.7842 86.2126C60.0513 85.8264 74.3623 99.5111 74.7485 116.778L75.2466 139.045C75.4316 147.316 82.2864 153.87 90.5572 153.685Z" fill="url(#paint2_linear)"/>
<path fill-rule="evenodd" clip-rule="evenodd" d="M153.608 87.1639C153.444 78.8926 146.606 72.32 138.335 72.4837L132.048 72.6081C129 72.6684 126.481 70.2469 126.421 67.1996C126.36 64.1523 128.782 61.633 131.829 61.5728L138.117 61.4484C152.483 61.1641 164.359 72.5796 164.643 86.9455C164.927 101.311 153.512 113.188 139.146 113.472L116.878 113.913C105.705 114.134 96.826 123.371 97.0471 134.544L97.1459 139.536C97.2061 142.584 94.7847 145.103 91.7374 145.163C88.69 145.223 86.1708 142.802 86.1105 139.755L86.0118 134.763C85.6701 117.494 99.3918 103.219 116.66 102.877L138.928 102.437C147.199 102.273 153.771 95.4352 153.608 87.1639Z" fill="url(#paint3_linear)"/>
<path fill-rule="evenodd" clip-rule="evenodd" d="M24.1208 90.7898C24.2844 99.0611 31.1223 105.634 39.3936 105.47L45.681 105.346C48.7283 105.285 51.2475 107.707 51.3078 110.754C51.3681 113.801 48.9466 116.321 45.8993 116.381L39.6119 116.505C25.246 116.789 13.3697 105.374 13.0855 91.0081C12.8013 76.6422 24.2167 64.7659 38.5827 64.4817L60.8503 64.0411C72.0238 63.82 80.9025 54.5829 80.6815 43.4094L80.5827 38.4173C80.5224 35.37 82.9439 32.8507 85.9912 32.7905C89.0385 32.7302 91.5577 35.1516 91.618 38.1989L91.7168 43.1911C92.0584 60.4592 78.3368 74.7348 61.0687 75.0764L38.801 75.517C30.5297 75.6806 23.9571 82.5185 24.1208 90.7898Z" fill="url(#paint4_linear)"/>
<defs>
<linearGradient id="paint0_linear" x1="0" y1="89" x2="178" y2="89" gradientUnits="userSpaceOnUse">
<stop stop-color="#F8BE36"/>
<stop offset="1" stop-color="#F5A154"/>
</linearGradient>
<linearGradient id="paint1_linear" x1="61.8024" y1="53.5846" x2="144.563" y2="51.7334" gradientUnits="userSpaceOnUse">
<stop stop-color="#FFB27D"/>
<stop offset="1" stop-color="#F9D423"/>
</linearGradient>
<linearGradient id="paint2_linear" x1="115.925" y1="124.367" x2="33.1645" y2="126.219" gradientUnits="userSpaceOnUse">
<stop stop-color="#FFB27D"/>
<stop offset="1" stop-color="#F9D423"/>
</linearGradient>
<linearGradient id="paint3_linear" x1="124.355" y1="61.7206" x2="125.993" y2="144.485" gradientUnits="userSpaceOnUse">
<stop stop-color="#FFB27D"/>
<stop offset="1" stop-color="#F9D423"/>
</linearGradient>
<linearGradient id="paint4_linear" x1="53.3732" y1="116.233" x2="51.7358" y2="33.4682" gradientUnits="userSpaceOnUse">
<stop stop-color="#FFB27D"/>
<stop offset="1" stop-color="#F9D423"/>
</linearGradient>
</defs>
</svg>
