<svg width="166" height="65" viewBox="0 0 166 65" fill="none" xmlns="http://www.w3.org/2000/svg">
<path d="M82 23.9541L80.7607 25.5239L82 23.9541ZM54.2095 57.9183L53.2718 59.6849L54.2095 57.9183ZM111.996 9.73182L110.885 11.3947L111.996 9.73182ZM156.236 63.9464C155.688 64.9054 154.467 65.2386 153.508 64.6906L137.879 55.7601C136.92 55.2121 136.587 53.9903 137.135 53.0313C137.683 52.0723 138.905 51.7391 139.864 52.2871L153.756 60.2253L161.694 46.3334C162.242 45.3744 163.464 45.0412 164.423 45.5892C165.382 46.1372 165.715 47.359 165.167 48.318L156.236 63.9464ZM0.137516 59.7253C4.67094 48.14 15.3808 31.1595 29.9192 20.8359C37.2162 15.6544 45.5742 12.0832 54.6623 11.8217C63.7832 11.5593 73.4267 14.6375 83.2393 22.3843L80.7607 25.5239C71.5794 18.2755 62.8334 15.5883 54.7774 15.82C46.6885 16.0528 39.0821 19.2354 32.2351 24.0973C18.4856 33.8607 8.18934 50.1254 3.86248 61.1829L0.137516 59.7253ZM83.2393 22.3843C92.8766 29.9927 97.6797 36.9655 98.5915 43.1788C99.5351 49.6089 96.2524 54.6309 91.2675 57.9841C86.335 61.3021 79.5657 63.1479 72.765 63.4834C65.9585 63.8193 58.8672 62.655 53.2718 59.6849L55.1472 56.1518C59.947 58.6995 66.2771 59.7987 72.5679 59.4883C78.8646 59.1776 84.8686 57.4677 89.0349 54.6651C93.1488 51.8978 95.2905 48.2346 94.6338 43.7595C93.9453 39.0677 90.1234 32.9155 80.7607 25.5239L83.2393 22.3843ZM53.2718 59.6849C45.4459 55.5308 42.5916 47.9582 43.3243 39.8457C44.0493 31.8184 48.2567 23.1124 54.6891 15.932C61.1365 8.73483 69.9567 2.91486 80.1002 0.827729C90.2929 -1.2695 101.683 0.43439 113.107 8.06897L110.885 11.3947C100.323 4.33624 90.0188 2.87068 80.9064 4.74565C71.7448 6.63073 63.6493 11.9246 57.6684 18.601C51.6724 25.2943 47.9388 33.2217 47.308 40.2055C46.685 47.1043 49.0602 52.9208 55.1472 56.1518L53.2718 59.6849ZM113.107 8.06897C129.551 19.0582 139.623 29.7928 145.972 39.2489C152.328 48.7131 154.899 56.8166 156.43 62.4279L152.57 63.4803C151.101 58.0915 148.672 50.4451 142.652 41.4787C136.625 32.5042 126.945 22.1277 110.885 11.3947L113.107 8.06897Z" fill="#FFD466"/>
</svg>
