<svg width="114" height="130" viewBox="0 0 114 130" fill="none" xmlns="http://www.w3.org/2000/svg">
<path d="M113.125 117.858V59.2384C113.125 57.1278 111.408 55.411 109.298 55.411H94.9985C94.9925 55.411 94.9866 55.412 94.9806 55.412V18.789C94.9806 17.7377 94.1277 16.8847 93.0763 16.8847C92.024 16.8847 91.172 17.7377 91.172 18.789V75.6004H89.839C85.8311 75.6004 82.57 78.8645 82.57 82.8774V87.2047V87.2097V93.6674C82.57 95.9436 83.776 98.0929 85.718 99.2762L86.811 99.9427V103.426C86.811 104.376 86.4133 105.292 85.722 105.937C85.721 105.938 85.72 105.939 85.72 105.939C85.3659 106.268 84.9503 106.514 84.4842 106.671L81.2419 107.763C80.3285 108.071 79.4715 108.482 78.6751 108.987C77.9669 107.945 77.1229 106.993 76.1737 106.178C74.7832 104.979 73.1913 104.073 71.4437 103.482L67.4457 102.135C66.7396 101.9 66.0929 101.49 65.5761 100.949C64.745 100.081 64.2868 98.936 64.2868 97.7259V93.1884L65.842 92.2402C68.1023 90.8625 69.5077 88.3602 69.5077 85.7101V78.6225C69.5077 78.6166 69.5077 78.6096 69.5077 78.6037V72.4266C69.5077 67.7294 65.6902 63.9079 60.9979 63.9079H58.6909V35.2681C58.6909 35.0807 58.8437 34.9269 59.0321 34.9269H72.6855C72.874 34.9269 73.0267 35.0807 73.0267 35.2681V98.7029C73.0267 99.7552 73.8787 100.607 74.931 100.607C75.9833 100.607 76.8353 99.7552 76.8353 98.7029V4.54749C76.8353 4.14085 77.1665 3.80859 77.5742 3.80859H90.4321C90.8398 3.80859 91.172 4.13985 91.172 4.54749V10.4349C91.172 11.4863 92.024 12.3392 93.0763 12.3392C94.1277 12.3392 94.9806 11.4863 94.9806 10.4349V4.54749C94.9806 2.04017 92.9395 0 90.4321 0H77.5742C75.0669 0 73.0267 2.04017 73.0267 4.54749V31.1362C72.9136 31.1273 72.8006 31.1183 72.6855 31.1183H59.0311C56.743 31.1183 54.8814 32.98 54.8814 35.2681V63.9079H52.8223C49.466 63.9079 46.559 65.8637 45.1744 68.6964H40.5456V47.2116C40.5456 45.2567 38.9547 43.6668 37.0008 43.6668H22.6046V28.9353C22.6046 26.8793 20.9314 25.2071 18.8763 25.2071H4.37891C2.32287 25.2071 0.650665 26.8793 0.650665 28.9353V118.465C0.639755 118.655 0.632812 118.851 0.632812 119.062V128.095C0.632812 129.147 1.48578 130 2.53711 130C3.58943 130 4.4414 129.147 4.4414 128.095V124.335C4.45231 124.255 4.45925 124.174 4.45925 124.09V118.577C4.65464 115.257 6.81085 112.432 9.95988 111.372L13.2021 110.281C13.8052 110.078 14.3685 109.802 14.8892 109.457C15.9039 109.762 16.9363 109.98 17.9817 110.108L14.6482 121.893C14.4707 122.52 14.6264 123.196 15.0628 123.682L19.035 128.111C19.3851 128.502 19.8801 128.73 20.4047 128.743C20.4206 128.744 20.4365 128.744 20.4523 128.744C20.9592 128.744 21.4461 128.542 21.8042 128.181L26.197 123.752C26.6939 123.25 26.8734 122.515 26.6631 121.842L22.9735 110.049C24.0616 109.89 25.1347 109.634 26.186 109.284C26.7762 109.712 27.4308 110.05 28.1231 110.281L31.3653 111.373C32.1122 111.624 32.8054 111.977 33.4392 112.425C32.9453 113.887 32.6944 115.411 32.6944 116.974V128.095C32.6944 129.148 33.5463 130 34.5987 130C35.65 130 36.5029 129.148 36.5029 128.095V116.974C36.5029 115.464 36.8203 114.003 37.4472 112.633C38.6413 110.024 40.8818 108.004 43.5955 107.092L47.5836 105.747C48.3552 105.489 49.0703 105.126 49.7259 104.669C51.1809 105.12 52.6686 105.419 54.1762 105.569L49.9302 120.578C49.7527 121.206 49.9084 121.883 50.3448 122.369L55.2354 127.821C55.5856 128.21 56.0805 128.44 56.6051 128.452C56.621 128.453 56.6369 128.453 56.6528 128.453C57.1596 128.453 57.6466 128.251 58.0046 127.89L63.413 122.438C63.9099 121.936 64.0884 121.202 63.8782 120.528L59.1799 105.512C60.747 105.319 62.2903 104.963 63.7948 104.446C64.5328 105.009 65.3589 105.453 66.2357 105.746L70.2268 107.092C71.5062 107.523 72.6706 108.187 73.6902 109.065C74.8239 110.038 75.7522 111.273 76.3761 112.633C77.0029 114.003 77.3203 115.464 77.3203 116.974V128.095C77.3203 129.148 78.1732 130 79.2246 130C80.2769 130 81.1289 129.148 81.1289 128.095V116.974C81.1289 115.411 80.8779 113.887 80.384 112.424C81.0158 111.978 81.7091 111.625 82.4579 111.372L85.7002 110.281C86.3032 110.078 86.8665 109.802 87.3872 109.457C88.4019 109.762 89.4344 109.98 90.4797 110.108L87.1452 121.893C86.9677 122.52 87.1234 123.196 87.5598 123.682L91.5321 128.111C91.8822 128.501 92.3781 128.73 92.9028 128.743C92.9186 128.744 92.9345 128.744 92.9504 128.744C93.4572 128.744 93.9442 128.542 94.3022 128.181L98.695 123.751C99.1919 123.25 99.3704 122.515 99.1601 121.842L95.4706 110.048C96.5586 109.89 97.6318 109.634 98.6831 109.284C99.2722 109.711 99.9278 110.049 100.621 110.28L103.863 111.372C106.807 112.364 108.937 114.984 109.317 118.072V124.089C109.317 124.257 109.341 124.419 109.382 124.573V128.095C109.382 129.147 110.234 130 111.286 130C112.337 130 113.19 129.147 113.19 128.095V119.062C113.189 118.649 113.166 118.244 113.125 117.858ZM56.8263 101.872C55.3564 101.903 53.9005 101.764 52.4742 101.457C53.0396 100.306 53.344 99.0282 53.344 97.7259V95.4924C54.4628 96.0855 55.6857 96.384 56.9106 96.384C58.1345 96.384 59.3594 96.0855 60.4782 95.4914V97.7259C60.4782 98.9578 60.741 100.154 61.2389 101.245C59.7958 101.627 58.32 101.84 56.8263 101.872ZM63.8603 88.988L58.9002 92.0121C57.6733 92.7599 56.1479 92.7599 54.921 92.0121L49.9609 88.988C48.8263 88.2967 48.1221 87.0411 48.1221 85.7101V78.9468L53.596 76.0894L65.6991 79.9843V85.7101C65.6981 87.0411 64.9939 88.2967 63.8603 88.988ZM52.8223 67.7165H56.7708C56.7767 67.7165 56.7807 67.7175 56.7857 67.7175C56.7906 67.7175 56.7956 67.7165 56.8005 67.7165H60.9979C63.5895 67.7165 65.6981 69.829 65.6981 72.4266V75.9833L54.0036 72.2193C53.5186 72.0626 52.991 72.1082 52.5387 72.3443L48.1221 74.6503V72.4266C48.1221 69.829 50.2307 67.7165 52.8223 67.7165ZM27.4427 85.2756L18.4102 82.3686C17.9262 82.2129 17.3975 82.2575 16.9463 82.4936L13.8805 84.0934V82.8774C13.8805 80.9652 15.4337 79.409 17.341 79.409H23.9822C25.8905 79.409 27.4427 80.9652 27.4427 82.8774V85.2756ZM13.8805 88.3899L18.0025 86.2387L27.4427 89.2766V93.6674C27.4427 94.6245 26.9359 95.5271 26.1206 96.025L22.0918 98.4807C21.2101 99.0183 20.1141 99.0183 19.2324 98.4807L15.2026 96.025C14.3874 95.5271 13.8805 94.6245 13.8805 93.6674V88.3899ZM20.5852 106.437C19.5706 106.459 18.5619 106.374 17.5691 106.191C17.9291 105.321 18.1226 104.382 18.1226 103.426V102.177C18.9358 102.521 19.7987 102.695 20.6616 102.695C21.5255 102.695 22.3894 102.521 23.2027 102.177V103.426C23.2027 104.332 23.3703 105.215 23.6877 106.038C22.67 106.278 21.6336 106.414 20.5852 106.437ZM20.5218 124.065L18.5976 121.92L20.5436 115.041L22.6849 121.884L20.5218 124.065ZM29.3341 106.67C28.8054 106.494 28.3442 106.201 27.9594 105.798C27.3485 105.16 27.0112 104.317 27.0112 103.426V99.9417L28.1032 99.2762C30.0452 98.0929 31.2513 95.9436 31.2513 93.6674V87.9149C31.2513 87.9089 31.2513 87.902 31.2513 87.896V82.8774C31.2513 78.8645 27.9902 75.6004 23.9822 75.6004H17.342C13.3341 75.6004 10.0729 78.8645 10.0729 82.8774V87.2047V87.2097V93.6674C10.0729 95.9436 11.279 98.0929 13.221 99.2762L14.314 99.9427V103.426C14.314 104.376 13.9153 105.293 13.223 105.939C12.8689 106.267 12.4523 106.514 11.9872 106.671L8.7449 107.763C7.11435 108.312 5.6653 109.183 4.45925 110.293V29.0157H18.796V68.5546C18.796 69.6059 19.648 70.4588 20.7003 70.4588C21.7516 70.4588 22.6046 69.6059 22.6046 68.5546V47.4754H36.737V107.043C36.1528 107.642 35.6202 108.293 35.1481 108.988C34.3487 108.482 33.4918 108.071 32.5803 107.763L29.3341 106.67ZM42.3795 103.482C41.7477 103.695 41.1367 103.955 40.5456 104.252V72.505H44.3135V77.7616V77.7666V85.7101C44.3135 88.3602 45.7179 90.8625 47.9783 92.2402L49.5355 93.1894V97.7259C49.5355 99.0163 48.9939 100.261 48.0497 101.141C47.5677 101.59 47.0033 101.924 46.3696 102.137L42.3795 103.482ZM56.7222 123.775L53.8796 120.606L56.744 110.483L59.9 120.571L56.7222 123.775ZM89.839 79.409H93.0634C93.0674 79.409 93.0724 79.41 93.0763 79.41C93.0803 79.41 93.0843 79.409 93.0882 79.409H96.4802C98.3875 79.409 99.9407 80.9652 99.9407 82.8774V85.2756L90.9082 82.3686C90.4232 82.2119 89.8956 82.2575 89.4433 82.4936L86.3786 84.0934V82.8774C86.3786 80.9652 87.9308 79.409 89.839 79.409ZM86.3786 88.3899L90.4996 86.2387L99.9407 89.2766V93.6674C99.9407 94.6245 99.4339 95.5271 98.6186 96.025C98.6176 96.025 98.6176 96.025 98.6176 96.025L94.5888 98.4807C93.7071 99.0183 92.6112 99.0183 91.7294 98.4807L87.7007 96.025C86.8854 95.5271 86.3786 94.6245 86.3786 93.6674V88.3899ZM93.0833 106.437C92.0667 106.459 91.058 106.374 90.0671 106.191C90.4262 105.321 90.6196 104.382 90.6196 103.426V102.178C91.4329 102.521 92.2958 102.695 93.1596 102.695C94.0235 102.695 94.8864 102.521 95.7007 102.177V103.426C95.7007 104.332 95.8683 105.216 96.1857 106.038C95.1681 106.278 94.1306 106.414 93.0833 106.437ZM93.0198 124.065L91.0957 121.92L93.0416 115.041L95.182 121.884L93.0198 124.065ZM105.077 107.763L101.832 106.67C101.308 106.496 100.835 106.195 100.457 105.797C99.8455 105.159 99.5093 104.317 99.5093 103.426V99.9417L100.6 99.2762C102.542 98.0919 103.749 95.9426 103.749 93.6664V87.9149C103.749 87.9079 103.749 87.902 103.749 87.895V82.8774C103.749 78.8645 100.488 75.5994 96.4802 75.5994H94.9806V59.2384C94.9806 59.2275 94.9885 59.2195 94.9985 59.2195H109.298C109.308 59.2195 109.316 59.2275 109.316 59.2384V110.274C108.112 109.169 106.677 108.303 105.077 107.763Z" fill="white"/>
</svg>
