<svg width="130" height="130" viewBox="0 0 130 130" fill="none" xmlns="http://www.w3.org/2000/svg">
<path d="M52.0072 39.0485H77.9934C78.5677 39.0488 79.1186 38.8206 79.5249 38.4143C79.9309 38.0083 80.1591 37.4574 80.1591 36.8828V31.9333C80.1032 26.4505 76.9572 21.4693 72.0303 19.063C75.4798 16.1185 76.7286 11.3365 75.1595 7.08122C73.5902 2.82625 69.5357 0 65.0003 0C60.4652 0 56.4104 2.8265 54.8413 7.08148C53.2723 11.3367 54.5211 16.1188 57.9706 19.0633C53.0439 21.4693 49.8976 26.4508 49.8418 31.9335V36.8831C49.8415 37.4574 50.0697 38.0083 50.476 38.4146C50.882 38.8204 51.4329 39.0485 52.0072 39.0485ZM65.0003 4.40013C68.5881 4.40013 71.4968 7.30886 71.4968 10.8967C71.4968 14.4845 68.5881 17.3932 65.0003 17.3932C61.414 17.3894 58.5076 14.483 58.5038 10.8967C58.5038 7.30886 61.4125 4.40013 65.0003 4.40013ZM54.1729 31.9333C54.3551 26.1293 59.1958 21.5652 65.0006 21.7243C70.8051 21.5652 75.646 26.1293 75.8282 31.9333V34.7174H54.1729V31.9333Z" fill="white"/>
<path d="M26.0216 82.3585H52.0078C52.5821 82.3587 53.133 82.1306 53.5393 81.7243C53.9453 81.3183 54.1734 80.7673 54.1734 80.1928V75.2432C54.1176 69.7605 50.9716 64.7792 46.0447 62.373C49.4942 59.4285 50.743 54.6464 49.1739 50.3912C47.6048 46.1362 43.5501 43.3097 39.0149 43.3097C34.4798 43.3097 30.4251 46.1362 28.856 50.3912C27.2869 54.6464 28.5357 59.4285 31.9852 62.373C27.0585 64.7792 23.9123 69.7605 23.8564 75.2432V80.1928C23.8562 80.7671 24.0843 81.318 24.4906 81.7243C24.8964 82.1306 25.4473 82.3587 26.0216 82.3585ZM39.0147 47.7104C42.6025 47.7104 45.5112 50.6188 45.5112 54.2069C45.5112 57.7947 42.6028 60.7034 39.0147 60.7034C35.4284 60.6996 32.522 57.7932 32.5182 54.2069C32.5182 50.6191 35.4269 47.7104 39.0147 47.7104ZM28.1873 75.2435C28.3695 69.4395 33.2102 64.8754 39.0149 65.0345C44.8194 64.8754 49.6601 69.4395 49.8426 75.2435V78.0276H28.1873V75.2435Z" fill="white"/>
<path d="M83.9569 62.3732C79.0302 64.7795 75.884 69.7608 75.8281 75.2435V80.193C75.8279 80.7673 76.056 81.3182 76.4623 81.7245C76.8683 82.1306 77.4193 82.3587 77.9938 82.3587H103.98C104.554 82.359 105.105 82.1308 105.511 81.7245C105.917 81.3185 106.146 80.7676 106.146 80.193V75.2435C106.09 69.7608 102.944 64.7795 98.0168 62.3732C100.416 60.3375 101.804 57.3534 101.815 54.2069C101.846 49.1916 98.4302 44.811 93.5583 43.6198C88.6864 42.4289 83.6344 44.7392 81.3489 49.2033C79.0635 53.6674 80.1422 59.1171 83.9569 62.3732ZM101.814 75.2435V78.0276H80.1592V75.2435C80.4965 69.5105 85.244 65.0343 90.9869 65.0343C96.7297 65.0343 101.477 69.5105 101.814 75.2435ZM90.9866 47.7103C94.5744 47.7103 97.4832 50.6188 97.4832 54.2069C97.4832 57.7947 94.5747 60.7034 90.9866 60.7034C87.4003 60.6996 84.4939 57.7932 84.4901 54.2069C84.4901 50.6191 87.3988 47.7103 90.9866 47.7103Z" fill="white"/>
<path d="M72.0303 110.015C75.4798 107.07 76.7286 102.288 75.1595 98.0331C73.5905 93.7778 69.5357 90.9516 65.0003 90.9516C60.4652 90.9516 56.4104 93.7778 54.8413 98.0331C53.2723 102.288 54.5211 107.07 57.9706 110.015C53.0439 112.421 49.8976 117.402 49.8418 122.885V127.835C49.8415 128.409 50.0697 128.96 50.476 129.366C50.882 129.772 51.4329 130 52.0075 130H77.9936C78.5679 130.001 79.1189 129.772 79.5251 129.366C79.9312 128.96 80.1593 128.409 80.1593 127.835V122.885C80.1032 117.402 76.957 112.421 72.0303 110.015ZM62.5144 95.8463C64.9419 94.8409 67.7362 95.3966 69.5943 97.2545C71.4524 99.1126 72.0082 101.907 71.0025 104.334C69.997 106.762 67.6281 108.345 65.0006 108.345C61.4143 108.341 58.5078 105.435 58.504 101.848C58.5038 99.2207 60.0868 96.8517 62.5144 95.8463ZM75.8279 125.669H54.1729V122.885C54.3551 117.081 59.1958 112.517 65.0006 112.676C70.8051 112.517 75.646 117.081 75.8282 122.885V125.669H75.8279Z" fill="white"/>
<path d="M22.2234 110.015C25.6729 107.07 26.9217 102.288 25.3526 98.0331C23.7835 93.7778 19.7288 90.9516 15.1937 90.9516C10.6585 90.9516 6.60376 93.7778 5.0347 98.0331C3.46563 102.288 4.71444 107.07 8.16395 110.015C3.23724 112.421 0.0909861 117.402 0.0351565 122.885V127.835C0.0349027 128.409 0.263043 128.96 0.66933 129.366C1.07536 129.772 1.6263 130 2.20084 130H28.187C28.7613 130.001 29.3122 129.772 29.7185 129.366C30.1245 128.96 30.3527 128.409 30.3527 127.835V122.885C30.2963 117.402 27.1503 112.421 22.2234 110.015ZM12.7075 95.8463C15.135 94.8409 17.9293 95.3966 19.7874 97.2545C21.6455 99.1126 22.2013 101.907 21.1956 104.334C20.1902 106.762 17.8212 108.345 15.1937 108.345C11.6074 108.341 8.70093 105.435 8.69712 101.848C8.69712 99.2207 10.2799 96.8517 12.7075 95.8463ZM26.021 125.669H4.36601V122.885C4.54822 117.081 9.3889 112.517 15.1937 112.676C20.9982 112.517 25.8391 117.081 26.0213 122.885V125.669H26.021Z" fill="white"/>
<path d="M121.838 110.015C125.287 107.07 126.536 102.288 124.967 98.0331C123.398 93.7778 119.343 90.9516 114.808 90.9516C110.273 90.9516 106.218 93.7778 104.649 98.0331C103.08 102.288 104.329 107.07 107.778 110.015C102.852 112.421 99.7052 117.402 99.6494 122.885V127.835C99.6492 128.409 99.8773 128.96 100.284 129.366C100.69 129.772 101.241 130 101.815 130H127.801C128.376 130.001 128.926 129.772 129.333 129.366C129.739 128.96 129.967 128.409 129.967 127.835V122.885C129.911 117.402 126.764 112.421 121.838 110.015ZM112.321 95.8463C114.749 94.8409 117.543 95.3966 119.401 97.2545C121.26 99.1126 121.815 101.907 120.81 104.334C119.804 106.762 117.435 108.345 114.808 108.345C111.221 108.341 108.315 105.435 108.311 101.848C108.311 99.2207 109.894 96.8517 112.321 95.8463ZM125.635 125.669H103.98V122.885C104.318 117.152 109.065 112.676 114.808 112.676C120.551 112.676 125.298 117.152 125.636 122.885V125.669H125.635Z" fill="white"/>
<path d="M66.5316 44.0135C66.1256 43.6075 65.5746 43.3794 65.0001 43.3794C64.4258 43.3791 63.8749 43.6073 63.4686 44.0135C63.0626 44.4196 62.8344 44.9705 62.8344 45.545V58.5381H58.5033C57.3073 58.5381 56.3379 59.5075 56.3379 60.7035C56.3379 61.8996 57.3073 62.869 58.5033 62.869H71.4964C72.6924 62.869 73.6618 61.8996 73.6618 60.7035C73.6618 59.5075 72.6924 58.5381 71.4964 58.5381H67.1658V45.545C67.1658 44.9705 66.9377 44.4198 66.5316 44.0135Z" fill="white"/>
<path d="M45.5103 106.179H41.1795V93.1863C41.1797 92.6121 40.9516 92.0611 40.5453 91.6548C40.1393 91.2488 39.5883 91.0207 39.0138 91.0207C38.4395 91.0204 37.8886 91.2485 37.4823 91.6548C37.0762 92.0609 36.8481 92.6118 36.8481 93.1863V106.179H32.517C31.321 106.179 30.3516 107.149 30.3516 108.345C30.3516 109.541 31.321 110.51 32.517 110.51H45.5101C46.7061 110.51 47.6755 109.541 47.6755 108.345C47.6755 107.149 46.7063 106.179 45.5103 106.179Z" fill="white"/>
<path d="M95.3177 106.179H90.9866V93.1861C90.9866 91.9901 90.0172 91.0207 88.8211 91.0207C87.6251 91.0207 86.6557 91.9901 86.6557 93.1861V106.179H82.3246C81.1286 106.179 80.1592 107.149 80.1592 108.345C80.1592 109.541 81.1286 110.51 82.3246 110.51H95.3177C96.5137 110.51 97.4831 109.541 97.4831 108.345C97.4831 107.149 96.5137 106.179 95.3177 106.179Z" fill="white"/>
</svg>
