<svg width="117" height="117" viewBox="0 0 117 117" fill="none" xmlns="http://www.w3.org/2000/svg">
<path d="M117 58.5C117 90.8087 90.8087 117 58.5 117C26.1913 117 0 90.8087 0 58.5C0 26.1913 26.1913 0 58.5 0C90.8087 0 117 26.1913 117 58.5Z" fill="#FFD466"/>
<path d="M111.957 58.5006C111.957 88.024 88.0238 111.957 58.5004 111.957C28.9769 111.957 5.04346 88.024 5.04346 58.5006C5.04346 28.9771 28.9769 5.04367 58.5004 5.04367C88.0238 5.04367 111.957 28.9771 111.957 58.5006Z" fill="#1E1D29"/>
<path fill-rule="evenodd" clip-rule="evenodd" d="M111.795 62.6989L109.784 62.5426C109.887 61.2093 109.94 59.8613 109.94 58.5006C109.94 57.1399 109.887 55.7919 109.784 54.4585L111.795 54.3022C111.902 55.6875 111.957 57.0877 111.957 58.5006C111.957 59.9135 111.902 61.3136 111.795 62.6989ZM110.492 46.0159L108.53 46.4853C107.897 43.8419 107.061 41.2779 106.038 38.8106L107.901 38.0379C108.964 40.6026 109.834 43.268 110.492 46.0159ZM104.087 30.5661C102.618 28.174 100.966 25.9064 99.1503 23.7827L97.617 25.0935C99.3644 27.1375 100.954 29.3199 102.368 31.6218L104.087 30.5661ZM93.2182 17.8506L91.9074 19.3839C89.8634 17.6366 87.681 16.0467 85.3792 14.6332L86.4348 12.9142C88.8269 14.3832 91.0945 16.0351 93.2182 17.8506ZM78.963 9.10001L78.1903 10.9634C75.7231 9.94026 73.159 9.10371 70.5156 8.47127L70.985 6.5094C73.7329 7.16684 76.3983 8.03647 78.963 9.10001ZM62.6987 5.20611L62.5424 7.21729C61.2091 7.1137 59.8611 7.06091 58.5004 7.06091C57.1396 7.06091 55.7916 7.1137 54.4583 7.21729L54.302 5.20611C55.6873 5.09849 57.0874 5.04367 58.5004 5.04367C59.9133 5.04367 61.3134 5.09849 62.6987 5.20611ZM46.0157 6.5094L46.4851 8.47127C43.8417 9.10371 41.2777 9.94026 38.8104 10.9634L38.0377 9.10001C40.6024 8.03647 43.2678 7.16684 46.0157 6.5094ZM30.5659 12.9142C28.1738 14.3832 25.9062 16.0351 23.7825 17.8506L25.0933 19.384C27.1373 17.6366 29.3197 16.0467 31.6215 14.6332L30.5659 12.9142ZM17.8504 23.7827L19.3837 25.0935C17.6364 27.1375 16.0465 29.3199 14.633 31.6218L12.914 30.5662C14.3829 28.174 16.0349 25.9064 17.8504 23.7827ZM9.09979 38.0379L10.9632 38.8106C9.94005 41.2779 9.1035 43.8419 8.47106 46.4853L6.50919 46.0159C7.16663 43.268 8.03626 40.6026 9.09979 38.0379ZM5.20589 54.3022C5.09827 55.6875 5.04346 57.0877 5.04346 58.5006C5.04346 59.9135 5.09827 61.3136 5.20589 62.6989L7.21707 62.5427C7.11349 61.2093 7.0607 59.8613 7.0607 58.5006C7.0607 57.1399 7.11349 55.7919 7.21707 54.4585L5.20589 54.3022ZM6.50919 70.9852L8.47106 70.5158C9.1035 73.1592 9.94005 75.7233 10.9632 78.1905L9.0998 78.9632C8.03626 76.3985 7.16663 73.7331 6.50919 70.9852ZM12.914 86.435L14.633 85.3794C16.0465 87.6813 17.6364 89.8636 19.3837 91.9076L17.8504 93.2184C16.0349 91.0948 14.3829 88.8271 12.914 86.435ZM23.7825 99.1505L25.0933 97.6172C27.1373 99.3646 29.3197 100.954 31.6216 102.368L30.5659 104.087C28.1738 102.618 25.9062 100.966 23.7825 99.1505ZM38.0377 107.901L38.8104 106.038C41.2777 107.061 43.8417 107.897 46.4851 108.53L46.0157 110.492C43.2678 109.834 40.6024 108.965 38.0377 107.901ZM54.302 111.795L54.4583 109.784C55.7916 109.887 57.1396 109.94 58.5004 109.94C59.8611 109.94 61.2091 109.887 62.5424 109.784L62.6987 111.795C61.3134 111.903 59.9133 111.957 58.5004 111.957C57.0874 111.957 55.6873 111.903 54.302 111.795ZM70.985 110.492L70.5156 108.53C73.159 107.897 75.7231 107.061 78.1903 106.038L78.963 107.901C76.3983 108.965 73.7329 109.834 70.985 110.492ZM86.4348 104.087L85.3792 102.368C87.6811 100.954 89.8634 99.3646 91.9074 97.6172L93.2182 99.1505C91.0946 100.966 88.8269 102.618 86.4348 104.087ZM99.1503 93.2184L97.617 91.9076C99.3644 89.8636 100.954 87.6813 102.368 85.3794L104.087 86.435C102.618 88.8271 100.966 91.0948 99.1503 93.2184ZM107.901 78.9632L106.038 78.1905C107.061 75.7233 107.897 73.1592 108.53 70.5158L110.492 70.9852C109.834 73.7331 108.964 76.3985 107.901 78.9632Z" fill="white"/>
<path d="M38.1624 80.9895C38.0468 82.2135 37.595 83.1695 36.8071 83.8577C36.0191 84.5406 34.9711 84.8821 33.663 84.8821C32.7489 84.8821 31.9426 84.6667 31.2439 84.2359C30.5505 83.7999 30.0146 83.1827 29.6364 82.3842C29.2582 81.5857 29.0612 80.6585 29.0454 79.6026V78.5309C29.0454 77.4488 29.2372 76.4953 29.6206 75.6706C30.0041 74.8458 30.5531 74.2102 31.2675 73.7636C31.9872 73.3171 32.8172 73.0938 33.7576 73.0938C35.0236 73.0938 36.0427 73.4379 36.8149 74.1261C37.5872 74.8143 38.0363 75.7861 38.1624 77.0416H36.1767C36.0821 76.2169 35.8405 75.6233 35.4517 75.2608C35.0682 74.8931 34.5035 74.7092 33.7576 74.7092C32.8908 74.7092 32.2236 75.027 31.7561 75.6627C31.2938 76.2931 31.0574 77.2203 31.0469 78.4443V79.4608C31.0469 80.7005 31.2675 81.6461 31.7088 82.2975C32.1553 82.9489 32.8067 83.2746 33.663 83.2746C34.4457 83.2746 35.0341 83.0986 35.4281 82.7467C35.8221 82.3947 36.0716 81.809 36.1767 80.9895H38.1624Z" fill="#FFD466"/>
<path d="M43.6026 81.3519H42.6334V84.7245H40.7186V76.1985H42.6334V79.6026H43.4766L45.8326 76.1985H48.1966L45.1156 80.2803L48.4566 84.7245H45.9666L43.6026 81.3519Z" fill="#FFD466"/>
<path d="M55.6383 76.1985H57.5452V84.7245H55.6383V79.0352L52.2973 84.7245H50.3903V76.1985H52.2973V81.8878L55.6383 76.1985Z" fill="#FFD466"/>
<path d="M60.4245 83.1958C60.9551 82.6022 61.3097 82.0401 61.4883 81.5095C61.6722 80.9737 61.7825 80.2908 61.8193 79.4608L61.9296 76.1985H67.8474V83.1958H69.0293V87.2618H67.1224V84.7245H61.6538V87.2618H59.7154L59.7232 83.1958H60.4245ZM62.6703 83.1958H65.9404V77.8454H63.7892L63.7341 79.4765C63.6605 81.042 63.3059 82.2817 62.6703 83.1958Z" fill="#FFD466"/>
<path d="M74.0914 81.3519H73.1221V84.7245H71.2073V76.1985H73.1221V79.6026H73.9653L76.3214 76.1985H78.6853L75.6043 80.2803L78.9453 84.7245H76.4553L74.0914 81.3519Z" fill="#FFD466"/>
<path d="M85.8985 84.7245C85.8145 84.5616 85.7409 84.2964 85.6779 83.9286C85.0685 84.5643 84.3225 84.8821 83.44 84.8821C82.5837 84.8821 81.885 84.6378 81.344 84.1493C80.8029 83.6607 80.5323 83.0566 80.5323 82.3369C80.5323 81.4281 80.8685 80.732 81.541 80.2487C82.2186 79.7602 83.1852 79.5159 84.4407 79.5159H85.6148V78.9564C85.6148 78.5152 85.4914 78.1632 85.2445 77.9005C84.9976 77.6326 84.622 77.4987 84.1177 77.4987C83.6817 77.4987 83.3244 77.609 83.046 77.8296C82.7676 78.045 82.6284 78.3208 82.6284 78.657H80.7136C80.7136 78.1895 80.8685 77.7535 81.1785 77.349C81.4884 76.9392 81.9087 76.6188 82.4393 76.3876C82.9751 76.1565 83.5713 76.0409 84.228 76.0409C85.2261 76.0409 86.022 76.2931 86.6156 76.7974C87.2092 77.2964 87.5139 78.0004 87.5296 78.9092V82.7545C87.5296 83.5215 87.6373 84.1335 87.8527 84.5905V84.7245H85.8985ZM83.7946 83.3455C84.1728 83.3455 84.5274 83.2536 84.8584 83.0697C85.1946 82.8859 85.4467 82.639 85.6148 82.329V80.7215H84.5826C83.8734 80.7215 83.3402 80.845 82.983 81.0919C82.6258 81.3388 82.4471 81.6881 82.4471 82.1399C82.4471 82.5076 82.568 82.8018 82.8096 83.0225C83.0565 83.2378 83.3848 83.3455 83.7946 83.3455Z" fill="#FFD466"/>
<path d="M35.9296 50.1988C34.594 51.5108 33.0338 52.1668 31.249 52.1668C28.9678 52.1668 27.1416 51.3867 25.7705 49.8265C24.3994 48.2545 23.7139 46.1387 23.7139 43.4793C23.7139 41.789 24.0803 40.2407 24.8131 38.8341C25.5578 37.4157 26.592 36.3165 27.9158 35.5364C29.2396 34.7445 30.7289 34.3485 32.3837 34.3485C34.0857 34.3485 35.5986 34.774 36.9225 35.625C38.2463 36.4761 39.2746 37.6994 40.0074 39.2951C40.7402 40.8907 41.1126 42.7169 41.1244 44.7735V46.6706C41.1244 50.973 40.0547 54.3535 37.9153 56.812C35.7759 59.2705 32.7442 60.5825 28.82 60.748L27.5612 60.7657V56.4928L28.6959 56.4751C33.152 56.2742 35.5632 54.1821 35.9296 50.1988ZM32.5078 48.2485C33.3352 48.2485 34.0443 48.0358 34.6353 47.6103C35.2381 47.1848 35.6932 46.6706 36.0005 46.0678V43.958C36.0005 42.2205 35.6696 40.873 35.0077 39.9156C34.3458 38.9582 33.4593 38.4795 32.3482 38.4795C31.3199 38.4795 30.4748 38.9523 29.8129 39.8979C29.151 40.8316 28.82 42.0077 28.82 43.4261C28.82 44.8326 29.1391 45.991 29.7774 46.9011C30.4275 47.7994 31.3376 48.2485 32.5078 48.2485Z" fill="#FFD466"/>
<path d="M63.985 49.8442C63.985 53.4138 63.2463 56.1442 61.7688 58.0353C60.2913 59.9265 58.1283 60.8721 55.2798 60.8721C52.4666 60.8721 50.3154 59.9442 48.8262 58.0885C47.3369 56.2328 46.5745 53.5734 46.539 50.1102V45.3586C46.539 41.7536 47.2837 39.0173 48.773 37.1498C50.2741 35.2823 52.4312 34.3485 55.2443 34.3485C58.0574 34.3485 60.2086 35.2763 61.6979 37.1321C63.1872 38.9759 63.9496 41.6295 63.985 45.0927V49.8442ZM58.8611 44.6317C58.8611 42.4923 58.5656 40.938 57.9747 39.9688C57.3955 38.9878 56.4854 38.4972 55.2443 38.4972C54.0387 38.4972 53.1463 38.9641 52.5671 39.8979C51.9998 40.8198 51.6984 42.2677 51.6629 44.2416V50.5179C51.6629 52.6219 51.9466 54.188 52.5139 55.2163C53.0931 56.2328 54.015 56.7411 55.2798 56.7411C56.5326 56.7411 57.4369 56.2505 57.9924 55.2695C58.5479 54.2885 58.8375 52.7873 58.8611 50.7662V44.6317Z" fill="#FFD466"/>
<path d="M69.2046 39.6674C69.2046 38.0835 69.7188 36.8011 70.7471 35.8201C71.7754 34.8272 73.1229 34.3308 74.7895 34.3308C76.4797 34.3308 77.839 34.8213 78.8673 35.8023C79.8956 36.7715 80.4098 38.0895 80.4098 39.756V41.0326C80.4098 42.6282 79.8956 43.9107 78.8673 44.8799C77.839 45.8491 76.4915 46.3337 74.8249 46.3337C73.1465 46.3337 71.7872 45.8491 70.7471 44.8799C69.7188 43.8989 69.2046 42.581 69.2046 40.9262V39.6674ZM72.6087 41.0326C72.6087 41.7418 72.8097 42.315 73.2115 42.7524C73.6252 43.1779 74.163 43.3906 74.8249 43.3906C75.4868 43.3906 76.0128 43.172 76.4029 42.7346C76.7929 42.2973 76.9879 41.7122 76.9879 40.9794V39.6674C76.9879 38.9582 76.7929 38.3849 76.4029 37.9476C76.0128 37.5103 75.475 37.2916 74.7895 37.2916C74.1394 37.2916 73.6134 37.5103 73.2115 37.9476C72.8097 38.3731 72.6087 38.97 72.6087 39.7383V41.0326ZM81.5445 54.188C81.5445 52.5923 82.0645 51.3099 83.1047 50.3406C84.1448 49.3596 85.4923 48.8691 87.147 48.8691C88.8254 48.8691 90.1788 49.3537 91.2071 50.3229C92.2473 51.2803 92.7673 52.6041 92.7673 54.2944V55.5709C92.7673 57.1547 92.2591 58.4372 91.2426 59.4182C90.2261 60.3875 88.8727 60.8721 87.1825 60.8721C85.4805 60.8721 84.1153 60.3815 83.0869 59.4005C82.0586 58.4195 81.5445 57.1193 81.5445 55.5V54.188ZM84.9486 55.5709C84.9486 56.221 85.1613 56.7765 85.5868 57.2375C86.0123 57.6985 86.5442 57.9289 87.1825 57.9289C88.6245 57.9289 89.3455 57.1311 89.3455 55.5354V54.188C89.3455 53.4788 89.1446 52.9114 88.7427 52.4859C88.3408 52.0486 87.8089 51.8299 87.147 51.8299C86.4851 51.8299 85.9532 52.0486 85.5514 52.4859C85.1495 52.9114 84.9486 53.4965 84.9486 54.2412V55.5709ZM75.8355 58.5849L73.3356 57.2375L85.9414 37.0611L88.4413 38.4086L75.8355 58.5849Z" fill="#FFD466"/>
</svg>
