<svg width="18" height="19" viewBox="0 0 18 19" fill="none" xmlns="http://www.w3.org/2000/svg">
<path d="M7.79758 0.865346C8.12796 0.568506 8.55643 0.404297 9.00058 0.404297C9.44472 0.404297 9.87319 0.568506 10.2036 0.865346L16.8036 6.79575C16.9912 6.9645 17.1413 7.17082 17.244 7.40133C17.3468 7.63184 17.3999 7.88138 17.4 8.13375V16.5997C17.4 17.0771 17.2103 17.535 16.8728 17.8725C16.5352 18.2101 16.0774 18.3997 15.6 18.3997H12.6C12.1226 18.3997 11.6647 18.2101 11.3272 17.8725C10.9896 17.535 10.8 17.0771 10.8 16.5997V12.3997C10.8 12.2406 10.7368 12.088 10.6242 11.9755C10.5117 11.863 10.3591 11.7997 10.2 11.7997H7.79998C7.64085 11.7997 7.48823 11.863 7.37571 11.9755C7.26319 12.088 7.19998 12.2406 7.19998 12.3997V16.5997C7.19998 17.0771 7.01033 17.535 6.67277 17.8725C6.3352 18.2101 5.87737 18.3997 5.39998 18.3997H2.39998C1.92259 18.3997 1.46475 18.2101 1.12718 17.8725C0.789618 17.535 0.599976 17.0771 0.599976 16.5997V8.13375C0.599976 7.62375 0.815976 7.13775 1.19758 6.79575L7.79758 0.865346ZM9.40078 1.75815C9.29067 1.65931 9.14793 1.60464 8.99998 1.60464C8.85202 1.60464 8.70928 1.65931 8.59918 1.75815L1.99918 7.68855C1.93665 7.74467 1.88661 7.8133 1.8523 7.88999C1.81798 7.96668 1.80016 8.04973 1.79998 8.13375V16.5997C1.79998 16.7589 1.86319 16.9115 1.97571 17.024C2.08823 17.1365 2.24085 17.1997 2.39998 17.1997H5.39998C5.55911 17.1997 5.71172 17.1365 5.82424 17.024C5.93676 16.9115 5.99998 16.7589 5.99998 16.5997V12.3997C5.99998 11.9224 6.18962 11.4645 6.52718 11.127C6.86475 10.7894 7.32259 10.5997 7.79998 10.5997H10.2C10.6774 10.5997 11.1352 10.7894 11.4728 11.127C11.8103 11.4645 12 11.9224 12 12.3997V16.5997C12 16.7589 12.0632 16.9115 12.1757 17.024C12.2882 17.1365 12.4408 17.1997 12.6 17.1997H15.6C15.7591 17.1997 15.9117 17.1365 16.0242 17.024C16.1368 16.9115 16.2 16.7589 16.2 16.5997V8.13375C16.1998 8.04973 16.182 7.96668 16.1477 7.88999C16.1133 7.8133 16.0633 7.74467 16.0008 7.68855L9.40078 1.75815Z" fill="white"/>
</svg>
